<?xml version="1.0" encoding="UTF-8"?>
<svg id="Layer_1" data-name="Layer 1" xmlns="http://www.w3.org/2000/svg" viewBox="0 0 64 64">
  <defs>
    <style>
      .cls-1, .cls-2 {
        fill: #ff7300;
      }

      .cls-3 {
        fill: #fff;
      }

      .cls-4 {
        fill: #666;
      }

      .cls-2, .cls-5 {
        fill-rule: evenodd;
      }

      .cls-5 {
        fill: #11ab4b;
      }

      .cls-6 {
        fill: #2e51ff;
      }
    </style>
  </defs>
  <rect class="cls-3" width="64" height="64"/>
  <g>
    <path class="cls-4" d="M16.82,40.73l-.19-.63s-.02-.02-.03-.02h-1.55s-.02,0-.03.02l-.19.63s-.04.06-.08.06h-.59s-.04,0-.05-.02c0,0,0-.03,0-.06l1.27-3.97s.04-.06.08-.06h.73s.06.02.08.06l1.28,3.97v.03s-.02.05-.06.05h-.59s-.06-.02-.08-.06M15.22,39.54h1.19s.03,0,.02-.04l-.6-1.97s0-.02-.02-.02,0,0-.02.02l-.6,1.97s0,.04.02.04"/>
    <path class="cls-4" d="M18.55,40.71c-.19-.07-.33-.17-.43-.3s-.15-.27-.15-.43v-.05s0-.04.02-.05c0,0,.03-.02.05-.02h.52s.04,0,.05.02c0,0,.02.03.02.05h0c0,.11.05.19.16.27.11.07.24.11.41.11s.28-.03.38-.1c.1-.06.15-.15.15-.24s-.04-.16-.12-.2-.21-.09-.39-.14l-.22-.07c-.2-.06-.37-.12-.5-.19-.14-.07-.25-.16-.35-.27-.09-.12-.14-.26-.14-.44,0-.27.11-.49.32-.65.22-.16.5-.24.85-.24.24,0,.45.04.63.11.18.08.32.18.42.32.1.13.15.29.15.46,0,.02,0,.04-.02.05,0,0-.03.02-.05.02h-.5s-.04,0-.05-.02c0,0-.02-.03-.02-.05,0-.1-.05-.19-.15-.26s-.24-.1-.41-.1c-.15,0-.28.03-.37.09-.1.06-.14.14-.14.24,0,.09.05.17.14.21.09.05.25.1.46.16l.13.04c.21.06.38.13.52.19.14.06.26.15.36.27s.15.27.15.45c0,.28-.11.5-.33.65-.22.16-.51.24-.87.24-.25,0-.46-.04-.65-.11"/>
    <path class="cls-4" d="M21.38,40.71c-.19-.07-.33-.17-.43-.3s-.15-.27-.15-.43v-.05s0-.04.02-.05c0,0,.03-.02.05-.02h.52s.04,0,.05.02c0,0,.02.03.02.05h0c0,.11.05.19.16.27.11.07.24.11.41.11s.28-.03.38-.1c.1-.06.15-.15.15-.24s-.04-.16-.12-.2-.21-.09-.39-.14l-.22-.07c-.2-.06-.37-.12-.5-.19-.14-.07-.25-.16-.35-.27-.09-.12-.14-.26-.14-.44,0-.27.11-.49.32-.65.22-.16.5-.24.85-.24.24,0,.45.04.63.11.18.08.32.18.42.32.1.13.15.29.15.46,0,.02,0,.04-.02.05,0,0-.03.02-.05.02h-.5s-.04,0-.05-.02c0,0-.02-.03-.02-.05,0-.1-.05-.19-.15-.26s-.24-.1-.41-.1c-.15,0-.28.03-.37.09-.1.06-.14.14-.14.24,0,.09.05.17.14.21.09.05.25.1.46.16l.13.04c.21.06.38.13.52.19.14.06.26.15.36.27s.15.27.15.45c0,.28-.11.5-.33.65-.22.16-.51.24-.87.24-.25,0-.46-.04-.65-.11"/>
    <path class="cls-4" d="M26.36,39.28v.18s-.03.07-.08.07h-1.84s-.03,0-.03.03c0,.13.03.22.05.26.09.28.32.42.69.43.27,0,.48-.11.63-.33.02-.02.04-.04.06-.04s.03,0,.04.02l.36.3s.04.06.02.09c-.12.17-.28.31-.48.4s-.43.14-.67.14c-.31,0-.56-.07-.78-.21-.21-.14-.37-.33-.47-.58-.09-.21-.13-.5-.13-.88,0-.23.02-.41.07-.55.08-.27.23-.49.44-.65.22-.16.48-.24.78-.24.77,0,1.2.4,1.3,1.21.02.1.02.21.02.33M24.67,38.44c-.1.07-.16.17-.2.3-.02.07-.04.15-.05.26,0,.02,0,.03.02.03h1.19s.03,0,.03-.03c0-.1-.02-.17-.04-.22-.04-.14-.1-.25-.21-.33-.1-.08-.23-.12-.39-.12-.14,0-.27.04-.36.11"/>
    <path class="cls-4" d="M28.5,38.32s-.03.02-.05.02h-.6s-.03,0-.03.03v1.41c0,.15.03.26.1.32.06.07.17.1.31.1h.18s.04,0,.05.02c0,0,.02.03.02.05v.44s-.02.07-.07.08h-.31c-.31,0-.54-.05-.69-.15-.15-.11-.23-.31-.23-.6v-1.67s0-.03-.03-.03h-.33s-.04,0-.05-.02c0,0-.02-.03-.02-.05v-.41s0-.04.02-.05c0,0,.03-.02.05-.02h.33s.03,0,.03-.03v-.69s0-.04.02-.05c0,0,.03-.02.05-.02h.51s.04,0,.05.02c0,0,.02.03.02.05v.69s0,.03.03.03h.6s.04,0,.05.02c0,0,.02.03.02.05v.41s0,.04-.02.05"/>
    <path class="cls-4" d="M33.09,36.68h.54s.04,0,.05.02c0,0,.02.03.02.05v3.97s0,.04-.02.05c0,0-.03.02-.05.02h-.54s-.04,0-.05-.02c0,0-.02-.03-.02-.05v-2.8s0-.02,0-.02c0,0-.02,0-.02,0l-.73,1.13s-.05.05-.08.05h-.27s-.06-.02-.08-.05l-.74-1.12s0-.02-.02,0c0,0,0,0,0,.02v2.79s0,.04-.02.05c0,0-.03.02-.05.02h-.54s-.04,0-.05-.02c0,0-.02-.03-.02-.05v-3.97s0-.04.02-.05c0,0,.03-.02.05-.02h.54s.06.02.08.05l.96,1.45h.02s0,0,.02,0l.96-1.45s.05-.05.08-.05"/>
    <path class="cls-4" d="M36.29,37.87c.19.09.33.2.43.36.1.15.15.32.15.51v1.98s0,.04-.02.05c0,0-.03.02-.05.02h-.54s-.04,0-.05-.02c0,0-.02-.03-.02-.05v-.19s0-.02,0-.02h-.02c-.19.21-.47.32-.83.32-.29,0-.53-.07-.72-.22-.19-.15-.28-.37-.28-.66s.11-.54.32-.71.51-.26.9-.26h.63s.03,0,.03-.03v-.14c0-.15-.05-.27-.14-.35s-.23-.13-.4-.13c-.15,0-.27.03-.36.08-.09.05-.15.13-.17.22,0,.05-.04.07-.08.06l-.57-.07s-.04,0-.05-.02c0,0-.02-.02,0-.04.03-.24.16-.43.38-.59.22-.15.51-.23.85-.23.25,0,.46.04.65.13M35.99,40.14c.14-.1.21-.23.21-.39v-.28s0-.03-.03-.03h-.49c-.21,0-.37.04-.49.12-.12.08-.18.19-.18.33,0,.13.05.22.14.29s.21.1.35.1c.19,0,.36-.05.49-.15"/>
    <path class="cls-4" d="M39.75,38.02c.19.19.28.44.28.77v1.92s0,.04-.02.05c0,0-.03.02-.05.02h-.54s-.04,0-.05-.02c0,0-.02-.03-.02-.05v-1.78c0-.18-.05-.33-.15-.44-.1-.11-.24-.17-.4-.17s-.3.05-.41.16c-.1.11-.16.25-.16.43v1.79s0,.04-.02.05c0,0-.03.02-.05.02h-.54s-.04,0-.05-.02c0,0-.02-.03-.02-.05v-2.86s0-.04.02-.05c0,0,.03-.02.05-.02h.54s.04,0,.05.02c0,0,.02.03.02.05v.19s0,.02,0,.02c0,0,0,0,.02,0,.16-.21.4-.32.73-.32s.57.09.76.28"/>
    <path class="cls-4" d="M42.54,37.87c.19.09.33.2.43.36.1.15.15.32.15.51v1.98s0,.04-.02.05c0,0-.03.02-.05.02h-.54s-.04,0-.05-.02c0,0-.02-.03-.02-.05v-.19s0-.02,0-.02h-.02c-.19.21-.47.32-.83.32-.29,0-.53-.07-.72-.22-.19-.15-.28-.37-.28-.66s.11-.54.32-.71.51-.26.9-.26h.63s.03,0,.03-.03v-.14c0-.15-.05-.27-.14-.35s-.23-.13-.4-.13c-.15,0-.27.03-.36.08-.09.05-.15.13-.17.22,0,.05-.04.07-.08.06l-.57-.07s-.04,0-.05-.02c0,0-.02-.02,0-.04.03-.24.16-.43.38-.59.22-.15.51-.23.85-.23.25,0,.46.04.65.13M42.24,40.14c.14-.1.21-.23.21-.39v-.28s0-.03-.03-.03h-.49c-.21,0-.37.04-.49.12-.12.08-.18.19-.18.33,0,.13.05.22.14.29s.21.1.35.1c.19,0,.36-.05.49-.15"/>
    <path class="cls-4" d="M45.66,37.81s.03-.02.05-.02h.54s.04,0,.05.02c0,0,.02.03.02.05v2.73c0,.49-.14.84-.42,1.05s-.65.31-1.1.31c-.12,0-.24,0-.36-.02-.04,0-.06-.03-.06-.08l.02-.48s.03-.06.08-.06c.11,0,.22.02.31.02.29,0,.51-.06.65-.17s.21-.31.21-.58v-.05s0-.02,0-.02h-.02c-.16.17-.39.26-.68.26-.25,0-.49-.06-.7-.19-.21-.13-.36-.33-.44-.59-.05-.18-.08-.42-.08-.71,0-.32.03-.57.09-.75.08-.24.21-.43.4-.57.19-.14.42-.21.67-.21.31,0,.55.09.72.27,0,0,.02.02.02,0,0,0,0,0,0-.02v-.14s0-.04.02-.05M45.64,39.6v-.65c0-.06-.02-.13-.04-.19-.03-.13-.09-.23-.19-.31s-.22-.12-.37-.12c-.14,0-.26.04-.36.12-.1.08-.17.18-.21.31-.05.11-.07.28-.07.52s.02.41.06.51c.04.13.11.23.21.31s.23.12.37.12c.15,0,.28-.04.37-.12.09-.08.16-.18.19-.31.02-.06.03-.12.03-.19"/>
    <path class="cls-4" d="M49.59,39.28v.18s-.03.07-.08.07h-1.84s-.03,0-.03.03c0,.13.03.22.05.26.09.28.32.42.69.43.27,0,.48-.11.63-.33.02-.02.04-.04.06-.04s.03,0,.04.02l.36.3s.04.06.02.09c-.12.17-.28.31-.48.4s-.43.14-.67.14c-.31,0-.56-.07-.78-.21-.21-.14-.37-.33-.47-.58-.09-.21-.13-.5-.13-.88,0-.23.02-.41.07-.55.08-.27.23-.49.44-.65.22-.16.48-.24.78-.24.77,0,1.2.4,1.3,1.21.02.1.02.21.02.33M47.89,38.44c-.1.07-.16.17-.2.3-.02.07-.04.15-.05.26,0,.02,0,.03.02.03h1.19s.03,0,.03-.03c0-.1-.02-.17-.04-.22-.04-.14-.1-.25-.21-.33-.1-.08-.23-.12-.39-.12-.14,0-.26.04-.36.11"/>
    <path class="cls-4" d="M54.12,38.01c.17.18.26.44.26.76v1.94s0,.04-.02.05c0,0-.03.02-.05.02h-.53s-.04,0-.05-.02c0,0-.02-.03-.02-.05v-1.8c0-.18-.05-.32-.14-.43-.1-.11-.22-.16-.38-.16s-.29.05-.39.16-.15.25-.15.42v1.81s0,.04-.02.05c0,0-.03.02-.05.02h-.53s-.04,0-.05-.02c0,0-.02-.03-.02-.05v-1.8c0-.18-.05-.32-.15-.43-.1-.11-.23-.16-.39-.16-.15,0-.27.04-.37.13s-.15.2-.17.35v1.91s0,.04-.02.05c0,0-.03.02-.05.02h-.54s-.04,0-.05-.02c0,0-.02-.03-.02-.05v-2.86s0-.04.02-.05c0,0,.03-.02.05-.02h.54s.04,0,.05.02c0,0,.02.03.02.05v.19s0,.02,0,.02c0,0,.02,0,.02,0,.09-.11.19-.19.32-.24s.27-.08.43-.08c.19,0,.36.04.5.12.14.08.26.19.33.34,0,.02.03.02.04,0,.09-.16.21-.27.36-.35.15-.07.32-.11.51-.11.3,0,.54.09.71.27"/>
    <path class="cls-4" d="M57.6,39.28v.18s-.03.07-.08.07h-1.84s-.03,0-.03.03c0,.13.03.22.05.26.09.28.32.42.69.43.27,0,.48-.11.63-.33.02-.02.04-.04.06-.04s.03,0,.04.02l.36.3s.04.06.02.09c-.12.17-.28.31-.48.4s-.43.14-.67.14c-.31,0-.56-.07-.78-.21-.21-.14-.37-.33-.47-.58-.09-.21-.13-.5-.13-.88,0-.23.02-.41.07-.55.08-.27.23-.49.44-.65.22-.16.48-.24.78-.24.77,0,1.2.4,1.3,1.21.02.1.02.21.02.33M55.92,38.44c-.1.07-.16.17-.2.3-.02.07-.04.15-.05.26,0,.02,0,.03.02.03h1.19s.03,0,.03-.03c0-.1-.02-.17-.04-.22-.04-.14-.1-.25-.21-.33-.1-.08-.23-.12-.39-.12-.14,0-.26.04-.36.11"/>
    <path class="cls-4" d="M60.43,38.02c.19.19.28.44.28.77v1.92s0,.04-.02.05c0,0-.03.02-.05.02h-.54s-.04,0-.05-.02c0,0-.02-.03-.02-.05v-1.78c0-.18-.05-.33-.15-.44-.1-.11-.24-.17-.4-.17s-.3.05-.41.16c-.1.11-.16.25-.16.43v1.79s0,.04-.02.05c0,0-.03.02-.05.02h-.54s-.04,0-.05-.02c0,0-.02-.03-.02-.05v-2.86s0-.04.02-.05c0,0,.03-.02.05-.02h.54s.04,0,.05.02c0,0,.02.03.02.05v.19s0,.02,0,.02c0,0,0,0,.02,0,.16-.21.4-.32.73-.32s.57.09.76.28"/>
    <path class="cls-4" d="M62.99,38.32s-.03.02-.05.02h-.6s-.03,0-.03.03v1.41c0,.15.03.26.1.32.06.07.17.1.31.1h.18s.04,0,.05.02c0,0,.02.03.02.05v.44s-.02.07-.07.08h-.31c-.31,0-.54-.05-.69-.15-.15-.11-.23-.31-.23-.6v-1.67s0-.03-.03-.03h-.33s-.04,0-.05-.02c0,0-.02-.03-.02-.05v-.41s0-.04.02-.05c0,0,.03-.02.05-.02h.33s.03,0,.03-.03v-.69s0-.04.02-.05c0,0,.03-.02.05-.02h.51s.04,0,.05.02c0,0,.02.03.02.05v.69s0,.03.03.03h.6s.04,0,.05.02c0,0,.02.03.02.05v.41s0,.04-.02.05"/>
  </g>
  <g>
    <path class="cls-5" d="M4.95,23.59s-.03.11,0,.16l4.97,8.32s.08.07.13.07h1.67c.12,0,.19-.13.13-.23l-5.87-9.83s-.11-.05-.14,0l-.9,1.5h.02Z"/>
    <path class="cls-2" d="M4.9,25.37h.84c.06,0,.1.06.07.11l-.42.73-.42.73s-.1.05-.13,0l-.42-.73-.42-.73s0-.11.07-.11h.84-.03Z"/>
    <path class="cls-2" d="M3.89,27.05h.84c.06,0,.1.06.07.11l-.42.73-.42.73s-.1.05-.13,0l-.42-.73-.42-.73s0-.11.07-.11h.84-.03Z"/>
    <path class="cls-2" d="M2.88,28.77h.84c.06,0,.1.06.07.11l-.42.73-.42.73s-.1.05-.13,0l-.42-.73-.42-.73s0-.11.07-.11h.84-.03Z"/>
    <path class="cls-2" d="M1.91,30.53h.84c.06,0,.1.06.07.11l-.42.73-.42.73s-.1.05-.13,0l-.42-.73-.42-.73s0-.11.07-.11h.84-.03Z"/>
    <path class="cls-2" d="M3.9,30.53h.84c.06,0,.1.06.07.11l-.42.73-.42.73s-.1.05-.13,0l-.42-.73-.42-.73s0-.11.07-.11h.84-.03Z"/>
    <path class="cls-2" d="M5.92,30.53h.84c.06,0,.1.06.07.11l-.42.73-.42.73s-.1.05-.13,0l-.42-.73-.42-.73s0-.11.07-.11h.84-.03Z"/>
    <path class="cls-2" d="M7.94,30.53h.84c.06,0,.1.06.07.11l-.42.73-.42.73s-.1.05-.13,0l-.42-.73-.42-.73s0-.11.07-.11h.84-.03Z"/>
    <path class="cls-2" d="M4.93,28.77h.84c.06,0,.1.06.07.11l-.42.73-.42.73s-.1.05-.13,0l-.42-.73-.42-.73s0-.11.07-.11h.84-.03Z"/>
    <path class="cls-2" d="M6.89,28.77h.84c.06,0,.1.06.07.11l-.42.73-.42.73s-.1.05-.13,0l-.42-.73-.42-.73s0-.11.07-.11h.84-.03Z"/>
    <path class="cls-2" d="M5.94,27.05h.84c.06,0,.1.06.07.11l-.42.73-.42.73s-.1.05-.13,0l-.42-.73-.42-.73s0-.11.07-.11h.84-.03Z"/>
    <path class="cls-6" d="M28.08,26.3c.4.4.6.94.6,1.63v4.07s0,.08-.04.11-.06.04-.11.04h-1.14s-.08,0-.11-.04c-.03-.03-.04-.06-.04-.11v-3.77c0-.38-.11-.69-.32-.92-.22-.24-.5-.35-.86-.35s-.64.12-.86.35-.33.54-.33.92v3.78s0,.08-.04.11-.06.04-.11.04h-1.14s-.08,0-.11-.04c-.03-.03-.04-.06-.04-.11v-6.04s0-.08.04-.11.06-.04.11-.04h1.14s.08,0,.11.04.04.06.04.11v.4s0,.04.02.05c.02,0,.03,0,.04-.02.34-.45.85-.67,1.54-.67s1.21.2,1.61.6"/>
    <path class="cls-6" d="M41.41,28.95v.38c0,.1-.06.15-.16.15h-3.89s-.06.02-.06.06c.02.27.06.46.11.56.2.6.68.9,1.45.91.56,0,1.01-.23,1.34-.7.03-.05.07-.07.12-.07.03,0,.06,0,.09.04l.77.63c.07.06.09.12.04.2-.26.36-.6.65-1.02.84-.43.2-.9.3-1.42.3-.65,0-1.19-.14-1.64-.43s-.78-.69-.99-1.22c-.19-.45-.29-1.07-.29-1.86,0-.48.05-.87.15-1.17.17-.58.48-1.04.94-1.37.46-.34,1.01-.5,1.66-.5,1.63,0,2.55.85,2.76,2.56.03.21.05.44.05.69M37.84,27.16c-.2.15-.35.37-.43.64-.05.14-.08.32-.1.55-.02.04,0,.06.05.06h2.52s.06-.02.06-.06c-.02-.21-.04-.36-.07-.47-.07-.3-.22-.53-.44-.7-.22-.17-.49-.25-.83-.25-.31,0-.56.08-.76.23"/>
    <path class="cls-1" d="M46.66,31.87c-.45-.24-.8-.58-1.05-1.02s-.37-.95-.37-1.52v-3.16c0-.58.12-1.08.37-1.52s.59-.78,1.05-1.02c.45-.24.97-.36,1.56-.36s1.12.12,1.57.36.81.58,1.05,1.02c.25.44.37.95.37,1.52v3.16c0,.58-.12,1.08-.37,1.52s-.6.78-1.05,1.02c-.46.24-.98.36-1.57.36s-1.11-.12-1.56-.36M49.75,30.89c.38-.38.58-.89.58-1.53v-3.21c0-.63-.19-1.15-.58-1.53-.38-.39-.89-.58-1.53-.58s-1.13.19-1.51.58c-.38.39-.58.9-.58,1.53v3.21c0,.63.19,1.14.58,1.53.38.38.89.58,1.51.58s1.14-.19,1.53-.58"/>
    <path class="cls-1" d="M56.43,26.3c.4.39.59.92.59,1.58v4.13c0,.08-.04.13-.13.13h-.64c-.08,0-.13-.04-.13-.13v-3.96c0-.46-.14-.83-.42-1.13-.28-.29-.64-.44-1.08-.44s-.83.14-1.11.43c-.28.28-.43.66-.43,1.11v3.98c0,.08-.04.13-.13.13h-.64c-.08,0-.13-.04-.13-.13v-6.09c0-.08.04-.13.13-.13h.64c.08,0,.13.04.13.13v.54s0,.03.02.04c0,0,.02,0,.03,0,.37-.52.93-.78,1.69-.78.67,0,1.2.2,1.6.59"/>
    <path class="cls-1" d="M63.01,28.78v.4c0,.08-.04.13-.13.13h-4.04s-.05.02-.05.05c.02.46.04.76.08.89.09.38.29.67.59.89s.68.33,1.15.33c.35,0,.66-.08.93-.24s.48-.38.63-.68c.05-.08.11-.09.18-.05l.49.29c.07.04.08.1.05.18-.21.4-.52.72-.94.95-.42.23-.9.34-1.44.34-.59,0-1.1-.15-1.49-.43-.4-.28-.69-.66-.86-1.15-.15-.4-.23-.98-.23-1.73,0-.35,0-.64.02-.86,0-.22.04-.42.09-.59.14-.54.43-.98.86-1.3.43-.33.95-.49,1.56-.49.76,0,1.34.19,1.75.58.41.38.66.93.76,1.63.03.23.05.53.05.88M59.41,26.79c-.27.21-.45.5-.53.86-.05.18-.08.46-.1.85,0,.03.02.05.05.05h3.24s.05-.02.05-.05c-.02-.38-.04-.64-.08-.8-.09-.38-.28-.67-.56-.9-.28-.22-.63-.33-1.06-.33s-.75.11-1.02.32"/>
    <path class="cls-6" d="M22.56,31.97l-3.61-8.71h0c-.09-.22-.31-.37-.56-.37s-.46.15-.55.35l-3.61,8.73c-.02.06,0,.1,0,.13.03.03.07.04.13.04h1.42c.09,0,.16-.04.19-.12l.47-1.33s.04-.05.07-.05h3.76s.05.02.07.05l.47,1.33c.03.08.09.12.19.12h1.42c.1,0,.16-.04.16-.11,0-.02,0-.05,0-.06M19.82,29.38h-2.89s-.07-.02-.06-.07l1.45-3.76s.02-.05.04-.05.03.02.04.05l1.47,3.76s0,.07-.06.07"/>
    <path class="cls-6" d="M44.39,30.96h-.27c-.18,0-.32-.14-.32-.32v-7c0-.12-.1-.22-.22-.22h-1c-.12,0-.22.1-.22.22v7.24h0v.18c0,.58.47,1.06,1.06,1.06h.97c.08,0,.15-.07.15-.15v-.88c0-.08-.07-.15-.15-.15"/>
    <path class="cls-6" d="M34.98,25.84s-.06-.04-.11-.04h-1.14s-.08,0-.11.04-.04.06-.04.11v.3s0,.04-.02.05c-.02,0-.03,0-.05-.02-.36-.38-.87-.57-1.53-.57-.55,0-1.02.15-1.43.45-.41.3-.69.71-.86,1.21-.13.36-.2.89-.2,1.58,0,.61.05,1.11.16,1.5.17.56.48.98.93,1.25s.94.41,1.48.41c.62,0,1.1-.18,1.44-.55.02-.02.03-.02.05-.02s.02.02.02.04v.1c0,.58-.15.99-.44,1.23s-.75.37-1.37.37h-1.08c-.1,0-.16.11-.11.2l.6.99c.05.08.13.12.22.12h.45c.94,0,1.7-.23,2.28-.66.59-.44.89-1.18.89-2.22v-5.78s0-.08-.04-.11M33.56,29.63c0,.14-.04.28-.07.4-.07.26-.2.48-.4.65s-.46.25-.78.25-.57-.08-.79-.25-.37-.39-.45-.65c-.08-.21-.12-.57-.12-1.08s.05-.86.15-1.1c.09-.27.24-.49.45-.66.21-.17.46-.25.76-.25s.57.08.78.25c.2.17.34.38.4.66.04.13.07.27.08.4,0,.14.02.36.02.68s0,.56-.02.7"/>
  </g>
</svg>