<?xml version="1.0" encoding="utf-8"?>
<!-- Generator: Adobe Illustrator 26.3.1, SVG Export Plug-In . SVG Version: 6.00 Build 0)  -->
<svg version="1.1" id="Layer_1" xmlns="http://www.w3.org/2000/svg" xmlns:xlink="http://www.w3.org/1999/xlink" x="0px" y="0px"
	 viewBox="0 0 64 64" style="enable-background:new 0 0 64 64;" xml:space="preserve">
<style type="text/css">
	.st0{fill:#97144D;}
	.st1{fill-rule:evenodd;clip-rule:evenodd;fill:#FFFFFF;}
</style>
<rect x="-0.12" y="-0.12" class="st0" width="64.24" height="64.24"/>
<g>
	<g>
		<polygon class="st1" points="59.96,53.3 42.55,53.3 31.99,34.89 49.39,34.89 		"/>
		<polygon class="st1" points="31.93,4.82 40.65,19.82 21.38,53.3 4.02,53.3 		"/>
	</g>
	<g>
		<path class="st1" d="M6.2,58.47H5.5v-0.39H6l-0.49-0.94L5.5,57.16v-0.89l0.01-0.02l1.55,2.85H6.53L6.2,58.47L6.2,58.47z
			 M8.17,57.65l-0.92-1.31h0.57l0.65,0.95l0.65-0.95h0.56l-0.94,1.32l1.01,1.43H9.17l-0.73-1.06L7.7,59.09H7.13L8.17,57.65
			L8.17,57.65z M10.17,56.34h0.49v2.75h-0.49V56.34L10.17,56.34z M12.72,56.97c-0.06-0.1-0.13-0.17-0.21-0.21
			c-0.08-0.05-0.19-0.07-0.31-0.07c-0.14,0-0.25,0.03-0.32,0.09s-0.11,0.14-0.11,0.24c0,0.16,0.12,0.27,0.35,0.34l0.33,0.1
			c0.27,0.08,0.46,0.19,0.59,0.33c0.13,0.14,0.19,0.3,0.19,0.5c0,0.12-0.03,0.24-0.07,0.34c-0.05,0.1-0.12,0.2-0.21,0.27
			c-0.09,0.08-0.2,0.14-0.33,0.18s-0.27,0.07-0.42,0.07c-0.31,0-0.56-0.07-0.74-0.21c-0.18-0.14-0.29-0.34-0.33-0.61l0.48-0.09
			c0.03,0.17,0.09,0.3,0.19,0.39c0.1,0.08,0.23,0.13,0.4,0.13s0.3-0.04,0.39-0.12c0.09-0.08,0.14-0.19,0.14-0.32
			c0-0.07-0.01-0.13-0.04-0.18c-0.02-0.05-0.06-0.09-0.1-0.13s-0.09-0.07-0.15-0.1c-0.06-0.03-0.12-0.05-0.19-0.07l-0.32-0.09
			c-0.23-0.07-0.4-0.16-0.51-0.28c-0.11-0.12-0.16-0.27-0.16-0.44c0-0.11,0.02-0.2,0.07-0.29c0.04-0.09,0.11-0.17,0.19-0.23
			s0.18-0.11,0.29-0.15s0.24-0.05,0.38-0.05c0.24,0,0.43,0.04,0.58,0.13s0.26,0.2,0.34,0.35L12.72,56.97z M5.5,58.47H4.8l-0.34,0.62
			H3.93l1.57-2.83v0.89L5,58.08h0.5V58.47z"/>
		<path class="st1" d="M17.07,58.47h-0.69v-0.39h0.49l-0.49-0.94l-0.01,0.02v-0.89l0.01-0.03l1.55,2.85h-0.54L17.07,58.47z
			 M16.38,58.47h-0.7l-0.34,0.62h-0.53l1.57-2.82v0.89l-0.5,0.93h0.5V58.47z"/>
		<path class="st1" d="M19.66,56.97c-0.06-0.1-0.13-0.17-0.21-0.21c-0.08-0.05-0.19-0.07-0.31-0.07c-0.14,0-0.25,0.03-0.32,0.09
			s-0.11,0.14-0.11,0.24c0,0.16,0.12,0.27,0.35,0.34l0.33,0.1c0.27,0.08,0.46,0.19,0.59,0.33c0.13,0.14,0.19,0.3,0.19,0.5
			c0,0.12-0.02,0.24-0.07,0.34s-0.12,0.2-0.2,0.27c-0.09,0.08-0.2,0.14-0.33,0.18s-0.27,0.07-0.42,0.07c-0.31,0-0.56-0.07-0.74-0.21
			s-0.29-0.34-0.33-0.61l0.48-0.09c0.03,0.17,0.09,0.3,0.19,0.39c0.1,0.08,0.23,0.13,0.39,0.13c0.17,0,0.3-0.04,0.39-0.12
			c0.09-0.08,0.14-0.19,0.14-0.32c0-0.07-0.01-0.13-0.04-0.18c-0.02-0.05-0.06-0.09-0.1-0.13s-0.09-0.07-0.15-0.1
			s-0.12-0.05-0.19-0.07l-0.32-0.09c-0.23-0.07-0.4-0.16-0.51-0.28s-0.16-0.27-0.16-0.44c0-0.11,0.02-0.2,0.07-0.29
			c0.04-0.09,0.11-0.17,0.19-0.23s0.18-0.11,0.29-0.15s0.24-0.05,0.38-0.05c0.24,0,0.43,0.04,0.58,0.13s0.26,0.2,0.34,0.35
			L19.66,56.97z"/>
		<path class="st1" d="M22.11,56.97c-0.06-0.1-0.13-0.17-0.21-0.21c-0.08-0.05-0.19-0.07-0.31-0.07c-0.14,0-0.25,0.03-0.32,0.09
			s-0.11,0.14-0.11,0.24c0,0.16,0.12,0.27,0.35,0.34l0.33,0.1c0.27,0.08,0.46,0.19,0.59,0.33c0.13,0.14,0.19,0.3,0.19,0.5
			c0,0.12-0.02,0.24-0.07,0.34s-0.12,0.2-0.21,0.27c-0.09,0.08-0.2,0.14-0.32,0.18c-0.13,0.04-0.27,0.07-0.42,0.07
			c-0.31,0-0.56-0.07-0.74-0.21s-0.29-0.34-0.33-0.61l0.47-0.1c0.03,0.17,0.09,0.3,0.19,0.39c0.1,0.08,0.23,0.13,0.4,0.13
			s0.3-0.04,0.39-0.12c0.09-0.08,0.14-0.19,0.14-0.32c0-0.07-0.01-0.13-0.04-0.18c-0.02-0.05-0.06-0.09-0.1-0.13
			s-0.09-0.07-0.15-0.1s-0.12-0.05-0.19-0.07l-0.32-0.09c-0.23-0.07-0.4-0.16-0.51-0.28s-0.16-0.27-0.16-0.44
			c0-0.11,0.02-0.2,0.07-0.29c0.04-0.09,0.11-0.17,0.19-0.23s0.18-0.11,0.29-0.15s0.24-0.05,0.38-0.05c0.24,0,0.43,0.04,0.58,0.13
			s0.26,0.2,0.34,0.35L22.11,56.97z"/>
		<polygon class="st1" points="23.13,56.34 24.86,56.34 24.86,56.75 23.62,56.75 23.62,57.46 24.75,57.46 24.75,57.87 23.62,57.87 
			23.62,58.68 24.87,58.68 24.87,59.09 23.13,59.09 		"/>
		<polygon class="st1" points="25.23,56.34 27.47,56.34 27.47,56.75 26.6,56.75 26.6,59.09 26.11,59.09 26.11,56.75 25.23,56.75 		
			"/>
		<path class="st1" d="M30.34,58c-0.05-0.09-0.1-0.19-0.15-0.3s-0.1-0.22-0.14-0.32c-0.01,0.14-0.03,0.29-0.05,0.44
			c-0.02,0.15-0.05,0.29-0.08,0.42l-0.18,0.85h-0.5l0.63-2.84l1.12,1.97l1.12-1.97l0.63,2.84h-0.5l-0.18-0.85
			c-0.03-0.13-0.06-0.27-0.08-0.42c-0.03-0.15-0.04-0.29-0.06-0.44c-0.04,0.11-0.09,0.22-0.14,0.32c-0.05,0.11-0.1,0.21-0.15,0.3
			l-0.64,1.15L30.34,58z"/>
		<path class="st1" d="M35.21,58.47h-0.69v-0.39h0.5l-0.49-0.94l-0.01,0.02v-0.89l0.01-0.03l1.55,2.85h-0.54L35.21,58.47z
			 M34.52,58.47h-0.7l-0.34,0.62h-0.53l1.57-2.82v0.89l-0.49,0.92h0.49V58.47z"/>
		<polygon class="st1" points="36.91,57.27 36.91,59.09 36.42,59.09 36.42,56.26 38.78,58.17 38.78,56.34 39.27,56.34 39.27,59.18 
					"/>
		<path class="st1" d="M41.87,58.47h-0.69v-0.39h0.5l-0.49-0.94l-0.01,0.02v-0.89l0.01-0.03l1.55,2.85H42.2L41.87,58.47z
			 M41.18,58.47h-0.7l-0.34,0.62h-0.53l1.57-2.82v0.89l-0.5,0.92h0.5V58.47z"/>
		<path class="st1" d="M44.3,57.58h1.22v0.97c-0.05,0.09-0.11,0.16-0.19,0.24c-0.08,0.07-0.17,0.14-0.27,0.19
			c-0.11,0.05-0.23,0.1-0.36,0.13c-0.13,0.03-0.28,0.05-0.44,0.05c-0.23,0-0.43-0.04-0.61-0.11s-0.34-0.17-0.46-0.3
			c-0.13-0.13-0.23-0.28-0.3-0.46s-0.1-0.37-0.1-0.57s0.04-0.39,0.11-0.57c0.07-0.17,0.17-0.33,0.3-0.45
			c0.13-0.13,0.29-0.23,0.47-0.3s0.38-0.11,0.6-0.11c0.29,0,0.53,0.05,0.72,0.16c0.19,0.1,0.34,0.24,0.44,0.41l-0.36,0.24
			c-0.1-0.13-0.22-0.23-0.35-0.29c-0.13-0.06-0.28-0.09-0.45-0.09c-0.15,0-0.28,0.03-0.4,0.08c-0.12,0.05-0.22,0.12-0.31,0.22
			c-0.08,0.09-0.15,0.2-0.2,0.32s-0.07,0.26-0.07,0.4c0,0.14,0.02,0.28,0.07,0.4c0.05,0.12,0.11,0.23,0.2,0.32s0.19,0.16,0.31,0.21
			c0.12,0.05,0.25,0.08,0.4,0.08c0.17,0,0.33-0.03,0.46-0.09c0.13-0.06,0.24-0.14,0.33-0.24v-0.44H44.3V57.58z"/>
		<polygon class="st1" points="46.06,56.34 47.79,56.34 47.79,56.75 46.55,56.75 46.55,57.46 47.68,57.46 47.68,57.87 46.55,57.87 
			46.55,58.68 47.79,58.68 47.79,59.09 46.06,59.09 		"/>
		<path class="st1" d="M49.35,58c-0.05-0.09-0.1-0.19-0.15-0.3c-0.05-0.11-0.1-0.22-0.14-0.32c-0.01,0.14-0.03,0.29-0.06,0.44
			c-0.02,0.15-0.05,0.29-0.08,0.42l-0.18,0.85h-0.5l0.63-2.84L50,58.22l1.12-1.97l0.63,2.84h-0.5l-0.18-0.85
			c-0.03-0.13-0.05-0.27-0.08-0.42c-0.03-0.15-0.04-0.29-0.06-0.44c-0.04,0.11-0.09,0.22-0.14,0.32c-0.05,0.11-0.1,0.21-0.15,0.3
			L50,59.15L49.35,58z"/>
		<polygon class="st1" points="52.25,56.34 53.98,56.34 53.98,56.75 52.74,56.75 52.74,57.46 53.87,57.46 53.87,57.87 52.74,57.87 
			52.74,58.68 53.99,58.68 53.99,59.09 52.25,59.09 		"/>
		<polygon class="st1" points="55.05,57.27 55.05,59.09 54.55,59.09 54.55,56.26 56.91,58.17 56.91,56.34 57.4,56.34 57.4,59.18 		
			"/>
		<polygon class="st1" points="57.82,56.34 60.07,56.34 60.07,56.75 59.19,56.75 59.19,59.09 58.7,59.09 58.7,56.75 57.82,56.75 		
			"/>
	</g>
</g>
</svg>
