<?xml version="1.0" encoding="utf-8"?>
<!-- Generator: Adobe Illustrator 29.3.1, SVG Export Plug-In . SVG Version: 9.03 Build 55982)  -->
<svg version="1.1" id="Layer_1" xmlns="http://www.w3.org/2000/svg" xmlns:xlink="http://www.w3.org/1999/xlink" x="0px" y="0px"
	 viewBox="0 0 64 64" style="enable-background:new 0 0 64 64;" xml:space="preserve">
<style type="text/css">
	.st0{fill:#005DAB;}
	.st1{fill:#005DAC;}
	.st2{fill:#FFFFFF;}
	.st3{fill:none;stroke:#FFFFFF;stroke-width:2;stroke-miterlimit:10;}
	.st4{fill:#585856;}
</style>
<g>
	<rect x="0" y="16.61" class="st2" width="64" height="30.77"/>
	<g>
		<rect x="2.56" y="19.17" class="st0" width="25.66" height="25.66"/>
		<g>
			<path class="st2" d="M3.86,39.68v-3.46h3.06c0.63,0,1.64,0.09,1.64,0.91c0,0.4-0.35,0.69-0.77,0.79
				c0.51,0.15,0.77,0.44,0.77,0.83c0,0.85-0.96,0.93-1.64,0.93L3.86,39.68L3.86,39.68z M4.98,38.23l0.32-0.53
				c0.08-0.12,0.22-0.19,0.36-0.19h1.25c0.22,0,0.41-0.1,0.41-0.28s-0.18-0.28-0.41-0.28H4.98V38.23z M4.98,38.23v1.46l0.32-0.53
				c0.08-0.12,0.22-0.19,0.36-0.19H6.9c0.23,0,0.42-0.16,0.42-0.36s-0.18-0.37-0.42-0.37L4.98,38.23z M11.28,37.06l-1.52,2.63H8.44
				l2.11-3.46H12l2.11,3.46h-1.32l-0.35-0.62h-1.96l0.32-0.53c0.08-0.12,0.22-0.19,0.36-0.19h0.85L11.28,37.06z M20.45,37.06
				l-1.51,2.63h-1.32l2.11-3.46h1.44l2.11,3.46h-1.32l-0.35-0.62h-1.96l0.32-0.53c0.08-0.12,0.22-0.19,0.36-0.19h0.85L20.45,37.06
				L20.45,37.06z M16.15,38.96c0.26,0,0.46-0.12,0.46-0.38v-2.36h1.12v2.46c0,0.75-0.49,1-1.14,1h-1.87c-0.15,0-0.28-0.07-0.36-0.19
				l-0.32-0.53L16.15,38.96z M25.33,38.96c0.26,0,0.46-0.12,0.46-0.38v-2.36h1.12v2.46c0,0.75-0.49,1-1.14,1H23.9
				c-0.15,0-0.28-0.07-0.36-0.19l-0.32-0.53L25.33,38.96z"/>
			<path class="st2" d="M17.79,28.09c0.77-0.23,1.44-0.86,1.44-1.76c0-1.83-1.91-2.02-3.09-2.02h-4.59V32h0.96h0.65v-6.06h4.78
				l-0.53,1.03c0,0-0.1,0.22-0.47,0.22h-1.75c0,0-0.6,0.02-0.6,0.75v1.61c0,0,0.05-0.63,0.58-0.68l2.34-0.01L17,29.84
				c0,0-0.11,0.26-0.44,0.27l-1.4,0c0,0-0.57-0.01-0.57,0.66V32h1.56c1.28-0.01,3.09-0.19,3.09-2.07
				C19.23,29.07,18.75,28.44,17.79,28.09z"/>
		</g>
		<g>
			<polyline class="st0" points="59.17,34.07 61.48,29.93 59.9,29.93 58.31,33.07 56.71,29.93 55.13,29.93 57.44,34.07 			"/>
			<rect x="35.26" y="29.93" class="st0" width="1.34" height="4.15"/>
			<polygon class="st0" points="40.36,29.93 40.36,32.25 38.76,29.93 37.16,29.93 37.16,34.07 38.51,34.07 38.51,31.77 38.52,31.79 
				40.09,34.07 41.7,34.07 41.7,29.93 			"/>
			<g>
				<path class="st0" d="M55.56,34.07l-0.96-1.62l-0.07-0.13c0.2-0.09,0.36-0.24,0.49-0.41c0.14-0.19,0.21-0.43,0.2-0.66
					c0-0.17-0.03-0.34-0.09-0.49c-0.06-0.16-0.16-0.3-0.28-0.43c-0.13-0.13-0.28-0.23-0.46-0.29c-0.19-0.07-0.4-0.11-0.61-0.11
					h-2.53l0.34,0.86h1.69c0.12-0.01,0.24,0.04,0.33,0.12c0.08,0.08,0.12,0.18,0.12,0.29c0,0.12-0.04,0.23-0.12,0.31
					c-0.09,0.09-0.21,0.18-0.33,0.17H51.9l0.31,0.85h0.91l0.87,1.53H55.56z"/>
			</g>
			<path class="st0" d="M46.5,32.76c0-0.27-0.1-1.05-1.3-1.26l0,0c-0.12-0.02-0.27-0.03-0.33-0.03c-0.16-0.01-0.38-0.02-0.67-0.01
				l0,0l-0.07,0c-0.15,0-0.5-0.04-0.51-0.33c0,0-0.02-0.31,0.41-0.34c0,0,2.29-0.01,2.29-0.01v-0.87c0,0-1.96,0-2.62,0
				c-0.46,0-1.44,0.01-1.56,0.97l0,0c0,0,0,0.01,0,0.02c0,0.01,0,0.02,0,0.02c0,0.04-0.01,0.11-0.01,0.16c0,0.2,0.09,0.79,0.95,1.06
				c0,0,0.33,0.13,0.93,0.17c0,0,0.44,0,0.51,0c0,0,0.32,0.01,0.42,0.22c0,0,0.28,0.49-0.36,0.64c-0.04,0-0.15,0.02-0.24,0.01l0,0
				H42.4v0.88h2.18c0,0,1.71,0.03,1.9-1.07C46.5,32.91,46.5,32.79,46.5,32.76z"/>
			<path class="st0" d="M30.77,29.93v4.15h0.19v0h1.15v0h0V32.4l1.16-0.01c0.27,0,0.35-0.18,0.35-0.18l0.41-0.67l-1.92,0.01v-0.25
				c0.02-0.49,0.49-0.51,0.49-0.51h1.41c0.29,0.01,0.38-0.15,0.38-0.15l0.43-0.7H30.77z"/>
			<path class="st0" d="M48.28,31.31v0.24l1.92-0.01l-0.41,0.67c0,0-0.09,0.18-0.35,0.18l-1.15,0.01l0.01,0.39c0,0,0,0.04,0.01,0.08
				c0.07,0.2,0.26,0.34,0.48,0.34l1.67,0.01h0.35v0.86h-3.87v-4.15h3.87v0.86l-2.02,0.01C48.51,30.8,48.28,31.02,48.28,31.31z"/>
		</g>
	</g>
</g>
</svg>
