<?xml version="1.0" encoding="UTF-8"?>
<svg id="Layer_1" xmlns="http://www.w3.org/2000/svg" version="1.1" xmlns:xlink="http://www.w3.org/1999/xlink" viewBox="0 0 64 64">
  <!-- Generator: Adobe Illustrator 29.1.0, SVG Export Plug-In . SVG Version: 2.1.0 Build 142)  -->
  <defs>
    <style>
      .st0 {
        fill: #0d3252;
      }

      .st1 {
        fill: #fff;
      }

      .st2 {
        fill: url(#linear-gradient1);
      }

      .st3 {
        fill: #ffc609;
      }

      .st4 {
        fill: #f05c22;
      }

      .st5 {
        fill: url(#linear-gradient);
      }
    </style>
    <linearGradient id="linear-gradient" x1="3.749" y1="26.999" x2="12.409" y2="37.438" gradientUnits="userSpaceOnUse">
      <stop offset=".177" stop-color="#ef3f24"/>
      <stop offset=".429" stop-color="#c62e21"/>
      <stop offset=".689" stop-color="#a3201f"/>
      <stop offset=".828" stop-color="#961b1f"/>
    </linearGradient>
    <linearGradient id="linear-gradient1" x1="3.853" y1="33.434" x2="15.48" y2="33.434" gradientUnits="userSpaceOnUse">
      <stop offset=".004" stop-color="#c5202c"/>
      <stop offset="1" stop-color="#ed2d24"/>
    </linearGradient>
  </defs>
  <g>
    <g>
      <path class="st0" d="M23.415,39.403c-.057-.141-.137-.327-.242-.558-.105-.231-.222-.483-.352-.757-.13-.273-.263-.555-.399-.845-.136-.29-.266-.562-.391-.816-.125-.254-.235-.476-.331-.668-.096-.192-.167-.327-.212-.406-.073.705-.131,1.47-.173,2.295-.042.826-.08,1.692-.114,2.6h-.566c.051-1.065.108-2.085.173-3.06.065-.975.145-1.908.241-2.798h.507c.169.282.35.607.542.977.192.369.383.752.572,1.15.189.397.373.789.551,1.175.178.386.335.734.47,1.044.136-.31.292-.658.47-1.044.178-.386.361-.778.551-1.175.189-.397.38-.781.572-1.15.192-.369.373-.695.542-.977h.482c.096.891.176,1.823.241,2.798.065.975.123,1.995.173,3.06h-.583c-.034-.907-.072-1.774-.114-2.6-.042-.826-.1-1.591-.173-2.295-.045.079-.116.214-.211.406-.096.192-.206.414-.33.668-.124.254-.254.526-.389.816-.135.29-.268.572-.397.845-.13.273-.247.526-.351.757-.104.231-.185.417-.241.558h-.516Z"/>
      <path class="st0" d="M30.697,40.096c-.164.045-.383.096-.659.152-.276.056-.614.085-1.014.085-.327,0-.6-.048-.82-.144-.22-.096-.397-.231-.533-.406-.135-.175-.232-.386-.292-.634-.059-.248-.089-.521-.089-.82v-2.452h.55v2.274c0,.31.022.572.068.786.045.214.118.388.22.52.101.133.232.228.393.287.161.059.356.089.588.089.259,0,.485-.014.676-.042.192-.028.313-.054.364-.076v-3.838h.55v4.219Z"/>
      <path class="st0" d="M31.95,35.878h1.742v.465h-1.742v2.325c0,.248.021.45.063.605.042.155.103.275.182.359.079.085.175.141.287.169.113.028.237.042.372.042.231,0,.417-.027.558-.08.141-.054.251-.103.33-.148l.135.457c-.079.051-.217.109-.414.173-.197.065-.411.097-.643.097-.271,0-.497-.035-.681-.106-.183-.07-.33-.178-.44-.321s-.187-.323-.232-.537c-.045-.214-.068-.468-.068-.761v-4.024l.55-.101v1.386Z"/>
      <path class="st0" d="M37.618,40.096c-.164.045-.383.096-.659.152-.276.056-.614.085-1.014.085-.327,0-.6-.048-.82-.144-.22-.096-.397-.231-.533-.406-.135-.175-.232-.386-.292-.634-.059-.248-.089-.521-.089-.82v-2.452h.55v2.274c0,.31.022.572.068.786.045.214.118.388.22.52.101.133.232.228.393.287.161.059.356.089.588.089.259,0,.485-.014.676-.042.192-.028.313-.054.364-.076v-3.838h.55v4.219Z"/>
      <path class="st0" d="M39.774,35.776c.287,0,.531.041.731.123.2.082.362.194.486.338.124.144.214.314.271.511.056.197.085.411.085.642v2.756c-.056.017-.138.035-.245.055-.107.02-.231.041-.372.063-.141.023-.297.041-.469.055-.172.014-.348.021-.528.021-.231,0-.444-.025-.638-.076-.194-.051-.364-.131-.507-.241-.144-.11-.257-.251-.338-.423-.082-.172-.123-.382-.123-.63,0-.237.045-.44.135-.609.09-.169.217-.309.38-.418.163-.11.358-.19.583-.241.225-.051.471-.076.735-.076.079,0,.162.004.249.013.087.008.172.02.254.034.082.014.152.028.211.042.059.014.1.027.123.038v-.271c0-.152-.011-.3-.034-.444-.023-.144-.072-.273-.148-.389-.076-.115-.183-.208-.321-.279-.138-.07-.32-.106-.545-.106-.321,0-.561.023-.719.068-.158.045-.273.082-.347.11l-.076-.482c.096-.045.244-.087.444-.127.2-.039.441-.059.723-.059ZM39.824,39.851c.214,0,.402-.007.562-.021.161-.014.297-.032.41-.055v-1.539c-.062-.028-.161-.058-.296-.089-.135-.031-.321-.047-.558-.047-.135,0-.276.01-.423.03-.147.02-.282.062-.406.127-.124.065-.225.154-.304.266-.079.113-.118.262-.118.448,0,.164.027.302.08.414.054.113.13.203.228.27.099.068.217.117.355.148.138.031.294.046.469.046Z"/>
      <path class="st0" d="M43.095,40.325c-.186-.006-.348-.03-.486-.072-.138-.042-.254-.107-.347-.194-.093-.087-.164-.2-.211-.338-.048-.138-.072-.311-.072-.52v-5.411l.55-.101v5.495c0,.135.013.244.038.326.025.082.063.147.114.194.051.048.117.083.199.106.082.023.179.042.292.059l-.076.456Z"/>
      <path class="st0" d="M45.034,40.249v-5.859h3.339v.499h-2.764v2.063h2.452v.499h-2.452v2.798h-.575Z"/>
      <path class="st0" d="M52.009,40.096c-.164.045-.383.096-.659.152-.276.056-.614.085-1.014.085-.327,0-.6-.048-.82-.144-.22-.096-.397-.231-.533-.406-.135-.175-.232-.386-.292-.634-.059-.248-.089-.521-.089-.82v-2.452h.55v2.274c0,.31.022.572.068.786.045.214.118.388.22.52.101.133.232.228.393.287.161.059.356.089.588.089.259,0,.485-.014.676-.042.192-.028.313-.054.364-.076v-3.838h.55v4.219Z"/>
      <path class="st0" d="M52.565,36.03c.163-.045.383-.096.659-.152.276-.056.614-.085,1.014-.085.332,0,.61.048.833.144.223.096.4.232.533.41.132.178.227.39.283.638.056.248.085.521.085.82v2.443h-.55v-2.266c0-.31-.021-.572-.063-.786-.042-.214-.113-.389-.211-.524-.099-.135-.228-.233-.389-.292-.161-.059-.362-.089-.604-.089-.259,0-.483.014-.672.042-.189.028-.312.054-.368.076v3.838h-.55v-4.219Z"/>
      <path class="st0" d="M60.225,40.113c-.164.056-.372.11-.626.161-.254.051-.575.076-.964.076-.321,0-.613-.052-.875-.156s-.488-.255-.676-.452c-.189-.197-.335-.437-.44-.719-.104-.282-.156-.6-.156-.955,0-.333.044-.638.131-.917.087-.279.216-.52.385-.723s.376-.361.621-.473c.245-.113.525-.169.841-.169.287,0,.537.041.748.123.211.082.365.159.461.232v-2.35l.55-.101v6.425ZM59.675,36.673c-.051-.039-.114-.082-.19-.127s-.165-.087-.266-.127c-.101-.039-.211-.072-.33-.097-.118-.025-.242-.038-.372-.038-.271,0-.497.048-.681.144-.183.096-.331.224-.444.385-.113.161-.194.349-.245.566-.051.217-.076.447-.076.689,0,.575.144,1.016.431,1.323.287.307.668.461,1.141.461.271,0,.489-.013.655-.038.166-.025.292-.052.376-.08v-3.06Z"/>
    </g>
    <g>
      <path class="st0" d="M22.399,33.163c-.31,0-.624-.012-.938-.03-.315-.02-.592-.06-.828-.122v-5.682c.123-.022.256-.044.396-.064.141-.019.284-.035.431-.046.145-.012.291-.021.434-.026.143-.005.279-.007.409-.007.355,0,.685.026.987.079.306.053.568.142.79.267.223.123.395.287.519.489.125.203.186.453.186.751,0,.275-.065.512-.197.709-.133.196-.318.354-.554.472.356.118.616.292.785.523.17.231.255.523.255.879,0,.602-.219,1.054-.658,1.355-.439.301-1.112.452-2.017.452ZM21.681,29.625h.751c.405,0,.723-.058.954-.173.23-.116.346-.322.346-.621,0-.279-.12-.48-.358-.599-.24-.118-.551-.177-.934-.177-.163,0-.308.004-.433.009-.128.006-.235.014-.325.025v1.536ZM21.681,30.461v1.782c.118.011.244.018.379.025.134.004.259.008.373.008.219,0,.423-.015.611-.043.189-.027.351-.076.49-.146.137-.071.249-.164.329-.283.082-.119.121-.27.121-.455,0-.332-.12-.563-.363-.693-.242-.13-.576-.194-1.003-.194h-.937Z"/>
      <path class="st0" d="M27.05,28.569c.336,0,.621.044.851.128.231.083.416.202.554.354.138.152.235.336.295.553.059.217.089.454.089.713v2.677c-.158.034-.395.074-.713.124-.32.047-.676.07-1.076.07-.266,0-.508-.024-.727-.075-.22-.05-.406-.132-.56-.245-.156-.113-.277-.259-.365-.439-.087-.181-.129-.402-.129-.668,0-.253.047-.465.147-.64.097-.174.23-.318.399-.427.168-.109.364-.188.588-.236.222-.048.455-.072.695-.072.113,0,.232.007.355.021.124.014.255.039.396.072v-.169c0-.118-.013-.23-.04-.337-.029-.106-.078-.201-.147-.283-.071-.081-.164-.145-.279-.19-.115-.044-.261-.067-.436-.067-.235,0-.453.017-.648.051-.197.033-.358.072-.482.117l-.127-.827c.13-.045.318-.091.565-.136.25-.045.514-.068.796-.068ZM27.133,32.377c.317,0,.555-.016.717-.05v-1.132c-.054-.017-.137-.034-.243-.051-.107-.017-.224-.025-.355-.025-.112,0-.226.009-.341.025-.116.016-.22.048-.314.094-.093.044-.167.107-.223.188-.055.082-.083.185-.083.309,0,.241.073.409.226.501.153.091.357.139.615.139Z"/>
      <path class="st0" d="M29.541,28.823c.196-.057.451-.111.767-.162.316-.049.664-.075,1.047-.075.361,0,.66.049.903.146.243.099.435.238.579.414.144.179.244.392.303.642.06.25.09.524.09.824v2.481h-1.022v-2.322c0-.236-.014-.438-.048-.603-.031-.167-.081-.301-.151-.406-.071-.103-.166-.18-.287-.227-.122-.049-.269-.073-.443-.073-.13,0-.265.009-.404.026-.141.018-.246.031-.311.042v3.563h-1.023v-4.271Z"/>
      <path class="st0" d="M37.661,32.959c-.203.063-.457.118-.762.17-.309.05-.631.075-.968.075-.349,0-.663-.054-.938-.16-.276-.106-.51-.261-.706-.461-.193-.199-.342-.441-.445-.726-.106-.284-.159-.604-.159-.958,0-.349.044-.666.131-.95.087-.284.216-.528.384-.73.169-.203.375-.359.618-.47.242-.109.519-.164.836-.164.212,0,.401.026.564.075.164.051.305.108.422.169v-2.119l1.022-.168v6.416ZM34.731,30.874c0,.451.107.803.321,1.059.213.257.508.385.886.385.164,0,.302-.006.419-.021.116-.014.21-.029.282-.047v-2.533c-.09-.061-.21-.118-.359-.171-.148-.054-.306-.082-.476-.082-.37,0-.643.128-.815.38-.172.255-.257.598-.257,1.031Z"/>
      <path class="st0" d="M38.412,33.095v-6.383l1.022-.168v2.187c.111-.04.244-.075.392-.101.15-.028.297-.043.444-.043.354,0,.648.049.882.146.233.099.422.238.56.414.141.179.243.391.301.638.059.248.09.523.09.828v2.481h-1.021v-2.322c0-.236-.017-.438-.046-.603-.033-.167-.082-.301-.154-.406-.069-.103-.165-.18-.283-.227-.118-.049-.266-.073-.439-.073-.136,0-.273.015-.414.043-.14.028-.245.054-.312.075v3.513h-1.022Z"/>
      <path class="st0" d="M44.244,28.569c.34,0,.623.044.852.128.232.083.417.202.556.354.137.152.235.336.295.553.059.217.087.454.087.713v2.677c-.158.034-.396.074-.712.124-.319.047-.678.07-1.078.07-.264,0-.505-.024-.725-.075-.219-.05-.407-.132-.562-.245-.154-.113-.277-.259-.363-.439-.088-.181-.131-.402-.131-.668,0-.253.048-.465.148-.64.099-.174.231-.318.401-.427.169-.109.365-.188.587-.236.222-.048.455-.072.696-.072.113,0,.231.007.354.021.123.014.255.039.397.072v-.169c0-.118-.014-.23-.042-.337-.029-.106-.077-.201-.15-.283-.07-.081-.162-.145-.277-.19-.116-.044-.261-.067-.435-.067-.238,0-.454.017-.65.051-.197.033-.358.072-.481.117l-.127-.827c.128-.045.317-.091.565-.136.247-.045.512-.068.793-.068ZM44.33,32.377c.315,0,.555-.016.717-.05v-1.132c-.056-.017-.138-.034-.246-.051-.105-.017-.223-.025-.352-.025-.114,0-.227.009-.343.025-.115.016-.22.048-.312.094-.091.044-.166.107-.224.188-.056.082-.083.185-.083.309,0,.241.076.409.227.501.151.091.357.139.617.139Z"/>
      <path class="st0" d="M46.734,28.823c.199-.057.454-.111.769-.162.315-.049.664-.075,1.047-.075.359,0,.662.049.902.146.242.099.434.238.58.414.143.179.243.392.304.642.059.25.086.524.086.824v2.481h-1.021v-2.322c0-.236-.014-.438-.045-.603-.031-.167-.08-.301-.152-.406-.07-.103-.165-.18-.287-.227-.121-.049-.269-.073-.442-.073-.129,0-.267.009-.406.026-.141.018-.245.031-.313.042v3.563h-1.022v-4.271Z"/>
    </g>
  </g>
  <g>
    <g>
      <path class="st5" d="M10.714,26.493c-.181.183-.444.471-.604.675-.786,1.008-1.3,2.375-1.296,4.075.004,3.307,2.678,5.451,5.983,5.451.799,0,1.559-.158,2.256-.442-1.624,3.586-5.072,4.116-6.34,4.116-3.832,0-6.938-3.107-6.938-6.941,0-3.762,3.001-6.818,6.736-6.93.012,0,.192-.004.202-.004Z"/>
      <path class="st2" d="M10.714,26.493c.178.183.466.466.621.675,1.041,1.389,1.282,2.717,1.282,4.081,0,3.307-2.679,5.449-5.984,5.449-.798,0-1.557-.157-2.254-.44,1.655,3.686,5.068,4.116,6.338,4.116,3.833,0,6.94-3.107,6.94-6.942,0-3.762-3.002-6.818-6.74-6.93-.009,0-.194-.01-.203-.01Z"/>
      <path class="st1" d="M9.996,27.321c-.727,1.006-1.19,2.32-1.185,3.896.007,1.731.746,3.174,1.908,4.13,1.155-.956,1.92-2.371,1.898-4.098-.015-1.294-.136-2.502-1.251-4.04-.178-.246-.488-.564-.649-.717-.018,0-.435.435-.72.829Z"/>
    </g>
    <path class="st3" d="M9.76,24.723c-.963,1.332-1.576,3.071-1.568,5.157.009,2.292.988,4.203,2.526,5.468,1.53-1.265,2.541-3.139,2.512-5.425-.02-1.713-.18-3.313-1.657-5.348-.235-.325-.646-.746-.86-.949-.024,0-.576.576-.954,1.097Z"/>
    <path class="st4" d="M9.992,27.295c-.73,1.01-1.194,2.328-1.189,3.909.007,1.737.749,3.185,1.915,4.144,1.159-.959,1.926-2.379,1.904-4.112-.015-1.298-.136-2.511-1.256-4.053-.178-.246-.49-.566-.652-.719-.018,0-.437.437-.723.831Z"/>
    <path class="st1" d="M10.257,30.241c-.463.64-.757,1.476-.754,2.479.005,1.102.475,2.02,1.214,2.628.735-.608,1.221-1.509,1.207-2.607-.009-.823-.086-1.592-.796-2.57-.113-.156-.311-.359-.413-.456-.011,0-.277.277-.458.527Z"/>
  </g>
</svg>