<?xml version="1.0" encoding="UTF-8"?>
<svg xmlns="http://www.w3.org/2000/svg" version="1.1" xmlns:xlink="http://www.w3.org/1999/xlink" viewBox="0 0 64 64">
  <!-- Generator: Adobe Illustrator 29.5.1, SVG Export Plug-In . SVG Version: 2.1.0 Build 141)  -->
  <defs>
    <style>
      .st0, .st1 {
        fill: #231f20;
      }

      .st2 {
        fill: #fff;
      }

      .st3 {
        fill: url(#linear-gradient1);
      }

      .st4 {
        fill: #f15e3c;
      }

      .st5 {
        isolation: isolate;
      }

      .st6 {
        fill: url(#linear-gradient2);
        mix-blend-mode: multiply;
      }

      .st1 {
        fill-rule: evenodd;
      }

      .st7 {
        fill: #00945e;
      }

      .st8 {
        fill: url(#linear-gradient);
      }
    </style>
    <linearGradient id="linear-gradient" x1="57.45" y1="25.14" x2="57.45" y2="36.11" gradientUnits="userSpaceOnUse">
      <stop offset="0" stop-color="#00945e"/>
      <stop offset=".6" stop-color="#75cbab"/>
      <stop offset="1" stop-color="#00945e"/>
    </linearGradient>
    <linearGradient id="linear-gradient1" x1="57.43" y1="22.81" x2="57.43" y2="35.14" gradientUnits="userSpaceOnUse">
      <stop offset="0" stop-color="#00945e"/>
      <stop offset=".3" stop-color="#75cbab"/>
      <stop offset=".55" stop-color="#00945e"/>
      <stop offset=".84" stop-color="#00945e"/>
      <stop offset=".95" stop-color="#009a66"/>
      <stop offset="1" stop-color="#009f6d"/>
    </linearGradient>
    <linearGradient id="linear-gradient2" x1="57.43" y1="22.81" x2="57.43" y2="35.14" gradientUnits="userSpaceOnUse">
      <stop offset="0" stop-color="#fefefe"/>
      <stop offset=".3" stop-color="#fefefe"/>
      <stop offset=".55" stop-color="#fefefe"/>
      <stop offset=".84" stop-color="#b2b4b5"/>
      <stop offset=".87" stop-color="#babcbd"/>
      <stop offset=".92" stop-color="#d3d4d4"/>
      <stop offset=".99" stop-color="#fafafa"/>
      <stop offset="1" stop-color="#fefefe"/>
    </linearGradient>
  </defs>
  <g class="st5">
    <g id="Layer_1">
      <g>
        <g id="embleme">
          <g>
            <rect class="st8" x="52.25" y="25.39" width="10.4" height="10.4"/>
            <path class="st3" d="M62.32,30.65c0,2.17.1,4.39.1,4.39,0,.25-.16.41-.36.41h-9c-.2,0-.34-.18-.36-.41,0,0-.26-1.9-.26-4.79s.26-4.26.26-4.26c.03-.24.16-.41.36-.41h9c.2,0,.37.19.36.41,0,0-.1,2.5-.1,4.67Z"/>
            <path class="st6" d="M62.32,30.65c0,2.17.1,4.39.1,4.39,0,.25-.16.41-.36.41h-9c-.2,0-.34-.18-.36-.41,0,0-.26-1.9-.26-4.79s.26-4.26.26-4.26c.03-.24.16-.41.36-.41h9c.2,0,.37.19.36.41,0,0-.1,2.5-.1,4.67Z"/>
            <g>
              <g>
                <path class="st7" d="M60.32,28.2c-.64.38-.84.41-1.54.83l.03-.08c.37-.4.52-.57.77-.92-.64.04-1.58.11-2.25.26h0l.03-.07c.61-.3,1.73-.59,2.31-.66-.14-.2-1.28-.81-1.56-.93h0l.03-.07c.86.1,2.01.5,2.51.81.21-.07.43-.07.82-.11,0,0-.06.24-.48.53h0c.11.28-.15,1.85-.36,2.27h0c0-.66-.07-1.48-.31-1.84Z"/>
                <path class="st7" d="M55.62,33.82l.03-.07c-.34-.13-.68-.24-.96-.5h0c.09-.24.19-.43.35-.67h0l.03-.07c-.29.04-.56.15-.81.2h0c-.2-.35-.28-.83-.38-1.29l-.03.07h0c-.06.52-.08.9,0,1.31h0c-.21.06-.4.07-.57.14l-.03.07h0c.27.17.49.29.8.44h0c.16.35.33.59.61.86h0l.03-.07c-.05-.2-.11-.36-.09-.58h0c.34.1.63.15,1.02.16Z"/>
                <path class="st7" d="M56.57,28.6s-.14.24-.25.57h-.03c.8.11,1.56.43,1.75.54l-.03.07h0c-.83-.15-1.27-.13-1.58-.1h0c-.31.03-.37.07-.37.07h0c-.18.39-.28,1.03-.32,1.26l-.03.07h0c-.15-.37-.37-1.09-.37-1.09h0c-.42.22-1.38,1.13-1.38,1.13h0c.53-1.06,1.07-1.54,1.07-1.54h0c-.19-.19-.67-.28-1.03-.3h0l.03-.07c.22-.06.68-.09.99-.11h0c.36-.01.58,0,.58,0h0c.32-.26.81-.48.98-.51Z"/>
                <path class="st7" d="M57.59,33.16c-.17.23-.31.41-.5.62h0c-.27.08-.6.04-.85.05l-.03.07h0c.19.1.38.16.58.2h0c-.16.15-.38.26-.53.36l-.03.07h0c.33-.08.75-.21,1.07-.4h0c.17,0,.32,0,.43-.03h0s.03-.07.03-.07c-.02-.07-.09-.12-.1-.22h0c.3-.23.51-.44.76-.69h0l.03-.07c-.25.17-.55.4-.83.54h0c-.01-.14-.02-.26-.03-.42Z"/>
              </g>
              <g>
                <path class="st2" d="M60.35,28.13c-.64.38-.84.41-1.54.83.41-.44.55-.63.8-1-.64.03-1.58.11-2.25.26h0c.58-.31,1.73-.66,2.34-.74-.14-.19-1.28-.81-1.57-.93h0c.9.07,2.01.41,2.54.73.21-.07.43-.07.82-.1h0c-.1.17-.1.27-.49.53h0c.11.28-.15,1.85-.36,2.27h0c0-.66-.06-1.48-.31-1.84Z"/>
                <path class="st2" d="M55.66,33.75c-.37-.14-.63-.29-.93-.57h0c.09-.24.19-.43.35-.67h0c-.3.04-.52.08-.78.13h0c-.21-.37-.31-.72-.41-1.22h0c-.06.52-.08.9,0,1.31h0c-.24.07-.4.12-.6.21h0c.27.17.49.3.8.44h0c.16.35.33.59.61.86h0c-.06-.23-.08-.41-.06-.66h0c.34.1.63.15,1.02.16Z"/>
                <path class="st2" d="M56.62,28.54h0c-.11.15-.25.43-.28.56h0c.95.13,1.71.62,1.71.62h0c-.83-.15-1.27-.13-1.58-.1h0c-.31.03-.37.07-.37.07h0c-.22.49-.36,1.33-.36,1.33h0c-.15-.36-.37-1.09-.37-1.09h0c-.42.22-1.38,1.13-1.38,1.13h0c.53-1.06,1.07-1.54,1.07-1.54h0c-.18-.19-.67-.28-1.03-.3h0c.18-.07.66-.16,1.02-.18h0c.36-.01.58,0,.58,0h0c.32-.26.82-.47.99-.5Z"/>
                <path class="st2" d="M57.62,33.09c-.17.23-.31.41-.5.61h0c-.32.09-.58.12-.89.12h0c.19.1.38.16.58.2h0c-.2.18-.37.31-.56.43h0c.33-.08.75-.21,1.07-.4h0c.17,0,.32,0,.44-.03h0c-.03-.1-.05-.17-.07-.29h0c.3-.23.52-.44.77-.69h0c-.26.18-.49.32-.8.47h0c-.01-.14-.02-.26-.03-.42Z"/>
              </g>
            </g>
          </g>
        </g>
        <g>
          <path class="st0" d="M23.31,38.55c.12-.42.3-1.01.37-1.27h.72c-.02.22-.03.73-.03.92,0,.16,0,.71.03,1.01h-.51c.02-.19.03-.71.03-1.09,0-.13,0-.34,0-.42-.13.35-.36,1.06-.48,1.52h-.33c-.12-.42-.35-1.17-.47-1.53,0,.43.01,1.4.03,1.52h-.48c.03-.29.03-.84.03-1.01,0-.18-.01-.69-.02-.92h.75c.11.41.26.94.35,1.27Z"/>
          <path class="st0" d="M25.44,37.29c-.01.13-.01.26-.01.39v.91c0,.25.08.39.33.39.22,0,.43-.09.43-.48v-.92c0-.2,0-.22-.02-.3h.48c-.02.17-.02.48-.02.79v.54c0,.44-.3.63-.89.63-.53,0-.86-.11-.86-.66v-.69c0-.18,0-.47-.03-.61h.58Z"/>
          <path class="st0" d="M28.68,37.29v.33c-.18-.03-.41-.05-.6-.05-.01.2-.02.51-.02.63,0,.16,0,.72.04,1.01h-.59c.03-.29.04-.85.04-1.01,0-.2,0-.42-.01-.63-.21,0-.42.02-.61.04v-.32h1.75Z"/>
          <path class="st0" d="M29.53,37.29c-.01.13-.01.26-.01.39v.91c0,.25.08.39.33.39.22,0,.43-.09.43-.48v-.92c0-.2,0-.22-.02-.3h.48c-.02.17-.02.48-.02.79v.54c0,.44-.3.63-.89.63-.53,0-.86-.11-.86-.66v-.69c0-.18,0-.47-.03-.61h.58Z"/>
          <path class="st0" d="M32.32,38.85c-.11,0-.26,0-.37,0s-.25,0-.36.01c-.05.15-.1.28-.12.35h-.48c.11-.24.71-1.61.82-1.92h.39c.07.23.69,1.61.83,1.92h-.58c-.03-.09-.08-.21-.13-.35ZM31.69,38.57c.07,0,.16.01.25.01.1,0,.18,0,.26-.01l-.26-.64h0c-.04.11-.15.37-.25.64Z"/>
          <path class="st0" d="M34.8,39.21h-1.52c.03-.29.03-.84.03-1.01,0-.19-.01-.7-.02-.92h.58c-.01.22-.02.73-.02.92,0,.13,0,.46.01.73h.24c.28,0,.5-.01.72-.04v.31Z"/>
          <path class="st0" d="M37.41,37.29v.31c-.21-.02-.41-.02-.57-.02-.04,0-.26,0-.31,0,0,.09-.01.23-.01.35,0,.07,0,.13,0,.17h.61s0,.29,0,.29h-.61c0,.27,0,.61.03.82h-.59c.03-.29.03-.84.03-1.01,0-.18,0-.7-.02-.92h1.44Z"/>
          <path class="st0" d="M38.26,37.29c-.01.13-.01.26-.01.39v.91c0,.25.08.39.33.39.22,0,.43-.09.43-.48v-.92c0-.2,0-.22-.02-.3h.48c-.02.17-.02.48-.02.79v.54c0,.44-.3.63-.89.63-.53,0-.86-.11-.86-.66v-.69c0-.18,0-.47-.03-.61h.58Z"/>
          <path class="st0" d="M41.65,37.29c-.02.22-.03.72-.03.91,0,.17,0,.75.03,1.01h-.41l-.73-1.11c-.05-.08-.1-.16-.12-.25h0c0,.06,0,.15,0,.25,0,.38.01.98.03,1.11h-.47c.03-.29.03-.84.03-1.01,0-.18,0-.7-.02-.91h.55l.56.93c.06.09.09.15.12.23h0c0-.09.01-.35.01-.61,0-.2,0-.41-.01-.54h.47Z"/>
          <path class="st0" d="M42.93,37.29c.82,0,1.12.39,1.12.92s-.27,1-1.11,1h-.82c.03-.28.03-.67.03-1.04,0-.18,0-.6-.03-.88h.81ZM42.7,37.57c0,.14,0,.39,0,.59,0,.28,0,.53,0,.77.03,0,.16,0,.19,0,.35,0,.63-.18.63-.74s-.32-.64-.65-.64c-.05,0-.12,0-.17.01Z"/>
        </g>
        <g>
          <path class="st0" d="M15.55,32.38c.03.37.03,1.28.03,1.6s0,1.31-.03,1.77l-.03.03h1.6c.77,0,1.6-.26,1.6-.94,0-.43-.31-.74-.88-.91.43-.11.71-.43.71-.77,0-.57-.66-.77-1.25-.8h-1.74v.03ZM16.78,32.75c.66,0,.91.11.91.49,0,.11-.03.2-.09.26-.14.14-.4.23-.71.23l-.2.46h.2c.37,0,.68.11.83.31.08.09.11.2.11.31,0,.37-.31.57-.97.57h-.4c-.03-.51-.03-1.2-.03-1.4,0-.23,0-.77.03-1.23h.31Z"/>
          <path class="st0" d="M22.39,32.35h-.77l.03.86c0,.43.03.88.06,1.31-.06-.14-.09-.2-.34-.54,0-.03-.8-1.25-1.08-1.6v-.03h-.88v.03c.03.37.03,1.28.03,1.6s0,1.31-.03,1.77l-.03.03h.8v-.03c-.03-.83-.03-1.68-.03-2.48v-.03c.03.11.06.2.17.4.03,0,1.4,2,1.45,2.14h.66v-.03c-.06-.46-.06-1.45-.06-1.77s.03-1.23.06-1.6v-.03h-.03Z"/>
          <path class="st0" d="M23.3,32.38c.03.37.06,1.28.06,1.6s0,1.31-.06,1.77v.03h.94v-.03c-.03-.31-.03-.91-.03-1.37h.28c1.25,0,1.88-.34,1.88-1.03,0-.8-.86-.97-1.57-1h-1.51v.03ZM24.47,32.77c.46-.03.77.09.91.26.06.09.11.2.11.31,0,.48-.57.6-1.03.6h-.2s-.03,0-.06-.03v-1.14h.26Z"/>
          <path class="st0" d="M28.18,32.38c.03.37.06,1.28.06,1.6s0,1.31-.06,1.77v.03h.94v-.03c-.03-.31-.03-.91-.03-1.37h.28c1.25,0,1.88-.34,1.88-1.03,0-.8-.86-.97-1.57-1h-1.51v.03ZM29.35,32.77c.46-.03.77.09.91.26.06.09.11.2.11.31,0,.48-.57.6-1.03.6h-.2s-.03,0-.06-.03v-1.14h.26Z"/>
          <path class="st0" d="M32.51,32.35h0v.03c-.2.48-1.34,2.96-1.51,3.33l-.03.06h.83v-.03c.09-.23.17-.48.28-.77h1.34c.14.37.26.66.31.77v.03h.94l-1.51-3.42h-.66ZM32.74,33.37c.09.14.28.6.51,1.14h-1c.17-.43.34-.83.48-1.14"/>
          <path class="st0" d="M35.05,32.38c.03.37.06,1.28.06,1.6s0,1.31-.06,1.77v.03h.94v-.03c-.03-.46-.06-1.45-.06-1.77,0-.23.03-.77.03-1.2h.26c.46-.03.77.09.91.26.09.09.11.2.11.31,0,.4-.37.6-.71.6-.11.03-.2,0-.2,0h-.09l.06.06c.34.48.83,1.34,1.05,1.77h1.03l-.03-.06c-.06-.06-.71-1.03-1-1.45v-.03c.51-.14.77-.43.77-.88,0-.8-.86-.97-1.57-1h-1.51v.03Z"/>
          <path class="st0" d="M39.72,32.35h-.91v.03c.03.37.06,1.28.06,1.6s0,1.31-.06,1.77v.03h.94v-.03c-.03-.46-.06-1.45-.06-1.77s.03-1.23.06-1.6v-.03h-.03Z"/>
          <path class="st0" d="M40.61,32.38c.03.37.06,1.28.06,1.6s0,1.31-.06,1.77v.03h1.6c.77,0,1.6-.26,1.6-.94,0-.43-.31-.74-.91-.91.46-.11.74-.43.74-.77,0-.57-.66-.77-1.25-.8h-1.77v.03ZM41.83,32.75h0c.68,0,.91.11.91.49,0,.11-.03.2-.09.26-.11.14-.37.23-.68.23h-.03l-.17.46h.17c.37,0,.68.11.85.31.09.09.11.2.11.31,0,.37-.34.57-.97.57h-.43v-2.62h.31Z"/>
          <path class="st0" d="M46.14,32.35h-.63l-.03.03c-.17.51-1.37,3.14-1.48,3.33l-.03.06h.83v-.03c.09-.23.17-.48.28-.77.03,0,.66-.03.66-.03l.57.03h.11c.14.37.26.63.31.77v.03h.94l-1.51-3.42h-.03ZM45.74,33.34c.09.17.28.63.48,1.17h-.97c.17-.43.34-.83.48-1.17"/>
          <path class="st0" d="M47.93,33.23c0,.6.6.86,1.14,1.05.43.17.85.34.85.63,0,.09-.03.17-.09.23-.09.11-.29.17-.63.14-.31,0-.66-.11-1.06-.29l-.17-.09v.74l.11.03h.06c.2.06.6.14.97.14,1,0,1.6-.4,1.6-1.06s-.63-.85-1.17-1.08c-.4-.17-.8-.31-.8-.6,0-.06,0-.29.51-.29.37,0,.74.14.97.23l.2.08-.03-.11v-.63l-.17-.03c-.2-.06-.51-.11-.86-.11-.86,0-1.45.4-1.45,1"/>
        </g>
        <g>
          <path class="st1" d="M24.15,30.85c.48,0,1.7-.06,1.99-1.44.16-.75.06-1.27-.73-1.38h0c.64-.14,1.05-.59,1.18-1.22.25-1.16-.42-1.41-1.29-1.41h-2.02l-1.16,5.45h2.02M24.25,26.24h.7c.39,0,.59.29.51.69-.11.53-.49.69-.74.69h-.76l.3-1.39ZM23.78,28.47h.66c.57,0,.69.29.59.78-.16.76-.71.77-.95.77h-.63l.33-1.55Z"/>
          <path class="st1" d="M30.16,27.96c.16-.77.11-1.41-1.39-1.41-.45,0-.85.08-1.16.28-.32.19-.54.52-.65,1.03h1.15c.07-.33.17-.64.58-.64s.42.26.34.62l-.07.33c-1.09-.02-2.18.04-2.48,1.44-.16.73.01,1.34.83,1.34.51,0,.9-.21,1.24-.64h.02l-.07.56h1.09c.03-.26.05-.53.11-.78l.45-2.1M28.83,28.81c-.1.46-.19,1.39-.88,1.39-.38,0-.36-.37-.29-.67.16-.75.58-.7,1.17-.73Z"/>
          <path class="st1" d="M31.07,26.63l-.9,4.22h1.18l.49-2.3c.09-.42.23-1.02,1.25-.95l.22-1.05c-.48,0-.91.14-1.23.63h-.02l.12-.54h-1.12"/>
          <path class="st1" d="M34.2,30.93c1.52,0,1.92-.93,2.2-2.25.24-1.15.29-2.14-1.27-2.14s-1.93.99-2.17,2.14c-.28,1.32-.28,2.25,1.24,2.25M34.15,28.62c.19-.88.32-1.32.82-1.32s.45.44.26,1.32c-.27,1.29-.44,1.56-.87,1.56s-.48-.28-.21-1.56"/>
          <path class="st1" d="M39.64,30.85l1.22-5.85h-1.18l-.41,2.04h-.02c-.17-.36-.43-.48-.86-.48-1.19,0-1.43,1.31-1.61,2.16-.18.87-.51,2.22.71,2.22.45,0,.81-.14,1.11-.55h.02l-.1.47h1.12M38.13,30.2c-.43,0-.41-.44-.18-1.5.18-.84.3-1.43.8-1.43s.35.58.17,1.43c-.23,1.06-.39,1.5-.8,1.5Z"/>
          <path class="st1" d="M44.05,27.96c.16-.77.11-1.41-1.39-1.41-.45,0-.85.08-1.16.28-.32.19-.54.52-.65,1.03h1.15c.07-.33.17-.64.58-.64s.42.26.34.62l-.07.33c-1.09-.02-2.18.04-2.48,1.44-.16.73.01,1.34.83,1.34.51,0,.9-.21,1.24-.64h.02l-.07.56h1.09c.03-.26.05-.53.11-.78l.45-2.1M42.72,28.81c-.1.46-.19,1.39-.88,1.39-.38,0-.36-.37-.29-.67.16-.75.58-.7,1.17-.73Z"/>
        </g>
        <g>
          <path class="st4" d="M9.17,35.76h-4.99s0-.13,0-.13l3.68-.15c.7-.03,1.37-.06,2.03-.29,1.34-.45,2.41-1.36,2.73-2.5.34-1.21-.44-2.4-1.9-2.5,1.24-.36,2.3-1.15,2.58-2.16.37-1.31-.3-1.98-1.41-2.22,1.86-.03,3.31.6,2.82,2.37-.28,1.01-1.36,1.78-2.6,2.12,1.45.11,2.24,1.49,1.86,2.69-.4,1.25-1.41,2.03-2.75,2.47-.66.22-1.33.26-2.03.29"/>
          <path class="st4" d="M6.55,35.14l-2.36.11c0-.06,0-.08,0-.14l5.95-1.72v-.1s-6.03,1.45-6.03,1.45c-.02-.06-.02-.07-.05-.13l6.34-3.52-.04-.1-6.48,3.31c-.04-.06-.03-.06-.08-.11l7.54-7.1-.07-.08-7.75,6.94s-.06-.05-.1-.07l5.5-8.03-.1-.03-5.73,7.91s-.06-.02-.1-.03l3.15-7.76h-.08s-3.55,7.7-3.55,7.7c-.04,0-.09,0-.13,0h-.03s2.29-8.26,2.29-8.26h4.27c2.02-.1,3.62.44,3.09,2.33-.28,1.01-1.34,1.8-2.57,2.13v.03c1.46.1,2.28,1.28,1.94,2.49-.32,1.13-1.44,2.02-2.79,2.47-.66.22-1.33.26-2.03.29"/>
        </g>
      </g>
    </g>
  </g>
</svg>