<?xml version="1.0" encoding="UTF-8"?>
<svg id="Layer_1" data-name="Layer 1" xmlns="http://www.w3.org/2000/svg" width="64" height="64" viewBox="0 0 64 64">
  <defs>
    <style>
      .cls-1, .cls-2 {
        fill: #0099b5;
      }

      .cls-3 {
        fill: #231f20;
      }

      .cls-3, .cls-2 {
        fill-rule: evenodd;
      }
    </style>
  </defs>
  <path class="cls-3" d="M33.92,28.01h1.01c.48,0,.77-.25.77-.65h0c0-.43-.29-.67-.79-.67h-.99v1.33h0ZM35.67,30.2l-.94-1.4h-.81v1.4h-.89v-4.31h1.97c.53,0,.97.15,1.25.43.24.24.37.58.37.98h0c0,.65-.33,1.12-.92,1.34l-.04.02,1.06,1.55h-1.04Z"/>
  <path class="cls-3" d="M39.52,26.63c-.77,0-1.35.6-1.35,1.4h0c0,.8.6,1.42,1.36,1.42s1.35-.6,1.35-1.4h0c0-.8-.6-1.42-1.36-1.42h0ZM39.52,30.27c-1.3,0-2.29-.95-2.29-2.22h0c0-1.26,1.01-2.24,2.3-2.24s2.29.95,2.29,2.22h0c0,1.26-1.01,2.24-2.3,2.24Z"/>
  <path class="cls-3" d="M43.74,27.66h.92c.6,0,.73-.27.73-.5h0c0-.32-.24-.5-.67-.5h-.98v1h0ZM43.74,29.42h1.18c.59,0,.72-.28.72-.51h0c0-.24-.13-.52-.75-.52h-1.15v1.03h0ZM42.86,30.2v-4.31h2c.48,0,.87.13,1.12.38.2.2.29.43.29.72h0c0,.42-.18.72-.56.93l-.07.04.07.03c.56.21.8.53.8,1.05h0c0,.75-.58,1.18-1.6,1.18h-2.05Z"/>
  <polygon class="cls-3" points="47.76 30.2 47.76 27.64 50.99 27.64 50.99 28.42 48.64 28.42 48.64 29.41 50.99 29.41 50.99 30.2 47.76 30.2"/>
  <path class="cls-3" d="M54.39,30.27c-1.26,0-2.21-.95-2.21-2.22h0c0-1.28.97-2.24,2.25-2.24.71,0,1.21.19,1.68.64l-.57.65c-.37-.33-.72-.48-1.12-.48-.74,0-1.3.6-1.3,1.4h0c0,.82.56,1.42,1.3,1.42.49,0,.8-.18,1.15-.5l.56.57c-.5.53-1.01.75-1.75.75Z"/>
  <path class="cls-3" d="M59.21,26.63c-.77,0-1.35.6-1.35,1.4h0c0,.8.6,1.42,1.36,1.42s1.35-.6,1.35-1.4h0c0-.8-.6-1.42-1.36-1.42h0ZM59.21,30.27c-1.3,0-2.28-.95-2.28-2.22h0c0-1.26,1.01-2.24,2.3-2.24s2.29.95,2.29,2.22h0c0,1.26-1.01,2.24-2.3,2.24Z"/>
  <rect class="cls-1" x="47.76" y="25.89" width="3.23" height=".79"/>
  <path class="cls-2" d="M4.64,30.24c-1.26,0-2.21-.95-2.21-2.22h0c0-1.28.97-2.24,2.25-2.24.71,0,1.21.19,1.68.64l-.57.65c-.37-.33-.72-.48-1.12-.48-.73,0-1.31.61-1.31,1.4h0c0,.82.56,1.42,1.31,1.42.49,0,.79-.18,1.15-.5l.57.57c-.5.53-1.01.75-1.75.75Z"/>
  <path class="cls-2" d="M8.5,28.4h1.27l-.63-1.55-.63,1.55h0ZM10.48,30.16l-.4-.98h-1.9l-.4.98h-.91l1.85-4.34h.84l1.84,4.34h-.93Z"/>
  <polygon class="cls-2" points="15.23 30.16 13.06 27.31 13.06 30.16 12.18 30.16 12.18 25.85 13.01 25.85 15.12 28.62 15.12 25.85 16 25.85 16 30.16 15.23 30.16"/>
  <path class="cls-2" d="M18.38,28.4h1.27l-.63-1.55-.63,1.55h0ZM20.37,30.16l-.4-.98h-1.9l-.4.98h-.91l1.85-4.34h.84l1.85,4.34h-.93Z"/>
  <path class="cls-2" d="M22.7,27.98h1.01c.48,0,.77-.25.77-.65h0c0-.43-.29-.67-.79-.67h-.99v1.33h0ZM24.45,30.16l-.94-1.4h-.81v1.4h-.89v-4.31h1.97c.53,0,.97.15,1.25.43.24.24.37.58.37.97h0c0,.65-.33,1.12-.92,1.34l-.04.02,1.06,1.55h-1.04Z"/>
  <path class="cls-2" d="M27.6,28.4h1.27l-.64-1.55-.63,1.55h0ZM29.58,30.16l-.4-.98h-1.9l-.4.98h-.91l1.85-4.34h.84l1.85,4.34h-.93Z"/>
  <polygon class="cls-2" points="37.93 31.23 38.48 31.23 39.17 33.3 39.86 31.23 40.41 31.23 40.91 34.19 40.37 34.19 40.05 32.32 39.42 34.19 38.92 34.19 38.29 32.32 37.97 34.19 37.42 34.19 37.93 31.23"/>
  <path class="cls-2" d="M41.3,32h.56v1.06c0,.21.02.35.04.43.03.08.07.14.14.19.06.05.14.07.23.07s.17-.02.23-.06c.06-.04.11-.11.14-.19.02-.06.03-.2.03-.4v-1.08h.55v.93c0,.38-.03.65-.09.79-.07.17-.18.3-.33.4-.14.09-.33.14-.55.14-.24,0-.44-.05-.58-.16-.15-.11-.25-.26-.31-.45-.04-.13-.06-.38-.06-.73v-.91Z"/>
  <polygon class="cls-2" points="43.85 31.19 44.4 31.19 44.4 32 44.73 32 44.73 32.47 44.4 32.47 44.4 34.19 43.85 34.19 43.85 32.47 43.57 32.47 43.57 32 43.85 32 43.85 31.19"/>
  <path class="cls-2" d="M45.02,32h.56v1.06c0,.21.01.35.04.43.03.08.07.14.14.19.06.05.14.07.23.07s.17-.02.23-.06c.06-.04.11-.11.14-.19.02-.06.03-.2.03-.4v-1.08h.55v.93c0,.38-.03.65-.09.79-.07.17-.18.3-.33.4-.14.09-.33.14-.55.14-.24,0-.44-.05-.58-.16-.15-.11-.25-.26-.31-.45-.04-.13-.06-.38-.06-.73v-.91Z"/>
  <path class="cls-2" d="M48.54,32.45c-.17,0-.31.06-.42.18-.11.12-.17.28-.17.46s.06.35.17.47c.11.12.26.18.42.18s.32-.06.43-.18c.11-.12.17-.28.17-.47s-.06-.35-.17-.46c-.11-.12-.26-.18-.43-.18h0ZM49.12,32h.55v2.2h-.55v-.23c-.11.1-.21.18-.32.22-.11.04-.23.07-.35.07-.28,0-.53-.11-.74-.33-.21-.22-.31-.49-.31-.82s.1-.62.3-.83c.2-.22.44-.32.73-.32.13,0,.26.03.37.07.11.05.22.12.32.22v-.24Z"/>
  <rect class="cls-1" x="50.17" y="31.15" width=".55" height="3.04"/>
  <polygon class="cls-2" points="52.45 31.23 53.92 31.23 53.92 31.78 53.01 31.78 53.01 32.32 53.92 32.32 53.92 32.86 53.01 32.86 53.01 34.19 52.45 34.19 52.45 31.23"/>
  <path class="cls-2" d="M54.36,32h.56v1.06c0,.21.01.35.04.43.03.08.07.14.14.19.06.05.14.07.23.07s.17-.02.23-.06c.06-.04.11-.11.14-.19.02-.06.03-.2.03-.4v-1.08h.55v.93c0,.38-.03.65-.09.79-.07.17-.18.3-.33.4-.14.09-.33.14-.55.14-.24,0-.43-.05-.58-.16-.15-.11-.25-.26-.31-.45-.04-.13-.07-.38-.07-.73v-.91Z"/>
  <path class="cls-2" d="M56.84,32h.55v.23c.13-.11.24-.18.34-.22.1-.04.21-.06.31-.06.22,0,.4.08.55.23.13.13.19.32.19.57v1.45h-.55v-.96c0-.26-.01-.44-.04-.52-.02-.09-.06-.15-.12-.2-.06-.04-.13-.07-.21-.07-.11,0-.21.04-.29.11-.08.07-.13.18-.17.31-.02.07-.02.22-.02.44v.88h-.55v-2.2Z"/>
  <path class="cls-2" d="M60.36,32.45c-.17,0-.31.06-.42.18-.11.12-.17.28-.17.46s.06.35.17.47c.11.12.26.18.42.18s.32-.06.43-.18c.11-.12.17-.28.17-.47s-.06-.35-.17-.46c-.11-.12-.26-.18-.43-.18h0ZM60.94,31.15h.55v3.04h-.55v-.23c-.11.1-.22.18-.32.22-.11.04-.23.07-.35.07-.28,0-.53-.11-.74-.33-.21-.22-.31-.49-.31-.82s.1-.62.3-.83c.2-.22.44-.32.73-.32.13,0,.26.03.37.07.12.05.22.12.32.22v-1.09Z"/>
</svg>