<?xml version="1.0" encoding="UTF-8"?>
<svg id="Layer_1" data-name="Layer 1" xmlns="http://www.w3.org/2000/svg" xmlns:xlink="http://www.w3.org/1999/xlink" viewBox="0 0 64 64">
  <defs>
    <style>
      .cls-1 {
        fill: #454546;
      }

      .cls-2 {
        fill: #6852a2;
      }

      .cls-3 {
        fill: url(#linear-gradient);
      }
    </style>
    <linearGradient id="linear-gradient" x1="27.82" y1="-3016.2" x2="36.09" y2="-3009.65" gradientTransform="translate(.14 3044.48)" gradientUnits="userSpaceOnUse">
      <stop offset="0" stop-color="#503293"/>
      <stop offset=".52" stop-color="#6851a2"/>
    </linearGradient>
  </defs>
  <g>
    <g>
      <path class="cls-1" d="M33.96,23.15c-2.99-.41-5.08-3.16-4.67-6.15.2-1.49.99-2.75,2.1-3.6l2.79,4.09,3.05.02-.02-5.18h-6.54c-4.3,0-7.79,3.49-7.79,7.79s3.49,7.79,7.79,7.79c3.7,0,6.8-2.58,7.59-6.04-1.14.98-2.69,1.49-4.3,1.27h0Z"/>
      <path class="cls-3" d="M22.9,36.05l18.22-6.13v-2.98l-18.22,6.13v2.98Z"/>
    </g>
    <g>
      <path class="cls-1" d="M7.33,39.92c1.44,0,2.35.81,2.62,1.99l-1.3.34c-.09-.63-.5-1.15-1.3-1.15s-1.4.63-1.4,1.57.55,1.57,1.4,1.57c.8,0,1.16-.46,1.3-1.14l1.3.32c-.25,1.18-1.16,1.99-2.62,1.99s-2.7-1.13-2.7-2.74,1.19-2.74,2.7-2.74h0Z"/>
      <path class="cls-1" d="M13.12,39.92c1.38,0,2.36.81,2.36,2.06v3.28h-1.3v-.73h-.15c-.17.35-.53.88-1.63.88-1.17,0-1.95-.63-1.95-1.62,0-.83.72-1.4,1.72-1.51l1.99-.22v-.17c0-.48-.36-.9-1.09-.9-.29,0-.84.07-1.15.73l-1.07-.65c.41-.6.89-1.15,2.27-1.15h0s0,0,0,0ZM12.73,44.32c.92,0,1.43-.54,1.43-1.26v-.13l-1.59.19c-.49.06-.73.28-.73.59,0,.36.3.61.89.61h0Z"/>
      <path class="cls-1" d="M16.45,40.06h1.3v.73h.15c.27-.44.73-.88,1.65-.88,1.3,0,2.39,1.15,2.39,2.74s-1.09,2.74-2.39,2.74c-.92,0-1.38-.44-1.65-.88h-.13v2.14h-1.32v-6.6h0ZM20.62,42.66c0-1.01-.63-1.57-1.42-1.57s-1.42.59-1.42,1.57.61,1.57,1.42,1.57,1.42-.57,1.42-1.57Z"/>
      <path class="cls-1" d="M23.52,37.66c.52,0,.93.37.93.9s-.41.9-.93.9-.93-.37-.93-.9.41-.9.93-.9ZM24.18,45.26h-1.32v-5.19h1.32v5.19Z"/>
      <path class="cls-1" d="M25.71,40.06v-1.58h1.32v1.58h.93v1.11h-.93v2.66c0,.21.1.31.29.31h.84v1.11h-1.42c-.59,0-1.03-.42-1.03-1.01v-3.08h-.54v-1.11h.54,0Z"/>
      <path class="cls-1" d="M38.32,40.06v.77h.15c.22-.5.65-.86,1.37-.86.67,0,1.16.36,1.38.88h.15c.23-.48.65-.88,1.48-.88.95,0,1.72.72,1.72,1.8v3.48h-1.32v-3.37c0-.48-.35-.75-.85-.75-.54,0-.94.31-.94.96v3.16h-1.32v-3.37c0-.48-.35-.75-.85-.75-.54,0-.94.31-.94.96v3.16h-1.32v-5.19h1.3,0Z"/>
      <path class="cls-1" d="M46.19,37.66c.52,0,.93.37.93.9s-.41.9-.93.9-.93-.37-.93-.9.41-.9.93-.9ZM46.85,45.26h-1.32v-5.19h1.32v5.19Z"/>
      <path class="cls-1" d="M49.12,40.1v.84h.15c.21-.48.69-.92,1.64-.92,1.15,0,2.02.83,2.02,2.18v3.1h-1.32v-2.97c0-.72-.42-1.15-1.17-1.15-.85,0-1.3.52-1.3,1.44v2.68h-1.32v-5.19h1.3Z"/>
      <path class="cls-1" d="M59.37,45.26h-1.3v-.73h-.15c-.27.44-.73.88-1.65.88-1.3,0-2.39-1.15-2.39-2.74s1.09-2.74,2.39-2.74c.92,0,1.38.44,1.65.88h.13v-2.31h1.32v6.77h0ZM55.2,42.66c0,1.01.63,1.57,1.42,1.57s1.42-.59,1.42-1.57-.61-1.57-1.42-1.57-1.42.57-1.42,1.57Z"/>
      <path class="cls-1" d="M36.05,38.49h-1.32v6.77s1.32,0,1.32,0v-6.77h0Z"/>
      <path class="cls-1" d="M31.4,39.92c1.38,0,2.36.81,2.36,2.06v3.28h-1.3v-.73h-.15c-.17.35-.53.88-1.63.88-1.17,0-1.95-.63-1.95-1.62,0-.83.72-1.4,1.72-1.51l1.99-.22v-.17c0-.48-.36-.9-1.09-.9-.29,0-.84.07-1.15.73l-1.07-.65c.41-.6.89-1.15,2.27-1.15h0s0,0,0,0ZM31,44.31c.92,0,1.43-.54,1.43-1.26v-.13l-1.59.19c-.49.06-.73.28-.73.59,0,.36.3.61.89.61h0Z"/>
    </g>
  </g>
  <g>
    <path class="cls-2" d="M15.69,51.56h-.75v-4.22h1.31l.65,1.82c.11.27.29.84.42,1.33h.11c.14-.49.31-1.04.42-1.36l.67-1.79h1.23v4.22h-.8v-1.95c0-.49.02-1.12.04-1.61h-.12c-.15.53-.34,1.17-.56,1.76l-.61,1.57h-.78l-.59-1.6c-.22-.62-.39-1.21-.53-1.73h-.12c.01.49,0,1.1,0,1.61v1.95h0Z"/>
    <path class="cls-2" d="M22.62,50.69h-.07c-.18.61-.6.96-1.15.96-.7,0-1.03-.47-1.03-1.19v-2.21h.76v2.01c0,.4.18.7.63.7.51,0,.84-.34.84-.84v-1.87h.76v3.3h-.74v-.87h0Z"/>
    <path class="cls-2" d="M24.11,48.87h-.46v-.61h.46v-.89h.76v.89h.97v.61h-.97v1.58c0,.32.12.49.45.49.17,0,.32-.04.48-.08l.09.67c-.25.08-.41.12-.75.12-.72,0-1.03-.48-1.03-1.1v-1.69h0Z"/>
    <path class="cls-2" d="M28.39,50.69h-.07c-.18.61-.6.96-1.15.96-.7,0-1.03-.47-1.03-1.19v-2.21h.76v2.01c0,.4.18.7.63.7.51,0,.84-.34.84-.84v-1.87h.76v3.3h-.74v-.87h0Z"/>
    <path class="cls-2" d="M31.75,50.77h-.08c-.17.53-.55.86-1.13.86s-1.01-.28-1.01-.93c0-.59.36-1.02,1.19-1.02h.98v-.23c0-.43-.18-.67-.64-.67-.39,0-.61.2-.7.58l-.72-.16c.13-.63.6-1.03,1.44-1.03.96,0,1.36.45,1.36,1.27v2.11h-.72v-.79h0ZM31.71,50.32v-.13h-.86c-.38,0-.6.14-.6.41,0,.24.15.44.58.44.53,0,.88-.31.88-.72h0Z"/>
    <path class="cls-2" d="M33.8,51.56h-.76v-4.51h.76v4.51Z"/>
    <path class="cls-2" d="M36.63,50.03v1.52h-.8v-4.22h2.91v.74h-2.11v1.26h1.9v.7h-1.9Z"/>
    <path class="cls-2" d="M41.18,50.69h-.07c-.18.61-.6.96-1.15.96-.7,0-1.03-.47-1.03-1.19v-2.21h.76v2.01c0,.4.18.7.63.7.51,0,.84-.34.84-.84v-1.87h.76v3.3h-.74v-.87h0Z"/>
    <path class="cls-2" d="M43.26,51.56h-.75v-3.3h.74v.87h.06c.18-.61.6-.96,1.16-.96.69,0,1.02.46,1.02,1.18v2.21h-.75v-2.01c0-.4-.18-.7-.63-.7-.51,0-.84.34-.84.84v1.87h0Z"/>
    <path class="cls-2" d="M48.3,50.69h-.05c-.17.57-.56.96-1.15.96-.76,0-1.2-.61-1.2-1.73s.45-1.76,1.22-1.75c.6,0,.96.37,1.13.95h.05v-2.07h.75v4.51h-.75v-.87ZM48.3,50.06v-.25c0-.57-.33-.95-.84-.95-.55,0-.82.34-.82,1.07s.25,1.05.82,1.05c.51,0,.84-.36.84-.92h0Z"/>
  </g>
</svg>