<?xml version="1.0" encoding="UTF-8"?>
<svg id="Layer_1" data-name="Layer 1" xmlns="http://www.w3.org/2000/svg" viewBox="0 0 64 64">
  <defs>
    <style>
      .cls-1 {
        fill: #00c7b2;
      }
    </style>
  </defs>
  <rect class="cls-1" x="3" y="34.39" width="36.24" height="2.98"/>
  <g>
    <path d="M3.85,31.41v-.41h.37c.51,0,.86-.11,1.05-.32.19-.21.28-.61.28-1.19v-9.37c0-.42-.03-.71-.08-.88-.05-.17-.16-.31-.31-.42-.24-.16-.55-.24-.94-.24h-.37v-.41h6.07c1.13,0,2.03.11,2.71.34,1.18.4,2.14,1.07,2.87,2.01.93,1.18,1.39,2.62,1.39,4.32,0,1.39-.32,2.62-.96,3.69-.7,1.18-1.78,2.01-3.25,2.48-.82.27-1.74.41-2.76.41H3.85ZM8.48,18.91v9.83c0,.57.02.96.05,1.17.03.21.1.36.2.46.19.18.53.27,1.04.27.78,0,1.46-.18,2.03-.54.66-.41,1.14-1.13,1.44-2.14.27-.89.4-1.93.4-3.11,0-2.04-.38-3.62-1.13-4.72-.49-.71-1.21-1.11-2.18-1.18-.3-.03-.91-.04-1.84-.04Z"/>
    <path d="M27.32,18v4.15h-.47c-.16-.87-.49-1.58-1-2.13-.81-.88-1.82-1.32-3.03-1.32-.74,0-1.34.17-1.81.52-.47.35-.7.81-.7,1.38,0,.31.08.61.25.89.17.28.39.5.67.66.29.17,1.05.48,2.29.94,1,.37,1.6.59,1.8.67.2.08.39.17.59.29,1.4.83,2.1,2.02,2.1,3.54,0,1.27-.45,2.24-1.35,2.92-.95.72-2.08,1.08-3.39,1.08-.84,0-1.8-.21-2.87-.63-.35-.14-.61-.2-.79-.2-.42,0-.7.26-.84.79h-.51v-4.77h.51c.03.89.41,1.75,1.15,2.6.38.43.87.77,1.48,1.02.61.25,1.24.38,1.9.38.76,0,1.38-.19,1.86-.57.49-.37.73-.87.73-1.5,0-.36-.09-.7-.28-1.02-.19-.32-.44-.58-.75-.76-.29-.17-1.08-.51-2.38-1-1.1-.42-1.77-.69-2.02-.81-.25-.12-.54-.31-.87-.58-.4-.32-.71-.73-.94-1.23-.23-.5-.34-1.03-.34-1.6,0-1.13.4-2.03,1.2-2.69.86-.71,1.89-1.06,3.09-1.06.49,0,.95.05,1.38.15.43.1,1.05.31,1.86.62.12.05.25.07.39.07.4,0,.61-.27.62-.81h.47Z"/>
    <path d="M33.48,25.37v4.11c0,.41.02.7.07.87.05.16.15.3.31.4.25.16.56.24.94.24h.65v.41h-6.6v-.41h.36c.5,0,.85-.11,1.05-.33.19-.22.29-.61.29-1.19v-9.4c0-.43-.02-.73-.07-.88-.05-.16-.15-.28-.3-.39-.24-.16-.55-.24-.94-.24h-.39v-.41h6.6c1.16,0,2.09.18,2.79.55,1.23.63,1.84,1.64,1.84,3.04,0,.89-.27,1.63-.82,2.23-.43.5-1.01.86-1.74,1.08-.73.22-1.68.33-2.87.33-.24,0-.63,0-1.18-.02ZM33.48,24.57c.36.01.64.02.86.02.85,0,1.48-.2,1.86-.6.45-.46.68-1.2.68-2.21,0-.61-.07-1.13-.22-1.57-.15-.44-.36-.75-.63-.94-.34-.23-.83-.35-1.49-.35-.3,0-.66,0-1.06.03v5.62Z"/>
  </g>
  <g>
    <g>
      <path d="M7.22,43.97c-.03-.63-.06-1.37-.06-2.04h-.02c-.16.59-.36,1.24-.58,1.86l-.71,2.1h-.68l-.65-2.07c-.19-.62-.36-1.28-.49-1.89h-.01c-.02.63-.05,1.4-.09,2.07l-.11,1.95h-.83l.32-4.85h1.17l.63,1.95c.17.57.32,1.14.45,1.68h.02c.13-.53.29-1.12.48-1.69l.67-1.94h1.15l.28,4.85h-.86l-.09-1.98Z"/>
      <path d="M11.1,41.1v2.83c0,.95.4,1.39.99,1.39.64,0,1.02-.44,1.02-1.39v-2.83h.89v2.77c0,1.5-.77,2.16-1.94,2.16s-1.85-.63-1.85-2.15v-2.78h.88Z"/>
      <path d="M17.09,41.84h-1.38v-.74h3.66v.74h-1.4v4.11h-.88v-4.11Z"/>
      <path d="M21.97,41.1v2.83c0,.95.4,1.39.99,1.39.64,0,1.02-.44,1.02-1.39v-2.83h.89v2.77c0,1.5-.77,2.16-1.94,2.16s-1.85-.63-1.85-2.15v-2.78h.88Z"/>
      <path d="M27.77,44.58l-.42,1.37h-.91l1.55-4.85h1.13l1.58,4.85h-.95l-.44-1.37h-1.54ZM29.16,43.91l-.38-1.19c-.09-.3-.17-.63-.24-.91h-.01c-.07.28-.14.62-.23.91l-.37,1.19h1.24Z"/>
      <path d="M32.53,41.1h.88v4.11h1.99v.74h-2.88v-4.85Z"/>
    </g>
    <g>
      <path d="M40.09,41.1h2.81v.73h-1.92v1.34h1.78v.72h-1.78v2.07h-.89v-4.85Z"/>
      <path d="M45.78,41.1v2.83c0,.95.4,1.39.99,1.39.64,0,1.02-.44,1.02-1.39v-2.83h.89v2.77c0,1.5-.77,2.16-1.94,2.16s-1.85-.63-1.85-2.15v-2.78h.89Z"/>
      <path d="M50.83,45.95v-4.85h1.01l1.25,2.08c.32.54.6,1.1.83,1.63h.01c-.06-.65-.08-1.27-.08-2.01v-1.69h.82v4.85h-.92l-1.27-2.14c-.31-.53-.63-1.12-.86-1.67h-.03c.04.63.05,1.27.05,2.07v1.73h-.82Z"/>
      <path d="M56.86,41.17c.4-.06.88-.11,1.41-.11.91,0,1.53.19,1.97.56.47.38.76.96.76,1.78,0,.87-.3,1.51-.76,1.93-.48.44-1.25.66-2.19.66-.51,0-.9-.03-1.19-.06v-4.76ZM57.74,45.28c.12.02.31.02.49.02,1.15,0,1.83-.63,1.83-1.86,0-1.07-.61-1.68-1.72-1.68-.28,0-.47.02-.6.05v3.48Z"/>
    </g>
  </g>
</svg>