<?xml version="1.0" encoding="UTF-8"?>
<!DOCTYPE svg PUBLIC "-//W3C//DTD SVG 1.1//EN" "http://www.w3.org/Graphics/SVG/1.1/DTD/svg11.dtd">
<!-- Creator: CorelDRAW -->
<svg xmlns="http://www.w3.org/2000/svg" xml:space="preserve" width="64px" height="64px" version="1.1" style="shape-rendering:geometricPrecision; text-rendering:geometricPrecision; image-rendering:optimizeQuality; fill-rule:evenodd; clip-rule:evenodd"
viewBox="0 0 4.75 4.75"
 xmlns:xlink="http://www.w3.org/1999/xlink"
 xmlns:xodm="http://www.corel.com/coreldraw/odm/2003">
 <defs>
  <style type="text/css">
   <![CDATA[
    .fil1 {fill:#FEFEFE}
    .fil2 {fill:#264796}
    .fil0 {fill:#1E45A1}
    .fil4 {fill:#FEFEFE;fill-rule:nonzero}
    .fil5 {fill:#95C12B;fill-rule:nonzero}
    .fil3 {fill:#264796;fill-rule:nonzero}
   ]]>
  </style>
 </defs>
 <g id="Layer_x0020_1">
  <metadata id="CorelCorpID_0Corel-Layer"/>
  <g id="_1828316806400">
   <rect class="fil0" width="4.75" height="4.75"/>
   <g>
    <path class="fil1" d="M0.68 2.01c0.2,0 0.37,0.17 0.37,0.37 0,0.2 -0.17,0.36 -0.37,0.36 -0.2,0 -0.36,-0.16 -0.36,-0.36 0,-0.2 0.16,-0.37 0.36,-0.37z"/>
    <path class="fil2" d="M0.43 2.39l0.18 0c-0.01,0 -0.02,0.01 -0.03,0.01 -0.02,0.01 -0.02,0.03 -0.02,0.04 0.01,0.02 0.03,0.02 0.05,0.01 0.02,-0.01 0.04,-0.04 0.06,-0.06 0,0.03 -0.02,0.06 -0.02,0.09 0,0.02 0.02,0.03 0.03,0.03 0.02,0 0.03,-0.01 0.03,-0.03 0.01,-0.03 -0.01,-0.06 -0.02,-0.09 0.03,0.02 0.05,0.05 0.07,0.06 0.02,0.01 0.04,0.01 0.04,-0.01 0.01,-0.01 0.01,-0.03 -0.01,-0.04 -0.02,-0.01 -0.06,-0.01 -0.09,-0.02 0.03,-0.02 0.07,-0.02 0.09,-0.03 0.02,-0.01 0.02,-0.03 0.01,-0.04 0,-0.02 -0.02,-0.02 -0.04,-0.01 -0.02,0.01 -0.04,0.04 -0.07,0.06 0.01,-0.03 0.03,-0.06 0.02,-0.09 0,-0.02 -0.01,-0.03 -0.03,-0.03 -0.01,0 -0.03,0.01 -0.03,0.03 0,0.03 0.02,0.06 0.02,0.09 -0.02,-0.02 -0.04,-0.05 -0.06,-0.06 -0.02,-0.01 -0.04,-0.01 -0.05,0.01 0,0.01 0,0.03 0.02,0.04 0.01,0.01 0.02,0.01 0.03,0.01l-0.18 0c0.01,-0.13 0.12,-0.24 0.25,-0.24 0.1,0 0.18,0.05 0.22,0.12l0.03 0c-0.04,-0.09 -0.14,-0.15 -0.25,-0.15 -0.15,0 -0.28,0.13 -0.28,0.29 0,0.15 0.13,0.28 0.28,0.28 0.11,0 0.2,-0.05 0.25,-0.14l-0.03 0c-0.05,0.07 -0.12,0.11 -0.22,0.11 -0.13,0 -0.24,-0.1 -0.25,-0.24z"/>
    <path class="fil3" d="M0.43 2.39l0.23 0 -0.05 0.01c-0.01,0 -0.01,0 -0.02,0 0,0 0,0 -0.01,0.01l0 0c0,0 -0.01,0.01 -0.01,0.01 0,0.01 0,0.02 0,0.02l0 0c0,0.01 0.01,0.01 0.02,0.01 0,0 0.01,0 0.02,0l0 0c0.01,-0.01 0.02,-0.02 0.03,-0.03 0.01,-0.01 0.02,-0.02 0.03,-0.03l0.01 -0.01 0 0.01c0,0.02 -0.01,0.03 -0.01,0.05 -0.01,0.01 -0.01,0.03 -0.01,0.04l0 0c0,0.01 0,0.01 0.01,0.02 0,0.01 0.01,0.01 0.01,0.01 0.01,0 0.02,0 0.02,-0.01 0.01,-0.01 0.01,-0.01 0.01,-0.02l0 0c0,-0.01 0,-0.03 -0.01,-0.04 0,-0.02 -0.01,-0.03 -0.01,-0.05l0 -0.01 0.01 0.01c0.01,0.01 0.02,0.02 0.03,0.03 0.01,0.01 0.02,0.02 0.03,0.03l0 0c0.01,0 0.02,0 0.02,0 0.01,0 0.02,0 0.02,-0.01l0 0c0,0 0,-0.01 0,-0.02 0,0 -0.01,-0.01 -0.01,-0.01l0 0c-0.01,-0.01 -0.03,-0.01 -0.04,-0.02 -0.02,0 -0.03,0 -0.05,-0.01l-0.01 0 0.01 -0.01c0.02,-0.01 0.03,-0.01 0.05,-0.01 0.01,0 0.03,-0.01 0.04,-0.01l0 0c0,-0.01 0.01,-0.01 0.01,-0.02 0,-0.01 0,-0.01 0,-0.02l0 0c0,-0.01 -0.01,-0.01 -0.02,-0.01 0,0 -0.01,0 -0.02,0l0 0c-0.01,0.01 -0.02,0.02 -0.03,0.03 -0.01,0.01 -0.02,0.02 -0.03,0.03l-0.01 0.01 0 -0.01c0,-0.02 0.01,-0.03 0.01,-0.05 0.01,-0.01 0.01,-0.02 0.01,-0.04l0 0c0,-0.01 0,-0.01 -0.01,-0.02 0,0 -0.01,-0.01 -0.02,-0.01 0,0 -0.01,0.01 -0.01,0.01 -0.01,0.01 -0.01,0.01 -0.01,0.02l0 0c0,0.02 0,0.03 0.01,0.04 0,0.02 0.01,0.03 0.01,0.05l0 0.01 -0.01 -0.01c-0.01,-0.01 -0.02,-0.02 -0.03,-0.03 -0.01,-0.01 -0.02,-0.02 -0.03,-0.03l0 0c-0.01,0 -0.02,0 -0.02,0 -0.01,0 -0.02,0 -0.02,0.01l0 0c0,0.01 0,0.01 0,0.02 0,0.01 0.01,0.01 0.01,0.02l0 0c0.01,0 0.01,0 0.01,0 0.01,0 0.01,0.01 0.02,0.01l0.05 0.01 -0.24 0 0 -0.01c0.01,-0.07 0.04,-0.13 0.08,-0.17 0.05,-0.05 0.11,-0.08 0.18,-0.08 0.05,0 0.09,0.02 0.13,0.04 0.04,0.02 0.07,0.05 0.09,0.08l0.03 0c-0.03,-0.04 -0.06,-0.07 -0.1,-0.1 -0.04,-0.02 -0.09,-0.03 -0.15,-0.03 -0.07,0 -0.14,0.03 -0.19,0.08 -0.06,0.05 -0.09,0.12 -0.09,0.2 0,0.07 0.03,0.14 0.09,0.19 0.05,0.05 0.12,0.09 0.19,0.09 0.06,0 0.11,-0.02 0.15,-0.04 0.04,-0.02 0.07,-0.06 0.09,-0.1l-0.02 0c-0.02,0.04 -0.05,0.07 -0.09,0.09 -0.04,0.02 -0.08,0.03 -0.13,0.03 -0.07,0 -0.13,-0.03 -0.18,-0.07 -0.04,-0.05 -0.07,-0.11 -0.08,-0.18l0 0 0.01 0zm0.15 0.01l-0.15 0c0.01,0.06 0.04,0.12 0.08,0.16 0.05,0.04 0.11,0.07 0.17,0.07 0.05,0 0.09,-0.01 0.13,-0.03 0.03,-0.02 0.06,-0.05 0.08,-0.09l0 0 0.05 0 0 0.01c-0.03,0.05 -0.06,0.08 -0.11,0.11 -0.04,0.02 -0.09,0.04 -0.15,0.04 -0.08,0 -0.15,-0.04 -0.2,-0.09 -0.05,-0.05 -0.09,-0.12 -0.09,-0.2 0,-0.08 0.04,-0.16 0.09,-0.21 0.05,-0.05 0.12,-0.08 0.2,-0.08 0.06,0 0.11,0.01 0.15,0.04 0.05,0.02 0.08,0.06 0.11,0.11l0 0 -0.04 0 0 0c-0.03,-0.03 -0.06,-0.06 -0.09,-0.08 -0.04,-0.02 -0.08,-0.03 -0.13,-0.03 -0.06,0 -0.12,0.02 -0.17,0.06 -0.04,0.04 -0.07,0.1 -0.08,0.17l0.15 0 0 -0.01c-0.01,0 -0.02,-0.01 -0.02,-0.02 0,-0.01 0,-0.02 0,-0.03l0 0c0.01,0 0.01,-0.01 0.02,-0.01 0.01,0 0.02,0 0.03,0 0.01,0.01 0.03,0.02 0.04,0.03 0,0.01 0.01,0.02 0.02,0.03 0,-0.01 -0.01,-0.02 -0.01,-0.03 -0.01,-0.02 -0.01,-0.03 -0.01,-0.05 0,-0.01 0,-0.02 0.01,-0.03 0.01,0 0.01,-0.01 0.02,-0.01 0.01,0 0.02,0.01 0.03,0.01 0.01,0.01 0.01,0.02 0.01,0.03 0,0.02 0,0.03 -0.01,0.05 0,0.01 -0.01,0.02 -0.01,0.03 0.01,-0.01 0.02,-0.02 0.02,-0.03 0.01,-0.01 0.02,-0.02 0.04,-0.03 0.01,0 0.02,0 0.03,0 0,0 0.01,0.01 0.02,0.01l0 0c0,0.01 0,0.02 0,0.03 0,0.01 -0.01,0.02 -0.02,0.02 -0.01,0.01 -0.03,0.02 -0.04,0.02 -0.01,0 -0.02,0 -0.03,0.01 0.01,0 0.02,0 0.03,0 0.01,0.01 0.03,0.01 0.04,0.02 0.01,0 0.02,0.01 0.02,0.02 0,0.01 0,0.02 0,0.03l0 0c-0.01,0.01 -0.02,0.01 -0.02,0.01 -0.01,0 -0.02,0 -0.03,0 -0.02,-0.01 -0.03,-0.02 -0.04,-0.03 0,-0.01 -0.01,-0.02 -0.02,-0.02 0,0.01 0.01,0.02 0.01,0.02 0.01,0.02 0.01,0.04 0.01,0.05 0,0.01 0,0.02 -0.01,0.03 -0.01,0 -0.02,0.01 -0.03,0.01 -0.01,0 -0.01,-0.01 -0.02,-0.01 -0.01,-0.01 -0.01,-0.02 -0.01,-0.03 0,-0.01 0,-0.03 0.01,-0.05 0,0 0.01,-0.01 0.01,-0.02 -0.01,0 -0.02,0.01 -0.02,0.02 -0.01,0.01 -0.03,0.02 -0.04,0.03 -0.01,0 -0.02,0 -0.03,0 -0.01,0 -0.01,0 -0.02,-0.01l0 0c0,-0.01 0,-0.02 0,-0.03 0,-0.01 0.01,-0.02 0.02,-0.02l0 0z"/>
    <path class="fil4" d="M1.43 2.02l0 0.07 -0.18 0 0 0.1 0.14 0 0 0.08 -0.14 0 0 0.1 0.18 0 0 0.07 -0.28 0 0 -0.42 0.28 0zm0.47 0.21c0,0.03 -0.01,0.06 -0.02,0.09 -0.01,0.02 -0.02,0.04 -0.04,0.06 -0.02,0.02 -0.05,0.04 -0.07,0.05 -0.03,0.01 -0.06,0.01 -0.09,0.01l-0.17 0 0 -0.42 0.17 0c0.03,0 0.06,0 0.09,0.01 0.02,0.01 0.05,0.03 0.07,0.05 0.02,0.02 0.03,0.04 0.04,0.07 0.01,0.02 0.02,0.05 0.02,0.08zm-0.1 0c0,-0.02 -0.01,-0.04 -0.01,-0.06 -0.01,-0.01 -0.02,-0.03 -0.03,-0.04 -0.01,-0.01 -0.02,-0.02 -0.03,-0.03 -0.02,0 -0.04,-0.01 -0.05,-0.01l-0.07 0 0 0.28 0.07 0c0.01,0 0.03,-0.01 0.05,-0.01 0.01,-0.01 0.02,-0.02 0.03,-0.03 0.01,-0.01 0.02,-0.03 0.03,-0.04 0,-0.02 0.01,-0.04 0.01,-0.06zm0.44 -0.21l0 0.07 -0.17 0 0 0.1 0.13 0 0 0.08 -0.13 0 0 0.1 0.17 0 0 0.07 -0.27 0 0 -0.42 0.27 0zm0.18 0.34l0.16 0 0 0.08 -0.26 0 0 -0.42 0.1 0 0 0.34zm0.15 -0.34l0.08 0c0.01,0 0.02,0 0.02,0 0.01,0.01 0.01,0.01 0.01,0.02l0.06 0.22c0.01,0.01 0.01,0.02 0.01,0.03 0,0 0,0.01 0,0.02 0.01,-0.01 0.01,-0.02 0.01,-0.02 0,-0.01 0,-0.02 0.01,-0.03l0.07 -0.22c0,-0.01 0,-0.01 0.01,-0.02 0,0 0.01,0 0.02,0l0.03 0c0.01,0 0.01,0 0.02,0 0,0.01 0.01,0.01 0.01,0.02l0.07 0.22c0,0.01 0,0.02 0.01,0.02 0,0.01 0,0.02 0,0.03 0,-0.01 0,-0.02 0.01,-0.02 0,-0.01 0,-0.02 0,-0.03l0.06 -0.22c0,-0.01 0.01,-0.01 0.01,-0.02 0.01,0 0.01,0 0.02,0l0.08 0 -0.13 0.42 -0.09 0 -0.08 -0.26c0,0 0,0 -0.01,-0.01 0,0 0,-0.01 0,-0.01 0,0 0,0.01 0,0.01 -0.01,0.01 -0.01,0.01 -0.01,0.01l-0.08 0.26 -0.09 0 -0.13 -0.42zm0.96 0l0 0.07 -0.18 0 0 0.1 0.14 0 0 0.08 -0.14 0 0 0.1 0.18 0 0 0.07 -0.28 0 0 -0.42 0.28 0zm0.19 0.42l-0.1 0 0 -0.42 0.1 0 0 0.42zm0.34 -0.34c0,0.01 -0.01,0.01 -0.01,0.01 0,0.01 -0.01,0.01 -0.01,0.01 -0.01,0 -0.01,0 -0.02,-0.01 0,0 -0.01,0 -0.01,-0.01 -0.01,0 -0.02,0 -0.03,-0.01 -0.01,0 -0.02,0 -0.03,0 -0.01,0 -0.03,0 -0.04,0.01 -0.01,0.01 -0.01,0.02 -0.01,0.03 0,0.01 0,0.02 0.01,0.03 0,0 0.01,0.01 0.02,0.01 0.01,0 0.02,0.01 0.03,0.01 0.01,0.01 0.02,0.01 0.03,0.01 0.02,0.01 0.03,0.01 0.04,0.02 0.01,0 0.02,0.01 0.03,0.02 0.01,0.01 0.02,0.02 0.02,0.03 0.01,0.01 0.01,0.03 0.01,0.05 0,0.02 0,0.04 -0.01,0.05 -0.01,0.02 -0.02,0.03 -0.03,0.05 -0.01,0.01 -0.03,0.02 -0.05,0.03 -0.02,0 -0.04,0.01 -0.06,0.01 -0.02,0 -0.03,0 -0.04,-0.01 -0.02,0 -0.03,0 -0.04,-0.01 -0.02,0 -0.03,-0.01 -0.04,-0.01 -0.01,-0.01 -0.02,-0.02 -0.03,-0.03l0.03 -0.04c0,-0.01 0,-0.01 0.01,-0.01 0,0 0.01,-0.01 0.01,-0.01 0.01,0 0.01,0.01 0.02,0.01 0,0 0.01,0.01 0.02,0.01 0.01,0.01 0.02,0.01 0.02,0.01 0.01,0.01 0.03,0.01 0.04,0.01 0.02,0 0.03,0 0.04,-0.01 0.01,-0.01 0.02,-0.02 0.02,-0.04 0,-0.01 -0.01,-0.02 -0.01,-0.02 -0.01,-0.01 -0.01,-0.02 -0.02,-0.02 -0.01,0 -0.02,-0.01 -0.03,-0.01 -0.02,0 -0.03,-0.01 -0.04,-0.01 -0.01,0 -0.02,-0.01 -0.03,-0.01 -0.01,-0.01 -0.02,-0.02 -0.03,-0.03 -0.01,-0.01 -0.02,-0.02 -0.03,-0.03 0,-0.01 0,-0.03 0,-0.05 0,-0.02 0,-0.03 0.01,-0.05 0,-0.01 0.01,-0.03 0.02,-0.04 0.02,-0.01 0.03,-0.02 0.05,-0.03 0.02,0 0.04,-0.01 0.06,-0.01 0.02,0 0.03,0 0.04,0.01 0.01,0 0.03,0 0.04,0.01 0.01,0 0.02,0 0.03,0.01 0.01,0.01 0.02,0.01 0.02,0.02l-0.02 0.04zm0.34 0c0,0.01 0,0.01 -0.01,0.01 0,0.01 -0.01,0.01 -0.01,0.01 0,0 -0.01,0 -0.01,-0.01 -0.01,0 -0.02,0 -0.02,-0.01 -0.01,0 -0.02,0 -0.02,-0.01 -0.01,0 -0.02,0 -0.03,0 -0.02,0 -0.04,0 -0.04,0.01 -0.01,0.01 -0.02,0.02 -0.02,0.03 0,0.01 0,0.02 0.01,0.03 0.01,0 0.01,0.01 0.02,0.01 0.01,0 0.02,0.01 0.03,0.01 0.01,0.01 0.02,0.01 0.04,0.01 0.01,0.01 0.02,0.01 0.03,0.02 0.01,0 0.02,0.01 0.03,0.02 0.01,0.01 0.02,0.02 0.02,0.03 0.01,0.01 0.01,0.03 0.01,0.05 0,0.02 0,0.04 -0.01,0.05 -0.01,0.02 -0.02,0.03 -0.03,0.05 -0.01,0.01 -0.03,0.02 -0.05,0.03 -0.02,0 -0.04,0.01 -0.06,0.01 -0.01,0 -0.03,0 -0.04,-0.01 -0.02,0 -0.03,0 -0.04,-0.01 -0.01,0 -0.03,-0.01 -0.04,-0.01 -0.01,-0.01 -0.02,-0.02 -0.03,-0.03l0.03 -0.04c0,-0.01 0.01,-0.01 0.01,-0.01 0,0 0.01,-0.01 0.01,-0.01 0.01,0 0.02,0.01 0.02,0.01 0.01,0 0.01,0.01 0.02,0.01 0.01,0.01 0.02,0.01 0.03,0.01 0.01,0.01 0.02,0.01 0.03,0.01 0.02,0 0.03,0 0.04,-0.01 0.01,-0.01 0.02,-0.02 0.02,-0.04 0,-0.01 0,-0.02 -0.01,-0.02 -0.01,-0.01 -0.01,-0.02 -0.02,-0.02 -0.01,0 -0.02,-0.01 -0.03,-0.01 -0.01,0 -0.02,-0.01 -0.04,-0.01 -0.01,0 -0.02,-0.01 -0.03,-0.01 -0.01,-0.01 -0.02,-0.02 -0.03,-0.03 -0.01,-0.01 -0.02,-0.02 -0.02,-0.03 -0.01,-0.01 -0.01,-0.03 -0.01,-0.05 0,-0.02 0,-0.03 0.01,-0.05 0.01,-0.01 0.01,-0.03 0.03,-0.04 0.01,-0.01 0.02,-0.02 0.04,-0.03 0.02,0 0.04,-0.01 0.07,-0.01 0.01,0 0.02,0 0.03,0.01 0.02,0 0.03,0 0.04,0.01 0.01,0 0.02,0 0.03,0.01 0.01,0.01 0.02,0.01 0.03,0.02l-0.03 0.04z"/>
    <path class="fil5" d="M1.34 2.74l-0.03 0c-0.01,0 -0.01,0 -0.01,-0.01 -0.01,0 -0.01,0 -0.01,0l-0.01 -0.03 -0.07 0 -0.01 0.03c0,0 0,0 0,0 -0.01,0.01 -0.01,0.01 -0.01,0.01l-0.04 0 0.07 -0.18 0.05 0 0.07 0.18zm-0.12 -0.07l0.05 0 -0.02 -0.05c0,0 0,0 0,-0.01 0,0 0,-0.01 0,-0.01 0,0 -0.01,0.01 -0.01,0.01 0,0.01 0,0.01 0,0.01l-0.02 0.05zm0.26 -0.07c0,0 0,0 -0.01,0 0,0 0,0 0,0 0,0 0,0 -0.01,0 0,0 0,0 0,0 -0.01,0 -0.01,-0.01 -0.01,-0.01 -0.01,0 -0.01,0 -0.02,0 0,0 -0.01,0 -0.01,0.01 -0.01,0 -0.01,0 -0.01,0.01 0,0 0,0.01 0,0.01 0.01,0 0.01,0 0.01,0 0.01,0.01 0.01,0.01 0.02,0.01 0,0 0.01,0 0.01,0 0.01,0.01 0.01,0.01 0.02,0.01 0,0 0,0.01 0.01,0.01 0,0 0.01,0.01 0.01,0.01 0,0.01 0,0.01 0,0.02 0,0.01 0,0.02 0,0.02 -0.01,0.01 -0.01,0.02 -0.02,0.02 0,0.01 -0.01,0.01 -0.02,0.01 0,0.01 -0.01,0.01 -0.02,0.01 -0.01,0 -0.02,0 -0.02,0 -0.01,0 -0.01,-0.01 -0.02,-0.01 0,0 -0.01,0 -0.01,0 -0.01,-0.01 -0.01,-0.01 -0.02,-0.01l0.02 -0.02c0,0 0,-0.01 0,-0.01 0,0 0,0 0,0 0.01,0 0.01,0 0.01,0 0.01,0.01 0.01,0.01 0.01,0.01 0,0 0.01,0 0.01,0 0.01,0.01 0.01,0.01 0.02,0.01 0,0 0.01,0 0.02,-0.01 0,0 0,-0.01 0,-0.01 0,-0.01 0,-0.01 0,-0.01 0,-0.01 -0.01,-0.01 -0.01,-0.01 -0.01,0 -0.01,0 -0.01,0 -0.01,-0.01 -0.01,-0.01 -0.02,-0.01 0,0 -0.01,0 -0.01,0 -0.01,-0.01 -0.01,-0.01 -0.02,-0.01 0,-0.01 0,-0.01 -0.01,-0.02 0,0 0,-0.01 0,-0.02 0,0 0,-0.01 0,-0.02 0.01,0 0.01,-0.01 0.02,-0.01 0,-0.01 0.01,-0.01 0.02,-0.02 0,0 0.01,0 0.02,0 0.01,0 0.01,0 0.02,0 0,0 0.01,0 0.01,0 0.01,0.01 0.01,0.01 0.02,0.01 0,0 0.01,0.01 0.01,0.01l-0.01 0.02zm0.16 0c0,0 -0.01,0 -0.01,0 0,0 0,0 0,0 0,0 -0.01,0 -0.01,0 0,0 0,0 -0.01,0 0,0 0,-0.01 -0.01,-0.01 0,0 0,0 -0.01,0 -0.01,0 -0.01,0 -0.02,0.01 0,0 0,0 0,0.01 0,0 0,0.01 0,0.01 0,0 0.01,0 0.01,0 0,0.01 0.01,0.01 0.01,0.01 0.01,0 0.01,0 0.02,0 0,0.01 0.01,0.01 0.01,0.01 0.01,0 0.01,0.01 0.02,0.01 0,0 0,0.01 0.01,0.01 0,0.01 0,0.01 0,0.02 0,0.01 0,0.02 0,0.02 -0.01,0.01 -0.01,0.02 -0.02,0.02 0,0.01 -0.01,0.01 -0.02,0.01 -0.01,0.01 -0.02,0.01 -0.03,0.01 0,0 -0.01,0 -0.01,0 -0.01,0 -0.01,-0.01 -0.02,-0.01 -0.01,0 -0.01,0 -0.02,0 0,-0.01 0,-0.01 -0.01,-0.01l0.01 -0.02c0,0 0.01,-0.01 0.01,-0.01 0,0 0,0 0,0 0.01,0 0.01,0 0.01,0 0,0.01 0.01,0.01 0.01,0.01 0,0 0.01,0 0.01,0 0,0.01 0.01,0.01 0.02,0.01 0,0 0.01,0 0.01,-0.01 0.01,0 0.01,-0.01 0.01,-0.01 0,-0.01 0,-0.01 0,-0.01 -0.01,-0.01 -0.01,-0.01 -0.01,-0.01 -0.01,0 -0.01,0 -0.02,0 0,-0.01 -0.01,-0.01 -0.01,-0.01 -0.01,0 -0.01,0 -0.02,0 0,-0.01 0,-0.01 -0.01,-0.01 0,-0.01 -0.01,-0.01 -0.01,-0.02 0,0 0,-0.01 0,-0.02 0,0 0,-0.01 0,-0.02 0.01,0 0.01,-0.01 0.01,-0.01 0.01,-0.01 0.02,-0.01 0.02,-0.02 0.01,0 0.02,0 0.03,0 0.01,0 0.01,0 0.02,0 0,0 0.01,0 0.01,0 0.01,0.01 0.01,0.01 0.02,0.01 0,0 0,0.01 0.01,0.01l-0.01 0.02zm0.17 -0.04l0 0.03 -0.07 0 0 0.04 0.05 0 0 0.03 -0.05 0 0 0.05 0.07 0 0 0.03 -0.12 0 0 -0.18 0.12 0zm0.18 0l0 0.03 -0.05 0 0 0.15 -0.04 0 0 -0.15 -0.06 0 0 -0.03 0.15 0zm0.18 0.1c0,0 0.01,0 0.01,0.01 0,0 0,0 0,0.01 0,-0.01 0,-0.01 0.01,-0.01 0,-0.01 0,-0.01 0,-0.01l0.05 -0.09c0,0 0,-0.01 0,-0.01 0,0 0,0 0,0 0,0 0.01,0 0.01,0 0,0 0,0 0,0l0.03 0 0 0.18 -0.03 0 0 -0.1c0,-0.01 0,-0.01 0,-0.02l-0.05 0.09c0,0 0,0.01 -0.01,0.01 0,0 0,0 -0.01,0l0 0c0,0 -0.01,0 -0.01,0 0,0 0,-0.01 -0.01,-0.01l-0.04 -0.09c0,0 0,0.01 0,0.01 0,0 0,0 0,0.01l0 0.1 -0.04 0 0 -0.18 0.03 0c0,0 0,0 0.01,0 0,0 0,0 0,0 0,0 0,0 0,0 0,0 0,0.01 0.01,0.01l0.04 0.09zm0.34 0.08l-0.04 0c0,0 0,0 0,-0.01 -0.01,0 -0.01,0 -0.01,0l-0.01 -0.03 -0.07 0 -0.01 0.03c0,0 0,0 -0.01,0 0,0.01 0,0.01 0,0.01l-0.04 0 0.07 -0.18 0.05 0 0.07 0.18zm-0.12 -0.07l0.05 0 -0.02 -0.05c0,0 0,0 0,-0.01 0,0 0,-0.01 -0.01,-0.01 0,0 0,0.01 0,0.01 0,0.01 0,0.01 0,0.01l-0.02 0.05zm0.18 -0.11c0,0 0,0 0,0 0,0 0,0 0,0 0.01,0 0.01,0 0.01,0 0,0.01 0,0.01 0,0.01l0.09 0.1c0,0 0,0 0,-0.01 0,0 0,0 0,-0.01l0 -0.09 0.03 0 0 0.18 -0.02 0c0,0 0,0 -0.01,0 0,-0.01 0,-0.01 0,-0.01l-0.09 -0.1c0,0 0,0 0,0 0,0.01 0,0.01 0,0.01l0 0.1 -0.04 0 0 -0.18 0.03 0zm0.36 0.18l-0.04 0c0,0 0,0 0,-0.01 -0.01,0 -0.01,0 -0.01,0l-0.01 -0.03 -0.07 0 -0.01 0.03c0,0 0,0 -0.01,0 0,0.01 0,0.01 0,0.01l-0.04 0 0.07 -0.18 0.05 0 0.07 0.18zm-0.12 -0.07l0.05 0 -0.02 -0.05c0,0 0,0 0,-0.01 0,0 0,-0.01 -0.01,-0.01 0,0 0,0.01 0,0.01 0,0.01 0,0.01 0,0.01l-0.02 0.05zm0.23 0.04c0.01,0 0.01,0 0.02,0 0,0 0.01,-0.01 0.01,-0.01l0 -0.02 -0.02 0c0,0 0,0 0,-0.01 0,0 -0.01,0 -0.01,0l0 -0.02 0.07 0 0 0.07c-0.01,0 -0.01,0.01 -0.01,0.01 -0.01,0 -0.02,0 -0.02,0 -0.01,0.01 -0.01,0.01 -0.02,0.01 -0.01,0 -0.01,0 -0.02,0 -0.01,0 -0.03,0 -0.04,-0.01 -0.01,0 -0.02,-0.01 -0.03,-0.02 -0.01,0 -0.01,-0.01 -0.02,-0.02 0,-0.02 0,-0.03 0,-0.04 0,-0.01 0,-0.03 0,-0.04 0.01,-0.01 0.01,-0.02 0.02,-0.03 0.01,0 0.02,-0.01 0.03,-0.01 0.01,-0.01 0.03,-0.01 0.04,-0.01 0.01,0 0.02,0 0.02,0 0.01,0 0.02,0 0.02,0.01 0.01,0 0.01,0 0.02,0 0,0.01 0.01,0.01 0.01,0.01l-0.01 0.02c0,0 0,0 -0.01,0.01 0,0 0,0 0,0 0,0 -0.01,0 -0.01,-0.01 0,0 -0.01,0 -0.01,0 0,0 0,0 -0.01,0 0,-0.01 0,-0.01 -0.01,-0.01 0,0 0,0 -0.01,0 -0.01,0 -0.01,0 -0.02,0.01 -0.01,0 -0.01,0 -0.02,0.01 0,0 0,0.01 -0.01,0.02 0,0 0,0.01 0,0.02 0,0.01 0,0.02 0,0.02 0.01,0.01 0.01,0.02 0.01,0.02 0.01,0.01 0.02,0.01 0.02,0.01 0.01,0.01 0.02,0.01 0.02,0.01zm0.24 -0.15l0 0.03 -0.08 0 0 0.04 0.06 0 0 0.03 -0.06 0 0 0.05 0.08 0 0 0.03 -0.12 0 0 -0.18 0.12 0zm0.14 0.1c0,0 0,0 0,0.01 0,0 0,0 0,0.01 0.01,-0.01 0.01,-0.01 0.01,-0.01 0,-0.01 0,-0.01 0,-0.01l0.05 -0.09c0,0 0,-0.01 0,-0.01 0,0 0.01,0 0.01,0 0,0 0,0 0,0 0,0 0,0 0.01,0l0.03 0 0 0.18 -0.04 0 0 -0.1c0,-0.01 0,-0.01 0,-0.02l-0.05 0.09c0,0 0,0.01 0,0.01 -0.01,0 -0.01,0 -0.01,0l-0.01 0c0,0 0,0 -0.01,0 0,0 0,-0.01 0,-0.01l-0.05 -0.09c0,0 0,0.01 0,0.01 0,0 0,0 0,0.01l0 0.1 -0.04 0 0 -0.18 0.03 0c0.01,0 0.01,0 0.01,0 0,0 0,0 0,0 0,0 0.01,0 0.01,0 0,0 0,0.01 0,0.01l0.05 0.09zm0.28 -0.1l0 0.03 -0.08 0 0 0.04 0.06 0 0 0.03 -0.06 0 0 0.05 0.08 0 0 0.03 -0.12 0 0 -0.18 0.12 0zm0.07 0c0,0 0,0 0,0 0,0 0,0 0,0 0.01,0 0.01,0 0.01,0 0,0.01 0,0.01 0,0.01l0.09 0.1c0,0 0,0 0,-0.01 0,0 0,0 0,-0.01l0 -0.09 0.03 0 0 0.18 -0.02 0c0,0 0,0 -0.01,0 0,-0.01 0,-0.01 0,-0.01l-0.09 -0.1c0,0 0,0 0,0 0,0.01 0,0.01 0,0.01l0 0.1 -0.04 0 0 -0.18 0.03 0zm0.32 0l0 0.03 -0.05 0 0 0.15 -0.04 0 0 -0.15 -0.06 0 0 -0.03 0.15 0z"/>
   </g>
  </g>
 </g>
</svg>
