<?xml version="1.0" encoding="UTF-8"?>
<svg id="Layer_1" data-name="Layer 1" xmlns="http://www.w3.org/2000/svg" viewBox="0 0 64 64">
  <defs>
    <style>
      .cls-1 {
        fill: #221f1f;
      }

      .cls-2 {
        fill: #231f20;
      }

      .cls-3, .cls-4 {
        fill: #fff;
      }

      .cls-5 {
        fill: #ed1c24;
      }

      .cls-4 {
        fill-rule: evenodd;
      }

      .cls-6 {
        fill: none;
      }

      .cls-7 {
        fill: #0f4c8b;
      }
    </style>
  </defs>
  <rect class="cls-3" x="0" y="17.76" width="64" height="28.47"/>
  <g>
    <rect class="cls-3" x="0" y="20.81" width="64" height="22.3"/>
    <rect class="cls-5" x=".6" y="21.32" width="62.7" height="13.54"/>
    <rect class="cls-7" x=".6" y="35.47" width="62.7" height="7.13"/>
    <polygon class="cls-4" points="6.38 39.44 7.05 36.92 8.58 36.92 8.58 41.07 7.42 41.07 7.42 39.44 7.5 38.55 6.84 41.07 5.92 41.07 5.26 38.5 5.35 39.44 5.35 41.07 4.18 41.07 4.18 36.92 5.71 36.92 6.38 39.44"/>
    <path class="cls-4" d="M11.76,36.92v2.61c0,.19.06.36.18.47.12.11.25.17.39.17h.08c.12-.02.24-.08.35-.19.11-.11.17-.26.17-.45v-2.61h1.29v2.61c0,.54-.17.96-.5,1.24-.33.29-.79.43-1.38.43s-1.03-.15-1.34-.44c-.32-.29-.48-.73-.48-1.32v-2.52h1.25"/>
    <polygon class="cls-4" points="19.5 36.92 19.5 38.04 18.38 38.04 18.38 41.07 17.08 41.07 17.08 38.04 15.98 38.04 15.98 36.92 19.5 36.92"/>
    <path class="cls-4" d="M22.6,36.92v2.61c0,.19.06.36.18.47.12.11.24.17.39.17h.08c.13-.02.25-.08.35-.19.11-.11.17-.26.17-.45v-2.61h1.29v2.61c0,.54-.16.96-.5,1.24-.34.29-.79.43-1.38.43s-1.03-.15-1.35-.44c-.32-.29-.47-.73-.47-1.32v-2.52h1.25"/>
    <path class="cls-4" d="M29.4,36.92l1.37,4.14h-1.29l-.13-.54h-1.25l-.13.54h-1.27l1.37-4.14h1.33ZM29.1,39.68l-.37-1.35-.37,1.35h.74Z"/>
    <polygon class="cls-4" points="33.79 36.92 33.79 40.08 35.53 40.08 35.53 41.07 32.54 41.07 32.54 36.92 33.79 36.92"/>
    <polygon class="cls-4" points="43.31 36.97 43.31 37.85 41.61 37.85 41.61 38.68 42.98 38.68 42.98 39.68 41.61 39.68 41.61 41.07 40.33 41.07 40.33 36.97 43.31 36.97"/>
    <path class="cls-4" d="M46.44,36.92v2.61c0,.19.06.36.19.47.12.11.25.17.39.17h.07c.13-.02.25-.08.35-.19.11-.11.17-.26.17-.45v-2.61h1.28v2.61c0,.54-.16.96-.5,1.24-.33.29-.79.43-1.38.43s-1.03-.15-1.35-.44c-.32-.29-.47-.73-.47-1.32v-2.52h1.24"/>
    <polygon class="cls-4" points="52.09 36.92 53.42 39.08 53.37 38.41 53.37 36.92 54.62 36.92 54.62 41.07 53.42 41.07 52.09 38.85 52.13 39.54 52.13 41.07 50.92 41.07 50.92 36.92 52.09 36.92"/>
    <path class="cls-4" d="M58.18,36.92c.11,0,.24.01.39.04.15.02.29.07.44.13.31.12.58.32.84.59.26.29.39.7.41,1.23v.1c0,.75-.19,1.28-.56,1.6-.37.31-.86.46-1.44.46h-1.66v-4.15h1.58M57.85,40.08h.04s.04,0,.04,0h.03s.04,0,.04,0c.29,0,.53-.08.71-.24.19-.16.27-.46.27-.9s-.08-.71-.26-.84c-.18-.13-.39-.2-.67-.2h-.2s0,2.18,0,2.18Z"/>
    <path class="cls-1" d="M57.74,25.07s-1.82-1.03-4.01-1.03-5.08,1.5-5.24,4.48c0,0-.1,4.62,5.21,4.62,3.18-.14,4.39-1.2,4.39-1.2l-1.34-2.09s-1.6.94-3.05.88c-1.45-.06-2.42-1.13-2.47-2.03-.05-.9.74-2.11,2.47-2.26,1.72-.16,3.19.79,3.19.79l.85-2.17"/>
    <polygon class="cls-1" points="18.62 24.04 21.15 24.04 21.15 27.23 25.06 27.23 25.06 24.04 27.59 24.04 27.59 33.01 25.06 33.01 25.06 29.55 21.15 29.55 21.15 33.01 18.62 33.01 18.62 24.04"/>
    <path class="cls-1" d="M31.95,26.35v4.36h2.08s1.92.02,1.92-2.26c0-2.14-1.95-2.09-1.95-2.09h-2.06M29.42,24.04h4.75s4.43.19,4.43,4.38c0,4.78-4.43,4.59-4.43,4.59h-4.75v-8.96Z"/>
    <polygon class="cls-1" points="39.89 24.04 48.11 24.04 48.11 26.45 42.42 26.45 42.42 27.6 46.46 27.6 46.46 29.79 42.42 29.79 42.42 32.99 39.88 32.99 39.89 24.04"/>
    <path class="cls-3" d="M57.36,24.69s-1.81-1.03-4.01-1.03-5.08,1.51-5.24,4.49c0,0-.09,4.62,5.21,4.62,3.18-.13,4.39-1.19,4.39-1.19l-1.34-2.09s-1.6.94-3.05.87c-1.45-.07-2.41-1.13-2.46-2.03-.05-.9.74-2.1,2.46-2.26,1.73-.16,3.2.79,3.2.79l.84-2.16"/>
    <polygon class="cls-3" points="18.25 23.66 20.78 23.66 20.78 26.85 24.69 26.85 24.69 23.66 27.22 23.66 27.22 32.63 24.69 32.63 24.69 29.16 20.78 29.16 20.78 32.63 18.25 32.63 18.25 23.66"/>
    <path class="cls-3" d="M31.57,25.97v4.35h2.08s1.93.02,1.93-2.27c0-2.13-1.95-2.08-1.95-2.08h-2.06M29.04,23.66h4.76s4.43.2,4.43,4.38c0,4.78-4.43,4.59-4.43,4.59h-4.76v-8.97Z"/>
    <polygon class="cls-3" points="39.52 23.66 47.74 23.66 47.74 26.06 42.05 26.06 42.05 27.22 46.09 27.22 46.09 29.4 42.05 29.4 42.05 32.6 39.51 32.6 39.52 23.66"/>
    <polygon class="cls-2" points="5.82 30.13 6.43 29.51 5.84 29.51 5.84 23.66 8.45 23.66 9.1 24.31 9.1 23.66 14.74 23.66 14.74 26.33 14.15 26.93 14.74 26.93 14.74 32.71 12.21 32.71 11.63 32.12 11.63 32.71 5.84 32.71 5.82 30.13"/>
    <polygon class="cls-1" points="5.82 30.13 5.83 30.14 6.46 29.5 5.85 29.5 5.85 23.67 8.44 23.67 9.11 24.35 9.11 23.67 14.72 23.67 14.72 26.33 14.11 26.95 14.72 26.95 14.72 32.7 12.22 32.7 11.61 32.08 11.61 32.7 5.85 32.7 5.83 30.13 5.82 30.13 5.83 30.14 5.82 30.13 5.81 30.13 5.83 32.73 11.64 32.73 11.64 32.15 12.21 32.73 14.75 32.73 14.75 26.92 14.18 26.92 14.75 26.34 14.75 23.65 9.08 23.65 9.08 24.28 8.46 23.65 5.83 23.65 5.83 29.53 6.39 29.53 5.81 30.12 5.81 30.13 5.82 30.13"/>
    <rect class="cls-3" x="9.56" y="25.02" width="3.98" height="1.81"/>
    <polygon class="cls-3" points="9.56 25.02 9.55 25.02 9.55 26.84 13.55 26.84 13.55 25 9.55 25 9.55 25.02 9.56 25.02 9.56 25.03 13.52 25.03 13.52 26.81 9.58 26.81 9.58 25.02 9.56 25.02 9.56 25.03 9.56 25.02"/>
    <rect class="cls-3" x="7.17" y="29.67" width="3.91" height="1.74"/>
    <polygon class="cls-3" points="7.17 29.67 7.16 29.67 7.16 31.42 11.1 31.42 11.1 29.65 7.16 29.65 7.16 29.67 7.17 29.67 7.17 29.68 11.07 29.68 11.07 31.4 7.18 31.4 7.18 29.67 7.17 29.67 7.17 29.68 7.17 29.67"/>
    <rect class="cls-3" x="11.74" y="27.46" width="1.81" height="3.99"/>
    <polygon class="cls-3" points="11.74 27.46 11.72 27.46 11.72 31.47 13.56 31.47 13.56 27.44 11.72 27.44 11.72 27.46 11.74 27.46 11.74 27.47 13.52 27.47 13.52 31.44 11.75 31.44 11.75 27.46 11.74 27.46 11.74 27.47 11.74 27.46"/>
    <rect class="cls-5" x="7.17" y="24.99" width="1.83" height="4.12"/>
    <rect class="cls-6" x="0" y="20.81" width="64" height="22.38"/>
  </g>
</svg>