<svg id="Layer_1" data-name="Layer 1" xmlns="http://www.w3.org/2000/svg" viewBox="0 0 64 64"><defs><style>.cls-1{fill:#e37825;}.cls-2{fill:#d82a27;}.cls-3{fill:#f9eb24;}.cls-4{fill:#010101;}.cls-5{fill:#375335;}.cls-6{fill:#fff;}</style></defs><path class="cls-1" d="M9.24,22.64l.54-.29A4.25,4.25,0,0,1,12,21.86a2.91,2.91,0,0,1,2.08.94,3.17,3.17,0,0,1,.62,1.34,8.56,8.56,0,0,1,.15,2l0,6.08v.15H10.7v-5.7a.61.61,0,0,0-.28-.56.84.84,0,0,0-1.14.21.82.82,0,0,0-.09.41v5.64H4.92v-.13L5,20.49c0-.75,0-1.51,0-2.26,0-.13,0-.16.15-.16h4c.11,0,.14,0,.14.15v4.42Z"/><path class="cls-1" d="M20.85,26.56l2.14-1v-.05l-.47-.2a2,2,0,0,0-1.22-.1,1.6,1.6,0,0,0-1.09.95,2.09,2.09,0,0,0,1.53,2.93,3,3,0,0,0,2.73-.87l.16-.14.13-.15,2.34,2.36-.33.27a7.25,7.25,0,0,1-2.39,1.27,14.71,14.71,0,0,1-1.44.41,5.72,5.72,0,0,1-2,.11,5.3,5.3,0,0,1-2.06-.62,4.73,4.73,0,0,1-2.36-3,5.65,5.65,0,0,1,0-2.83A6.26,6.26,0,0,1,17.32,24a4.36,4.36,0,0,1,2.31-1.85,5.42,5.42,0,0,1,2.65-.25,5.9,5.9,0,0,1,3.36,1.61,6.13,6.13,0,0,1,1.2,1.65l.29.53L22,28.51Z"/><path class="cls-1" d="M52,32.35V29c0-.12,0-.15.15-.15.52,0,1,0,1.57,0,.37,0,.73,0,1.1-.09a.26.26,0,0,0,.22-.36,1.25,1.25,0,0,0-.41-.55,6.59,6.59,0,0,0-1.37-1,2.23,2.23,0,0,1-1.06-1.24,3.37,3.37,0,0,1,0-2.48A2,2,0,0,1,53.63,22a2.05,2.05,0,0,1,.49-.06h5.31c.1,0,.13,0,.13.14v3c0,.11,0,.14-.14.14H57.37a.74.74,0,0,0-.26,0,.48.48,0,0,0-.26.79,1.57,1.57,0,0,0,.43.38c.33.19.67.35,1,.53a2.72,2.72,0,0,1,1.29,1.48,3.29,3.29,0,0,1,.14,2.29A2.18,2.18,0,0,1,58,32.29a3.07,3.07,0,0,1-.53.06H52Z"/><path class="cls-1" d="M28.49,32.4v-.16q0-7,0-14c0-.11,0-.14.15-.14h3.79c.16,0,.16,0,.16.16v14a.41.41,0,0,1,0,.11.2.2,0,0,1-.08.08h-4Z"/><path class="cls-1" d="M34.47,21.91h4.07V32.34H34.47Z"/><path class="cls-1" d="M38.7,18.75a2.27,2.27,0,1,1-2.27-2.26A2.26,2.26,0,0,1,38.7,18.75Z"/><circle class="cls-2" cx="45.37" cy="27.08" r="5.25"/><circle class="cls-1" cx="45.37" cy="27.08" r="2.87"/><circle class="cls-3" cx="45.37" cy="27.08" r="1.43"/><path class="cls-4" d="M12.22,46.16a.29.29,0,0,1-.17,0s0-.06,0-.12,0-.11,0-.25.08-.33.13-.54l.16-.69c.06-.24.11-.48.17-.69a.44.44,0,0,1-.18,0,.09.09,0,0,1-.05-.09.17.17,0,0,1,.06-.11l.17-.09.07,0,0-.2c0-.06,0-.12,0-.18s0-.12,0-.18l.39-1.68a.38.38,0,0,1,.1-.19.58.58,0,0,1,.26-.11.52.52,0,0,1,.22,0s.06,0,.06,0,0,.14-.08.3-.1.35-.16.57-.13.48-.2.75l-.21.8c.22,0,.5-.06.82-.08l.36,0h.34l.15-.6.14-.56c0-.18.09-.33.13-.46s.06-.23.08-.29a1.89,1.89,0,0,1,.06-.18.43.43,0,0,1,.07-.1.21.21,0,0,1,.1-.06l.13,0h.34c-.14.38-.27.77-.39,1.16s-.24.77-.34,1.14l.17,0h.13a.27.27,0,0,1,.17.08s0,.08,0,.14l-.07.09-.08.1-.13.13-.09,0-.09,0-.11,0c0,.09,0,.18-.07.26a1.1,1.1,0,0,0-.06.26c-.05.18-.09.37-.13.56s-.07.36-.11.56-.06.4-.08.6a.16.16,0,0,1-.09,0l-.08,0H14.2l-.06,0-.05,0L14,46a2.29,2.29,0,0,0,.07-.34c0-.11,0-.21,0-.29s0-.18,0-.26a.93.93,0,0,0,0-.32,1.5,1.5,0,0,0-.11-.34,1.92,1.92,0,0,0-.18-.31,1.48,1.48,0,0,0-.25-.25,1,1,0,0,0-.27-.12.71.71,0,0,0-.25,0c0,.11-.06.22-.08.33s0,.2-.05.3-.08.43-.12.63l-.09.55a3.7,3.7,0,0,0-.07.48.77.77,0,0,1-.17.07l-.14,0Zm2.22-2.49-.37,0h-.32a.64.64,0,0,1,.2.16l.19.23a1.3,1.3,0,0,1,.14.26c0,.09.07.18.1.27l.09-.46.1-.42h-.13Z"/><path class="cls-4" d="M18.69,44c-.05.08-.12.17-.2.28l-.26.33c-.08.11-.17.21-.25.3l-.21.2-.13,0-.15,0h-.14a.22.22,0,0,1-.12,0,.35.35,0,0,1-.09-.11l-.05-.16a.94.94,0,0,1,0-.25,1.12,1.12,0,0,1-.3.34,1.4,1.4,0,0,1-.3.18,1.47,1.47,0,0,1-.34.07.41.41,0,0,1-.17,0,.42.42,0,0,1-.15-.17.82.82,0,0,1-.08-.3,1.42,1.42,0,0,1,0-.43,1.8,1.8,0,0,1,.25-.62,2,2,0,0,1,.37-.48,1.74,1.74,0,0,1,.4-.3.58.58,0,0,1,.32-.09.73.73,0,0,1,.25.09.25.25,0,0,1,.1.16.37.37,0,0,1-.09.29l.13,0h.13v.05a.78.78,0,0,1,0,.13l-.05.26q0,.16-.09.42a.29.29,0,0,0,0,.09l0,.08,0,.1,0,.14v.11a.36.36,0,0,0,0,.11.22.22,0,0,0,0,.08.18.18,0,0,0,.11,0,.25.25,0,0,0,.14-.07.79.79,0,0,0,.19-.18,2.57,2.57,0,0,0,.21-.24l.21-.25a2.46,2.46,0,0,1,.17-.22l.11-.14a.16.16,0,0,1,.09-.06,0,0,0,0,1,.06,0,.13.13,0,0,1,0,.11A.37.37,0,0,1,18.69,44Zm-1.64.25c0-.08,0-.16.07-.26s.05-.2.06-.3,0-.17.05-.23,0-.09,0-.09l-.06,0-.08,0-.09,0a.77.77,0,0,0,.06-.15v-.1a.14.14,0,0,0,0-.06s-.12,0-.22.08a1.88,1.88,0,0,0-.35.49,1.23,1.23,0,0,0-.14.31,2,2,0,0,0-.07.31,1.17,1.17,0,0,0,0,.26c0,.07,0,.12.05.14a.2.2,0,0,0,.14.06.37.37,0,0,0,.16,0,.76.76,0,0,0,.16-.11l.15-.14.1-.13A.21.21,0,0,0,17.05,44.23Z"/><path class="cls-4" d="M18.1,45.07a.15.15,0,0,1-.08.08s-.06,0-.09,0a.1.1,0,0,1-.05-.06.17.17,0,0,1,0-.11l.07-.16.14-.28.18-.36.18-.36.16-.32a2,2,0,0,1,.11-.19l-.09-.09a.29.29,0,0,1,0-.1.39.39,0,0,1,0-.2,1.19,1.19,0,0,1,.12-.22.77.77,0,0,1,.16-.19.29.29,0,0,1,.18-.08.26.26,0,0,1,.22.1.44.44,0,0,1,.07.21.38.38,0,0,1,0,.18.49.49,0,0,1-.08.21l0,0,.09,0,.13,0h.11a.25.25,0,0,1,.16.05.29.29,0,0,1,.1.12.47.47,0,0,1,.06.15l0,.15a.48.48,0,0,1-.08.29,3.77,3.77,0,0,1-.22.33l-.15.25a.45.45,0,0,0-.07.25.34.34,0,0,0,0,.12s.07,0,.16,0a.52.52,0,0,0,.21-.07l.23-.18a2.72,2.72,0,0,0,.24-.24l.22-.26a2.68,2.68,0,0,0,.17-.23l.1-.14a.27.27,0,0,1,.08-.07H21a.12.12,0,0,1,.05.07.24.24,0,0,1-.05.14l-.11.18a3.07,3.07,0,0,1-.2.27,3.4,3.4,0,0,1-.25.31,1.64,1.64,0,0,1-.3.29,1.91,1.91,0,0,1-.3.22.71.71,0,0,1-.3.08.54.54,0,0,1-.24-.05.67.67,0,0,1-.15-.14.51.51,0,0,1-.09-.18,1.41,1.41,0,0,1,0-.18.74.74,0,0,1,0-.14.77.77,0,0,1,.07-.16l.09-.16.09-.16.15-.28a.45.45,0,0,0,.06-.19.2.2,0,0,0,0-.09.08.08,0,0,0-.07,0H19.3l-.13,0-.09,0-.1.17-.19.3c-.06.12-.14.24-.21.37l-.22.35c-.07.11-.12.21-.17.28Z"/><path class="cls-4" d="M24.32,43.68s0,0,.06,0a.06.06,0,0,1,.06,0s0,0,0,.05a.21.21,0,0,1,0,.11,3.73,3.73,0,0,1-.29.46,5.81,5.81,0,0,1-.38.46,4.18,4.18,0,0,1-.4.36.58.58,0,0,1-.32.14.56.56,0,0,1-.3-.08.44.44,0,0,1-.2-.18.58.58,0,0,1-.09-.23.62.62,0,0,1,0-.23c0-.06,0-.17,0-.32s.05-.34.09-.54.08-.42.12-.66l.15-.67-.19,0h-.17a1.27,1.27,0,0,1-.34,0l-.24-.08a.08.08,0,0,1,0-.07l0-.08A.16.16,0,0,1,22,42,.11.11,0,0,1,22,42l.23,0h.27l.2,0,.2,0c.05-.17.09-.33.14-.46a1.06,1.06,0,0,1,.13-.28.1.1,0,0,1,.07-.05l.13,0h.13a.13.13,0,0,1,.09,0s0,.1,0,.23a3.54,3.54,0,0,1-.06.47,2.62,2.62,0,0,1,.41,0l.32.06.2.06.12,0a.05.05,0,0,1,0,.06.28.28,0,0,1,0,.09.27.27,0,0,1-.07.08.12.12,0,0,1-.1,0l-.13,0-.16,0-.24,0h-.47a1.16,1.16,0,0,0,0,.18l-.06.18c-.05.15-.1.31-.17.49s-.12.33-.2.53-.16.41-.26.63a.87.87,0,0,0,0,.37.5.5,0,0,0,.1.18.36.36,0,0,0,.18.07.52.52,0,0,0,.21-.06,1.33,1.33,0,0,0,.24-.19,3.25,3.25,0,0,0,.27-.26l.24-.27c.07-.09.14-.17.19-.25Z"/><path class="cls-4" d="M26.52,43.93a2.86,2.86,0,0,1-.38.48,3.56,3.56,0,0,1-.45.42,2.45,2.45,0,0,1-.48.29,1.28,1.28,0,0,1-.49.11.74.74,0,0,1-.27-.06.87.87,0,0,1-.26-.18.89.89,0,0,1-.18-.32A1.15,1.15,0,0,1,24,44.2a1.62,1.62,0,0,1,.15-.49,2.83,2.83,0,0,1,.29-.47,1.65,1.65,0,0,1,.4-.35.88.88,0,0,1,.45-.14.42.42,0,0,1,.31.11.34.34,0,0,1,.08.26.71.71,0,0,1-.1.32,1.24,1.24,0,0,1-.19.26l-.24.22-.24.17-.23.16-.2.14a.52.52,0,0,0,0,.23.64.64,0,0,0,.11.16.48.48,0,0,0,.16.08.47.47,0,0,0,.17,0,.8.8,0,0,0,.4-.12,2.58,2.58,0,0,0,.41-.29c.13-.11.25-.23.37-.35s.21-.23.28-.32a.21.21,0,0,1,.08-.06.08.08,0,0,1,.07,0s0,0,0,.06A.19.19,0,0,1,26.52,43.93Zm-1.43-.86a.27.27,0,0,0-.16.07.83.83,0,0,0-.18.19,1.49,1.49,0,0,0-.17.31,2.1,2.1,0,0,0-.12.42l.15-.11.16-.11a1.44,1.44,0,0,0,.33-.33.63.63,0,0,0,.11-.24.22.22,0,0,0,0-.15A.14.14,0,0,0,25.09,43.07Z"/><path class="cls-4" d="M25.91,45.07a.22.22,0,0,1-.09.08.12.12,0,0,1-.08,0s0,0,0-.06a.15.15,0,0,1,0-.11l.08-.16.14-.28.17-.36.19-.36c.05-.12.11-.22.16-.32s.08-.15.1-.19l-.08-.09s0,0,0-.1a.39.39,0,0,1,0-.2,1.19,1.19,0,0,1,.12-.22.6.6,0,0,1,.16-.19.29.29,0,0,1,.17-.08.25.25,0,0,1,.22.1.46.46,0,0,1,.08.21.57.57,0,0,1,0,.18.5.5,0,0,1-.09.21l.05,0,.09,0,.12,0h.12a.28.28,0,0,1,.16.05.4.4,0,0,1,.1.12l.06.15a.77.77,0,0,1,0,.15.46.46,0,0,1-.07.29,3.77,3.77,0,0,1-.22.33l-.16.25a.43.43,0,0,0-.06.25.21.21,0,0,0,0,.12s.07,0,.15,0a.44.44,0,0,0,.21-.07l.24-.18a2.72,2.72,0,0,0,.24-.24l.21-.26.18-.23.1-.14.07-.07h.08a.1.1,0,0,1,0,.07s0,.08,0,.14l-.11.18-.2.27a3.56,3.56,0,0,1-.26.31,2.35,2.35,0,0,1-.6.51.67.67,0,0,1-.29.08.54.54,0,0,1-.24-.05.56.56,0,0,1-.16-.14.49.49,0,0,1-.08-.18.62.62,0,0,1,0-.18.25.25,0,0,1,0-.14.77.77,0,0,1,.07-.16l.09-.16.08-.16a3.08,3.08,0,0,0,.16-.28.45.45,0,0,0,.06-.19.2.2,0,0,0,0-.09.08.08,0,0,0-.08,0H27.1l-.12,0-.1,0s-.05.08-.1.17l-.18.3-.22.37-.21.35-.17.28Z"/><path class="cls-4" d="M31.06,44.84a1.39,1.39,0,0,1,0-.27l.06-.31c0-.11.06-.21.08-.31s.05-.19.07-.27a.31.31,0,0,0,0-.22.12.12,0,0,0-.13-.08.39.39,0,0,0-.18.08,1,1,0,0,0-.28.27,2.23,2.23,0,0,0-.31.52,4,4,0,0,0-.23.83.6.6,0,0,1-.2.07l-.09,0a.21.21,0,0,1-.15,0s0-.09,0-.2a2.15,2.15,0,0,1,.08-.25c0-.12.07-.24.11-.38s.07-.27.1-.41a1.65,1.65,0,0,0,0-.36.22.22,0,0,0,0-.14.14.14,0,0,0-.11,0,.49.49,0,0,0-.17.06,1,1,0,0,0-.26.21,2,2,0,0,0-.29.46,3.78,3.78,0,0,0-.24.74h0l0,.09a.29.29,0,0,0,0,.09.24.24,0,0,1,0,.08l-.28.12-.07,0h-.08a.15.15,0,0,1-.05-.09.38.38,0,0,1,0-.18l.35-1.46a.89.89,0,0,0,0-.14s0-.08,0-.12a.28.28,0,0,0,0-.1L29,43l.11,0,.1,0c.12,0,.16.1.12.31s0,.15-.07.26a2.73,2.73,0,0,1,.23-.25l.24-.22a1.65,1.65,0,0,1,.25-.15.57.57,0,0,1,.25-.06.23.23,0,0,1,.16.06.56.56,0,0,1,.1.15.67.67,0,0,1,0,.22,2.35,2.35,0,0,1,0,.26l.2-.24a2.39,2.39,0,0,1,.23-.22A1.28,1.28,0,0,1,31.2,43a.58.58,0,0,1,.26-.06.3.3,0,0,1,.23.09.46.46,0,0,1,.11.22,1.06,1.06,0,0,1,0,.31,2.87,2.87,0,0,1-.05.31l-.19.76c0,.18,0,.28.12.28a.51.51,0,0,0,.3-.14,1.66,1.66,0,0,0,.33-.32,3.57,3.57,0,0,0,.3-.38c.1-.13.17-.23.24-.31a.12.12,0,0,1,.07,0l.06,0a.06.06,0,0,1,0,.06.35.35,0,0,1,0,.12l-.28.43a3.08,3.08,0,0,1-.35.44,2,2,0,0,1-.42.35.75.75,0,0,1-.45.14h-.15l-.14-.07A.32.32,0,0,1,31.1,45,.49.49,0,0,1,31.06,44.84Z"/><path class="cls-4" d="M37.05,44a4.73,4.73,0,0,1-.29.44,4.87,4.87,0,0,1-.35.42,2.15,2.15,0,0,1-.38.31.74.74,0,0,1-.39.12.32.32,0,0,1-.29-.13.6.6,0,0,1-.08-.29.44.44,0,0,1,0-.13l0-.1,0-.1a.28.28,0,0,0,0-.11.19.19,0,0,0,0-.13,1,1,0,0,0,0-.1l-.12.1a.38.38,0,0,1-.16,0,.14.14,0,0,1-.12-.07.21.21,0,0,1-.06-.16.16.16,0,0,1,0-.12.2.2,0,0,1,.08-.08l.1,0h.15l.12,0a1.58,1.58,0,0,0,.29-.3.2.2,0,0,0,0-.23.14.14,0,0,0-.11-.08.25.25,0,0,0-.14,0,.42.42,0,0,0-.14.09l-.13.1-.25.27-.23.26c0,.11,0,.23-.07.35s0,.23-.08.36l-.09.43-.07,0-.06,0h-.15a.09.09,0,0,1-.07,0,.22.22,0,0,1,0-.08.41.41,0,0,1,0-.16c0-.09.06-.22.11-.39l.14-.53c0-.19.1-.4.15-.61s.09-.41.14-.6.08-.37.11-.52a2.81,2.81,0,0,0,.07-.37c0-.1,0-.19,0-.28s0-.15,0-.22a.76.76,0,0,0,0-.17l.08,0a.35.35,0,0,1,.11,0l.14,0h.16a.14.14,0,0,1,.1.06.36.36,0,0,1,0,.19,2.74,2.74,0,0,1-.08.36c-.05.21-.11.39-.16.56s-.11.32-.16.46-.1.29-.14.43-.09.27-.13.41a3.55,3.55,0,0,1,.28-.34,1.57,1.57,0,0,1,.38-.3.83.83,0,0,1,.37-.12.29.29,0,0,1,.26.12.55.55,0,0,1,0,.52,1,1,0,0,1-.15.21,1.29,1.29,0,0,1-.17.16l-.17.11a.41.41,0,0,1,.14.12.24.24,0,0,1,0,.19.53.53,0,0,1-.06.26.63.63,0,0,0,0,.21.24.24,0,0,0,0,.11.16.16,0,0,0,.11,0,.51.51,0,0,0,.32-.13,2.09,2.09,0,0,0,.31-.29l.27-.34a2.22,2.22,0,0,1,.19-.24c.06-.07.12-.09.16,0S37.11,43.9,37.05,44Z"/><path class="cls-4" d="M39.24,43.93a2.86,2.86,0,0,1-.38.48,3.56,3.56,0,0,1-.45.42,2.25,2.25,0,0,1-.49.29,1.2,1.2,0,0,1-.48.11.74.74,0,0,1-.27-.06.87.87,0,0,1-.26-.18.89.89,0,0,1-.18-.32,1,1,0,0,1,0-.47,1.62,1.62,0,0,1,.15-.49,2.83,2.83,0,0,1,.29-.47,1.65,1.65,0,0,1,.4-.35.88.88,0,0,1,.45-.14.42.42,0,0,1,.31.11.34.34,0,0,1,.08.26.71.71,0,0,1-.1.32,1.24,1.24,0,0,1-.19.26l-.24.22-.24.17-.23.16-.2.14a.52.52,0,0,0,.05.23.64.64,0,0,0,.11.16.48.48,0,0,0,.16.08.47.47,0,0,0,.17,0,.8.8,0,0,0,.4-.12,2.58,2.58,0,0,0,.41-.29c.13-.11.25-.23.37-.35s.21-.23.28-.32a.21.21,0,0,1,.08-.06.08.08,0,0,1,.07,0s0,0,0,.06A.19.19,0,0,1,39.24,43.93Zm-1.43-.86a.27.27,0,0,0-.16.07.83.83,0,0,0-.18.19,1.49,1.49,0,0,0-.17.31,2.1,2.1,0,0,0-.12.42l.15-.11.16-.11a1.44,1.44,0,0,0,.33-.33.63.63,0,0,0,.11-.24.22.22,0,0,0,0-.15A.14.14,0,0,0,37.81,43.07Z"/><path class="cls-4" d="M40.37,45l.39-1.67c.1-.41.18-.73.23-1l.12-.55,0-.21a1.09,1.09,0,0,0,0-.18.88.88,0,0,0,0-.17l.1-.05.1,0,.13,0,.11,0h.08s.05,0,.05,0,0,0,0,.11,0,.11,0,.17a1.89,1.89,0,0,1,0,.23c0,.17-.11.4-.18.7l-.28,1q-.16.68-.42,1.68a.13.13,0,0,1-.07,0h-.16l-.08,0-.06-.06A.19.19,0,0,1,40.37,45Z"/><path class="cls-4" d="M42.16,43l.11-.06.16,0,.16,0h.08l0,.12c0,.08,0,.16-.08.27s-.07.2-.11.31a1.23,1.23,0,0,0-.08.26c0,.06,0,.14-.07.22s0,.17-.07.25a1,1,0,0,0,0,.23.27.27,0,0,0,0,.16s0,.08.07.09a.09.09,0,0,0,.07,0,.49.49,0,0,0,.28-.13A3,3,0,0,0,43,44.4a3.61,3.61,0,0,0,.33-.35l.22-.28a.18.18,0,0,1,.09-.07.11.11,0,0,1,.08,0,.15.15,0,0,1,0,.08.3.3,0,0,1,0,.11,2.79,2.79,0,0,1-.27.38,4.59,4.59,0,0,1-.36.41,3.78,3.78,0,0,1-.39.34.75.75,0,0,1-.3.15.41.41,0,0,1-.19,0A.42.42,0,0,1,42,45a.64.64,0,0,1-.13-.15.41.41,0,0,1-.05-.18,2.36,2.36,0,0,1,0-.38,4.26,4.26,0,0,1,.06-.5c0-.17.07-.33.11-.49A1.2,1.2,0,0,1,42.16,43Zm.78-1.19a.37.37,0,0,1-.07.12.28.28,0,0,1-.1.09.31.31,0,0,1-.12.05.11.11,0,0,1-.1,0,.31.31,0,0,1-.13-.2.34.34,0,0,1,0-.19.73.73,0,0,1,.14-.16.33.33,0,0,1,.15-.07.12.12,0,0,1,.1,0,.36.36,0,0,1,.07.1.51.51,0,0,1,0,.13A.53.53,0,0,1,42.94,41.8Z"/><path class="cls-4" d="M44.75,43A.6.6,0,0,1,44.9,43a.34.34,0,0,1,.12,0,.28.28,0,0,1,.13,0q.15,0,.18.09a.46.46,0,0,1,0,.27,1.16,1.16,0,0,1-.07.24l-.11.36q-.07.21-.15.48c0,.17-.09.38-.14.6l-.14.63c0,.21-.1.47-.16.76s-.13.63-.2,1c0,.1-.06.15-.12.17a.46.46,0,0,1-.2,0L44,47.43l-.06-.06a.44.44,0,0,1-.06-.1c.09-.31.16-.6.23-.86s.12-.48.18-.67.1-.42.15-.59l.06-.23a1.55,1.55,0,0,1,.05-.23,1.77,1.77,0,0,1-.16.22,1.09,1.09,0,0,1-.18.19.94.94,0,0,1-.22.12.47.47,0,0,1-.24,0A.58.58,0,0,1,43.3,45a.72.72,0,0,1-.1-.48,1.22,1.22,0,0,1,0-.26l.06-.27a1.55,1.55,0,0,1,.07-.23l0-.15a2.54,2.54,0,0,0,.1-.36.29.29,0,0,0,0-.26l.15-.07.13,0h.12c.1,0,.16.05.18.11a.68.68,0,0,1,0,.27l-.07.25-.11.3-.1.29a.76.76,0,0,0,0,.19.74.74,0,0,0,0,.39.2.2,0,0,0,.2.14.31.31,0,0,0,.16-.07.94.94,0,0,0,.18-.17,2.5,2.5,0,0,0,.18-.24l.17-.28a1.75,1.75,0,0,0,.13-.28,1.86,1.86,0,0,0,.09-.24,2.86,2.86,0,0,0,0-.32A.25.25,0,0,0,44.75,43Z"/><path class="cls-4" d="M48.15,43.93a3.48,3.48,0,0,1-.38.48,3.56,3.56,0,0,1-.45.42,2.25,2.25,0,0,1-.49.29,1.28,1.28,0,0,1-.49.11.65.65,0,0,1-.26-.06.76.76,0,0,1-.26-.18.91.91,0,0,1-.19-.32,1,1,0,0,1,0-.47,1.35,1.35,0,0,1,.14-.49,2.34,2.34,0,0,1,.3-.47,1.65,1.65,0,0,1,.4-.35.82.82,0,0,1,.44-.14.4.4,0,0,1,.31.11.34.34,0,0,1,.08.26.85.85,0,0,1-.09.32,1.28,1.28,0,0,1-.2.26,1.7,1.7,0,0,1-.24.22l-.23.17c-.09,0-.16.11-.24.16l-.2.14a.71.71,0,0,0,0,.23.48.48,0,0,0,.12.16.36.36,0,0,0,.15.08.55.55,0,0,0,.18,0,.83.83,0,0,0,.4-.12,2.52,2.52,0,0,0,.4-.29,4.12,4.12,0,0,0,.37-.35c.12-.13.21-.23.28-.32l.09-.06s0,0,.06,0a.06.06,0,0,1,0,.06A.19.19,0,0,1,48.15,43.93Zm-1.44-.86a.3.3,0,0,0-.16.07.83.83,0,0,0-.18.19,2.16,2.16,0,0,0-.17.31,1.61,1.61,0,0,0-.11.42l.14-.11.16-.11a1.79,1.79,0,0,0,.34-.33.59.59,0,0,0,.1-.24.22.22,0,0,0,0-.15A.11.11,0,0,0,46.71,43.07Z"/><path class="cls-4" d="M48,44.67a.39.39,0,0,1,.23,0,.15.15,0,0,1,.08.17.2.2,0,0,1-.06.14.77.77,0,0,1-.13.12.46.46,0,0,1-.16.07l-.14,0a.33.33,0,0,1-.2,0,.15.15,0,0,1-.08-.16.29.29,0,0,1,0-.13.38.38,0,0,1,.11-.11l.14-.07Z"/><path class="cls-4" d="M49.26,44.67a.4.4,0,0,1,.23,0,.17.17,0,0,1,.08.17.35.35,0,0,1-.06.14l-.13.12a.46.46,0,0,1-.16.07l-.15,0a.35.35,0,0,1-.2,0A.16.16,0,0,1,48.8,45a.21.21,0,0,1,.05-.13.35.35,0,0,1,.1-.11l.15-.07Z"/><path class="cls-4" d="M50.49,44.67a.42.42,0,0,1,.23,0,.15.15,0,0,1,.07.17.24.24,0,0,1,0,.14l-.13.12a.56.56,0,0,1-.16.07l-.15,0a.35.35,0,0,1-.2,0A.14.14,0,0,1,50,45a.28.28,0,0,1,0-.13l.11-.11a.52.52,0,0,1,.15-.07Z"/><path class="cls-4" d="M51.71,44.67a.44.44,0,0,1,.24,0,.16.16,0,0,1,.07.17A.2.2,0,0,1,52,45a.77.77,0,0,1-.13.12.46.46,0,0,1-.16.07l-.14,0a.33.33,0,0,1-.2,0,.16.16,0,0,1-.08-.16.29.29,0,0,1,0-.13l.11-.11.14-.07Z"/><path class="cls-1" d="M23.1,47.08a18.67,18.67,0,0,1,3.31-.9,24.12,24.12,0,0,1,6.78-.28,25.18,25.18,0,0,1,3.35.56A24.77,24.77,0,0,0,29.81,46a23.13,23.13,0,0,0-3.32.5,18.16,18.16,0,0,0-3.19,1h0a.23.23,0,0,1-.32-.12.25.25,0,0,1,.13-.33Z"/><rect class="cls-5" x="4.92" y="33.84" width="54.92" height="6.26"/><path class="cls-6" d="M11.59,35.18V39H11V36.13L9.87,39H9.33l-1.1-2.83V39H7.61V35.18h.75l1.25,3,1.23-3Z"/><path class="cls-6" d="M14.24,35.12V37.4a1.1,1.1,0,0,0,.22.76.8.8,0,0,0,.64.25.82.82,0,0,0,.63-.25A1.1,1.1,0,0,0,16,37.4V35.12h.62V37.4a1.63,1.63,0,0,1-.41,1.2,1.45,1.45,0,0,1-1.07.4A1.43,1.43,0,0,1,14,38.6a1.63,1.63,0,0,1-.4-1.2V35.12Z"/><path class="cls-6" d="M21.07,35.12v.5H20V39h-.63V35.62H18.31v-.5Z"/><path class="cls-6" d="M23.43,35.12V37.4a1.1,1.1,0,0,0,.23.76.92.92,0,0,0,1.26,0,1.1,1.1,0,0,0,.22-.76V35.12h.62V37.4a1.63,1.63,0,0,1-.4,1.2,1.47,1.47,0,0,1-1.08.4,1.45,1.45,0,0,1-1.07-.4,1.63,1.63,0,0,1-.4-1.2V35.12Z"/><path class="cls-6" d="M30.08,38.13H28.46l-.29.83H27.5l1.42-3.78h.71L31,39h-.66Zm-.17-.48-.64-1.79-.63,1.79Z"/><path class="cls-6" d="M33.43,38.48h1.33V39H32.81V35.12h.62Z"/><path class="cls-6" d="M41.39,35.12v.5H39.74v1.2H41.1v.47H39.74V39h-.62V35.12Z"/><path class="cls-6" d="M43.85,35.12V37.4a1.1,1.1,0,0,0,.22.76.8.8,0,0,0,.64.25.79.79,0,0,0,.62-.25,1.1,1.1,0,0,0,.23-.76V35.12h.62V37.4a1.63,1.63,0,0,1-.41,1.2,1.46,1.46,0,0,1-1.08.4,1.42,1.42,0,0,1-1.06-.4,1.63,1.63,0,0,1-.4-1.2V35.12Z"/><path class="cls-6" d="M51.32,39H50.7l-1.87-2.83V39h-.62V35.13h.62L50.7,38V35.13h.62Z"/><path class="cls-6" d="M56.43,38.05a1.67,1.67,0,0,1-.69.68,2.41,2.41,0,0,1-1.09.23H53.37V35.12h1.28a2.28,2.28,0,0,1,1.09.24,1.65,1.65,0,0,1,.69.67,2,2,0,0,1,.24,1A2,2,0,0,1,56.43,38.05Zm-.76,0a1.56,1.56,0,0,0,0-2,1.46,1.46,0,0,0-1.06-.36H54V38.4h.62A1.5,1.5,0,0,0,55.67,38.05Z"/></svg>