<?xml version="1.0" encoding="utf-8"?>
<!-- Generator: Adobe Illustrator 25.2.3, SVG Export Plug-In . SVG Version: 6.00 Build 0)  -->
<svg version="1.1" id="Layer_1" xmlns="http://www.w3.org/2000/svg" xmlns:xlink="http://www.w3.org/1999/xlink" x="0px" y="0px"
	 viewBox="0 0 64 64" style="enable-background:new 0 0 64 64;" xml:space="preserve">
<style type="text/css">
	.st0{fill:#0A12CD;}
</style>
<g>
	<g>
		<path class="st0" d="M16.96,30.73h0.81l-1.03,2.87h-0.78l-1.03-2.87h0.82l0.42,1.33c0.07,0.22,0.15,0.49,0.18,0.63
			c0.03-0.14,0.11-0.4,0.18-0.63L16.96,30.73z M29.61,32.16c0,0.82-0.67,1.49-1.49,1.49c-0.82,0-1.49-0.66-1.49-1.49
			c0-0.82,0.67-1.49,1.49-1.49C28.94,30.67,29.61,31.34,29.61,32.16z M28.85,32.16c0-0.43-0.31-0.77-0.73-0.77
			c-0.42,0-0.73,0.35-0.73,0.77c0,0.42,0.31,0.76,0.73,0.76C28.54,32.93,28.85,32.59,28.85,32.16z M10.79,33.59h0.75v-3.98
			l-0.75,0.38V33.59z M20.56,32.16c0,0.11,0,0.15-0.01,0.24h-1.89c0.06,0.38,0.36,0.54,0.67,0.54c0.16,0,0.39-0.06,0.53-0.26
			l0.58,0.43c-0.31,0.43-0.81,0.54-1.11,0.54c-0.84,0-1.43-0.59-1.43-1.49c0-0.88,0.61-1.49,1.36-1.49
			C20.06,30.67,20.56,31.35,20.56,32.16z M19.81,31.84c-0.04-0.28-0.22-0.51-0.58-0.51c-0.28,0-0.51,0.22-0.55,0.51H19.81z
			 M13.62,30.67c-0.3,0-0.54,0.11-0.67,0.25v-0.19H12.2v2.86h0.75v-1.56c0-0.5,0.18-0.65,0.49-0.65c0.31,0,0.48,0.15,0.48,0.66v1.55
			h0.76v-1.61C14.68,31.17,14.36,30.67,13.62,30.67z M22.32,31.81c-0.22-0.05-0.63-0.09-0.63-0.29c0-0.12,0.12-0.2,0.45-0.2
			c0.17,0,0.45,0.09,0.68,0.2L23.22,31c-0.28-0.18-0.7-0.33-1.06-0.33c-0.63,0-1.19,0.35-1.19,0.89c0,0.72,0.66,0.83,1.23,0.94
			c0.14,0.02,0.44,0.06,0.44,0.27c0,0.14-0.17,0.24-0.45,0.24c-0.32,0-0.61-0.12-0.88-0.26l-0.37,0.51c0.31,0.2,0.75,0.4,1.2,0.4
			c0.61,0,1.23-0.34,1.23-0.93C23.37,32.08,22.85,31.93,22.32,31.81z M25.19,31.4c0.27,0,0.49,0.14,0.61,0.35l0.61-0.44
			c-0.27-0.38-0.72-0.63-1.22-0.63c-0.83,0-1.49,0.67-1.49,1.49c0,0.82,0.66,1.49,1.49,1.49c0.5,0,0.94-0.25,1.22-0.63l-0.61-0.44
			c-0.12,0.21-0.34,0.34-0.61,0.34c-0.43,0-0.73-0.34-0.73-0.76C24.46,31.74,24.76,31.4,25.19,31.4z"/>
		<path class="st0" d="M34.42,29.9h0.76v3.69h-0.73v-2.12l-0.8,2.12h-0.69l-0.78-2.12v2.12h-0.72V29.9h0.79l1.07,2.76L34.42,29.9z
			 M57.44,30.67c-0.3,0-0.54,0.11-0.67,0.25v-0.19h-0.75v2.86h0.75v-1.56c0-0.5,0.18-0.65,0.49-0.65c0.31,0,0.48,0.15,0.48,0.66
			v1.55h0.76v-1.61C58.49,31.17,58.17,30.67,57.44,30.67z M54.66,32.3c0,0.43-0.14,0.64-0.49,0.64c-0.35,0-0.49-0.2-0.49-0.66v-1.55
			h-0.75v1.61c0,0.86,0.36,1.31,1.06,1.31c0.3,0,0.54-0.11,0.67-0.25v0.19h0.75v-2.86h-0.75V32.3z M50.1,33.59h0.75v-1.52h1.45
			v-0.73h-1.45v-0.71h1.71V29.9H50.1V33.59z M37.55,32.3c0,0.43-0.14,0.64-0.49,0.64c-0.35,0-0.49-0.2-0.49-0.66v-1.55h-0.75v1.61
			c0,0.86,0.36,1.31,1.06,1.31c0.3,0,0.54-0.11,0.67-0.25v0.19h0.75v-2.86h-0.75V32.3z M61.65,29.61v3.98H60.9V33.4
			c-0.2,0.18-0.41,0.25-0.69,0.25c-0.78,0-1.3-0.59-1.3-1.48c0-0.9,0.52-1.5,1.3-1.5c0.28,0,0.51,0.08,0.68,0.24v-0.91L61.65,29.61z
			 M60.9,31.65c-0.13-0.2-0.34-0.31-0.6-0.31c-0.41,0-0.62,0.27-0.62,0.81c0,0.56,0.22,0.83,0.65,0.83c0.23,0,0.43-0.08,0.57-0.23
			V31.65z M47.28,33.59h0.75v-3.98l-0.75,0.38V33.59z M40.27,32.93c-0.2,0-0.29-0.11-0.29-0.34v-1.15h0.78v-0.71h-0.78v-1.11
			l-0.76,0.38v0.73h-0.48v0.71h0.48v1.35c0,0.52,0.38,0.86,0.94,0.86c0.28,0,0.57-0.09,0.68-0.2l-0.18-0.68
			C40.55,32.87,40.41,32.93,40.27,32.93z M43.03,32.3c0,0.43-0.14,0.64-0.49,0.64c-0.35,0-0.49-0.2-0.49-0.66v-1.55H41.3v1.61
			c0,0.86,0.36,1.31,1.06,1.31c0.3,0,0.54-0.11,0.67-0.25v0.19h0.75v-2.86h-0.75V32.3z M46.67,31.68v1.92h-0.75V33.4
			c-0.15,0.16-0.39,0.26-0.64,0.26c-0.63,0-1.07-0.42-1.07-1.02c0-0.59,0.45-0.95,1.16-0.95c0.21,0,0.39,0.04,0.55,0.11v-0.14
			c0-0.22-0.16-0.36-0.41-0.36c-0.33,0-0.51,0.05-0.78,0.19l-0.29-0.52c0.36-0.22,0.64-0.29,1.07-0.29
			C46.23,30.67,46.67,31.05,46.67,31.68z M45.92,32.4c-0.14-0.09-0.27-0.13-0.52-0.13c-0.28,0-0.44,0.13-0.44,0.36
			c0,0.24,0.16,0.38,0.44,0.38c0.23,0,0.43-0.1,0.52-0.26V32.4z"/>
	</g>
	<polygon class="st0" points="6.32,29.59 5.61,29.73 5.19,30.44 4.91,31.01 4.34,31.57 4.34,31.86 3.91,32.28 3.77,32.14 
		2.64,32.71 2.35,32.85 2.35,33.43 2.66,33.58 3.2,33.31 3.91,33.42 3.91,33.71 3.91,33.99 4.34,34.13 4.91,33.56 5.33,33.56 
		5.33,33.85 5.19,34.13 5.39,34.41 6.04,34.13 5.9,33.71 6.04,33 6.32,32.99 6.32,33.28 6.75,33.42 6.89,33.85 7.17,34.13 
		7.46,33.85 8.31,33.56 8.02,33.28 7.74,32.71 7.46,32.71 7.6,33.14 7.74,33.28 7.46,33.56 7.17,33.56 6.89,33 6.89,32.71 
		6.32,32.14 6.61,31.86 6.04,31.29 6.32,31.01 6.32,30.44 6.61,30.15 7.03,30.58 6.89,31.01 7.17,31.29 7.74,32.14 8.31,32.43 
		9.02,33.14 9.44,33.28 9.44,33.56 9.73,33.56 10.01,33.28 9.44,32.99 9.3,32.57 8.87,32.43 8.02,31.86 7.17,31.01 7.17,30.44 
		6.61,29.87 6.61,29.59 	"/>
</g>
</svg>
