<?xml version="1.0" encoding="UTF-8"?>
<svg id="Layer_1" xmlns="http://www.w3.org/2000/svg" version="1.1" viewBox="0 0 64 64">
  <!-- Generator: Adobe Illustrator 29.1.0, SVG Export Plug-In . SVG Version: 2.1.0 Build 142)  -->
  <defs>
    <style>
      .st0 {
        fill: #ee4023;
      }

      .st1 {
        fill: #fff;
      }

      .st2 {
        fill: #4d4d4f;
      }
    </style>
  </defs>
  <rect class="st1" x="3" y="19.72" width="58" height="24.55"/>
  <g>
    <rect class="st0" x="4.12" y="36.15" width="55.73" height="6.97"/>
    <g>
      <rect class="st2" x="13.07" y="25.58" width="3.49" height="7.76"/>
      <rect class="st2" x="8.86" y="21.34" width="3.49" height="12"/>
      <rect class="st2" x="4.64" y="21.34" width="3.49" height="3.51"/>
      <path class="st0" d="M13.07,23.1c0,.97.78,1.76,1.74,1.76s1.75-.79,1.75-1.76-.78-1.76-1.75-1.76-1.74.79-1.74,1.76"/>
      <path class="st0" d="M8.13,27.34c0-.97-.78-1.76-1.75-1.76s-1.74.79-1.74,1.76v4.24c0,.97.78,1.76,1.74,1.76s1.75-.79,1.75-1.76v-4.24Z"/>
    </g>
    <rect class="st2" x="18.91" y="23.11" width=".85" height="4.23"/>
    <polygon class="st2" points="24.55 23.11 24.55 23.96 22.99 23.96 22.99 27.34 22.14 27.34 22.14 23.96 20.58 23.96 20.58 23.11 24.55 23.11"/>
    <rect class="st2" x="25.38" y="23.11" width=".85" height="4.23"/>
    <polygon class="st0" points="23.14 33.32 22.64 33.32 22.64 30.01 22.63 30.01 21.03 32.95 19.44 30.01 19.43 30.01 19.43 33.32 18.93 33.32 18.93 29.01 19.43 29.01 21.03 31.92 22.64 29.01 23.14 29.01 23.14 33.32"/>
    <path class="st0" d="M27.28,32.02c0,.19-.02.37-.06.53-.04.17-.11.32-.22.44-.11.13-.25.23-.44.3-.19.07-.43.11-.72.11s-.54-.04-.72-.11c-.19-.07-.33-.17-.44-.3-.11-.13-.18-.27-.22-.44-.04-.17-.06-.35-.06-.53v-1.68h.51v1.68c0,.13,0,.26.03.36.02.11.06.2.13.28.07.08.16.13.28.18.12.04.29.06.49.06s.37-.02.49-.06c.12-.04.22-.1.28-.18.07-.08.11-.17.13-.28.02-.11.03-.23.03-.36v-1.68h.51v1.68Z"/>
    <polygon class="st0" points="29.68 33.32 29.18 33.32 29.18 30.85 28.03 30.85 28.03 30.34 30.82 30.34 30.82 30.85 29.68 30.85 29.68 33.32"/>
    <path class="st0" d="M34.45,32.02c0,.19-.02.37-.06.53-.04.17-.11.32-.22.44-.11.13-.25.23-.44.3-.19.07-.43.11-.72.11s-.54-.04-.72-.11c-.19-.07-.33-.17-.44-.3-.11-.13-.18-.27-.22-.44-.04-.17-.06-.35-.06-.53v-1.68h.51v1.68c0,.13,0,.26.03.36.02.11.06.2.13.28.07.08.16.13.28.18.12.04.29.06.49.06s.37-.02.49-.06c.12-.04.22-.1.28-.18.07-.08.11-.17.13-.28.02-.11.03-.23.03-.36v-1.68h.51v1.68Z"/>
    <path class="st0" d="M38.67,33.32h-.6l-.38-.7h-1.82l-.37.7h-.57l1.61-2.98h.51l1.62,2.98ZM36.79,30.91l-.65,1.21h1.3l-.65-1.21Z"/>
    <polygon class="st0" points="41.38 33.32 39.06 33.32 39.06 30.34 39.57 30.34 39.57 32.81 41.38 32.81 41.38 33.32"/>
    <polygon class="st0" points="44.17 33.32 43.66 33.32 43.66 29.01 47.2 29.01 47.2 29.51 44.17 29.51 44.17 30.83 46.06 30.83 46.06 31.33 44.17 31.33 44.17 33.32"/>
    <path class="st0" d="M50.77,32.02c0,.19-.02.37-.06.53-.04.17-.11.32-.22.44-.11.13-.25.23-.44.3-.19.07-.43.11-.72.11s-.54-.04-.72-.11c-.19-.07-.33-.17-.44-.3-.11-.13-.18-.27-.22-.44-.04-.17-.06-.35-.06-.53v-1.68h.51v1.68c0,.13,0,.26.03.36.02.11.06.2.13.28.07.08.16.13.28.18.12.04.29.06.49.06s.37-.02.49-.06c.12-.04.22-.1.28-.18.07-.08.11-.17.13-.28.02-.11.03-.23.03-.36v-1.68h.51v1.68Z"/>
    <polygon class="st0" points="54.88 33.32 54.37 33.32 52.51 31.1 52.51 33.32 52.01 33.32 52.01 30.34 52.51 30.34 54.37 32.55 54.37 30.34 54.88 30.34 54.88 33.32"/>
    <path class="st0" d="M57.64,30.34c.16,0,.33.02.51.06.18.04.34.11.49.22.15.11.27.26.37.45.1.19.15.44.15.75,0,.26-.04.48-.12.67-.08.19-.19.34-.33.47-.14.12-.3.22-.49.28-.18.06-.38.09-.57.09h-1.63v-2.98h1.63ZM57.64,32.81c.14,0,.27-.02.39-.06.12-.04.23-.1.32-.18.09-.08.16-.18.22-.31.05-.12.08-.27.08-.44,0-.18-.03-.34-.08-.46-.06-.12-.13-.23-.22-.3-.09-.08-.2-.13-.32-.16-.12-.03-.25-.05-.38-.05h-1.13v1.97h1.13Z"/>
    <path class="st1" d="M57.58,40.14c0-.07-.01-.12-.07-.17-.06-.04-.17-.08-.33-.12-.25-.05-.43-.13-.55-.23-.12-.1-.16-.24-.14-.42.03-.19.13-.35.3-.48.18-.13.4-.19.66-.19s.47.07.62.2c.15.13.21.3.18.49h0s-.57.01-.57.01c.01-.09,0-.16-.05-.21-.05-.05-.13-.08-.23-.08-.09,0-.17.02-.23.07-.06.05-.1.1-.11.17,0,.07.01.12.06.16.05.04.16.08.33.11.26.05.45.13.56.24.12.1.16.25.14.43-.03.2-.14.37-.32.49-.18.12-.41.18-.69.18s-.49-.07-.65-.22c-.15-.15-.21-.32-.18-.5h0s.54-.01.54-.01c-.01.12.01.2.08.25.07.05.16.08.27.08.1,0,.19-.02.25-.07.07-.04.1-.1.11-.18M56.08,39.07h-.22c-.08,0-.16.01-.22.05-.06.04-.12.09-.16.16l-.22,1.46h-.58l.33-2.18h.55l-.02.31c.07-.11.15-.2.24-.26.09-.06.19-.09.3-.09.03,0,.06,0,.08,0,.03,0,.05.01.07.02l-.14.52ZM52.84,39.68c-.03.21-.02.37.03.48.05.12.16.17.31.17.14,0,.26-.06.36-.18.09-.12.15-.28.18-.47v-.04c.03-.2.02-.36-.03-.48-.05-.12-.16-.18-.31-.18s-.27.06-.36.19c-.09.12-.15.28-.18.47v.04ZM52.26,39.63c.05-.34.18-.61.39-.81.21-.2.48-.3.8-.3s.54.1.7.31c.16.21.21.47.16.79v.04c-.06.34-.19.61-.4.81-.21.2-.48.3-.8.3s-.54-.1-.7-.31c-.16-.21-.21-.47-.16-.8v-.04ZM51.69,38.03l-.08.53h.37l-.06.41h-.37l-.16,1.11c-.01.09,0,.15.02.18.03.03.07.05.13.05.03,0,.06,0,.08,0,.02,0,.05,0,.08-.02l-.02.42c-.06.02-.12.04-.18.05-.06,0-.12.02-.18.02-.2,0-.34-.06-.44-.17-.1-.11-.13-.29-.09-.53l.16-1.11h-.32l.06-.41h.32l.08-.53h.59ZM49,40.35c.1,0,.19-.03.28-.08.09-.05.15-.11.19-.18l.05-.31h-.33c-.12,0-.22.03-.29.09-.08.06-.12.14-.13.23-.01.08,0,.14.04.18.04.04.11.06.19.06ZM49.47,40.74s-.03-.1-.03-.16c0-.06,0-.11,0-.17-.08.11-.17.2-.28.27-.11.07-.23.11-.37.11-.22,0-.39-.06-.49-.18-.11-.12-.15-.28-.12-.48.03-.22.14-.39.32-.5.18-.11.43-.17.75-.17h.33l.03-.17c.02-.11,0-.19-.05-.25-.05-.06-.12-.08-.23-.08-.09,0-.17.02-.23.07-.06.05-.1.11-.11.19h-.57c.02-.2.12-.36.31-.49.19-.13.42-.2.69-.2.25,0,.45.07.6.2.15.13.2.32.16.56l-.13.9c-.02.11-.02.2-.02.29,0,.09.01.18.03.27h-.58ZM47.03,38.98c-.11,0-.21.04-.28.12-.08.08-.13.19-.17.32h0s.71.01.71.01v-.04c.03-.13.02-.23-.03-.3-.04-.07-.12-.11-.24-.11ZM46.8,40.78c-.31,0-.55-.1-.71-.3-.16-.2-.22-.46-.17-.77v-.08c.06-.34.19-.61.39-.81.21-.2.46-.3.78-.3.28,0,.49.09.62.27.13.18.18.42.13.72l-.04.3h-1.3c-.02.16,0,.29.08.38.07.09.18.14.34.14.13,0,.24-.01.34-.04.1-.03.2-.07.31-.12l.1.36c-.1.07-.23.13-.38.18-.16.05-.32.07-.5.07ZM45.67,39.07h-.22c-.08,0-.16.01-.22.05-.06.04-.12.09-.16.16l-.22,1.46h-.58l.33-2.18h.54l-.02.31c.07-.11.15-.2.24-.26.09-.06.19-.09.3-.09.03,0,.06,0,.08,0,.03,0,.05.01.07.02l-.14.52ZM42.95,40.33c.1,0,.18-.03.25-.09.07-.06.12-.14.13-.24h.54c-.03.24-.14.43-.33.57-.19.14-.41.22-.66.22-.31,0-.54-.1-.69-.31-.15-.21-.2-.47-.15-.78v-.06c.06-.33.18-.6.39-.8.2-.2.47-.3.79-.3.26,0,.46.08.6.23.14.15.19.36.15.6h0s-.54.01-.54.01c.02-.12,0-.21-.05-.28-.05-.07-.12-.11-.23-.11-.15,0-.26.06-.35.18-.09.12-.14.28-.17.46v.06c-.04.2-.03.36.01.47.05.12.15.17.3.17ZM39.49,38.83c.08-.1.18-.17.29-.22.11-.05.22-.08.34-.08.22,0,.38.08.49.23.11.15.14.38.1.7l-.19,1.29h-.59l.2-1.29c.03-.18.02-.3-.03-.36-.04-.07-.12-.1-.23-.1-.09,0-.17.02-.24.05-.07.03-.13.07-.18.13l-.24,1.58h-.59l.47-3.14h.59l-.18,1.22ZM38.13,38.03l-.08.53h.37l-.06.41h-.37l-.16,1.11c-.01.09,0,.15.02.18.03.03.07.05.13.05.03,0,.06,0,.08,0,.02,0,.05,0,.08-.02l-.02.42c-.06.02-.12.04-.18.05-.06,0-.12.02-.18.02-.2,0-.34-.06-.44-.17-.1-.11-.13-.29-.09-.53l.16-1.11h-.32l.06-.41h.32l.08-.53h.59ZM36.36,40.74h-.59l.47-3.14h.59l-.47,3.14ZM34.16,40.35c.1,0,.19-.03.28-.08.09-.05.15-.11.19-.18l.05-.31h-.33c-.12,0-.22.03-.29.09-.08.06-.12.14-.13.23-.01.08,0,.14.04.18.04.04.11.06.19.06ZM34.64,40.74s-.03-.1-.03-.16c0-.06,0-.11,0-.17-.08.11-.17.2-.28.27-.11.07-.23.11-.37.11-.22,0-.39-.06-.49-.18-.11-.12-.15-.28-.12-.48.03-.22.14-.39.32-.5.18-.11.43-.17.75-.17h.33l.03-.17c.02-.11,0-.19-.05-.25-.05-.06-.12-.08-.23-.08-.09,0-.17.02-.23.07-.06.05-.1.11-.11.19h-.57c.02-.2.12-.36.31-.49.19-.13.42-.2.69-.2.25,0,.45.07.6.2.15.13.2.32.16.56l-.13.9c-.02.11-.02.2-.02.29,0,.09.01.18.03.27h-.58ZM32.2,38.98c-.11,0-.21.04-.28.12-.08.08-.13.19-.17.32h0s.71.01.71.01v-.04c.03-.13.02-.23-.03-.3-.04-.07-.12-.11-.24-.11ZM31.97,40.78c-.31,0-.55-.1-.71-.3-.16-.2-.22-.46-.17-.77v-.08c.06-.34.19-.61.39-.81.21-.2.46-.3.78-.3.28,0,.49.09.62.27.13.18.18.42.13.72l-.04.3h-1.3c-.02.16,0,.29.08.38.07.09.18.14.34.14.13,0,.24-.01.34-.04.1-.03.2-.07.31-.12l.1.36c-.1.07-.23.13-.38.18-.16.05-.32.07-.5.07ZM29.84,39.93h.01l.47-1.36h.57l-.88,2.18h-.49l-.21-1.25h-.01s-.59,1.25-.59,1.25h-.49l-.23-2.18h.57l.06,1.36h.01s.61-1.36.61-1.36h.39l.21,1.36ZM24.09,38.84c.08-.1.18-.18.3-.23.11-.05.24-.08.38-.08s.24.03.34.09c.09.06.15.15.19.28.08-.12.19-.21.3-.27.12-.06.25-.1.4-.1.21,0,.36.08.47.23.11.15.13.38.09.69l-.19,1.29h-.59l.19-1.29c.03-.18.02-.3-.02-.37-.04-.07-.12-.1-.23-.1-.08,0-.15.02-.22.06-.07.04-.12.09-.17.16,0,.02,0,.04,0,.06,0,.02,0,.04,0,.06l-.22,1.43h-.58l.19-1.29c.03-.18.02-.3-.02-.37-.04-.07-.12-.1-.23-.1-.08,0-.15.02-.21.05-.06.03-.12.08-.17.13l-.24,1.58h-.58l.33-2.18h.55l-.02.28ZM23.01,39.07h-.22c-.08,0-.16.01-.22.05-.06.04-.12.09-.16.16l-.22,1.46h-.58l.33-2.18h.55l-.02.31c.07-.11.15-.2.24-.26.09-.06.19-.09.3-.09.03,0,.06,0,.08,0,.03,0,.05.01.07.02l-.14.52ZM20.46,38.98c-.11,0-.21.04-.28.12-.08.08-.13.19-.17.32h0s.71.01.71.01v-.04c.03-.13.02-.23-.03-.3-.04-.07-.12-.11-.24-.11ZM20.22,40.78c-.31,0-.55-.1-.71-.3-.16-.2-.22-.46-.17-.77v-.08c.06-.34.19-.61.39-.81.21-.2.46-.3.78-.3.28,0,.49.09.62.27.13.18.18.42.13.72l-.04.3h-1.3c-.02.16,0,.29.08.38.07.09.18.14.34.14.13,0,.24-.01.34-.04.1-.03.2-.07.31-.12l.1.36c-.1.07-.23.13-.38.18-.16.05-.32.07-.5.07ZM18.79,38.03l-.08.53h.37l-.06.41h-.37l-.16,1.11c-.01.09,0,.15.02.18.03.03.07.05.13.05.03,0,.06,0,.08,0,.02,0,.05,0,.08-.02l-.02.42c-.06.02-.12.04-.18.05-.06,0-.12.02-.18.02-.2,0-.34-.06-.44-.17-.1-.11-.13-.29-.09-.53l.16-1.11h-.32l.06-.41h.32l.08-.53h.59ZM17.12,39.72h-1.18l.07-.45h1.18l-.07.45ZM13.86,39.71c-.03.2-.02.35.02.45.05.11.14.16.29.16.09,0,.16-.02.23-.05.07-.03.13-.08.18-.15l.14-.93c-.03-.07-.07-.12-.13-.16-.06-.04-.13-.05-.22-.05-.14,0-.25.06-.34.19-.09.13-.15.29-.18.5v.04ZM13.28,39.67c.05-.36.17-.64.35-.84.18-.2.4-.31.68-.31.12,0,.22.03.3.09.08.06.15.14.21.24l.09-.29h.51l-.32,2.17c-.05.29-.17.52-.38.66-.21.15-.47.22-.81.22-.11,0-.22-.02-.34-.05-.12-.03-.23-.07-.33-.12l.16-.44c.08.04.17.07.26.1.09.02.19.03.31.03.15,0,.28-.03.37-.1.09-.07.14-.17.17-.31l.03-.2c-.08.08-.16.15-.26.19-.09.04-.2.06-.31.06-.26,0-.45-.1-.57-.3-.12-.2-.16-.46-.11-.77v-.04ZM11.55,38.87c.09-.11.19-.19.3-.25.12-.06.24-.09.37-.09.21,0,.37.07.48.22.11.14.14.37.09.67l-.2,1.33h-.59l.2-1.33c.02-.16.01-.27-.03-.33-.04-.06-.12-.09-.23-.09-.09,0-.16.02-.24.05-.07.03-.13.08-.19.14l-.23,1.57h-.59l.33-2.18h.55l-.02.3ZM8.87,39.68c-.03.21-.02.37.03.48.05.12.16.17.31.17.14,0,.26-.06.36-.18.09-.12.15-.28.18-.47v-.04c.03-.2.02-.36-.03-.48-.05-.12-.16-.18-.31-.18s-.27.06-.36.19c-.09.12-.15.28-.18.47v.04ZM8.29,39.63c.05-.34.18-.61.39-.81.21-.2.48-.3.8-.3s.54.1.7.31c.16.21.21.47.16.79v.04c-.06.34-.19.61-.4.81-.21.2-.48.3-.8.3s-.54-.1-.7-.31c-.16-.21-.21-.47-.16-.8v-.04ZM6.45,40.29h1.31l-.07.45h-1.9l.44-2.93h.59l-.37,2.48Z"/>
  </g>
</svg>