<?xml version="1.0" encoding="utf-8"?>
<!-- Generator: Adobe Illustrator 28.0.0, SVG Export Plug-In . SVG Version: 6.00 Build 0)  -->
<svg version="1.1" id="Layer_1" xmlns="http://www.w3.org/2000/svg" xmlns:xlink="http://www.w3.org/1999/xlink" x="0px" y="0px"
	 viewBox="0 0 64 64" style="enable-background:new 0 0 64 64;" xml:space="preserve">
<style type="text/css">
	.st0{fill:#312109;}
	.st1{fill:url(#SVGID_1_);}
	.st2{fill:#FFFFFF;}
	.st3{fill:none;stroke:#312109;stroke-width:0.25;}
</style>
<g>
	<path class="st0" d="M9.7,53.5V45h1.9v8.4L9.7,53.5L9.7,53.5z M47,50.3c0-2-1.6-3.3-3.4-3.3c-1.9,0-3.4,1.3-3.4,3.3
		s1.6,3.3,3.4,3.3C45.5,53.6,47,52.3,47,50.3z M45.1,50.3c0,1.1-0.7,1.7-1.5,1.7s-1.5-0.6-1.5-1.7c0-1.1,0.7-1.7,1.5-1.7
		C44.4,48.6,45.1,49.2,45.1,50.3z M8.9,51c0-0.9-0.5-1.7-1.4-2c0.8-0.5,1.1-1.1,1.1-1.8C8.6,46,7.8,45,5.8,45H1.9v8.4h4
		C7.9,53.5,8.9,52.5,8.9,51z M6.6,47.5c0,0.6-0.4,0.9-1.1,0.9H3.9v-1.8h1.6C6.2,46.7,6.6,46.9,6.6,47.5z M6.8,50.9
		c0,0.6-0.4,0.9-1.1,0.9H3.9V50h1.7C6.4,50,6.8,50.3,6.8,50.9z M25.6,48.7c-0.5-1.1-1.5-1.7-3-1.7c-1.8,0-3.3,1.1-3.3,3.3
		c0,2.1,1.4,3.3,3.3,3.3c1.3,0,2.5-0.5,3-1.7l-1.5-0.8c-0.3,0.5-0.7,0.8-1.4,0.8c-0.9,0-1.5-0.6-1.5-1.7c0-1,0.7-1.7,1.5-1.7
		c0.6,0,1.1,0.3,1.4,0.9L25.6,48.7z M54,48.7c-0.5-1.1-1.5-1.7-3-1.7c-1.8,0-3.3,1.1-3.3,3.3c0,2.1,1.4,3.3,3.3,3.3
		c1.3,0,2.5-0.5,3-1.7l-1.5-0.8C52.1,51.6,51.7,52,51,52c-0.9,0-1.5-0.6-1.5-1.7c0-1,0.7-1.7,1.5-1.7c0.6,0,1.1,0.3,1.4,0.9L54,48.7
		z M37.9,53.5l-1.6-2.8H35v2.8h-2V45h3.6c1.9,0,3.3,0.9,3.3,2.7c0,1.2-0.6,2-1.6,2.5l1.9,3.2L37.9,53.5L37.9,53.5z M35,48.9h1.5
		c0.9,0,1.4-0.5,1.4-1.1c0-0.7-0.4-1.1-1.4-1.1H35V48.9z M19,53.4V52c-0.1,0-0.2,0-0.3,0c-0.2,0-0.4-0.1-0.4-0.4v-2.2
		c0-1.6-1.1-2.5-2.9-2.5c-1.2,0-2.2,0.4-2.8,1l1.1,1.2c0.4-0.4,1-0.6,1.5-0.6c0.8,0,1.2,0.4,1.2,1.1v0.2c-0.4-0.1-0.9-0.2-1.5-0.2
		c-1.5,0-2.5,0.7-2.5,2s0.8,1.9,2.1,1.9c0.9,0,1.7-0.4,2.1-0.8c0.2,0.6,0.8,0.8,1.3,0.8C18.2,53.6,18.6,53.5,19,53.4z M16.4,51.4
		c0,0.6-0.6,0.9-1.2,0.9c-0.6,0-0.9-0.3-0.9-0.7s0.3-0.8,1-0.8c0.4,0,0.8,0.1,1.1,0.1V51.4z M60.8,53.5l-2.3-3.9l2.1-2.3h-2.1
		l-2.2,2.5V45h-1.9v8.4h1.9v-1.5l0.9-1l1.4,2.5L60.8,53.5L60.8,53.5z M32.5,53.5l-2.3-3.9l2.1-2.3h-2.2L28,49.7V45h-1.9v8.4H28v-1.5
		l0.9-1l1.4,2.5L32.5,53.5L32.5,53.5z M62,52.3c0.4,0,0.6,0.2,0.6,0.6c0,0.4-0.2,0.6-0.6,0.6c-0.4,0-0.6-0.2-0.6-0.6
		S61.6,52.3,62,52.3z M62,53.4c0.3,0,0.5-0.2,0.5-0.5c0-0.4-0.2-0.5-0.5-0.5s-0.5,0.2-0.5,0.5C61.5,53.3,61.7,53.4,62,53.4z
		 M61.8,52.6H62c0.2,0,0.2,0.1,0.2,0.2c0,0.1,0,0.2-0.1,0.2l0.1,0.2h-0.1L62,53h-0.1v0.2h-0.1C61.8,53.2,61.8,52.6,61.8,52.6z
		 M61.9,52.7v0.2H62c0.1,0,0.1,0,0.1-0.1S62.1,52.7,61.9,52.7L61.9,52.7L61.9,52.7z"/>
	<g>
		<g>
			
				<linearGradient id="SVGID_1_" gradientUnits="userSpaceOnUse" x1="18.2789" y1="6.8789" x2="46.1935" y2="34.7933" gradientTransform="matrix(1 0 0 1 0 2)">
				<stop  offset="8.000000e-02" style="stop-color:#F3B561"/>
				<stop  offset="0.45" style="stop-color:#F6C586"/>
				<stop  offset="1" style="stop-color:#C78724"/>
			</linearGradient>
			<path class="st1" d="M46.2,22.8c0-7.7-6.3-14-14-14s-14,6.3-14,14s6.3,14,14,14C40,36.7,46.2,30.5,46.2,22.8z"/>
			<path class="st2" d="M28.1,17.2h-0.5c-0.9,0-1.4,0.5-1.4,1.5v4.8c0,1.2-0.4,1.7-1.4,1.7c-0.8,0-1.4-0.3-1.9-0.9
				c0-0.1-1.1,0.4-1.1,1.6c0,1.3,1.2,2.1,3.4,2.1c2.7,0,4.1-1.4,4.1-4.4v-4.9C29.5,17.7,29.1,17.2,28.1,17.2z M39,19.6
				c-2.6,0-4.4,1.7-4.4,4.2c0,2.6,1.7,4.2,4.3,4.2s4.4-1.6,4.4-4.2S41.6,19.6,39,19.6z M38.9,25.5c-1,0-1.7-0.8-1.7-1.8
				c0-1.1,0.7-1.8,1.7-1.8s1.7,0.8,1.7,1.8C40.7,24.8,39.9,25.5,38.9,25.5L38.9,25.5z M32.3,19.6H32c-0.8,0-1.4,0.4-1.4,1.5v5.1
				c0,1.1,0.6,1.5,1.4,1.5h0.3c0.8,0,1.3-0.4,1.3-1.5v-5.1C33.7,20,33.2,19.6,32.3,19.6z M32.2,15.9c-1,0-1.6,0.6-1.6,1.4
				c0,0.9,0.6,1.5,1.7,1.5c1,0,1.6-0.6,1.6-1.5C33.8,16.5,33.2,15.9,32.2,15.9z"/>
		</g>
	</g>
	<line class="st3" x1="1.9" y1="40.8" x2="62.6" y2="40.8"/>
</g>
</svg>
