<?xml version="1.0" encoding="UTF-8"?>
<svg id="Layer_1" data-name="Layer 1" xmlns="http://www.w3.org/2000/svg" xmlns:xlink="http://www.w3.org/1999/xlink" viewBox="0 0 64 64">
  <defs>
    <style>
      .cls-1 {
        fill: #ea2b29;
        fill-rule: evenodd;
      }

      .cls-2 {
        fill: none;
      }

      .cls-3 {
        fill: #253e8a;
      }

      .cls-4 {
        clip-path: url(#clippath);
      }
    </style>
    <clipPath id="clippath">
      <rect class="cls-2" y="20.48" width="64" height="23.04"/>
    </clipPath>
  </defs>
  <g class="cls-4">
    <path class="cls-1" d="M.04,34.73l9.96-14.25c-1.88,4.05-2.77,9.25-2.68,13.3-1.81-.47-4.82-.66-7.29.95"/>
    <path class="cls-3" d="M10.41,33.59c.31.2.64.3.98.3.27,0,.51-.06.72-.18.2-.12.36-.29.47-.51.11-.22.2-.6.27-1.13l.53-4.01h-1.07l-.55,4.07c-.03.31-.08.52-.15.61-.07.09-.16.14-.28.14s-.24-.05-.39-.16c-.15-.1-.29-.27-.44-.5l-.85.51c.19.37.44.66.75.86M15.57,30.18l.86,3.57h.82l1.68-3.4.05,3.4h1l-.08-5.68h-.92l-1.96,3.96-.96-3.96h-.96l-1.45,5.68h1.02l.91-3.57ZM24.57,31.25h1.73l.13-1h-1.73l.16-1.18h1.73l.13-1.01h-2.8l-.75,5.68h1.07l.33-2.5ZM28.79,28.07h-1.04l-.76,5.68h1.02l.78-5.68ZM30.79,29.84l2.09,3.9h.91l.77-5.68h-1.04l-.52,3.86-2.06-3.86h-.93l-.76,5.68h1.02l.52-3.9ZM36.53,32.54h2.24l.3,1.21h1.03l-1.41-5.68h-.9l-3.07,5.68h1.15l.65-1.21ZM38.06,29.67l.46,1.87h-1.46l1-1.87ZM42.5,29.84l2.09,3.9h.91l.76-5.68h-1.04l-.52,3.86-2.06-3.86h-.93l-.75,5.68h1.02l.52-3.9ZM48.25,33.55c.42.23.93.34,1.53.34.85,0,1.6-.23,2.24-.68l-.63-.83c-.44.34-.95.52-1.54.52-.56,0-1.01-.17-1.37-.51-.35-.34-.53-.77-.53-1.28,0-.38.1-.73.3-1.07.2-.33.49-.6.85-.81.36-.2.74-.3,1.14-.3.28,0,.55.05.79.16.24.1.45.25.61.44l.78-.72c-.62-.58-1.35-.88-2.2-.88-.61,0-1.16.14-1.68.43-.51.29-.92.69-1.22,1.19-.3.5-.45,1.03-.45,1.58,0,.51.13.99.38,1.43.26.44.59.77,1.01,1M54.73,28.07h-1.04l-.76,5.68h1.02l.78-5.68ZM56.62,32.54h2.24l.3,1.21h1.03l-1.41-5.68h-.9l-3.06,5.68h1.15l.65-1.21ZM58.15,29.67l.46,1.87h-1.46l1-1.87ZM62.23,32.77l.64-4.7h-1.07l-.77,5.68h2.84l.12-.98h-1.77ZM0,36.91h63.84v-.29H0v.29ZM19.25,39.8l-1.33,2.71-1.34-2.71h-.19l-.52,3.63h.52l.31-2.27,1.12,2.27h.2l1.11-2.25.31,2.25h.52l-.52-3.63h-.19ZM22.4,41.97c0,.33-.02.46-.03.51-.03.11-.08.2-.14.28-.06.08-.14.13-.23.18-.2.09-.42.08-.64-.02-.11-.05-.2-.12-.25-.2-.05-.08-.09-.18-.1-.3,0-.04-.01-.15-.01-.45v-2.17h-.53v2.17c0,.36.02.61.07.75.07.24.22.43.44.58.21.14.47.21.77.21.28,0,.51-.08.71-.23.19-.15.33-.33.39-.54.06-.2.09-.46.09-.77v-2.17h-.53v2.17ZM23.25,40.32h.77v3.11h.54v-3.11h.77v-.52h-2.07v.52ZM27.58,41.97c0,.33-.02.46-.03.51-.03.11-.08.2-.14.28-.06.08-.14.13-.23.18-.2.09-.42.08-.64-.02-.11-.05-.2-.12-.25-.2-.05-.08-.09-.18-.1-.3,0-.04-.01-.15-.01-.45v-2.17h-.53v2.17c0,.36.02.61.07.75.07.24.22.43.43.58.21.14.47.21.77.21.28,0,.51-.08.71-.23.19-.15.33-.33.39-.54.06-.2.09-.46.09-.77v-2.17h-.53v2.17ZM30.13,39.8l-1.71,3.63h.59l.54-1.13h1.37l.54,1.13h.57l-1.69-3.63h-.2ZM29.79,41.78l.44-.94.44.94h-.89ZM32.85,39.8h-.53v3.63h1.85v-.52h-1.33v-3.11ZM35.87,43.43h.53v-1.69h1.38v-.52h-1.38v-.9h1.38v-.52h-1.91v3.63ZM40.15,41.97c0,.33-.02.46-.03.51-.03.11-.08.2-.14.28-.06.08-.14.13-.23.18-.2.09-.43.08-.64-.02-.12-.05-.2-.12-.25-.2-.05-.08-.09-.18-.1-.3,0-.04-.01-.15-.01-.45v-2.17h-.53v2.17c0,.36.02.61.07.75.07.24.22.43.43.58.21.14.47.21.76.21.28,0,.52-.08.71-.23.19-.15.33-.33.39-.54.06-.2.09-.46.09-.77v-2.17h-.53v2.17ZM43.71,42.29l-2.16-2.49h-.21v3.63h.54v-2.46l2.14,2.46h.21v-3.63h-.52v2.49ZM46.85,39.93c-.24-.09-.62-.13-1.15-.13h-.81v3.63h1.19c.44,0,.79-.07,1.05-.2.25-.13.46-.34.62-.62.16-.28.24-.6.24-.96,0-.42-.1-.78-.3-1.08-.2-.31-.48-.52-.83-.65M47.23,42.42c-.14.2-.32.34-.56.42-.17.06-.5.08-.96.08h-.31v-2.6h.15c.48,0,.83.03,1.04.09.26.08.47.23.62.45.15.22.23.49.23.8s-.07.55-.21.75"/>
  </g>
</svg>