<?xml version="1.0" encoding="UTF-8"?>
<svg id="Layer_1" data-name="Layer 1" xmlns="http://www.w3.org/2000/svg" viewBox="0 0 64 64">
  <defs>
    <style>
      .cls-1, .cls-2 {
        fill: #fff;
      }

      .cls-3, .cls-4 {
        fill: #ed1c24;
      }

      .cls-2, .cls-5, .cls-4 {
        fill-rule: evenodd;
      }

      .cls-5 {
        fill: #1f396d;
      }
    </style>
  </defs>
  <rect class="cls-3" x="-.22" y="-.22" width="64.45" height="64.45"/>
  <g>
    <g>
      <path class="cls-5" d="M17.08,22.35c0-6.79,6.4-12.3,14.3-12.3s14.3,5.51,14.3,12.3-6.41,12.3-14.3,12.3-14.3-5.51-14.3-12.3"/>
      <polygon class="cls-4" points="29.65 14.01 32.97 12.91 32.99 30.87 29.64 31.99 29.65 14.01"/>
      <path class="cls-2" d="M42.14,23.6c-.31,2.57-1.75,5.17-4.9,5.17-1.83,0-3.27-1.26-4.27-2.79v-1.78c1.24.62,2.41,1.28,3.82,1.3,1.74.03,3.31-.64,3.96-1.89h1.39ZM31.62,25.21c-1.45,1.74-2.84,3.52-5.45,3.52-3.69,0-5.44-3.57-5.44-6.56s1.37-6.26,4.97-6.26c1.56,0,3.06.95,3.96,1.97v2.43c-.75-.5-2.43-1-3.52-1.01-2.28-.04-4.29.95-4.26,3.2.02,1.55,1.56,2.6,3.09,2.6,2.34,0,3.76-2.14,4.94-3.76.33-.42,1.26-1.67,1.41-1.87,1.31-1.84,2.84-3.52,5.45-3.52,3.08,0,4.81,2.48,5.29,5.04h-1.39c-.56-.83-1.63-1.34-2.69-1.34-2.42,0-3.87,2.23-5.07,3.86,0,0-.94,1.28-1.28,1.69"/>
    </g>
    <path class="cls-2" d="M25.04,46.85c2.2,0,3.88-1.28,3.88-3.48s-1.68-3.5-3.88-3.5-3.88,1.28-3.88,3.5,1.68,3.48,3.88,3.48M25.04,45.23c-1.06,0-1.5-.88-1.5-1.87s.44-1.88,1.5-1.88,1.5.89,1.5,1.88-.44,1.87-1.5,1.87"/>
    <path class="cls-2" d="M28.71,41.63h1.32v2.72c0,1.59.5,2.5,2.56,2.5.58,0,1.01-.08,1.45-.13l-.08-1.5c-.23.04-.47.09-.71.09-.73,0-.92-.41-.92-1.22v-2.46h1.62v-1.61h-1.62v-2.31l-2.27.81v1.5h-1.36v1.61Z"/>
    <polygon class="cls-2" points="15.02 46.69 17.32 46.69 17.32 43.39 17.35 43.39 19.19 46.69 21.99 46.69 19.47 43.08 21.79 40.02 19.27 40.02 17.35 42.82 17.32 42.82 17.32 37.72 15.02 38.48 15.02 46.69"/>
    <path class="cls-2" d="M41.2,46.72c-.1-.53-.13-1.06-.13-1.59v-2.52c0-2.06-1.49-2.8-3.21-2.8-1,0-1.87.14-2.7.48l.04,1.58c.65-.36,1.4-.5,2.15-.5.84,0,1.53.25,1.55,1.17-.3-.05-.71-.09-1.09-.09-1.25,0-3.49.25-3.49,2.31,0,1.46,1.19,2.12,2.53,2.12.96,0,1.61-.37,2.14-1.22h.03c0,.35.04.7.05,1.06h2.14ZM36.49,44.58c0-.65.62-.89,1.41-.89.35,0,.69.03.99.04,0,.79-.56,1.59-1.44,1.59-.54,0-.96-.27-.96-.74"/>
    <polygon class="cls-2" points="42.02 46.69 44.32 46.69 44.32 43.39 44.35 43.39 46.19 46.69 48.98 46.69 46.47 43.08 48.79 40.02 46.27 40.02 44.35 42.82 44.32 42.82 44.32 37.72 42.02 38.52 42.02 46.69"/>
    <polygon class="cls-2" points="16.75 50.03 17.34 50.03 18.77 53.41 20.17 50.03 20.72 50.03 20.72 53.89 20.34 53.89 20.34 50.42 20.32 50.42 18.93 53.89 18.6 53.89 17.16 50.42 17.14 50.42 17.14 53.89 16.75 53.89 16.75 50.03"/>
    <path class="cls-2" d="M23.83,53.21c0,.22,0,.44.02.68h-.33v-.51h-.02c-.11.25-.33.57-.91.57-.7,0-.95-.46-.95-1.08v-1.79h.35v1.7c0,.53.18.88.66.88.64,0,.84-.55.84-1.03v-1.55h.35v2.14Z"/>
    <path class="cls-2" d="M25.92,51.36h-.64v1.83c0,.26.09.46.37.46.15,0,.22-.02.33-.07l.02.29c-.07.04-.26.07-.42.07-.62,0-.64-.42-.64-.93v-1.65h-.55v-.29h.55v-.68l.35-.13v.8h.64v.29Z"/>
    <path class="cls-2" d="M28.73,53.21c0,.22,0,.44.02.68h-.33v-.51h-.02c-.11.25-.31.57-.89.57-.7,0-.97-.46-.97-1.08v-1.79h.35v1.7c0,.53.18.88.68.88.62,0,.82-.55.82-1.03v-1.55h.35v2.14Z"/>
    <path class="cls-2" d="M31.22,53.43h0c-.13.29-.44.46-.73.51v-.29c.7-.07.72-.73.72-1.02v-.16h-.11c-.2,0-.4,0-.6.04v-.31c.22-.02.44-.02.64-.02h.07v-.14c0-.48-.18-.73-.64-.73h-.07v-.29h.07c.69,0,.99.31.99,1.04v1.24c0,.24,0,.4.02.6h-.35v-.46ZM30.48,53.95h-.16c-.8,0-.93-.53-.93-.79,0-.68.53-.9,1.1-.97v.31c-.4.07-.71.24-.71.64,0,.37.26.51.59.51h.13v.29ZM30.48,51.29c-.27.02-.53.09-.77.24v-.33c.2-.11.53-.18.77-.2v.29Z"/>
    <rect class="cls-1" x="32.37" y="49.74" width=".35" height="4.15"/>
    <polygon class="cls-2" points="35.11 50.03 36.96 50.03 36.96 50.36 35.49 50.36 35.49 51.73 36.88 51.73 36.88 52.06 35.49 52.06 35.49 53.89 35.11 53.89 35.11 50.03"/>
    <path class="cls-2" d="M39.77,53.21c0,.22,0,.44.02.68h-.33v-.51h-.02c-.11.25-.31.57-.89.57-.7,0-.97-.46-.97-1.08v-1.79h.35v1.7c0,.53.18.88.67.88.62,0,.82-.55.82-1.03v-1.55h.35v2.14Z"/>
    <path class="cls-2" d="M40.65,51.73c0-.22,0-.44-.02-.66h.33v.49h.02c.11-.26.33-.57.91-.57.7,0,.95.46.95,1.08v1.81h-.35v-1.72c0-.53-.19-.88-.66-.88-.64,0-.84.57-.84,1.04v1.55h-.35v-2.16Z"/>
    <path class="cls-2" d="M45.95,53.89h-.35v-.46h-.02c-.18.35-.44.51-.82.51v-.29c.62,0,.84-.66.84-1.17s-.22-1.19-.84-1.19v-.29c.51.04.79.4.82.55h.02v-1.81h.35v4.15ZM44.77,53.95h-.06c-.77,0-1.15-.64-1.15-1.46s.33-1.48,1.15-1.48h.06v.29c-.66,0-.82.64-.82,1.19s.16,1.17.82,1.17v.29Z"/>
  </g>
</svg>