<?xml version="1.0" encoding="UTF-8"?>
<!DOCTYPE svg PUBLIC "-//W3C//DTD SVG 1.1//EN" "http://www.w3.org/Graphics/SVG/1.1/DTD/svg11.dtd">
<!-- Creator: CorelDRAW X7 -->
<svg xmlns="http://www.w3.org/2000/svg" xml:space="preserve" width="5.4186mm" height="5.4186mm" version="1.1" style="shape-rendering:geometricPrecision; text-rendering:geometricPrecision; image-rendering:optimizeQuality; fill-rule:evenodd; clip-rule:evenodd"
viewBox="0 0 542 542"
 xmlns:xlink="http://www.w3.org/1999/xlink">
 <defs>
  <style type="text/css">
   <![CDATA[
    .fil0 {fill:none}
    .fil2 {fill:#FECC00}
    .fil3 {fill:#FECC00;fill-rule:nonzero}
    .fil1 {fill:#214284;fill-rule:nonzero}
   ]]>
  </style>
 </defs>
 <g id="Layer_x0020_1">
  <metadata id="CorelCorpID_0Corel-Layer"/>
  <rect class="fil0" width="542" height="542"/>
  <g id="_1651955556304">
   <path class="fil1" d="M117 292l0 0c-2,0 -4,1 -4,2 0,2 2,4 4,6l0 -5c-2,0 -3,0 -3,-1 0,-1 1,-1 3,-2l0 0zm4 0l0 0c1,-1 1,-2 1,-3 1,-2 0,-5 -1,-5 0,-1 -1,-3 -1,-3 0,3 -2,5 -2,6 -1,1 0,2 0,3 0,1 1,1 1,2 -1,0 -1,0 -2,0l0 0c1,0 1,0 2,0l0 0c1,1 1,1 1,2 0,1 -2,1 -3,1l0 5c1,1 3,1 4,1 1,0 2,0 3,-1l0 -5c-1,0 -2,0 -3,-1 0,0 0,-1 0,-2 1,0 2,0 3,0l0 0c-1,0 -2,0 -3,0zm3 8c3,-1 5,-4 5,-6 0,-1 -2,-2 -5,-2l0 0c2,1 4,1 4,2 0,1 -1,1 -3,1l0 0c0,0 0,0 -1,0l0 5z"/>
   <path class="fil1" d="M104 282c0,0 0,-1 0,-2 0,0 0,-1 1,0 1,0 1,1 1,2 0,0 -1,2 -1,3l-2 4c0,0 0,0 0,0 0,0 -1,2 0,4l0 3c0,0 0,0 0,0 0,0 0,0 0,-1 0,0 0,-3 0,-3 0,-1 1,-3 1,-3 0,0 0,0 0,-1 0,-1 1,-3 1,-3 0,0 1,-2 2,-3 0,0 0,-1 0,-3 0,0 0,0 0,-1 0,0 1,0 2,1 0,0 0,0 0,1 0,1 0,2 -1,4 0,0 0,1 0,1 -1,0 -2,3 -2,3 0,0 0,1 0,1 0,0 0,1 -1,2 0,1 0,1 0,3 0,1 0,3 0,3 0,0 0,0 1,0 0,0 0,-1 0,-1 0,0 0,0 0,-1 0,0 0,-2 0,-2 0,0 0,-2 0,-3 1,0 1,-1 1,-1 0,-1 1,-2 1,-2 0,0 1,-3 1,-4 0,0 1,-2 1,-3 0,0 0,-1 0,-1 0,0 0,-1 1,0 1,0 1,1 1,1 0,0 1,1 0,1 0,0 0,0 0,0 0,0 -1,0 -1,1 0,0 0,1 0,1 0,0 0,1 0,1 0,1 -1,3 -1,4 0,0 -1,1 -1,1 0,0 0,1 0,1 0,0 -1,2 -1,3 0,0 0,1 0,2 0,1 0,2 0,2 0,0 1,0 1,0 0,0 0,-1 0,-2 0,-1 0,-3 0,-3 0,0 1,-3 1,-3 0,0 1,-2 1,-2 0,-1 1,-3 1,-3 0,-1 0,-2 1,-2 1,0 1,2 1,3 0,0 0,2 -1,4 -1,1 -1,1 -1,1 0,0 0,2 0,2 0,1 0,2 0,3 0,1 0,1 0,1 0,1 1,2 1,2 0,1 0,2 0,2 1,0 1,1 2,1 0,1 1,2 1,2 0,1 2,4 3,5 1,1 2,3 1,4 0,1 0,2 -1,2 0,1 0,1 0,1 -1,0 -1,1 -1,1l-1 2 -10 0 2 -4c0,0 1,0 0,-2 -2,-2 -5,-7 -5,-7 0,0 -2,-4 -2,-5 -1,-1 -1,-6 -1,-8 0,0 0,-2 1,-5 1,-2 2,-5 2,-5z"/>
   <path class="fil1" d="M138 282c0,0 0,-1 0,-2 0,0 0,-1 -1,0 -1,0 -1,1 -1,2 0,0 1,2 1,3l2 4c0,0 0,0 0,0 0,0 1,2 0,4l0 3c0,0 0,0 0,0 0,0 0,0 0,-1 0,0 0,-3 0,-3 0,-1 -1,-3 -1,-3 0,0 0,0 0,-1 0,-1 -1,-3 -1,-3 0,0 -1,-2 -2,-3 0,0 0,-1 0,-3 0,0 0,0 0,-1 0,0 -1,0 -1,1 -1,0 -1,0 -1,1 0,1 0,2 1,4 0,0 0,1 0,1 0,0 2,3 2,3 0,0 0,1 0,1 0,0 0,1 1,2 0,1 0,1 0,3 0,1 0,3 0,3 0,0 0,0 -1,0 0,0 0,-1 0,-1 0,0 0,0 0,-1 0,0 0,-2 0,-2 0,0 0,-2 0,-3 0,0 -1,-1 -1,-1 0,-1 -1,-2 -1,-2 0,0 -1,-3 -1,-4 0,0 -1,-2 -1,-3 0,0 0,-1 0,-1 0,0 0,-1 -1,0 -1,0 -1,1 -1,1 0,0 -1,1 0,1 0,0 0,0 0,0 0,0 0,0 1,1 0,0 0,1 0,1 0,0 0,1 0,1 0,1 1,3 1,4 0,0 1,1 1,1 0,0 0,1 0,1 0,0 1,2 1,3 0,0 0,1 0,2 0,1 0,2 0,2 0,0 -1,0 -1,0 0,0 0,-1 0,-2 0,-1 0,-3 0,-3 0,0 -1,-3 -1,-3 0,0 -1,-2 -1,-2 0,-1 -1,-3 -1,-3 0,-1 0,-2 -1,-2 -1,0 -1,2 -1,3 0,0 0,2 1,4 1,1 1,1 1,1 0,0 -1,2 0,2 0,1 -1,2 0,3 0,1 0,1 0,1 0,1 -1,2 -1,2 0,1 0,2 -1,2 0,0 0,1 -1,1 0,1 -1,2 -1,2 0,1 -3,4 -3,5 -1,1 -1,3 -1,4 0,1 0,2 1,2 0,1 0,1 0,1 1,0 1,1 1,1l1 2 10 0 -2 -4c0,0 -1,0 0,-2 2,-2 5,-7 5,-7 0,0 2,-4 3,-5 0,-1 0,-6 0,-8 0,0 0,-2 -1,-5 -1,-2 -2,-5 -2,-5z"/>
   <path class="fil1" d="M117 292l0 0c-2,0 -4,1 -4,2 0,2 2,4 4,6l0 -5c-2,0 -3,0 -3,-1 0,-1 1,-1 3,-2l0 0zm4 0l0 0c1,-1 1,-2 1,-3 1,-2 0,-5 -1,-5 0,-1 -1,-3 -1,-3 0,3 -2,5 -2,6 -1,1 0,2 0,3 0,1 1,1 1,2 -1,0 -1,0 -2,0l0 0c1,0 1,0 2,0l0 0c1,1 1,1 1,2 0,1 -2,1 -3,1l0 5c1,1 3,1 4,1 1,0 2,0 3,-1l0 -5c-1,0 -2,0 -3,-1 0,0 0,-1 0,-2 1,0 2,0 3,0l0 0c-1,0 -2,0 -3,0zm3 8c3,-1 5,-4 5,-6 0,-1 -2,-2 -5,-2l0 0c2,1 4,1 4,2 0,1 -1,1 -3,1l0 0c0,0 0,0 -1,0l0 5z"/>
   <path class="fil1" d="M104 282c0,0 0,-1 0,-2 0,0 0,-1 1,0 1,0 1,1 1,2 0,0 -1,2 -1,3l-2 4c0,0 0,0 0,0 0,0 -1,2 0,4l0 3c0,0 0,0 0,0 0,0 0,0 0,-1 0,0 0,-3 0,-3 0,-1 1,-3 1,-3 0,0 0,0 0,-1 0,-1 1,-3 1,-3 0,0 1,-2 2,-3 0,0 0,-1 0,-3 0,0 0,0 0,-1 0,0 1,0 2,1 0,0 0,0 0,1 0,1 0,2 -1,4 0,0 0,1 0,1 -1,0 -2,3 -2,3 0,0 0,1 0,1 0,0 0,1 -1,2 0,1 0,1 0,3 0,1 0,3 0,3 0,0 0,0 1,0 0,0 0,-1 0,-1 0,0 0,0 0,-1 0,0 0,-2 0,-2 0,0 0,-2 0,-3 1,0 1,-1 1,-1 0,-1 1,-2 1,-2 0,0 1,-3 1,-4 0,0 1,-2 1,-3 0,0 0,-1 0,-1 0,0 0,-1 1,0 1,0 1,1 1,1 0,0 1,1 0,1 0,0 0,0 0,0 0,0 -1,0 -1,1 0,0 0,1 0,1 0,0 0,1 0,1 0,1 -1,3 -1,4 0,0 -1,1 -1,1 0,0 0,1 0,1 0,0 -1,2 -1,3 0,0 0,1 0,2 0,1 0,2 0,2 0,0 1,0 1,0 0,0 0,-1 0,-2 0,-1 0,-3 0,-3 0,0 1,-3 1,-3 0,0 1,-2 1,-2 0,-1 1,-3 1,-3 0,-1 0,-2 1,-2 1,0 1,2 1,3 0,0 0,2 -1,4 -1,1 -1,1 -1,1 0,0 0,2 0,2 0,1 0,2 0,3 0,1 0,1 0,1 0,1 1,2 1,2 0,1 0,2 0,2 1,0 1,1 2,1 0,1 1,2 1,2 0,1 2,4 3,5 1,1 2,3 1,4 0,1 0,2 -1,2 0,1 0,1 0,1 -1,0 -1,1 -1,1l-1 2 -10 0 2 -4c0,0 1,0 0,-2 -2,-2 -5,-7 -5,-7 0,0 -2,-4 -2,-5 -1,-1 -1,-6 -1,-8 0,0 0,-2 1,-5 1,-2 2,-5 2,-5z"/>
   <path class="fil1" d="M138 282c0,0 0,-1 0,-2 0,0 0,-1 -1,0 -1,0 -1,1 -1,2 0,0 1,2 1,3l2 4c0,0 0,0 0,0 0,0 1,2 0,4l0 3c0,0 0,0 0,0 0,0 0,0 0,-1 0,0 0,-3 0,-3 0,-1 -1,-3 -1,-3 0,0 0,0 0,-1 0,-1 -1,-3 -1,-3 0,0 -1,-2 -2,-3 0,0 0,-1 0,-3 0,0 0,0 0,-1 0,0 -1,0 -1,1 -1,0 -1,0 -1,1 0,1 0,2 1,4 0,0 0,1 0,1 0,0 2,3 2,3 0,0 0,1 0,1 0,0 0,1 1,2 0,1 0,1 0,3 0,1 0,3 0,3 0,0 0,0 -1,0 0,0 0,-1 0,-1 0,0 0,0 0,-1 0,0 0,-2 0,-2 0,0 0,-2 0,-3 0,0 -1,-1 -1,-1 0,-1 -1,-2 -1,-2 0,0 -1,-3 -1,-4 0,0 -1,-2 -1,-3 0,0 0,-1 0,-1 0,0 0,-1 -1,0 -1,0 -1,1 -1,1 0,0 -1,1 0,1 0,0 0,0 0,0 0,0 0,0 1,1 0,0 0,1 0,1 0,0 0,1 0,1 0,1 1,3 1,4 0,0 1,1 1,1 0,0 0,1 0,1 0,0 1,2 1,3 0,0 0,1 0,2 0,1 0,2 0,2 0,0 -1,0 -1,0 0,0 0,-1 0,-2 0,-1 0,-3 0,-3 0,0 -1,-3 -1,-3 0,0 -1,-2 -1,-2 0,-1 -1,-3 -1,-3 0,-1 0,-2 -1,-2 -1,0 -1,2 -1,3 0,0 0,2 1,4 1,1 1,1 1,1 0,0 -1,2 0,2 0,1 -1,2 0,3 0,1 0,1 0,1 0,1 -1,2 -1,2 0,1 0,2 -1,2 0,0 0,1 -1,1 0,1 -1,2 -1,2 0,1 -3,4 -3,5 -1,1 -1,3 -1,4 0,1 0,2 1,2 0,1 0,1 0,1 1,0 1,1 1,1l1 2 10 0 -2 -4c0,0 -1,0 0,-2 2,-2 5,-7 5,-7 0,0 2,-4 3,-5 0,-1 0,-6 0,-8 0,0 0,-2 -1,-5 -1,-2 -2,-5 -2,-5z"/>
   <path class="fil2" d="M122 194c50,51 53,110 7,145 29,-31 27,-89 -7,-122 -14,13 -23,29 -27,46 -3,-2 -7,-4 -11,-6 5,-21 17,-43 38,-63z"/>
   <path class="fil2" d="M93 289c-3,-3 -7,-6 -11,-9 1,23 11,44 32,59 -13,-13 -20,-31 -21,-50z"/>
   <path class="fil2" d="M40 264c20,-1 38,6 53,18 0,-4 1,-9 1,-13 -19,-14 -44,-20 -69,-20 0,65 37,104 88,98 -39,-2 -75,-40 -73,-83z"/>
   <path class="fil2" d="M204 264c0,4 -1,8 -1,12l13 0c1,-8 2,-17 2,-27 -20,0 -39,4 -53,11 0,4 1,8 1,12 11,-6 24,-9 38,-8z"/>
   <path class="fil2" d="M180 322c-13,15 -31,24 -49,25 26,3 49,-6 64,-25l-15 0z"/>
   <polygon class="fil1" points="182,314 182,284 189,284 189,308 199,308 199,314 "/>
   <polygon class="fil1" points="204,284 211,284 211,314 204,314 "/>
   <path class="fil1" d="M227 315c-1,0 -2,0 -4,-1 -1,0 -2,-1 -3,-1 -1,-1 -2,-2 -2,-3 -1,-2 -2,-3 -2,-5 0,-2 -1,-4 -1,-6 0,-3 1,-5 1,-7 1,-2 2,-4 3,-5 1,-1 2,-2 3,-3 2,0 3,0 5,0l0 0c3,0 6,0 8,2 2,2 3,4 4,8l0 1 -8 0 0 -1c0,-1 -1,-2 -2,-3 0,-1 -1,-1 -2,-1l0 0c-1,0 -2,1 -3,2 0,1 -1,4 -1,7 0,2 0,4 1,5 0,1 0,2 0,3 1,0 1,1 2,1 0,0 1,0 1,0 1,0 2,0 2,-1 1,0 2,-2 2,-3l0 -1 8 0 0 1c-1,4 -2,7 -4,8 -2,2 -5,3 -8,3z"/>
   <path class="fil1" d="M294 315c-3,0 -6,-1 -8,-3 -2,-2 -3,-5 -3,-9l0 -19 8 0 0 20c0,4 2,4 3,4 2,0 4,0 4,-4l0 -20 8 0 0 19c0,4 -1,7 -3,9 -2,2 -5,3 -9,3z"/>
   <polygon class="fil1" points="317,314 317,290 310,290 310,284 331,284 331,290 324,290 324,314 "/>
   <path class="fil1" d="M346 315c-3,0 -6,-1 -8,-3 -2,-2 -3,-5 -3,-9l0 -19 8 0 0 20c0,4 2,4 3,4 2,0 4,0 4,-4l0 -20 7 0 0 19c0,4 -1,7 -2,9 -2,2 -5,3 -9,3z"/>
   <path class="fil1" d="M371 302l2 -8 2 8 -4 0zm6 -18l-9 0 -8 30 8 0 2 -6 6 0 1 6 8 0 -8 -30z"/>
   <polygon class="fil1" points="389,314 389,284 396,284 396,308 406,308 406,314 "/>
   <polygon class="fil1" points="418,314 418,284 436,284 436,290 426,290 426,295 434,295 434,302 426,302 426,314 "/>
   <path class="fil1" d="M452 315c-4,0 -7,-1 -9,-3 -2,-2 -3,-5 -3,-9l0 -19 8 0 0 20c0,4 2,4 4,4 1,0 3,0 3,-4l0 -20 8 0 0 19c0,4 -1,7 -3,9 -2,2 -5,3 -8,3z"/>
   <path class="fil1" d="M482 314l0 0c-1,-2 -2,-5 -5,-9 -1,-2 -2,-4 -2,-6l0 15 -8 0 0 -30 7 0 0 1c1,2 2,4 5,8 1,3 2,4 2,6l0 -15 8 0 0 30 -7 0z"/>
   <path class="fil1" d="M509 304c0,1 -1,2 -1,3 -1,0 -1,1 -2,1 0,0 -1,0 -1,0l-4 0 0 -18 4 0c0,0 1,0 1,0 1,1 1,1 2,2 0,0 0,1 1,2 0,2 0,3 0,5 0,2 0,4 0,5zm7 -11c0,-2 -1,-3 -2,-4 0,-1 -1,-2 -2,-3 -1,0 -1,-1 -2,-1 0,0 -1,0 -1,-1 -2,0 -3,0 -4,0l-12 0 0 30 12 0c2,0 3,0 4,0 2,-1 3,-2 4,-3 1,-1 2,-3 3,-5 0,-2 0,-4 0,-7 0,-2 0,-4 0,-6z"/>
   <polygon class="fil1" points="265,303 258,284 252,284 252,314 259,314 259,302 263,314 268,314 272,302 272,314 279,314 279,284 273,284 "/>
   <polygon class="fil3" points="512,330 252,330 252,322 516,322 "/>
  </g>
 </g>
</svg>
