<?xml version="1.0" encoding="UTF-8"?>
<svg id="Layer_1" xmlns="http://www.w3.org/2000/svg" version="1.1" viewBox="0 0 64 64">
  <!-- Generator: Adobe Illustrator 29.1.0, SVG Export Plug-In . SVG Version: 2.1.0 Build 142)  -->
  <defs>
    <style>
      .st0 {
        fill: #05a65a;
      }

      .st0, .st1, .st2, .st3 {
        fill-rule: evenodd;
      }

      .st1 {
        fill: #231f20;
      }

      .st2 {
        fill: #00a44d;
      }

      .st3 {
        fill: #e11d37;
      }

      .st4 {
        fill: #4d4d4f;
      }
    </style>
  </defs>
  <g>
    <path class="st4" d="M38.38,34.11v-1.89h.54v1.89h-.54Z"/>
    <path class="st4" d="M39.32,34.11v-1.9h.48l1.04,1.2v-1.19h.49v1.89h-.48l-1.04-1.16v1.16h-.49Z"/>
    <path class="st4" d="M42.39,34.11l-.86-1.89h.59s.56,1.45.56,1.45l.56-1.46h.59s-.85,1.9-.85,1.9h-.59Z"/>
    <path class="st4" d="M44.04,34.11v-1.89h1.81v.41h-1.28v.32h1.2v.38h-1.2v.37h1.34v.41h-1.88Z"/>
    <path class="st4" d="M48.04,32.3l-.09.38c-.05-.02-.12-.04-.21-.05-.09-.02-.18-.03-.29-.04-.1,0-.2-.01-.3-.01-.3,0-.44.06-.44.18,0,.04.02.08.06.1.04.02.11.04.21.06.1.02.23.04.4.06.18.03.33.06.44.11.12.04.2.1.26.17.06.07.08.16.08.28,0,.21-.09.36-.28.45-.19.1-.46.15-.81.15-.11,0-.23,0-.35-.02-.12-.01-.24-.03-.35-.05-.11-.02-.21-.05-.3-.07l.1-.38c.09.03.19.05.3.08.11.02.22.04.34.06.12.01.23.02.33.02.17,0,.28-.02.36-.05s.11-.08.11-.14c0-.04-.03-.08-.09-.1-.06-.02-.15-.04-.27-.06-.12-.02-.27-.04-.45-.08-.22-.04-.38-.11-.49-.19-.11-.08-.16-.2-.16-.36,0-.19.08-.34.25-.44.17-.1.43-.15.79-.15.18,0,.35.01.51.04.15.02.27.05.36.07Z"/>
    <path class="st4" d="M50.3,32.66h-.77v1.45h-.54v-1.45h-.77v-.44h2.08v.44Z"/>
    <path class="st4" d="M50.56,34.11v-1.89h.55l.65.94.66-.94h.52v1.89h-.49v-1.24l-.58.81h-.24l-.57-.8v1.22h-.5Z"/>
    <path class="st4" d="M53.35,34.11v-1.89h1.81v.41h-1.28v.32h1.2v.38h-1.2v.37h1.34v.41h-1.88Z"/>
    <path class="st4" d="M55.52,34.11v-1.9h.48l1.04,1.2v-1.19h.49v1.89h-.48l-1.04-1.16v1.16h-.49Z"/>
    <path class="st4" d="M59.87,32.66h-.77v1.45h-.54v-1.45h-.77v-.44h2.08v.44Z"/>
    <path class="st4" d="M38.38,36.97v-1.89h.55l.65.94.66-.94h.52v1.89h-.49v-1.24l-.58.81h-.24l-.57-.8v1.22h-.5Z"/>
    <path class="st4" d="M40.98,36.97l.86-1.9h.59l.86,1.9h-.61l-.15-.35h-.83l-.15.35h-.57ZM41.83,36.23h.57l-.29-.75-.29.75Z"/>
    <path class="st4" d="M43.51,36.97v-1.9h.48l1.04,1.2v-1.19h.49v1.89h-.48l-1.04-1.16v1.16h-.49Z"/>
    <path class="st4" d="M45.74,36.97l.86-1.9h.59l.86,1.9h-.61l-.15-.35h-.83l-.15.35h-.57ZM46.59,36.23h.57l-.29-.75-.29.75Z"/>
    <path class="st4" d="M48.08,36.06c0-.68.4-1.01,1.2-1.01.17,0,.31,0,.44.02.13.02.25.04.39.08l-.1.39c-.25-.05-.48-.08-.69-.08-.23,0-.4.05-.51.14-.11.1-.17.25-.17.45s.05.34.16.43c.11.09.27.13.48.13.18,0,.32-.02.44-.05v-.3h-.47v-.36h.95v.93c-.14.06-.29.1-.46.12-.17.03-.35.04-.55.04-.73,0-1.1-.31-1.1-.93Z"/>
    <path class="st4" d="M50.54,36.97v-1.89h1.81v.41h-1.28v.32h1.2v.38h-1.2v.37h1.34v.41h-1.88Z"/>
    <path class="st4" d="M52.72,36.97v-1.89h.55l.65.94.66-.94h.52v1.89h-.49v-1.24l-.58.81h-.24l-.57-.8v1.22h-.5Z"/>
    <path class="st4" d="M55.51,36.97v-1.89h1.81v.41h-1.28v.32h1.2v.38h-1.2v.37h1.34v.41h-1.88Z"/>
    <path class="st4" d="M57.68,36.97v-1.9h.48l1.04,1.2v-1.19h.49v1.89h-.48l-1.04-1.16v1.16h-.49Z"/>
    <path class="st4" d="M62.03,35.52h-.77v1.45h-.54v-1.45h-.77v-.44h2.08v.44Z"/>
  </g>
  <rect class="st4" x="35.53" y="26.29" width=".13" height="10.68"/>
  <path class="st1" d="M15.26,35.6l-.43.05c-.38.05-.71.18-.71.5,0,.23.2.38.45.38.3,0,.55-.2.7-.39v-.54h-.01ZM15.26,36.97v-.32c-.15.18-.4.39-.84.39-.5,0-.92-.32-.92-.86,0-.66.62-.91,1.23-.97l.24-.03c.23-.02.31-.15.31-.3,0-.19-.18-.33-.45-.33-.31,0-.62.23-.73.41l-.36-.43c.22-.29.61-.49,1.12-.49.66,0,1.04.34,1.04.91v2.03h-.64Z"/>
  <path class="st1" d="M17.1,36.97h-.63v-2.87h.63v.32c.23-.21.57-.39.94-.39.34,0,.8.2.8.9v2.04h-.63v-1.88c0-.28-.12-.52-.41-.52-.24,0-.55.21-.69.34v2.06Z"/>
  <path class="st1" d="M21.07,34.1h.63v2.87h-.65v-.31c-.18.16-.46.38-.83.38s-.88-.2-.88-.92v-2.02h.63v1.82c0,.33.14.57.44.57.25,0,.48-.16.66-.36v-2.02Z"/>
  <polygon class="st1" points="23.03 36.97 22.4 36.97 22.4 33.19 23.03 32.57 23.03 36.97"/>
  <path class="st1" d="M24.39,36.97h-.66v-2.87h.66v2.87h0ZM24.06,32.81c.22,0,.4.18.4.4s-.19.41-.4.41-.41-.19-.41-.41.19-.4.41-.4Z"/>
  <path class="st1" d="M26.39,34.62h-.6v2.35h-.63v-2.35h-.39v-.52h.39v-.59c0-.47.3-.9.9-.9.28,0,.51.08.65.15l-.2.49c-.09-.05-.22-.1-.35-.1-.2,0-.37.15-.37.4v.56h.75l-.15.52Z"/>
  <path class="st1" d="M28.44,35.22c0-.35-.22-.68-.61-.68s-.66.35-.67.68h1.28ZM27.15,35.7c0,.46.34.79.74.79.3,0,.61-.2.74-.44l.4.37c-.23.34-.68.61-1.2.61-.82,0-1.33-.62-1.33-1.5s.55-1.5,1.35-1.5,1.3.5,1.27,1.67h-1.96Z"/>
  <polygon class="st1" points="9.87 36.97 9.18 36.97 9.18 32.98 9.93 32.98 11.1 34.95 11.11 34.95 12.28 32.98 13.01 32.98 13.01 36.97 12.32 36.97 12.32 34.15 12.31 34.15 11.1 36.15 9.88 34.15 9.87 34.15 9.87 36.97"/>
  <path class="st2" d="M5.69,33.53v4.18h0l.93-.93v-4.18l-.93.93h0ZM1.97,37.71l.93-.93v-4.18h0l-.93.93v4.18h0ZM3.83,37.71l.93-.93v-4.18h0l-.93.93v4.18Z"/>
  <path class="st0" d="M5.69,33.53v4.18h0l.93-.93v-4.18l-.93.93h0ZM1.97,37.71l.93-.93v-4.18h0l-.93.93v4.18h0ZM3.83,37.71l.93-.93v-4.18h0l-.93.93v4.18Z"/>
  <path class="st3" d="M8.59,27.3h2.1c.48,0,.87.38.87.84v1.91h-3.14c-.29,0-.53-.23-.53-.51v-.66c0-.26.22-.47.49-.47h1.74l-.18.39h-1.28c-.06,0-.12.04-.12.1v.52c0,.06.06.1.12.1h2.22v-1.25c0-.24-.22-.43-.46-.43h-2.09l.25-.53ZM25.86,26.3v3.75h-3.06c-.29,0-.53-.23-.53-.51v-1.4c0-.46.39-.84.87-.84h1.75l-.26.53h-1.22c-.24,0-.46.19-.46.43v1.15c0,.06.06.1.12.1h2.12v-3.22h.68ZM15.09,30.05h.68v-1.91c0-.46-.39-.84-.87-.84h-1.44l-.26.53h1.43c.24,0,.46.19.46.43v1.79ZM12.27,26.3v3.75h.68v-3.75h-.68ZM6.61,30.05h.68v-1.91c0-.46-.39-.84-.87-.84H1.97v2.75h.68v-2.11c0-.06.06-.1.12-.1h1.4c.06,0,.12.04.12.1v2.11h.68v-2.11c0-.06.06-.1.12-.1h1.06c.24,0,.46.19.46.43v1.79ZM29.4,27.3h-1.7c-.48,0-.87.38-.87.84v1.91h.68v-1.79c0-.24.22-.43.46-.43h1.18l.26-.53ZM20.72,27.3c.48,0,.87.38.87.84v1.91h-.68v-1.79c0-.24-.22-.43-.46-.43h-1.63v2.22h-.68v-2.75c.86,0,1.72,0,2.58,0ZM16.61,27.47l.68-.39v2.96h-.68v-2.58ZM17.29,26.7v-.41h-.68v.79l.68-.39ZM29.88,27.3h2.1c.48,0,.87.38.87.84v1.91h-3.14c-.29,0-.53-.23-.53-.51v-.66c0-.26.22-.47.49-.47h1.74l-.18.39h-1.28c-.06,0-.12.04-.12.1v.52c0,.06.06.1.12.1h2.22v-1.25c0-.24-.22-.43-.46-.43h-2.09l.25-.53Z"/>
</svg>