<?xml version="1.0" encoding="UTF-8"?>
<svg id="Layer_1" data-name="Layer 1" xmlns="http://www.w3.org/2000/svg" viewBox="0 0 64 64">
  <defs>
    <style>
      .cls-1 {
        fill: #ed7e03;
      }

      .cls-2 {
        fill: #134174;
      }

      .cls-3 {
        fill: #15467d;
      }
    </style>
  </defs>
  <path class="cls-1" d="M63.8,21.98c-1.04,4.3-4.77,6.65-6.96,7.9l-.09-.13c.9-.73,3.99-3.01,4.97-6.78l2.08-.99Z"/>
  <path class="cls-2" d="M9.62,30.25c-.06.39-.86,5.95-.93,6.47h1.78c.06-.39.85-5.95.93-6.47h-1.78Z"/>
  <path class="cls-2" d="M24.2,30.25c-.06.39-.85,5.95-.93,6.47h4.18c.04-.28.15-1.03.2-1.4h-2.53l.17-1.19h2.3c.04-.28.14-.95.19-1.3h-2.3l.17-1.18h2.46c.04-.29.15-1.03.2-1.4h-4.11Z"/>
  <path class="cls-2" d="M4.36,33.95s1.49-3.41,1.61-3.71h2.24c0,.45-.3,6.01-.3,6.47h-1.61l.27-4.53s-1.81,4.24-1.94,4.53h-1.28l-.57-4.53c-.04.21-.65,3.23-.98,4.53H.2c.17-.58,1.4-6.14,1.49-6.47h2.16l.51,3.71Z"/>
  <path class="cls-2" d="M19.54,34.07l1.02-2.4.33,2.4h-1.36ZM21.07,35.4s.11,1.06.15,1.31h1.71c-.1-.53-1.03-6.09-1.1-6.47h-2.16c-.12.27-2.59,5.83-2.88,6.47h1.73c.09-.22.53-1.31.53-1.31h2.01Z"/>
  <path class="cls-2" d="M15.19,32.35s-.06.49-.38.65c0,0-.22.15-.59.16h-.57c.14-.94.24-1.7.24-1.7h.4c.27,0,.58.03.76.25.13.15.18.37.14.65M16.91,32.38c.02-.16.04-.3.04-.44,0-.45-.12-.82-.35-1.09-.43-.5-1.17-.6-1.71-.6h-2.44c-.06.39-.85,5.95-.93,6.47h1.62c.03-.2.26-1.77.45-3.14l1.34,3.14h1.73l-1.31-2.73c.79-.15,1.41-.38,1.56-1.61"/>
  <path class="cls-2" d="M44.01,32.55c-.16-.08-.51-.29-.51-.64,0-.17.07-.31.19-.41.14-.12.37-.17.61-.13.31.05.66.25,1.04.58.18-.35.53-1.03.66-1.27-.44-.37-.87-.57-1.51-.68-.79-.12-1.55.05-2.09.46-.45.34-.73.85-.81,1.46-.01.1-.02.2-.02.3,0,.34.07.63.21.87.96-.02,1.98-.07,3-.15-.1-.06-.79-.4-.79-.4"/>
  <path class="cls-3" d="M51.7,30.25c-.04.27-.16,1.12-.22,1.54,1.26-.35,2.78-.86,4.18-1.54h-3.96Z"/>
  <path class="cls-2" d="M31.57,33.61l1.38-1.3s.81.24,1.91.44c-.21-1.25-.39-2.35-.42-2.51h-2.16c-.13.27-2.59,5.83-2.88,6.47h1.73c.09-.22.67-1.61.67-1.61h1.81s.18,1.35.22,1.61h1.71c-.04-.21-.2-1.18-.39-2.32,1.22.07,2.44.08,3.58.06.06.1.09.2.09.31,0,.04,0,.08,0,.12-.03.14-.1.27-.22.35-.24.16-.57.13-.81.09-.55-.1-.99-.51-1.34-.86-.22.36-.69,1.12-.84,1.37.65.59,1.36.96,2.1,1.06.75.12,1.5-.05,2.05-.46.48-.36.79-.88.88-1.51.03-.18.04-.35.03-.52,1.22-.05,2.23-.13,2.88-.19.21.16.32.34.32.55,0,.04,0,.08-.01.12-.03.14-.1.27-.22.35-.24.16-.57.13-.8.09-.55-.1-.99-.51-1.34-.86-.23.36-.69,1.12-.84,1.37.65.59,1.35.96,2.1,1.06.75.12,1.5-.05,2.05-.46.48-.36.79-.88.88-1.51.06-.35.05-.66-.04-.95.28-.04.54-.08.8-.12-.2,1.36-.38,2.63-.41,2.86h4.18c.04-.28.14-1.03.19-1.4h-2.53l.17-1.19h2.29c.04-.25.12-.81.17-1.18.31-.1.47-.16.47-.16,0,0,.78-.23,1.78-.6-.14,1.01-.59,4.11-.65,4.54h1.81c.05-.38.7-4.86.7-4.86h1.31c.04-.28.16-1.17.22-1.57-6.89,3.58-17.26,4.25-24.58,3.33"/>
  <path class="cls-2" d="M39.98,33.12c-.16-.15-1.03-.57-1.03-.57-.15-.09-.51-.29-.51-.64,0-.17.07-.31.19-.41.15-.12.37-.17.61-.13.31.05.66.25,1.05.58.18-.35.53-1.03.66-1.27-.45-.37-.87-.57-1.51-.68-.79-.12-1.56.05-2.09.46-.45.34-.73.85-.81,1.46-.01.1-.02.21-.02.3,0,.28.05.54.15.76.04,0,1.97.15,3.31.13"/>
  <path class="cls-3" d="M48.4,31.64h2.47c.04-.29.15-1.03.2-1.4h-4.1c-.03.17-.18,1.27-.37,2.52.57-.07,1.13-.15,1.68-.25l.12-.87Z"/>
  <polygon class="cls-2" points=".47 38.76 1.06 38.76 2.07 41.45 3.08 38.76 3.67 38.76 3.67 41.97 3.26 41.97 3.26 39.3 3.25 39.3 2.25 41.97 1.89 41.97 .89 39.3 .88 39.3 .88 41.97 .47 41.97 .47 38.76"/>
  <path class="cls-2" d="M6.19,41.97h-.36v-.37h0c-.16.29-.42.42-.75.42-.61,0-.8-.35-.8-.85v-1.53h.38v1.57c0,.28.18.47.47.47.46,0,.69-.31.69-.73v-1.31h.38v2.32Z"/>
  <path class="cls-2" d="M7.25,39.64h.46v.34h-.46v1.44c0,.18.05.21.29.21h.17v.34h-.29c-.4,0-.55-.08-.55-.51v-1.48h-.4v-.34h.4v-.7h.38v.7Z"/>
  <path class="cls-2" d="M10.01,41.97h-.36v-.37h0c-.16.29-.42.42-.75.42-.61,0-.8-.35-.8-.85v-1.53h.38v1.57c0,.28.18.47.47.47.46,0,.69-.31.69-.73v-1.31h.38v2.32Z"/>
  <path class="cls-2" d="M11.98,40.77c-.15.11-.44.11-.69.16-.25.05-.47.13-.47.42,0,.25.22.34.45.34.5,0,.71-.31.71-.53v-.39ZM12.6,41.96c-.07.04-.15.06-.28.06-.2,0-.32-.11-.32-.36-.21.25-.49.36-.82.36-.42,0-.77-.19-.77-.65,0-.53.39-.64.79-.71.42-.08.78-.05.78-.34,0-.33-.27-.39-.52-.39-.32,0-.56.1-.58.44h-.38c.02-.58.47-.78.98-.78.42,0,.87.1.87.64v1.2c0,.18,0,.26.12.26.03,0,.07,0,.12-.02v.3Z"/>
  <rect class="cls-2" x="12.93" y="38.76" width=".38" height="3.21"/>
  <polygon class="cls-2" points="15.13 38.76 17.24 38.76 17.24 39.12 15.55 39.12 15.55 40.14 17.03 40.14 17.03 40.5 15.55 40.5 15.55 41.97 15.13 41.97 15.13 38.76"/>
  <path class="cls-2" d="M19.52,41.97h-.36v-.37h-.01c-.16.29-.42.42-.75.42-.61,0-.8-.35-.8-.85v-1.53h.38v1.57c0,.28.18.47.47.47.46,0,.69-.31.69-.73v-1.31h.38v2.32Z"/>
  <path class="cls-2" d="M20.05,39.64h.36v.37h0c.16-.29.42-.42.76-.42.61,0,.8.35.8.85v1.53h-.38v-1.57c0-.28-.18-.47-.47-.47-.46,0-.69.31-.69.73v1.31h-.38v-2.32Z"/>
  <path class="cls-2" d="M23.5,41.68c.51,0,.71-.44.71-.88,0-.46-.21-.88-.73-.88s-.7.44-.7.9.22.86.72.86M24.58,41.97h-.38v-.31h0c-.13.26-.42.37-.74.37-.72,0-1.07-.57-1.07-1.22s.35-1.21,1.06-1.21c.24,0,.58.09.75.36h0v-1.19h.38v3.21Z"/>
</svg>