<?xml version="1.0" encoding="UTF-8"?>
<svg id="Layer_1" xmlns="http://www.w3.org/2000/svg" version="1.1" xmlns:xlink="http://www.w3.org/1999/xlink" viewBox="0 0 64 64">
  <!-- Generator: Adobe Illustrator 29.5.1, SVG Export Plug-In . SVG Version: 2.1.0 Build 141)  -->
  <defs>
    <style>
      .st0 {
        fill: none;
        stroke: #2e2a94;
        stroke-miterlimit: 10;
        stroke-width: .19px;
      }

      .st1, .st2 {
        fill: #2e2a94;
      }

      .st3 {
        fill: url(#GradientFill_1);
      }

      .st3, .st2 {
        fill-rule: evenodd;
      }
    </style>
    <linearGradient id="GradientFill_1" data-name="GradientFill 1" x1="8.59" y1="20.73" x2="18.21" y2="35.41" gradientUnits="userSpaceOnUse">
      <stop offset="0" stop-color="#fdd00f"/>
      <stop offset="1" stop-color="#faad1d"/>
    </linearGradient>
  </defs>
  <line class="st0" x1="24.65" y1="41.62" x2="62.31" y2="41.62"/>
  <path class="st3" d="M1.41,27.83c0,6.52,5.3,11.83,11.83,11.83,4.16,0,8.06-2.23,10.18-5.81.14-.23.06-.52-.17-.66-.23-.13-.52-.06-.66.17-1.95,3.29-5.53,5.34-9.36,5.34-5.99,0-10.86-4.87-10.86-10.86s4.87-10.86,10.86-10.86c3.82,0,7.41,2.05,9.36,5.34.14.23.43.3.66.17.23-.14.3-.43.17-.66-2.12-3.58-6.02-5.81-10.18-5.81-6.52,0-11.83,5.3-11.83,11.83Z"/>
  <path class="st2" d="M32.52,35.99c0,2.34-1.71,3.91-4,3.88-2.23-.03-3.87-1.6-3.87-3.88s1.61-3.87,3.9-3.88c2.32-.01,3.97,1.59,3.97,3.88h0ZM27.51,38.25c.06.49.17.84.33,1.04.32.41,1.17.41,1.49,0,.16-.2.27-.55.33-1.04.06-.49.09-1.25.09-2.26s-.03-1.77-.09-2.26c-.06-.49-.17-.84-.33-1.04-.32-.41-1.17-.41-1.49,0-.16.2-.27.55-.33,1.04-.06.49-.09,1.25-.09,2.26s.03,1.77.09,2.26Z"/>
  <path class="st2" d="M38.41,36.42c.25.41.38.84.38,1.27,0,.45-.14.87-.43,1.25-.98,1.26-4,.96-5.17.22v-2.05h.21c.1.38.26.76.5,1.14.24.38.54.7.9.95,1.71,1.19,3.2-.55,1.37-1.79l-1.6-.97c-.48-.31-.84-.65-1.1-1.04-.26-.39-.39-.78-.39-1.18,0-.45.16-.88.49-1.27.83-.93,2.76-.86,3.86-.64.45.09.8.2,1.04.32v1.7h-.21c-.14-.54-.42-1-.85-1.38-1.6-1.42-3.85.06-1.67,1.43l1.6,1c.45.28.81.62,1.06,1.03Z"/>
  <path class="st2" d="M51.04,32.7c-.2.12-.42.37-.64.74-.23.37-.47.91-.74,1.62l-1.74,4.74h-.52l-2.2-4.81-1.7,4.81h-.56l-2.97-6.44c-.17-.34-.34-.56-.52-.67-.18-.11-.37-.16-.57-.17v-.19h4.01v.19c-.29,0-.43.14-.43.43,0,.21.07.47.22.76l1.57,3.3.83-2.25-.65-1.4c-.17-.35-.32-.57-.45-.67-.13-.1-.28-.16-.45-.17v-.19h3.87v.19c-.32,0-.48.15-.48.44,0,.21.07.46.22.75l1.55,3.32.75-2.01c.11-.35.16-.71.16-1.08,0-.4-.09-.74-.26-1.01-.17-.27-.47-.4-.9-.4v-.19h3.25v.19c-.23,0-.45.06-.65.18Z"/>
  <path class="st2" d="M61.78,38.95c.08.27.26.44.52.5v.21h-3.62v-.21c.27-.07.45-.24.52-.51.07-.26.11-.64.11-1.14v-8.14c0-.27-.06-.48-.17-.63-.11-.14-.33-.27-.66-.39v-.21l3.16-.62v9.98c0,.5.04.88.13,1.15Z"/>
  <path class="st2" d="M52.97,37.81c0,1.18,1.29,1.48,1.75.33v-2.28c-1,.23-1.75.86-1.75,1.95h0ZM52.43,33.07c.48.08.85.5.85,1,0,.2-.06.39-.16.55-.09.15-.23.28-.39.37-.14.07-.29.11-.46.11-.19,0-.36-.05-.52-.14-.16-.1-.29-.23-.38-.4-.04-.07-.06-.14-.08-.22-.02-.09-.04-.18-.04-.27,0-.33.15-.61.39-.8,1.14-1.26,3.51-1.61,4.69-.22.48.57.72,1.34.72,2.32v2.36c0,.29.06.54.19.77.13.23.32.34.57.34.1,0,.19-.02.28-.07.09-.05.15-.11.18-.2l.17.1c-.1.32-.32.59-.68.81-1.04.64-2.85.37-3.01-1.03-.12.39-.38.72-.79.98-.67.43-1.53.5-2.28.23-1.1-.39-1.43-1.81-.68-2.64.66-.73,2.36-1.05,3.28-1.28l.44-.11v-1c0-.64-.13-1.16-.38-1.54-.71-1.07-2.09-.33-1.91-.02Z"/>
  <path class="st2" d="M32.6,30.4c.16-.11.29-.23.39-.36l.17.11c-.14.41-.42.77-.86,1.09-1.6,1.15-3.81.36-3.81-1.96v-4.82h-.89l-.03-.23h.92v-2.13l2.33-.33v2.46h1.97l-.03.23h-1.94v4.77c0,.45.09.79.29,1.01.19.22.5.33.92.33.21,0,.4-.05.56-.16Z"/>
  <path class="st2" d="M36.71,30.84c.08.26.26.43.52.51v.21h-3.62v-.21c.28-.07.45-.25.52-.52.07-.27.11-.65.11-1.15v-3.7c0-.26-.06-.47-.17-.62-.11-.15-.33-.3-.66-.44v-.19l3.16-.65v5.6c0,.51.04.89.13,1.16h0ZM35.25,20.67c.71,0,1.28.57,1.28,1.28s-.57,1.28-1.28,1.28-1.28-.57-1.28-1.28.57-1.28,1.28-1.28Z"/>
  <path class="st2" d="M41.16,30.85c.08.27.26.44.52.5v.21h-3.62v-.21c.27-.07.45-.24.52-.51.07-.26.11-.64.11-1.14v-8.14c0-.27-.06-.48-.17-.63-.11-.14-.33-.27-.66-.39v-.21l3.16-.62v9.98c0,.5.04.88.13,1.15Z"/>
  <path class="st2" d="M44.42,29.68c0,1.18,1.29,1.48,1.75.33v-2.28c-1,.23-1.75.86-1.75,1.95h0ZM43.87,24.95c.48.08.85.5.85,1,0,.2-.06.39-.16.55-.09.15-.22.28-.39.37-.14.07-.29.11-.46.11-.19,0-.36-.05-.52-.14-.16-.09-.29-.23-.38-.4-.04-.07-.07-.14-.08-.22-.02-.09-.04-.18-.04-.27,0-.32.15-.61.39-.8,1.14-1.26,3.51-1.61,4.69-.22.48.57.72,1.34.72,2.32v2.36c0,.29.06.54.19.77.13.23.32.34.57.34.09,0,.19-.02.28-.07.09-.05.15-.11.18-.2l.17.1c-.09.32-.32.59-.68.81-1.04.64-2.85.37-3.01-1.03-.12.39-.38.72-.79.98-.67.43-1.53.5-2.28.23-1.1-.39-1.43-1.81-.68-2.64.66-.73,2.36-1.05,3.28-1.28l.44-.11v-1c0-.65-.13-1.16-.38-1.54-.71-1.07-2.09-.33-1.91-.02Z"/>
  <path class="st2" d="M53.42,30.85c.08.27.26.44.52.5v.21h-3.62v-.21c.27-.07.45-.24.52-.51.07-.26.11-.64.11-1.14v-8.14c0-.27-.06-.48-.17-.63-.11-.14-.33-.27-.66-.39v-.21l3.16-.62v9.98c0,.5.04.88.13,1.15Z"/>
  <path class="st2" d="M27.62,27.89c0,2.34-1.71,3.9-4,3.88-2.23-.03-3.87-1.6-3.87-3.88s1.61-3.86,3.9-3.88c2.32-.01,3.97,1.59,3.97,3.88h0ZM22.62,30.15c.06.49.17.84.33,1.04.32.41,1.17.41,1.49,0,.16-.2.27-.55.33-1.04.06-.49.09-1.25.09-2.26s-.03-1.77-.09-2.26c-.06-.49-.17-.84-.33-1.04-.32-.41-1.17-.41-1.49,0-.16.2-.27.55-.33,1.04-.06.49-.09,1.25-.09,2.26s.03,1.77.09,2.26Z"/>
  <path class="st2" d="M19.02,30.84c.09.28.26.44.52.51v.21h-3.62v-.21c.27-.07.45-.25.52-.52.07-.27.11-.65.11-1.15v-3.14c0-.88-.31-1.32-.94-1.32-.23,0-.46.1-.68.31-.22.21-.36.44-.41.71l.02.29v3.16c0,.5.04.88.13,1.16.09.28.26.44.52.51v.21h-3.62v-.21c.28-.07.45-.25.52-.52.07-.27.11-.65.11-1.15v-3.14c0-.44-.07-.77-.22-.99-.15-.22-.38-.33-.7-.33-.23,0-.45.1-.67.3-.21.2-.34.42-.4.65v3.52c0,.5.04.88.13,1.14.08.26.26.43.52.51v.21h-3.62v-.21c.27-.07.45-.24.52-.5.07-.26.1-.64.1-1.15v-3.66c0-.29-.06-.5-.17-.66-.11-.15-.33-.3-.64-.45v-.19l3.16-.65v1.57c.97-2.08,3.93-2.19,4.28.08.18-.48.48-.87.89-1.18,1.65-1.25,3.49-.25,3.49,1.94v3.19c0,.5.04.88.13,1.16Z"/>
  <g>
    <path class="st1" d="M14.04,46.23h-1.51l-.26.74h-.62l1.29-3.62h.69l1.29,3.62h-.62l-.26-.74ZM13.87,45.75l-.59-1.68-.59,1.68h1.18Z"/>
    <path class="st1" d="M15.89,46.9c-.18-.08-.32-.19-.42-.33-.1-.14-.16-.3-.17-.47h.61c.01.12.07.22.17.3.11.08.24.12.4.12s.3-.03.39-.1c.09-.06.14-.15.14-.25,0-.11-.05-.19-.15-.24s-.26-.11-.49-.17c-.21-.06-.39-.12-.52-.17-.14-.06-.25-.14-.35-.25s-.15-.27-.15-.45c0-.15.04-.29.14-.42.09-.13.22-.23.39-.3.17-.07.36-.11.58-.11.33,0,.59.08.79.25.2.17.31.39.32.67h-.59c-.01-.13-.06-.23-.16-.31-.09-.08-.22-.11-.38-.11s-.28.03-.36.09c-.08.06-.12.14-.12.23,0,.08.03.14.08.19.06.05.12.09.2.12.08.03.2.07.35.11.21.06.38.11.51.17.13.06.25.14.35.25.1.11.15.26.15.44,0,.16-.04.31-.14.44-.09.13-.22.23-.38.3-.16.07-.36.11-.58.11s-.43-.04-.61-.12Z"/>
    <path class="st1" d="M18.64,46.9c-.18-.08-.32-.19-.42-.33-.1-.14-.16-.3-.17-.47h.61c.01.12.07.22.17.3.11.08.24.12.4.12s.3-.03.39-.1c.09-.06.14-.15.14-.25,0-.11-.05-.19-.15-.24s-.26-.11-.49-.17c-.21-.06-.39-.12-.52-.17-.14-.06-.25-.14-.35-.25s-.15-.27-.15-.45c0-.15.04-.29.14-.42.09-.13.22-.23.39-.3.17-.07.36-.11.58-.11.33,0,.59.08.79.25.2.17.31.39.32.67h-.59c-.01-.13-.06-.23-.16-.31-.09-.08-.22-.11-.38-.11s-.28.03-.36.09c-.08.06-.12.14-.12.23,0,.08.03.14.08.19.06.05.12.09.2.12.08.03.2.07.35.11.21.06.38.11.51.17.13.06.25.14.35.25.1.11.15.26.15.44,0,.16-.04.31-.14.44-.09.13-.22.23-.38.3-.16.07-.36.11-.58.11s-.43-.04-.61-.12Z"/>
    <path class="st1" d="M23.56,45.76h-2.19c.02.23.1.41.25.55.15.14.34.21.56.21.32,0,.54-.13.68-.4h.64c-.09.26-.24.48-.47.65-.23.17-.51.25-.84.25-.27,0-.52-.06-.74-.18-.22-.12-.39-.3-.51-.52s-.18-.48-.18-.78.06-.55.18-.78c.12-.22.29-.4.5-.52.22-.12.46-.18.75-.18s.51.06.72.18c.21.12.38.28.49.5.12.21.18.46.18.74,0,.11,0,.2-.02.29ZM22.96,45.28c0-.22-.08-.39-.23-.52s-.34-.2-.57-.2c-.2,0-.38.06-.52.19s-.23.31-.26.53h1.59Z"/>
    <path class="st1" d="M24.83,44.59v1.59c0,.11.02.18.08.23.05.05.14.07.26.07h.36v.49h-.47c-.27,0-.47-.06-.61-.19-.14-.12-.21-.33-.21-.61v-1.59h-.34v-.48h.34v-.71h.6v.71h.7v.48h-.7Z"/>
    <path class="st1" d="M31.38,43.36v3.61h-.59v-2.47l-1.1,2.47h-.41l-1.11-2.47v2.47h-.59v-3.61h.64l1.27,2.83,1.26-2.83h.63Z"/>
    <path class="st1" d="M32.11,44.76c.12-.22.28-.39.49-.52.21-.12.43-.18.68-.18.23,0,.42.04.59.13.17.09.3.2.4.33v-.42h.6v2.86h-.6v-.43c-.1.13-.24.25-.41.34-.17.09-.37.13-.59.13-.25,0-.47-.06-.68-.19-.2-.13-.37-.3-.49-.53-.12-.23-.18-.48-.18-.77s.06-.54.18-.76ZM34.16,45.02c-.08-.15-.19-.26-.32-.33-.13-.08-.27-.11-.43-.11s-.29.04-.43.11-.24.18-.32.33c-.08.14-.12.31-.12.51s.04.37.12.52c.08.15.19.26.32.34s.27.12.42.12.29-.04.43-.11c.13-.08.24-.19.32-.33.08-.15.12-.32.12-.52s-.04-.37-.12-.51Z"/>
    <path class="st1" d="M37.68,44.2c.18.09.32.23.42.42s.15.41.15.67v1.69h-.59v-1.6c0-.26-.06-.45-.19-.59-.13-.14-.3-.21-.52-.21s-.4.07-.53.21-.19.33-.19.59v1.6h-.59v-2.86h.59v.33c.1-.12.22-.21.37-.28.15-.07.31-.1.48-.1.23,0,.43.05.61.14Z"/>
    <path class="st1" d="M38.96,44.76c.12-.22.28-.39.49-.52.21-.12.43-.18.68-.18.23,0,.42.04.59.13.17.09.3.2.4.33v-.42h.6v2.86h-.6v-.43c-.1.13-.24.25-.41.34-.17.09-.37.13-.59.13-.25,0-.47-.06-.68-.19-.2-.13-.37-.3-.49-.53-.12-.23-.18-.48-.18-.77s.06-.54.18-.76ZM41,45.02c-.08-.15-.19-.26-.32-.33-.13-.08-.27-.11-.43-.11s-.29.04-.43.11-.24.18-.32.33c-.08.14-.12.31-.12.51s.04.37.12.52c.08.15.19.26.32.34s.27.12.42.12.29-.04.43-.11c.13-.08.24-.19.32-.33.08-.15.12-.32.12-.52s-.04-.37-.12-.51Z"/>
    <path class="st1" d="M44.22,44.19c.17.09.31.2.4.33v-.42h.6v2.91c0,.26-.06.5-.17.7s-.27.37-.48.49c-.21.12-.46.18-.75.18-.39,0-.71-.09-.97-.27s-.4-.43-.44-.74h.59c.04.15.14.27.29.36.15.09.32.14.53.14.24,0,.43-.07.58-.22s.22-.36.22-.63v-.48c-.1.14-.24.25-.41.34s-.37.14-.58.14c-.25,0-.48-.06-.68-.19-.21-.13-.37-.3-.49-.53-.12-.23-.18-.48-.18-.77s.06-.54.18-.76.28-.39.49-.52c.21-.12.43-.18.68-.18.22,0,.42.04.59.13ZM44.5,45.02c-.08-.15-.19-.26-.32-.33-.13-.08-.27-.11-.43-.11s-.29.04-.43.11-.24.18-.32.33c-.08.14-.12.31-.12.51s.04.37.12.52c.08.15.19.26.32.34s.27.12.42.12.29-.04.43-.11c.13-.08.24-.19.32-.33.08-.15.12-.32.12-.52s-.04-.37-.12-.51Z"/>
    <path class="st1" d="M48.57,45.76h-2.19c.02.23.1.41.25.55.15.14.34.21.56.21.32,0,.54-.13.68-.4h.64c-.09.26-.24.48-.47.65-.23.17-.51.25-.84.25-.27,0-.52-.06-.74-.18-.22-.12-.39-.3-.51-.52s-.18-.48-.18-.78.06-.55.18-.78c.12-.22.29-.4.5-.52.22-.12.46-.18.75-.18s.51.06.72.18c.21.12.38.28.49.5.12.21.18.46.18.74,0,.11,0,.2-.02.29ZM47.98,45.28c0-.22-.08-.39-.23-.52s-.34-.2-.57-.2c-.2,0-.38.06-.52.19s-.23.31-.26.53h1.59Z"/>
    <path class="st1" d="M53.22,44.2c.18.09.32.23.42.42s.15.41.15.67v1.69h-.59v-1.6c0-.26-.06-.45-.19-.59-.13-.14-.3-.21-.52-.21s-.4.07-.53.21-.19.33-.19.59v1.6h-.59v-1.6c0-.26-.06-.45-.19-.59-.13-.14-.3-.21-.52-.21s-.4.07-.53.21-.19.33-.19.59v1.6h-.59v-2.86h.59v.33c.1-.12.22-.21.37-.28.15-.07.31-.1.48-.1.23,0,.43.05.61.15.18.1.32.24.42.42.09-.17.22-.31.41-.41.18-.1.38-.15.59-.15.23,0,.43.05.61.14Z"/>
    <path class="st1" d="M57.13,45.76h-2.19c.02.23.1.41.25.55.15.14.34.21.56.21.32,0,.54-.13.68-.4h.64c-.09.26-.24.48-.47.65-.23.17-.51.25-.84.25-.27,0-.52-.06-.74-.18-.22-.12-.39-.3-.51-.52s-.18-.48-.18-.78.06-.55.18-.78c.12-.22.29-.4.5-.52.22-.12.46-.18.75-.18s.51.06.72.18c.21.12.38.28.49.5.12.21.18.46.18.74,0,.11,0,.2-.02.29ZM56.53,45.28c0-.22-.08-.39-.23-.52s-.34-.2-.57-.2c-.2,0-.38.06-.52.19s-.23.31-.26.53h1.59Z"/>
    <path class="st1" d="M59.75,44.2c.18.09.32.23.42.42s.15.41.15.67v1.69h-.59v-1.6c0-.26-.06-.45-.19-.59-.13-.14-.3-.21-.52-.21s-.4.07-.53.21-.19.33-.19.59v1.6h-.59v-2.86h.59v.33c.1-.12.22-.21.37-.28.15-.07.31-.1.48-.1.23,0,.43.05.61.14Z"/>
    <path class="st1" d="M61.74,44.59v1.59c0,.11.02.18.08.23.05.05.14.07.26.07h.36v.49h-.47c-.27,0-.47-.06-.61-.19-.14-.12-.21-.33-.21-.61v-1.59h-.34v-.48h.34v-.71h.6v.71h.7v.48h-.7Z"/>
  </g>
</svg>