<?xml version="1.0" encoding="UTF-8"?><svg id="Layer_1" xmlns="http://www.w3.org/2000/svg" viewBox="0 0 64 64"><defs><style>.cls-1{fill:#fff;}.cls-2,.cls-3{fill:#231f20;}.cls-4{fill:#008ed3;}.cls-3{stroke:#231f20;stroke-miterlimit:10;stroke-width:0px;}.cls-5{fill:#ec1c24;}</style></defs><rect class="cls-5" x="1" y="21" width="62" height="18.1"/><rect class="cls-1" x="3.8" y="23.7" width="56.4" height=".3"/><rect class="cls-1" x="3.8" y="35.9" width="56.4" height=".3"/><path class="cls-1" d="M20.3,25.7h.9l1.4,3.8h-.8l-.3-.8h-1.5l-.3.8h-.8l1.4-3.8ZM20.8,26.5l-.5,1.6h1.1l-.5-1.6Z"/><path class="cls-1" d="M22.9,28.4h.8c0,.2.1.4.3.5.1.1.4.2.6.2s.4,0,.5-.1.2-.2.2-.4c0-.2-.3-.4-1-.6h0s0,0,0,0c-.4,0-.6-.2-.8-.3-.1,0-.2-.2-.3-.4,0-.1-.1-.3-.1-.5,0-.4.1-.7.4-.9.3-.2.6-.3,1.1-.3s.8.1,1.1.3c.3.2.4.5.4.9h-.8c0-.2,0-.3-.2-.4-.1,0-.3-.1-.6-.1s-.4,0-.5.1c-.1,0-.2.2-.2.3s.2.4.7.5c.1,0,.2,0,.3,0,.3,0,.5.1.6.2.1,0,.2,0,.3.1.2,0,.3.2.4.3,0,.1.1.3.1.5,0,.4-.1.7-.4.9-.3.2-.7.3-1.1.3s-.9-.1-1.1-.3c-.3-.2-.4-.5-.4-1Z"/><path class="cls-1" d="M26.5,28.4h.8c0,.2.1.4.3.5.1.1.4.2.6.2s.4,0,.5-.1.2-.2.2-.4c0-.2-.3-.4-1-.6h0s0,0,0,0c-.4,0-.6-.2-.8-.3-.1,0-.2-.2-.3-.4,0-.1-.1-.3-.1-.5,0-.4.1-.7.4-.9.3-.2.6-.3,1.1-.3s.8.1,1.1.3c.3.2.4.5.4.9h-.8c0-.2,0-.3-.2-.4-.1,0-.3-.1-.6-.1s-.4,0-.5.1c-.1,0-.2.2-.2.3s.2.4.7.5c.1,0,.2,0,.3,0,.3,0,.5.1.6.2.1,0,.2,0,.3.1.2,0,.3.2.4.3,0,.1.1.3.1.5,0,.4-.1.7-.4.9-.3.2-.7.3-1.1.3s-.9-.1-1.1-.3c-.3-.2-.4-.5-.4-1Z"/><path class="cls-1" d="M30.3,29.6v-3.8h2.8v.7h-2v.8h1.8v.7h-1.8v1h2.1v.7h-2.9Z"/><path class="cls-1" d="M34.6,29.6v-3.2h-1.1v-.7h3.1v.7h-1.1v3.2h-.8Z"/><path class="cls-1" d="M19.4,34.6v-3.8h1.2l.8,2.9.8-2.9h1.2v3.8h-.7v-3.1l-.8,3.1h-.8l-.8-3.1v3.1h-.7Z"/><path class="cls-1" d="M25,30.7h.9l1.4,3.8h-.8l-.3-.8h-1.5l-.3.8h-.8l1.4-3.8ZM25.5,31.5l-.5,1.6h1.1l-.5-1.6Z"/><path class="cls-1" d="M27.7,34.6v-3.8h.8l1.6,2.6v-2.6h.8v3.8h-.8l-1.6-2.6v2.6h-.8Z"/><path class="cls-1" d="M32.7,30.7h.9l1.4,3.8h-.8l-.3-.8h-1.5l-.3.8h-.8l1.4-3.8ZM33.1,31.5l-.5,1.6h1.1l-.5-1.6Z"/><path class="cls-1" d="M38.2,34.1c-.1.2-.3.3-.5.4-.2,0-.4.1-.6.1-.5,0-1-.2-1.3-.6-.3-.4-.5-.9-.5-1.5s.2-1.1.5-1.5.8-.6,1.3-.6.9.1,1.2.3c.3.2.5.5.5,1h-.8c0-.2-.1-.4-.3-.5-.2-.1-.3-.2-.6-.2s-.6.1-.8.4c-.2.2-.3.6-.3,1s0,.7.3,1,.5.4.8.4.5,0,.6-.2c.2-.1.3-.4.3-.6h-.9v-.7h1.6v2.1h-.5v-.5Z"/><path class="cls-1" d="M39.6,34.6v-3.8h2.8v.7h-2v.8h1.8v.7h-1.8v1h2.1v.7h-2.9Z"/><path class="cls-1" d="M43.1,34.6v-3.8h1.2l.8,2.9.8-2.9h1.2v3.8h-.7v-3.1l-.8,3.1h-.8l-.8-3.1v3.1h-.7Z"/><path class="cls-1" d="M47.8,34.6v-3.8h2.8v.7h-2v.8h1.8v.7h-1.8v1h2.1v.7h-2.9Z"/><path class="cls-1" d="M51.3,34.6v-3.8h.8l1.6,2.6v-2.6h.8v3.8h-.8l-1.6-2.6v2.6h-.8Z"/><path class="cls-1" d="M56.1,34.6v-3.2h-1.1v-.7h3.1v.7h-1.1v3.2h-.8Z"/><rect class="cls-1" x="5.9" y="24.9" width="11.6" height="10.2"/><polygon class="cls-4" points="7.1 26.9 11.6 34.5 13.6 34.5 8.8 25.4 6.5 25.4 6.5 34.5 10.1 34.5 7.1 26.9"/><polygon class="cls-2" points="10 25.4 13.6 25.4 13.6 34.3 10 25.4"/><polygon class="cls-5" points="14.9 25.4 17 25.4 17 34.5 13.7 34.5 14.9 25.4"/><path class="cls-1" d="M16.6,26.8c0,.4-.3.7-.7.7s-.7-.3-.7-.7.3-.7.7-.7.7.3.7.7"/><path class="cls-1" d="M15.1,28h1.1s.3,0,.2.3v3.9s0,1.9-1.5,1.8c0,0,.5-.2.5-1.8v-3.5s0-.6-.4-.6"/><path class="cls-3" d="M11.6,40.4c.1,0,.4,0,.7,0s.6,0,.7.2c.2,0,.3.3.3.5s-.1.5-.4.6h0c.3,0,.5.3.5.6s0,.4-.2.5c-.2.2-.5.2-1,.2s-.5,0-.6,0v-2.5ZM12,41.4h.2c.3,0,.5-.2.5-.4s-.2-.4-.5-.4-.2,0-.3,0v.7ZM12,42.6c0,0,.1,0,.2,0,.3,0,.6-.1.6-.4s-.3-.4-.6-.4h-.2v.8Z"/><path class="cls-3" d="M15.4,40.4v1.5c0,.5.2.7.5.7s.5-.2.5-.7v-1.5h.5v1.5c0,.8-.4,1.1-1,1.1s-1-.3-1-1.1v-1.5h.5Z"/><path class="cls-3" d="M19,40.4v2.6h-.5v-2.6h.5Z"/><path class="cls-3" d="M20.7,40.4h.5v2.2h1.1v.4h-1.5v-2.6Z"/><path class="cls-3" d="M23.9,40.8h-.7v-.4h1.9v.4h-.7v2.2h-.5v-2.2Z"/><path class="cls-3" d="M30.7,41.6c0,.9-.5,1.4-1.2,1.4s-1.2-.6-1.2-1.3.5-1.3,1.2-1.3,1.2.6,1.2,1.3ZM28.8,41.7c0,.5.3.9.7.9s.7-.4.7-1-.2-.9-.7-.9-.7.4-.7,1Z"/><path class="cls-3" d="M32.3,43v-2.6h.5l.7,1.1c.2.3.3.6.4.9h0c0-.3,0-.7,0-1.1v-.9h.4v2.6h-.5l-.7-1.1c-.2-.3-.3-.6-.5-.9h0c0,.3,0,.7,0,1.1v.9h-.4Z"/><path class="cls-3" d="M37.9,40.4c.2,0,.4,0,.7,0s.6,0,.8.2c.1.1.2.3.2.5,0,.3-.2.6-.5.6h0c.2,0,.3.3.4.5,0,.3.1.6.2.7h-.5c0,0,0-.3-.2-.6,0-.3-.2-.4-.5-.4h-.2v1.1h-.5v-2.5ZM38.4,41.6h.3c.3,0,.5-.2.5-.4s-.2-.4-.5-.4-.2,0-.3,0v.8Z"/><path class="cls-3" d="M41.7,40.4v1.5c0,.5.2.7.5.7s.5-.2.5-.7v-1.5h.5v1.5c0,.8-.4,1.1-1,1.1s-1-.3-1-1.1v-1.5h.5Z"/><path class="cls-3" d="M44.9,40.4h.5v2.2h1.1v.4h-1.5v-2.6Z"/><path class="cls-3" d="M49.3,41.8h-1v.8h1.1v.4h-1.6v-2.6h1.5v.4h-1v.7h1v.4Z"/><path class="cls-3" d="M51,42.4c.2,0,.4.2.6.2s.5-.1.5-.4-.1-.3-.5-.4c-.4-.2-.7-.4-.7-.7s.4-.7.9-.7.5,0,.6.1v.4c-.2,0-.4-.1-.6-.1s-.4.2-.4.3.1.3.5.4c.4.2.7.4.7.8s-.3.8-1,.8-.6,0-.7-.2v-.4Z"/></svg>