<?xml version="1.0" encoding="UTF-8"?><svg id="Layer_1" xmlns="http://www.w3.org/2000/svg" viewBox="0 0 566.93 168.52"><defs><style>.cls-1{fill:#002247;}</style></defs><polygon class="cls-1" points="98.82 76.59 106.65 61.82 95.64 57.34 94.52 67.06 95.64 68.75 94.52 77.35 98.82 76.59"/><polygon class="cls-1" points="105.92 84.81 111.34 80.14 117.31 66.11 108.72 62.56 100.67 85.18 95.07 89.84 87.98 102.36 95.07 102.36 105.92 84.81"/><path class="cls-1" d="M64.64,128.14c18.12,0,37.73-8.03,49.13-22.77H15.31c14.02,17.17,33.44,22.77,49.32,22.77"/><polygon class="cls-1" points="75.11 102.36 84.07 102.36 93.4 84.81 91.72 81.64 75.11 102.36"/><path class="cls-1" d="M4.49,62.2C4.49,34.18,28.4,4.1,65.01,4.1c25.59,0,46.7,16.25,54.18,35.32l-28.96-8.04-25.78-14.4-12.71-2.07-5.78,12.34-4.68,2.43-7.28,18.5c0-.38-5.05,2.24-5.05,2.24,0,0-10.84,28.94-16.25,43.52-4.28-7.65-8.21-15.69-8.21-31.76M28.02,72.3l4.85-13.46,2.81-1.32-11.02,33.83-7.86,11.01h3.37l13.26-15.88,6.36-24.66,2.44,3.37c-.95,11.39-.57,8.58-1.32,14.94l-15.87,22.22h3.73l15.52-11.76.92.37-5.78,11.39h17.17l26.34-17.55,8.04-29.33,19.43-.93-7.48-4.86-42.59-7.1c-9.33-9.9-9.71-10.46-9.71-10.46l11.21.92-8.03-7.46v-7.67l10.46,1.88,28.59,16.63,33.06,8.96C122.55,29.89,102.55,0,65.01,0S0,31.94,0,62.2c0,20.18,6.73,31.76,12.7,40.36,4.11-9.34,11.97-28.4,11.97-28.4l3.35-1.86Z"/><path class="cls-1" d="M115.62,80.89l-13.63,21.48h14.37c7.66-10.63,11.21-21.67,11.98-32.5l-8.6-2.99-4.12,14.01Z"/><path class="cls-1" d="M185.64,68.03h-5.42V32h5.42c12.27,0,14.48,9.4,14.48,18.35s-2.32,17.69-14.48,17.69M185.64,28.79h-28.19v3.32h.22c2.77,0,4.87.11,5.97.77,1.66.88,2.32,3.31,2.32,6.85v54.5c0,2.98-.67,4.64-1.77,5.64-.99.89-3.1,1.33-5.86,1.33h-.89v3.32h33.17v-3.32h-3.1c-3.09,0-4.97-.55-5.85-1.55-1.22-1.22-1.44-3.09-1.44-5.42v-22.55h5.42c15.7,0,28.85-6.08,28.85-21.34,0-16.03-13.49-21.56-28.85-21.56"/><path class="cls-1" d="M257.52,66.49h1.66c1.99,0,4.09.11,5.42,1.44,1.77,1.66,1.55,5.75,1.55,5.75v16.14c0,2.32-.44,5.75-1.88,7.74-2.1,3.09-5.09,4.2-8.84,4.2-12.93,0-14.93-20.57-14.93-34.83s2.1-36.26,16.58-36.26c11.72,0,15.48,12.6,18.02,20.67h3.76v-22.99h-3.54l-4.31,4.54c-.11-.11.11,0,0-.11-2.1-2.1-5.97-5.64-14.6-5.64-18.68,0-31.5,16.69-31.5,39.8s10.06,39.14,28.52,39.14c8.07,0,13.6-3.65,16.14-7.85h.11l7.18,6.74h3.54v-31.28s-.22-4.09,1.55-5.75c1.33-1.33,3.32-1.44,5.31-1.44h.56v-3.43h-30.29v3.43Z"/><path class="cls-1" d="M298.21,32.11h1.66c2.76,0,3.54.11,4.64.77,1.66.88,2.32,3.65,2.32,7.19v54.17c0,2.98-.66,4.64-1.77,5.64-1,.89-2.76,1.33-5.41,1.33h-1.44v3.32h31.51v-3.32h-1.33c-3.1,0-4.97-.56-5.97-1.55-1.11-1.22-1.33-3.09-1.33-5.42v-54.17c0-2.32.33-5.2,1.44-6.42,1-.99,2.32-1.54,5.53-1.54h1.66v-3.32h-31.51v3.32Z"/><path class="cls-1" d="M413.64,34.43c.99-1.66,2.87-2.32,6.41-2.32h1.22v-3.31h-24.65l-16.25,52.73-16.47-52.73h-23.77v3.31h1.11c2.21,0,3.2.22,4.42.88,2.21,1.11,2.88,3.21,2.88,6.97l-.33,46.54c-.11,9.51-1.11,11.28-2.43,12.6-1.22,1.22-2.98,2.1-5.09,2.1h-.55v3.32h21.45v-3.32h-1.22c-2.21,0-3.87-.88-5.09-2.1-1.33-1.32-2.32-3.42-2.43-12.6l-.33-48.86,21.45,66.88h3.21l21.23-66.88v55.49c0,5.86-1.22,8.07-7.52,8.07h-.99v3.32h31.4v-3.32h-.99c-6.3,0-7.63-2.21-7.63-8.07v-52.29c0-2.54.22-5.09,1-6.41"/><path class="cls-1" d="M163.09,160.6h-5.78v-33.65h5.78v33.65Z"/><path class="cls-1" d="M174.42,160.6h-5.22v-25.08h4.94v2.52c2.19-1.86,3.31-2.98,6.34-2.98,2.75,0,4.38,2,4.38,5.27v20.27h-5.22v-19.44c0-1.26-.75-1.82-1.86-1.82s-2.14.7-3.36,1.59v19.67Z"/><path class="cls-1" d="M205.55,160.6h-4.94v-2.61h-.09c-1.72,2.19-2.98,3.08-5.59,3.08-3.26,0-5.31-2.42-5.31-6.99v-12.02c0-4.57,2.05-6.99,5.31-6.99,2.28,0,3.36.93,5.41,2.61v-10.72h5.22v33.65ZM200.33,140.65c-1.03-.75-1.96-1.31-2.98-1.31-1.4,0-2.52.75-2.52,4.06v9.32c0,3.31,1.12,4.06,2.52,4.06,1.03,0,1.96-.56,2.98-1.31v-14.82Z"/><path class="cls-1" d="M215.86,131.7h-5.22v-4.75h5.22v4.75ZM215.86,160.6h-5.22v-25.08h5.22v25.08Z"/><path class="cls-1" d="M220.38,142.89c.28-5.08,3.49-7.83,8.39-7.83s7.6,2.24,7.6,6.81v16.08c0,.79.19,1.82.33,2.66h-4.99c-.05-.7-.23-1.35-.28-1.96-1.96,1.58-3.59,2.42-6.11,2.42-3.54,0-5.31-2.42-5.31-5.64,0-5.5,3.64-8.53,11.14-11.37v-1.49c0-2.1-.84-3.22-2.56-3.22-2.38,0-2.89,1.4-2.98,3.54h-5.22ZM231.14,147.87c-4.75,2.7-5.92,4.43-5.92,6.62,0,1.63.84,2.29,2.42,2.29,1.45,0,2.61-1.07,3.5-2.33v-6.57Z"/><path class="cls-1" d="M256.64,153.14l-1.02,7.46h-5.59l6.2-33.65h7.18l6.2,33.65h-5.59l-1.03-7.46h-6.34ZM259.76,133.66l-2.28,14.45h4.66l-2.28-14.45h-.09Z"/><path class="cls-1" d="M282.18,142.47c-.37-2-1.3-3.12-2.98-3.12-1.35,0-2.28.7-2.28,2,0,3.92,9.79,5.5,9.79,12.96,0,4.47-3.08,6.76-7.32,6.76-4.57,0-7.18-2.61-7.97-6.99l4.57-1.26c.33,2.1,1.07,3.96,3.45,3.96,1.35,0,2.33-.79,2.33-2.19,0-4.33-9.79-5.97-9.79-12.82,0-3.96,3.08-6.71,6.99-6.71s6.85,2.75,7.64,6.67l-4.43.75Z"/><path class="cls-1" d="M300.31,142.47c-.37-2-1.31-3.12-2.98-3.12-1.35,0-2.29.7-2.29,2,0,3.92,9.79,5.5,9.79,12.96,0,4.47-3.08,6.76-7.32,6.76-4.57,0-7.18-2.61-7.97-6.99l4.57-1.26c.33,2.1,1.07,3.96,3.45,3.96,1.35,0,2.33-.79,2.33-2.19,0-4.33-9.79-5.97-9.79-12.82,0-3.96,3.08-6.71,6.99-6.71s6.85,2.75,7.64,6.67l-4.43.75Z"/><path class="cls-1" d="M324.88,149.04h-11v3.64c0,2.89,1.03,4.1,2.89,4.1s2.89-1.21,2.89-4.1v-.56h5.22c-.09,5.31-2.28,8.95-8.11,8.95s-8.11-3.82-8.11-9.32v-7.36c0-5.5,2.14-9.32,8.11-9.32s8.11,3.82,8.11,9.32v4.66ZM313.88,144.75h5.78v-1.3c0-2.89-1.03-4.1-2.89-4.1s-2.89,1.21-2.89,4.1v1.3Z"/><path class="cls-1" d="M330.47,139.81h-2.89v-4.29h2.89v-6.76h5.22v6.76h3.5v4.29h-3.5v14.45c0,1.31.56,2.05,1.77,2.05h1.73v4.47c-.7.19-1.3.28-2.61.28-3.91,0-6.1-1.82-6.1-5.64v-15.61Z"/><path class="cls-1" d="M368.78,126.95h7.6v33.65h-5.03v-26.29h-.1l-5.22,26.29h-2.8l-5.22-26.29h-.09v26.29h-5.03v-33.65h7.6l4.1,19.67h.09l4.1-19.67Z"/><path class="cls-1" d="M380.86,142.89c.28-5.08,3.5-7.83,8.39-7.83s7.6,2.24,7.6,6.81v16.08c0,.79.19,1.82.33,2.66h-4.99c-.05-.7-.23-1.35-.28-1.96-1.96,1.58-3.59,2.42-6.1,2.42-3.54,0-5.31-2.42-5.31-5.64,0-5.5,3.64-8.53,11.14-11.37v-1.49c0-2.1-.84-3.22-2.56-3.22-2.38,0-2.89,1.4-2.98,3.54h-5.22ZM391.62,147.87c-4.75,2.7-5.92,4.43-5.92,6.62,0,1.63.84,2.29,2.42,2.29,1.44,0,2.61-1.07,3.5-2.33v-6.57Z"/><path class="cls-1" d="M407.33,160.6h-5.22v-25.08h4.94v2.52c2.19-1.86,3.31-2.98,6.34-2.98,2.75,0,4.38,2,4.38,5.27v20.27h-5.22v-19.44c0-1.26-.75-1.82-1.86-1.82s-2.14.7-3.36,1.59v19.67Z"/><path class="cls-1" d="M422.25,142.89c.28-5.08,3.5-7.83,8.39-7.83s7.6,2.24,7.6,6.81v16.08c0,.79.19,1.82.33,2.66h-4.99c-.05-.7-.23-1.35-.28-1.96-1.96,1.58-3.59,2.42-6.1,2.42-3.54,0-5.31-2.42-5.31-5.64,0-5.5,3.64-8.53,11.14-11.37v-1.49c0-2.1-.84-3.22-2.56-3.22-2.38,0-2.89,1.4-2.98,3.54h-5.22ZM433.01,147.87c-4.75,2.7-5.92,4.43-5.92,6.62,0,1.63.84,2.29,2.42,2.29,1.45,0,2.61-1.07,3.5-2.33v-6.57Z"/><path class="cls-1" d="M460.84,139.39c-.28-.05-.56-.05-.84-.05-.93,0-1.77.19-2.52.79.37,1.3.56,2.94.56,3.96,0,7.64-2.61,10.07-7.93,10.07h-1.68c-.56.14-1.03.56-1.03,1.17,0,3.4,13.42-1.63,13.42,7.22,0,4.29-4.01,5.97-10.72,5.97-5.22,0-8.3-1.4-8.3-4.01,0-1.96,1.59-3.5,3.4-3.92v-.09c-1.4-.56-2.38-1.54-2.38-3.17,0-1.73,1.77-3.26,3.17-4.06-2.61-1.82-3.35-3.12-3.35-8.99,0-6.9,2.24-9.23,8.11-9.23,2.24,0,4.15.79,5.78,2.7,1.4-2.05,2.1-2.7,4.29-2.7v4.34ZM456.18,162.93c0-1.3-.93-1.86-4.43-1.86s-4.43.56-4.43,1.86.93,1.86,4.43,1.86,4.43-.56,4.43-1.86ZM452.83,144.61c0-4.24-.56-5.27-2.61-5.27-1.68,0-2.61,1.03-2.61,5.27s.93,5.27,2.61,5.27c2.05,0,2.61-1.03,2.61-5.27Z"/><path class="cls-1" d="M480.14,149.04h-11v3.64c0,2.89,1.03,4.1,2.89,4.1s2.89-1.21,2.89-4.1v-.56h5.22c-.09,5.31-2.28,8.95-8.11,8.95s-8.11-3.82-8.11-9.32v-7.36c0-5.5,2.14-9.32,8.11-9.32s8.11,3.82,8.11,9.32v4.66ZM469.14,144.75h5.78v-1.3c0-2.89-1.03-4.1-2.89-4.1s-2.89,1.21-2.89,4.1v1.3Z"/><path class="cls-1" d="M500.51,160.6h-5.22v-19.44c0-1.26-.79-1.82-1.82-1.82-1.12,0-2.14.7-3.36,1.59v19.67h-5.22v-25.08h4.94v2.52c2.19-1.86,3.31-2.98,5.78-2.98,2.61,0,3.45.93,4.57,2.98,2.52-2.42,3.91-2.98,5.83-2.98,3.26,0,4.89,2,4.89,5.27v20.27h-5.22v-19.44c0-1.26-.84-1.82-1.86-1.82-1.12,0-2.14.7-3.31,1.59v19.67Z"/><path class="cls-1" d="M531.92,149.04h-11v3.64c0,2.89,1.03,4.1,2.89,4.1s2.89-1.21,2.89-4.1v-.56h5.22c-.09,5.31-2.28,8.95-8.11,8.95s-8.11-3.82-8.11-9.32v-7.36c0-5.5,2.14-9.32,8.11-9.32s8.11,3.82,8.11,9.32v4.66ZM520.92,144.75h5.78v-1.3c0-2.89-1.03-4.1-2.89-4.1s-2.89,1.21-2.89,4.1v1.3Z"/><path class="cls-1" d="M541.9,160.6h-5.22v-25.08h4.94v2.52c2.19-1.86,3.31-2.98,6.34-2.98,2.75,0,4.38,2,4.38,5.27v20.27h-5.22v-19.44c0-1.26-.75-1.82-1.86-1.82s-2.14.7-3.36,1.59v19.67Z"/><path class="cls-1" d="M558.21,139.81h-2.89v-4.29h2.89v-6.76h5.22v6.76h3.5v4.29h-3.5v14.45c0,1.31.56,2.05,1.77,2.05h1.73v4.47c-.7.19-1.3.28-2.61.28-3.91,0-6.1-1.82-6.1-5.64v-15.61Z"/></svg>