<?xml version="1.0" encoding="UTF-8"?>
<svg id="Layer_1" xmlns="http://www.w3.org/2000/svg" version="1.1" viewBox="0 0 64 64">
  <!-- Generator: Adobe Illustrator 29.5.1, SVG Export Plug-In . SVG Version: 2.1.0 Build 141)  -->
  <defs>
    <style>
      .st0, .st1 {
        fill: #fff;
      }

      .st1, .st2, .st3, .st4, .st5, .st6 {
        fill-rule: evenodd;
      }

      .st7 {
        fill: #2e3191;
      }

      .st2 {
        fill: #ec1c24;
      }

      .st3 {
        fill: #86a9bd;
      }

      .st8 {
        fill: #86e6fc;
      }

      .st5 {
        fill: #221f1f;
      }

      .st9 {
        fill: #28aae1;
      }

      .st6 {
        fill: #00adee;
      }
    </style>
  </defs>
  <g>
    <path class="st1" d="M8.85,0h46.27c1.51,0,2.74,1.34,2.74,2.97v58.06c0,1.63-1.23,2.97-2.74,2.97H8.85c-1.51,0-2.74-1.34-2.74-2.97V2.97c0-1.63,1.23-2.97,2.74-2.97Z"/>
    <g>
      <path class="st3" d="M9.01,0h46.02c.78,0,1.5.35,2.02.91.52.57.85,1.35.85,2.21v57.76c0,.86-.32,1.64-.85,2.21-.52.56-1.23.91-2.02.91H9.01c-.78,0-1.5-.35-2.02-.91-.52-.57-.85-1.35-.85-2.21V3.12c0-.86.32-1.64.85-2.21.52-.56,1.23-.91,2.02-.91h0ZM55.02.33H9.01c-.71,0-1.36.32-1.83.82-.47.5-.75,1.2-.75,1.96v57.76c0,.76.29,1.46.75,1.96.47.51,1.12.82,1.83.82h46.02c.71,0,1.36-.32,1.83-.82.47-.5.75-1.2.75-1.96V3.12c0-.76-.29-1.46-.75-1.96-.47-.51-1.12-.82-1.83-.82Z"/>
      <rect class="st7" x="7.47" y="1.38" width="49.02" height="61.38" rx="2.72" ry="2.72"/>
      <rect class="st9" x="9.94" y="47.93" width="44.12" height=".27"/>
      <path class="st6" d="M43.35,22.79l-8.71,3.03c-1.5,0-20.5-1.83-20.5-3.33l-6.67-3.74V4.1c0-1.5,1.22-2.72,2.72-2.72h43.57c1.5,0,2.72,1.22,2.72,2.72v14.05l-3.15,5.02c0,1.5-8.5-.37-10-.37Z"/>
      <path class="st1" d="M55.91,18.51s-1.76,1.44-4.07,1.92l-2.31.38c-1.81.19-3.92.34-6.28,1.25.65-.91,1.06-1.92,1.11-2.92.2-2.59-1.56-5.13-4.93-7.14-3.32-1.97-7.79-3.26-12.72-3.6-4.88-.34-9.55.34-13.12,1.87-3.67,1.53-5.78,3.79-5.93,6.33-.25,2.59,1.56,5.08,4.88,7.1,3.37,2.01,7.84,3.31,12.77,3.64,4.67.34,9.35-.34,12.87-1.77-.96,1.44-.7,2.64-.5,3.31l.15.38.2-.34s2.41-3.07,11.56-4.03c6.33-.62,6.68-5.66,6.68-6.23l.1-.48-.45.34h0ZM39.63,23.16c-.95,1.87-8.19.05-14.48-2.73-6.33-2.73-12.56-6.71-11.61-8.63.9-1.97,8.14-.05,14.48,2.68,6.28,2.78,12.52,6.76,11.61,8.68Z"/>
      <path class="st4" d="M7.36,17.12c.05,2.45,1.86,4.84,5.08,6.81,3.37,2.01,7.89,3.26,12.87,3.64.8.05,1.61.05,2.41.05,3.62,0,7.09-.58,9.95-1.58-.35.62-.45,1.15-.45,1.68,0,.53.1.91.25,1.2l.25.81.55-.72s2.36-2.92,11.36-3.88c6.48-.72,6.89-5.85,6.94-6.47v-.82l-.45.53.25-.19-.1.48c0,.58-.35,5.61-6.68,6.23-9.15.96-11.51,3.98-11.56,4.03l-.2.34-.15-.38c-.2-.67-.45-1.87.5-3.31-2.92,1.25-6.63,1.87-10.5,1.87-.75,0-1.56,0-2.36-.1-4.93-.34-9.4-1.63-12.77-3.64-3.07-1.82-4.77-4.12-4.88-6.42l-.3-.14Z"/>
      <path class="st5" d="M24.25,8.11c-4.02,0-7.74.67-10.76,1.97-3.72,1.58-5.88,3.88-6.13,6.52v.53l.3.14c-.05-.19-.05-.48,0-.67.15-2.54,2.26-4.79,5.93-6.33,2.97-1.29,6.68-1.97,10.66-1.97.85,0,1.66.05,2.46.1,4.93.34,9.4,1.63,12.72,3.6,3.37,2.01,5.13,4.55,4.93,7.14-.05,1.01-.45,2.01-1.11,2.92,2.36-.91,4.47-1.05,6.28-1.25l2.31-.38c2.31-.48,4.07-1.92,4.07-1.92l.2-.14.45-.53v-.24l-.45.43s-1.81,2.01-6.13,2.54l-1.56.14c-1.86.19-3.07.29-4.67.86.5-.77.75-1.58.8-2.45.05-.14.05-.29.05-.43,0-2.45-1.76-4.94-5.08-6.9-3.32-2.01-7.89-3.31-12.82-3.64-.8-.05-1.61-.05-2.46-.05Z"/>
      <path class="st4" d="M24.25,8.3c-3.97,0-7.69.67-10.66,1.97-3.67,1.53-5.78,3.79-5.93,6.33-.05.19-.05.48,0,.67.1,2.3,1.81,4.6,4.88,6.42,3.37,2.01,7.84,3.31,12.77,3.64.8.1,1.61.1,2.36.1,3.87,0,7.59-.62,10.5-1.87-.96,1.44-.7,2.64-.5,3.31l.15.38.2-.34s2.41-3.07,11.56-4.03c6.33-.62,6.68-5.66,6.68-6.23l.1-.48-.25.19-.2.14s-1.76,1.44-4.07,1.92l-2.31.38c-1.81.19-3.92.34-6.28,1.25.65-.91,1.06-1.92,1.11-2.92.2-2.59-1.56-5.13-4.93-7.14-3.32-1.97-7.79-3.26-12.72-3.6-.8-.05-1.61-.1-2.46-.1h0ZM27.62,27.19c-.75,0-1.51-.05-2.31-.1-4.88-.29-9.35-1.58-12.62-3.55-3.32-2.01-5.03-4.41-4.83-6.9.15-2.45,2.21-4.7,5.78-6.19,2.97-1.29,6.68-1.97,10.61-1.97.85,0,1.66.1,2.46.14,4.83.29,9.35,1.58,12.62,3.55,3.32,2.01,4.98,4.41,4.82,6.9-.05,1.01-.45,1.92-1.16,2.83l-.4.62.75-.29c1.86-.77,3.02-.86,5.13-1.05l1.56-.24c3.42-.34,5.28-1.58,6.03-2.25-.05.77-.55,5.37-6.48,5.99-9.25.96-11.66,3.93-11.71,4.08-.1-.24-.15-.58-.15-1.05,0-.58.1-1.25.65-2.01l.35-.62-.65.29c-2.91,1.15-6.63,1.82-10.45,1.82Z"/>
      <path class="st4" d="M15.65,10.98c-1.11,0-1.86.24-2.11.82-.96,1.92,5.28,5.9,11.61,8.63,4.52,1.97,9.55,3.5,12.36,3.5,1.06,0,1.81-.24,2.11-.77.9-1.92-5.33-5.9-11.61-8.68-4.57-1.97-9.6-3.5-12.36-3.5h0ZM37.52,23.69c-2.56,0-7.19-1.29-12.26-3.5-7.09-3.02-12.26-6.81-11.51-8.34.1-.19.25-.34.6-.43.3-.14.8-.19,1.36-.19,2.51,0,7.24,1.29,12.16,3.45,6.68,2.92,11.61,6.42,11.61,8.06,0,.1-.05.19-.1.29-.15.48-.85.67-1.86.67Z"/>
      <path class="st4" d="M15.7,10.79c-.6,0-1.11.05-1.51.19-.45.14-.7.43-.9.72-1.11,2.3,6.43,6.62,11.81,8.92,3.82,1.68,9.25,3.5,12.41,3.5,1.16,0,1.96-.24,2.31-.86,1.11-2.35-6.43-6.66-11.71-8.92-4.37-1.92-9.45-3.55-12.41-3.55h0ZM37.52,23.93c-2.81,0-7.84-1.53-12.36-3.5-6.33-2.73-12.56-6.71-11.61-8.63.25-.58,1.01-.82,2.11-.82,2.76,0,7.79,1.53,12.36,3.5,6.28,2.78,12.52,6.76,11.61,8.68-.3.53-1.06.77-2.11.77Z"/>
      <path class="st2" d="M29.98,22.06c1.56-1.06,2.61-2.73,2.61-4.7,0-3.12-2.71-5.71-5.98-5.71-3.32,0-6.03,2.59-6.03,5.71,0,.24.05.62.05.62,0,0,4.47,2.49,9.35,4.08Z"/>
    </g>
  </g>
  <g>
    <path class="st8" d="M14.96,52.2h-1.03v1.07h-.54v-2.61h1.7v.44h-1.16v.67h1.03v.43Z"/>
    <path class="st8" d="M18.03,52.02c0,.26-.05.48-.14.68s-.22.34-.39.45c-.17.11-.36.16-.58.16s-.41-.05-.58-.16c-.17-.1-.3-.25-.39-.45-.09-.19-.14-.42-.14-.67v-.13c0-.26.05-.48.14-.68.09-.2.22-.35.39-.45.17-.1.36-.16.58-.16s.41.05.58.16c.17.1.3.25.39.45.09.2.14.42.14.68v.12ZM17.48,51.9c0-.27-.05-.48-.15-.62-.1-.14-.24-.21-.42-.21s-.32.07-.42.21c-.1.14-.15.35-.15.62v.13c0,.27.05.47.15.62.1.15.24.22.42.22s.32-.07.42-.21c.1-.14.15-.35.15-.62v-.13Z"/>
    <path class="st8" d="M19.87,52.31h-.43v.96h-.54v-2.61h.97c.31,0,.55.07.71.21.17.14.25.33.25.58,0,.18-.04.33-.12.45-.08.12-.19.21-.35.28l.57,1.07v.03h-.58l-.49-.96ZM19.44,51.87h.43c.14,0,.24-.03.31-.1.07-.07.11-.16.11-.28s-.04-.22-.11-.29c-.07-.07-.18-.11-.32-.11h-.43v.78Z"/>
    <path class="st8" d="M24.98,51.09h-.8v2.18h-.54v-2.18h-.79v-.44h2.13v.44Z"/>
    <path class="st8" d="M27.89,53.27h-.54v-1.12h-1.05v1.12h-.54v-2.61h.54v1.06h1.05v-1.06h.54v2.61Z"/>
    <path class="st8" d="M30.98,52.02c0,.26-.05.48-.14.68s-.22.34-.39.45c-.17.11-.36.16-.58.16s-.41-.05-.58-.16c-.17-.1-.3-.25-.39-.45-.09-.19-.14-.42-.14-.67v-.13c0-.26.05-.48.14-.68.09-.2.22-.35.39-.45.17-.1.36-.16.58-.16s.41.05.58.16c.17.1.3.25.39.45.09.2.14.42.14.68v.12ZM30.44,51.9c0-.27-.05-.48-.15-.62-.1-.14-.24-.21-.42-.21s-.32.07-.42.21c-.1.14-.15.35-.15.62v.13c0,.27.05.47.15.62.1.15.24.22.42.22s.32-.07.42-.21c.1-.14.15-.35.15-.62v-.13Z"/>
    <path class="st8" d="M33.83,50.65v1.72c0,.29-.09.51-.27.68-.18.17-.42.25-.73.25s-.55-.08-.73-.24c-.18-.16-.27-.38-.27-.67v-1.74h.54v1.73c0,.17.04.3.12.37.08.08.2.12.34.12.3,0,.46-.16.46-.48v-1.74h.54Z"/>
    <path class="st8" d="M36.82,52.94c-.1.12-.23.21-.41.27-.18.06-.37.1-.59.1-.23,0-.42-.05-.6-.15-.17-.1-.3-.24-.39-.43-.09-.19-.14-.41-.14-.66v-.18c0-.26.04-.49.13-.68.09-.19.21-.34.38-.44.17-.1.36-.15.58-.15.31,0,.55.07.73.22.17.15.28.36.31.65h-.52c-.02-.15-.08-.26-.16-.33-.08-.07-.19-.1-.34-.1-.18,0-.32.07-.42.21s-.14.34-.15.61v.17c0,.27.05.48.16.62s.26.21.46.21.35-.04.43-.13v-.45h-.49v-.4h1.03v1.04Z"/>
    <path class="st8" d="M39.86,53.27h-.54v-1.12h-1.05v1.12h-.54v-2.61h.54v1.06h1.05v-1.06h.54v2.61Z"/>
    <path class="st8" d="M42.72,51.09h-.8v2.18h-.54v-2.18h-.79v-.44h2.13v.44Z"/>
    <path class="st8" d="M45.08,52.2h-1.03v1.07h-.54v-2.61h1.7v.44h-1.16v.67h1.03v.43Z"/>
    <path class="st8" d="M47.98,50.65v1.72c0,.29-.09.51-.27.68-.18.17-.42.25-.73.25s-.55-.08-.73-.24c-.18-.16-.27-.38-.27-.67v-1.74h.54v1.73c0,.17.04.3.12.37.08.08.2.12.34.12.3,0,.46-.16.46-.48v-1.74h.54Z"/>
    <path class="st8" d="M49.44,52.84h1.14v.43h-1.68v-2.61h.54v2.18Z"/>
    <path class="st8" d="M20.92,57.9h-.54v-2.61h.54v2.61Z"/>
    <path class="st8" d="M24.02,57.9h-.54l-1.05-1.72v1.72h-.54v-2.61h.54l1.05,1.72v-1.72h.54v2.61Z"/>
    <path class="st8" d="M25.93,57.25l.59-1.97h.6l-.91,2.61h-.56l-.91-2.61h.6l.59,1.97Z"/>
    <path class="st8" d="M29.42,56.77h-1.03v.7h1.21v.43h-1.75v-2.61h1.75v.44h-1.21v.62h1.03v.42Z"/>
    <path class="st8" d="M31.75,57.21c0-.1-.04-.18-.11-.23-.07-.05-.2-.11-.39-.17-.19-.06-.33-.12-.44-.18-.3-.16-.45-.38-.45-.65,0-.14.04-.27.12-.38.08-.11.19-.2.34-.26.15-.06.32-.09.5-.09s.35.03.5.1c.15.07.26.16.34.29.08.12.12.26.12.42h-.54c0-.12-.04-.21-.11-.28-.08-.07-.18-.1-.32-.1s-.23.03-.31.08c-.07.06-.11.13-.11.22,0,.08.04.16.13.21.09.06.21.11.38.16.31.09.53.21.67.34.14.14.21.31.21.51,0,.23-.09.4-.26.53-.17.13-.4.19-.69.19-.2,0-.38-.04-.55-.11-.17-.07-.29-.17-.38-.3-.09-.13-.13-.28-.13-.45h.54c0,.29.17.43.52.43.13,0,.23-.03.3-.08.07-.05.11-.12.11-.22Z"/>
    <path class="st8" d="M35.1,55.72h-.8v2.18h-.54v-2.18h-.79v-.44h2.13v.44Z"/>
    <path class="st8" d="M37.98,56.65c0,.26-.05.48-.14.68s-.22.34-.39.45c-.17.11-.36.16-.58.16s-.41-.05-.58-.16c-.17-.1-.3-.25-.39-.45-.09-.19-.14-.42-.14-.67v-.13c0-.26.05-.48.14-.68.09-.2.22-.35.39-.45.17-.1.36-.16.58-.16s.41.05.58.16c.17.1.3.25.39.45.09.2.14.42.14.68v.12ZM37.44,56.53c0-.27-.05-.48-.15-.62-.1-.14-.24-.21-.42-.21s-.32.07-.42.21c-.1.14-.15.35-.15.62v.13c0,.27.05.47.15.62.1.15.24.22.42.22s.32-.07.42-.21c.1-.14.15-.35.15-.62v-.13Z"/>
    <path class="st8" d="M39.82,56.94h-.43v.96h-.54v-2.61h.97c.31,0,.55.07.71.21.17.14.25.33.25.58,0,.18-.04.33-.12.45-.08.12-.19.21-.35.28l.57,1.07v.03h-.58l-.49-.96ZM39.39,56.5h.43c.14,0,.24-.03.31-.1.07-.07.11-.16.11-.28s-.04-.22-.11-.29c-.07-.07-.18-.11-.32-.11h-.43v.78Z"/>
    <path class="st8" d="M43.03,57.21c0-.1-.04-.18-.11-.23-.07-.05-.2-.11-.39-.17-.19-.06-.33-.12-.44-.18-.3-.16-.45-.38-.45-.65,0-.14.04-.27.12-.38.08-.11.19-.2.34-.26.15-.06.32-.09.5-.09s.35.03.5.1c.15.07.26.16.34.29.08.12.12.26.12.42h-.54c0-.12-.04-.21-.11-.28-.08-.07-.18-.1-.32-.1s-.23.03-.31.08c-.07.06-.11.13-.11.22,0,.08.04.16.13.21.09.06.21.11.38.16.31.09.53.21.67.34.14.14.21.31.21.51,0,.23-.09.4-.26.53-.17.13-.4.19-.69.19-.2,0-.38-.04-.55-.11-.17-.07-.29-.17-.38-.3-.09-.13-.13-.28-.13-.45h.54c0,.29.17.43.52.43.13,0,.23-.03.3-.08.07-.05.11-.12.11-.22Z"/>
  </g>
  <g>
    <path class="st0" d="M16.48,35.55c0,.64-.11,1.21-.32,1.69s-.51.87-.89,1.16l1.13.89-1.04.88-1.5-1.21c-.14.02-.28.03-.42.03-.59,0-1.12-.14-1.58-.41s-.82-.67-1.07-1.18-.39-1.1-.4-1.76v-.37c0-.69.13-1.29.38-1.81s.61-.92,1.07-1.21,1-.43,1.6-.43,1.12.14,1.58.42.82.68,1.08,1.2.39,1.11.39,1.78v.32ZM14.77,35.26c0-.69-.12-1.22-.35-1.58s-.56-.54-.99-.54-.78.18-1,.53-.34.87-.34,1.56v.32c0,.69.11,1.21.34,1.58s.56.55,1.01.55.76-.18.98-.54.34-.88.35-1.56v-.32Z"/>
    <path class="st0" d="M20.88,38.33c-.34.44-.8.66-1.38.66s-1-.17-1.29-.5-.44-.81-.44-1.42v-3.36h1.61v3.37c0,.44.22.67.65.67.37,0,.63-.13.79-.4v-3.63h1.62v5.18h-1.51l-.05-.56Z"/>
    <path class="st0" d="M26.77,38.89c-.06-.11-.11-.26-.15-.46-.3.37-.71.56-1.24.56-.49,0-.9-.15-1.24-.44s-.51-.67-.51-1.11c0-.56.21-.99.62-1.27s1.02-.43,1.81-.43h.5v-.27c0-.48-.21-.72-.62-.72-.38,0-.57.19-.57.57h-1.61c0-.5.21-.91.64-1.22s.97-.47,1.63-.47,1.18.16,1.57.48.58.76.59,1.33v2.29c0,.48.08.84.22,1.09v.08h-1.61ZM25.76,37.84c.2,0,.37-.04.5-.13s.23-.18.28-.29v-.83h-.47c-.56,0-.84.25-.84.76,0,.15.05.27.15.36s.23.14.38.14Z"/>
    <path class="st0" d="M31.06,33.71l.05.61c.36-.47.85-.7,1.48-.7.54,0,.94.16,1.21.48s.4.81.41,1.46v3.34h-1.62v-3.27c0-.26-.05-.45-.16-.58s-.3-.18-.57-.18c-.32,0-.55.12-.7.37v3.66h-1.61v-5.18h1.51Z"/>
    <path class="st0" d="M37.52,32.42v1.29h.85v1.12h-.85v2.37c0,.19.04.33.11.41s.21.11.42.11c.16,0,.29,0,.4-.03v1.15c-.29.09-.59.14-.91.14-.56,0-.97-.13-1.23-.39s-.4-.66-.4-1.19v-2.57h-.66v-1.12h.66v-1.29h1.61Z"/>
    <path class="st0" d="M42.62,38.33c-.34.44-.8.66-1.38.66s-1-.17-1.29-.5-.44-.81-.44-1.42v-3.36h1.61v3.37c0,.44.22.67.65.67.37,0,.63-.13.79-.4v-3.63h1.62v5.18h-1.51l-.05-.56Z"/>
    <path class="st0" d="M47.12,33.71l.05.61c.37-.47.86-.7,1.48-.7.65,0,1.1.26,1.33.78.35-.52.86-.78,1.52-.78,1.05,0,1.59.64,1.62,1.91v3.37h-1.62v-3.27c0-.26-.04-.46-.13-.58s-.25-.18-.49-.18c-.32,0-.56.14-.71.43v.07s0,3.54,0,3.54h-1.62v-3.26c0-.27-.04-.47-.13-.59s-.25-.18-.49-.18c-.31,0-.55.14-.71.43v3.6h-1.61v-5.18h1.51Z"/>
  </g>
  <g>
    <path class="st0" d="M11.33,42.52l.69,2.16.69-2.16h.98v3.1h-.75v-.72l.07-1.48-.75,2.2h-.49l-.75-2.21.07,1.48v.72h-.74v-3.1h.98Z"/>
    <path class="st0" d="M17.88,42.52v2.03c0,.23-.05.43-.15.6-.1.17-.24.3-.42.38-.18.09-.4.13-.65.13-.38,0-.67-.1-.89-.29s-.33-.46-.33-.8v-2.04h.75v2.06c0,.34.17.51.47.51.15,0,.27-.04.35-.13.08-.09.12-.22.12-.41v-2.02h.74Z"/>
    <path class="st0" d="M22.06,43.1h-.93v2.52h-.74v-2.52h-.91v-.58h2.58v.58Z"/>
    <path class="st0" d="M26.09,42.52v2.03c0,.23-.05.43-.15.6-.1.17-.24.3-.42.38-.18.09-.4.13-.65.13-.38,0-.67-.1-.89-.29s-.33-.46-.33-.8v-2.04h.75v2.06c0,.34.17.51.47.51.15,0,.27-.04.35-.13.08-.09.12-.22.12-.41v-2.02h.74Z"/>
    <path class="st0" d="M29.56,45.04h-1.02l-.18.58h-.79l1.13-3.1h.7l1.14,3.1h-.8l-.18-.58ZM28.72,44.46h.66l-.33-1.07-.33,1.07Z"/>
    <path class="st0" d="M32.81,45.05h1.29v.57h-2.04v-3.1h.74v2.52Z"/>
    <path class="st0" d="M40.18,44.39h-1.28v1.23h-.79v-3.1h2.2v.58h-1.41v.71h1.28v.57Z"/>
    <path class="st0" d="M44.52,42.52v2.03c0,.23-.05.43-.15.6s-.25.3-.43.38c-.19.09-.41.13-.67.13-.39,0-.69-.1-.92-.29s-.34-.46-.34-.8v-2.04h.77v2.06c0,.34.17.51.49.51.16,0,.28-.04.36-.13.08-.09.12-.22.12-.41v-2.02h.77Z"/>
    <path class="st0" d="M49.01,45.62h-.76l-1.13-1.93v1.93h-.77v-3.1h.77l1.13,1.93v-1.93h.77v3.1Z"/>
    <path class="st0" d="M50.84,45.62v-3.1h1.01c.28,0,.52.06.75.19.22.12.39.3.52.53.12.23.19.48.19.76v.14c0,.28-.06.54-.18.76-.12.22-.29.4-.51.53-.22.13-.47.19-.74.19h-1.03ZM51.59,43.1v1.95h.26c.22,0,.38-.08.5-.23.12-.15.17-.38.17-.68v-.13c0-.3-.06-.52-.17-.68-.12-.15-.29-.23-.51-.23h-.25Z"/>
  </g>
</svg>