<?xml version="1.0" encoding="utf-8"?>
<!-- Generator: Adobe Illustrator 27.9.0, SVG Export Plug-In . SVG Version: 6.00 Build 0)  -->
<svg version="1.1" id="Layer_1" xmlns="http://www.w3.org/2000/svg" xmlns:xlink="http://www.w3.org/1999/xlink" x="0px" y="0px"
	 viewBox="0 0 64 64" style="enable-background:new 0 0 64 64;" xml:space="preserve">
<style type="text/css">
	.st0{fill:#3E73B9;}
	.st1{fill:#E92F2A;}
	.st2{fill:#454546;}
	.st3{fill-rule:evenodd;clip-rule:evenodd;fill:#E92F2A;}
	.st4{fill-rule:evenodd;clip-rule:evenodd;fill:#3E73B9;}
	.st5{fill:url(#SVGID_1_);}
</style>
<path class="st3" d="M56.9,32.7C61,36.9,63,41.9,63,47.8v15.5c-3,0-5.5-1-7.6-3.1s-3.1-4.6-3.1-7.6v-2.4c0-3.5-1.2-6.5-3.7-8.9
	c-2.5-2.4-5.5-3.6-9-3.6h-2v4.3c0,5.8-2.1,10.8-6.3,14.9C27.1,61,22.1,63,16.2,63H0.7c0-3,1-5.5,3.1-7.6c2.1-2.1,4.6-3.1,7.6-3.1
	h2.4c3.5,0,6.5-1.2,8.9-3.7c2.4-2.5,3.6-5.5,3.6-9v-2h-4.3c-5.8,0-10.8-2.1-14.9-6.3C3,27.1,1,22.1,1,16.2V0.7c3,0,5.5,1.1,7.6,3.2
	c2.1,2.1,3.1,4.7,3.1,7.7v2.4c0,3.5,1.2,6.4,3.7,8.9c2.5,2.5,5.5,3.7,9,3.7h2v-4.4c0-5.8,2.1-10.8,6.3-14.9C36.9,3,41.9,1,47.8,1
	h15.5c0,3-1,5.5-3.2,7.6c-2.1,2.1-4.7,3.1-7.7,3.1h-2.3c-3.5,0-6.4,1.2-8.9,3.7c-2.5,2.5-3.7,5.5-3.7,9v2h4.4
	C47.8,26.4,52.8,28.5,56.9,32.7z"/>
</svg>
