<?xml version="1.0" encoding="UTF-8"?>
<svg id="Layer_1" xmlns="http://www.w3.org/2000/svg" version="1.1" viewBox="0 0 64 64">
  <!-- Generator: Adobe Illustrator 29.5.1, SVG Export Plug-In . SVG Version: 2.1.0 Build 141)  -->
  <defs>
    <style>
      .st0 {
        fill: #0087cd;
        fill-rule: evenodd;
      }
    </style>
  </defs>
  <path class="st0" d="M31.9,41.6c-1.2,11.2-4.2,17.1-9.3,21.5h18.7c-5.1-4.4-8.1-10.4-9.3-21.5M46.7,24.9c7.3,0,13.2,5.7,13.2,12.7s-5.4,12.1-12.2,12.6v-10c1.1-.4,1.9-1.4,1.9-2.6s-1.3-2.8-2.9-2.8-2.9,1.3-2.9,2.8.8,2.2,1.9,2.6v10c-6.8-.5-12.2-6-12.2-12.6s5.9-12.7,13.2-12.7ZM17.3,24.9c7.3,0,13.2,5.7,13.2,12.7s-5.4,12.1-12.2,12.6v-10c1.1-.4,1.9-1.4,1.9-2.6s-1.3-2.8-2.9-2.8-2.9,1.3-2.9,2.8.8,2.2,1.9,2.6v10c-6.8-.5-12.2-6-12.2-12.6s5.9-12.7,13.2-12.7ZM32.2,1.2c7.3,0,13.2,5.7,13.2,12.6s-5.4,12.1-12.2,12.6v-10c1.1-.4,1.9-1.4,1.9-2.6s-1.3-2.8-2.9-2.8-2.9,1.3-2.9,2.8.8,2.2,1.9,2.6v10c-6.8-.5-12.2-6-12.2-12.6S25,1.2,32.2,1.2Z"/>
</svg>