<?xml version="1.0" encoding="UTF-8"?>
<svg id="Layer_2" data-name="Layer 2" xmlns="http://www.w3.org/2000/svg" viewBox="0 0 64 64">
  <defs>
    <style>
      .cls-1 {
        fill: #fff;
      }

      .cls-1, .cls-2 {
        fill-rule: evenodd;
      }

      .cls-3 {
        fill: #0075c9;
      }

      .cls-4 {
        fill: none;
      }

      .cls-5 {
        fill: #323e48;
      }

      .cls-6 {
        fill: #231f20;
      }

      .cls-7 {
        fill: #ffcb05;
      }
    </style>
  </defs>
  <g id="Layer_1-2" data-name="Layer 1">
    <g>
      <g>
        <rect class="cls-7" x=".63" y="30.3" width="62.75" height="6.09"/>
        <g>
          <path class="cls-2" d="m15.53,34.24l-.41-3.3-1.52.16c.1-.28.12-.52.06-.75l.1-.14c.14-1.11.2-2.37.32-3.52.08-.76-.3-1.05-.67-1.17l-2.9-1.38c-.06-.32.02-.69.36-.85.11-.05.22-.18.23-.45.04-.59-.23-.59-.26-.71-.02-.2.04-.39.21-.55.28-.28.4-.64.26-.95-.4-.89-.98-.42-1.12-.46-.16-.06-.2-.16-.24-.24-.28-.61-1.32-.89-2.07-.89-.67,0-1.25.17-1.72.73-.54.41-.83,1.12-.44,2,.04.12.06.41,0,.47-.14.12-.28.2-.41.24-.35-.57-.59-1.42-.84-1.95-.02-.16.04-.42.08-.63.06-.22.02-.47-.04-.61-.1-.53-.24-1.03-.4-1.56-.14-.51-.28-.65-.49-.64-.29.01-.38.37-.35.9-.22.04-.43.18-.57.38-.22-.08-.38-.02-.51.18-.15-.04-.27,0-.37.1-.11.1-.17.25-.16.4,0,.34.13.57.38.73-.12.28.04.65.35,1.09,0,.04-.04.08-.08.12l-.18.17.71,2.77c.16.81.31,1.86.47,3.02.04.35.06.67,0,.97l-.59,3.68c.22.22,1.16.49,2.33.75l.08.64-2.33.59c-.15.08-.14.44.08.46l4.32-.45.16-.66c.1-.12.25-.14.42-.02l.49,1.52,3.31.89c.18.04.33.04.41-.04.1-.1.1-.3,0-.53l3.55-.55Zm-9.97-1.49h0l-.04-.53.33-.02.06.52-.35.02Zm4.21.63h0v-.56c.14-.06.3-.13.43-.22.12,0,.22.06.32.2l.2,1.13c-.33-.12-.67-.42-.95-.54"/>
          <path class="cls-1" d="m9.26,21.7c.14,0,.23.1.23.25s-.1.24-.23.24-.24-.1-.24-.24.1-.25.24-.25m-1.61-1.24h0c.31.08.55.08.78-.08.1.06.24.11.37.1.42-.05.78-.18,1.04.14.04.12,0,.21-.12.26-.53-.16-.74,0-1.01.48.02.12.19.04.39-.12.12-.15.29-.21.39-.16l.55.1c.16,0,.3.2.27.48.02.64-.15,1.23-.09,2.35,0,.13-.01.23-.06.3-.05.09-.14.14-.24.16-.53.1-1.06.21-1.59.34-.19.03-.37.03-.57-.04-.39-.12-.88-.24-1.16-.42-.26-.14-.4-.42-.37-.81.02-.34.14-.62.12-1.07l-.1-1.28c.04-.36.18-.61.53-.61.06.02.12.14.12.23-.1.14-.18.3-.23.46-.02.14.12.22.23.1.1-.2.25-.3.55-.2.22.18.35.38.35.68-.02.3-.02.5-.04.78,0,.12.02.2.12.24.06.05.06.14.04.2-.1.08-.2.12-.29.1-.24-.06-.45-.2-.65-.38-.07-.12-.21,0-.17.12l.35.34c.21.2.35.8,1.08.8.72.04.86-.48,1.03-.72.08-.12.16-.26.28-.38.12-.02.19-.06.24-.16-.04-.1-.14-.2-.24-.16-.06,0-.04.04-.1.1l-.1.18c-.59.4-.82.34-.9.1l.21-.22c.06-.14-.04-.2-.12-.16-.26.16-.49.16-.59-.12.02-.28.08-.62.06-.89-.06-.32-.23-.59-.61-.84-.13-.1-.07-.42.23-.34m-.47,1.31h0c.14,0,.25.1.25.24s-.12.24-.25.24c-.12,0-.24-.1-.24-.24s.12-.24.24-.24m.61,1.61h1c.08,0,.12.04.1.12-.1.28-.32.4-.61.4-.27.02-.47-.1-.61-.28-.12-.16-.06-.24.12-.24m.94,1.63h0c.41-.08.81-.19,1.15-.31.14-.06.28-.02.25.15-.07.3-.31.72-.54,1.02-.14.16-.29.16-.49,0-.21-.18-.41-.4-.53-.64-.02-.16.04-.24.16-.22m-1.06.04h0c-.41-.1-.59-.24-.94-.37-.13-.06-.29,0-.23.24.06.3.21.6.61.97.14.12.1.08.26,0,.21-.18.33-.36.45-.6.04-.16,0-.22-.14-.24m-3.95-6.85h0c-.08-.32-.12-.58-.14-.8,0-.14.03-.2.12-.19.07,0,.12.05.15.12.11.25.21.58.25.98l-.37-.1Zm-.26-.21h0c-.17-.02-.27.03-.33.24-.06.26,0,.56.24.89.12.08.18.04.21-.1-.19-.38-.08-.8-.12-1.02m-.63.32h0c-.22-.08-.29.05-.31.24-.02.58.23.85.53.56-.14-.28-.22-.56-.22-.81m-.59.3h0c-.14-.06-.18.02-.2.16-.02.42.22.74.39.54-.12-.2-.18-.52-.2-.71m.8.75h0c.14-.12.19-.04.25.12.02.12.08.24.22.36.08.1.21.2.27.3.08-.02.14-.12.08-.22-.24-.18-.28-.24-.26-.48.02-.16.16-.24.37-.3-.16-.18-.28-.36-.25-.54.02-.14.17-.18.29-.08.14.08.24.24.39.66.06.14.08.28.04.44-.12.7-.7.93-1.11.66-.12.18-.35.22-.53.16-.31-.16-.35-.4-.35-.7-.02-.16.04-.24.14-.28.12-.04.37-.04.45-.1m8.71,11.96h0l3.1-.24.29,2.41-3.04.44-.35-2.61Zm-1.05.06h0l.74-.04.31,2.59c-.21.1-.47.08-.74-.04l-.31-2.52Zm.63-1.12c-.04-.4.16-.7.37-.87.13-.1.35-.12.52.02.12-.02.25.02.39.14.12-.02.24.04.35.14.32.12.56.13.47.56-.03.15-.13.27-.28.39-.19.16-.39.2-.43-.02,0,0-.25.22-.36.26-.31.12-.22-.26-.26-.54-.05-.39-.29-.42-.37-.22-.04.38-.38.43-.43.16,0,0,0-.02,0-.02Z"/>
        </g>
        <path d="m22.59,27.01c0,.92-.08,1.85-1.19,2.16-.26.09-1.13.12-1.8.12-.09,0-.18,0-.27,0-.69,0-1.19-.04-1.48-.1-.3-.07-.55-.2-.74-.37-.58-.49-.58-1.34-.57-2.09v-.03h.97v.03c0,.09,0,.17,0,.26,0,.52.01,1.01.39,1.25.11.06.29.1.53.13.25.03.77.04,1.54.04.07,0,.14,0,.21,0,.53-.01.92-.02,1.25-.32.15-.2.15-.45.16-.77,0-.05,0-.1,0-.15,0-.07,0-.14,0-.2-.03-.72-.04-.92-.76-1l-2.3-.18c-.7-.05-1.2-.23-1.48-.53-.46-.4-.51-1.89-.28-2.52.39-1.01,1.14-1.02,2.19-1.04.12,0,.24,0,.37,0,1.2,0,2.24,0,2.77.56.33.35.45.9.38,1.69v.03h-.96v-.03c0-.08,0-.15,0-.23,0-.33,0-.66-.18-.87-.09-.09-.27-.15-.52-.19-.26-.04-.77-.06-1.5-.06s-1.22.08-1.41.24c-.11.07-.2.29-.25.59-.07.5,0,1.03.15,1.2.12.14.35.23.7.26l2.35.19c1.29.12,1.71.6,1.73,1.96Zm6.17-5.33v3.23h-4.17v-3.23h-.96v7.61h.96v-3.47h4.17v3.47h.96v-7.61h-.96Zm6.93,4.25c.64.25.76.67.78,1.49v1.87h-1v-1.61c0-.52-.08-.87-.24-1.04-.15-.17-.47-.26-.94-.26h-2.58v2.92h-.96v-7.61h3.44c.85,0,1.45.13,1.78.39.33.26.5.73.5,1.39v1.13c0,.73-.26,1.16-.78,1.35Zm-.21-2.33c0-.38-.09-.64-.25-.78-.17-.14-.57-.21-1.19-.21h-2.32v2.86h2.32c.6,0,1-.07,1.18-.22.17-.14.26-.4.26-.78v-.87Zm2.04-1.92v7.61h.97v-7.61h-.97Zm6.94,4.25c.64.25.76.67.78,1.49v1.87h-1v-1.61c0-.52-.08-.87-.24-1.04-.16-.17-.47-.26-.94-.26h-2.58v2.92h-.96v-7.61h3.44c.85,0,1.45.13,1.78.39.33.26.5.73.5,1.39v1.13c0,.73-.26,1.16-.78,1.35Zm-.21-2.33c0-.38-.09-.64-.25-.78-.17-.14-.57-.21-1.19-.21h-2.32v2.86h2.32c.6,0,1-.07,1.18-.22.17-.14.26-.4.26-.78v-.87Zm9.12,5.69h-1l-.71-1.92h-3.69l-.69,1.92h-1v-.03s2.77-7.49,2.8-7.56v-.02h1.46l2.82,7.61Zm-2.02-2.79l-1.44-3.9h-.17l-1.43,3.9h3.04Zm11.02-4.82h-1.48l-2.49,6.54-2.51-6.54h-1.47v7.61h.96v-6.48c.4,1.04,2.45,6.46,2.46,6.48h0s1.12,0,1.12,0l2.46-6.48v6.48h.96v-7.61Z"/>
        <g>
          <path d="m17.33,34.96l1.31-3.56h.65l1.32,3.56h-.41l-.34-.91h-1.8l-.33.91h-.41Zm.87-1.26h1.54l-.71-1.92h-.13l-.7,1.92Z"/>
          <path d="m20.86,34.21h.38v.06c0,.15.05.26.14.32.1.06.29.09.58.09.32,0,.52-.03.6-.09.07-.06.11-.17.11-.34s-.03-.27-.09-.33-.21-.09-.46-.1c-.09,0-.21,0-.37-.01-.34,0-.54-.03-.6-.07-.1-.05-.16-.12-.2-.22-.04-.09-.06-.22-.06-.39,0-.28.07-.47.21-.57.14-.1.45-.15.94-.15.37,0,.63.05.76.14.13.09.2.26.2.49h-.37v-.02c0-.11-.05-.19-.14-.23-.1-.04-.29-.06-.57-.06s-.45.03-.53.08c-.08.05-.11.16-.11.32,0,.1,0,.17.02.21.01.04.04.07.08.09.07.04.24.06.5.07.07,0,.12,0,.15,0,.21,0,.38.02.49.03.12.01.2.03.26.06.11.05.19.12.24.22s.07.23.07.42-.02.32-.07.42c-.05.1-.13.18-.25.25-.05.04-.14.06-.27.08s-.29.02-.51.02c-.45,0-.74-.05-.89-.15-.14-.1-.22-.29-.22-.56v-.07Z"/>
          <path d="m23.61,34.21h.38v.06c0,.15.05.26.14.32.1.06.29.09.58.09.32,0,.52-.03.6-.09.07-.06.11-.17.11-.34s-.03-.27-.09-.33-.21-.09-.46-.1c-.09,0-.21,0-.37-.01-.34,0-.54-.03-.6-.07-.1-.05-.16-.12-.2-.22-.04-.09-.06-.22-.06-.39,0-.28.07-.47.21-.57.14-.1.45-.15.94-.15.37,0,.63.05.76.14.13.09.2.26.2.49h-.37v-.02c0-.11-.05-.19-.14-.23-.1-.04-.29-.06-.57-.06s-.45.03-.53.08c-.08.05-.11.16-.11.32,0,.1,0,.17.02.21.01.04.04.07.08.09.07.04.24.06.5.07.07,0,.12,0,.15,0,.21,0,.38.02.49.03.12.01.2.03.26.06.11.05.19.12.24.22s.07.23.07.42-.02.32-.07.42c-.05.1-.13.18-.25.25-.05.04-.14.06-.27.08s-.29.02-.51.02c-.45,0-.74-.05-.89-.15-.14-.1-.22-.29-.22-.56v-.07Z"/>
          <path d="m27.37,34.99c-.38,0-.64-.07-.79-.22-.15-.15-.22-.4-.22-.77v-.6c0-.37.07-.63.22-.77.15-.15.41-.22.78-.22h.17c.38,0,.64.07.79.22.15.15.22.4.22.77v.38h-1.81s0,.06,0,.09c0,.03,0,.07,0,.13,0,.26.04.43.12.52.08.09.25.13.5.13h.17c.22,0,.38-.03.47-.1.09-.06.14-.18.15-.34h.39c-.02.27-.11.47-.26.59-.16.12-.4.18-.74.18h-.17Zm-.63-1.54h1.42v-.1c0-.24-.04-.4-.13-.48-.08-.08-.25-.13-.5-.13h-.17c-.25,0-.41.04-.5.13-.08.08-.12.24-.12.48v.1Z"/>
          <path d="m28.88,32.76v-.32h.31v-.57h.37v.57h1.23v.32h-1.23v1.39c0,.2.03.33.1.4.06.07.19.11.37.11s.3-.03.36-.1c.06-.07.09-.2.09-.41v-.07h.38v.02c0,.35-.06.59-.18.71-.12.12-.36.18-.73.18-.29,0-.49-.06-.6-.19-.11-.13-.17-.36-.17-.7v-1.33h-.31Z"/>
          <path d="m33.04,34.96v-3.56h.65l1.22,3.17,1.21-3.17h.65v3.56h-.39v-3.23l-1.23,3.23h-.49l-1.23-3.23v3.23h-.39Z"/>
          <path d="m39.15,34.69c-.06.1-.15.18-.27.23s-.3.07-.52.07c-.39,0-.66-.06-.79-.17s-.2-.32-.2-.63c0-.18.02-.32.05-.42.03-.1.08-.18.15-.24.06-.05.15-.09.27-.11.12-.02.29-.03.51-.03s.4.02.52.06c.12.04.21.1.27.19v-.43c0-.21-.04-.34-.12-.4-.08-.06-.28-.09-.6-.09-.23,0-.39.02-.46.07-.08.05-.12.14-.12.27h-.37v-.06c0-.21.07-.37.21-.46.14-.09.38-.14.72-.14.27,0,.47.01.61.03.14.02.24.06.31.11.07.06.13.13.16.21.03.08.05.23.05.43v1.76h-.34v-.27Zm-.02-.38v-.27c0-.12-.06-.21-.18-.26-.12-.06-.32-.08-.58-.08-.24,0-.41.03-.49.09-.08.06-.12.18-.12.35,0,.2.04.33.13.4.09.07.26.1.52.1.23,0,.41-.03.54-.08.12-.06.19-.14.19-.24Z"/>
          <path d="m40.15,34.96v-2.52h.36v.34c.06-.13.16-.22.29-.29.13-.06.31-.09.53-.09.33,0,.56.07.69.2s.2.37.2.7v1.65h-.37v-1.57c0-.26-.04-.44-.12-.52-.08-.08-.23-.12-.45-.12-.26,0-.46.06-.58.18-.12.12-.18.31-.18.57v1.46h-.37Z"/>
          <path d="m44.54,34.69c-.06.1-.15.18-.27.23s-.3.07-.52.07c-.39,0-.66-.06-.79-.17s-.2-.32-.2-.63c0-.18.02-.32.05-.42.03-.1.08-.18.15-.24.06-.05.15-.09.27-.11.12-.02.29-.03.51-.03s.4.02.52.06c.12.04.21.1.27.19v-.43c0-.21-.04-.34-.12-.4-.08-.06-.28-.09-.6-.09-.23,0-.39.02-.46.07-.08.05-.12.14-.12.27h-.37v-.06c0-.21.07-.37.21-.46.14-.09.38-.14.72-.14.27,0,.47.01.61.03.14.02.24.06.31.11.07.06.13.13.16.21.03.08.05.23.05.43v1.76h-.34v-.27Zm-.02-.38v-.27c0-.12-.06-.21-.18-.26-.12-.06-.32-.08-.58-.08-.24,0-.41.03-.49.09-.08.06-.12.18-.12.35,0,.2.04.33.13.4.09.07.26.1.52.1.23,0,.41-.03.54-.08.12-.06.19-.14.19-.24Z"/>
          <path d="m47.64,32.44v2.49c0,.37-.07.63-.22.77-.15.15-.4.22-.76.22h-.17c-.33,0-.57-.06-.72-.18s-.24-.32-.26-.59h.38c.02.16.07.27.15.34.08.06.23.09.45.09h.17c.22,0,.38-.04.47-.11s.14-.19.14-.35v-.52c-.07.14-.17.24-.29.3-.12.06-.29.09-.5.09-.36,0-.61-.07-.76-.22-.15-.15-.22-.4-.22-.77v-.6c0-.37.07-.62.22-.77.15-.15.4-.22.76-.22.22,0,.39.03.51.1.13.07.22.18.28.32v-.39h.36Zm-.37,1.46v-.41c0-.26-.06-.45-.18-.57-.12-.12-.32-.18-.59-.18-.24,0-.41.04-.49.13-.08.09-.12.29-.12.61v.43c0,.32.04.52.12.61.08.09.24.13.49.13.27,0,.46-.06.59-.18.12-.12.18-.31.18-.57Z"/>
          <path d="m49.23,34.99c-.38,0-.64-.07-.79-.22-.15-.15-.22-.4-.22-.77v-.6c0-.37.07-.63.22-.77.15-.15.41-.22.78-.22h.17c.38,0,.64.07.79.22.15.15.22.4.22.77v.38h-1.81s0,.06,0,.09,0,.07,0,.13c0,.26.04.43.12.52.08.09.25.13.5.13h.17c.22,0,.38-.03.47-.1s.14-.18.15-.34h.39c-.02.27-.11.47-.26.59-.16.12-.4.18-.74.18h-.17Zm-.63-1.54h1.42v-.1c0-.24-.04-.4-.13-.48s-.25-.13-.5-.13h-.17c-.25,0-.41.04-.5.13-.08.08-.12.24-.12.48v.1Z"/>
          <path d="m51.04,34.96v-2.52h.36v.34c.05-.13.14-.22.26-.29.12-.06.29-.09.49-.09.21,0,.38.03.5.1.12.07.21.17.27.32.07-.15.17-.25.29-.32.12-.07.28-.1.47-.1.33,0,.56.07.69.2.13.13.19.37.19.7v1.65h-.37v-1.53c0-.28-.04-.46-.11-.55s-.21-.13-.42-.13c-.23,0-.4.06-.51.18-.11.12-.16.31-.16.57v1.46h-.36v-1.7c0-.2-.04-.33-.11-.4-.07-.07-.21-.11-.41-.11-.24,0-.41.06-.53.18-.11.12-.17.31-.17.57v1.46h-.37Z"/>
          <path d="m56.12,34.99c-.38,0-.64-.07-.79-.22-.15-.15-.22-.4-.22-.77v-.6c0-.37.07-.63.22-.77.15-.15.41-.22.78-.22h.17c.38,0,.64.07.79.22.15.15.22.4.22.77v.38h-1.81s0,.06,0,.09,0,.07,0,.13c0,.26.04.43.12.52.08.09.25.13.5.13h.17c.22,0,.38-.03.47-.1s.14-.18.15-.34h.39c-.02.27-.11.47-.26.59-.16.12-.4.18-.74.18h-.17Zm-.63-1.54h1.42v-.1c0-.24-.04-.4-.13-.48s-.25-.13-.5-.13h-.17c-.25,0-.41.04-.5.13-.08.08-.12.24-.12.48v.1Z"/>
          <path d="m57.88,34.96v-2.52h.36v.34c.06-.13.16-.22.29-.29.13-.06.31-.09.53-.09.33,0,.56.07.69.2s.2.37.2.7v1.65h-.37v-1.57c0-.26-.04-.44-.12-.52-.08-.08-.23-.12-.45-.12-.26,0-.46.06-.58.18-.12.12-.18.31-.18.57v1.46h-.37Z"/>
          <path d="m60.35,32.76v-.32h.31v-.57h.37v.57h1.23v.32h-1.23v1.39c0,.2.03.33.1.4.06.07.19.11.37.11s.3-.03.36-.1c.06-.07.09-.2.09-.41v-.07h.38v.02c0,.35-.06.59-.18.71-.12.12-.36.18-.73.18-.29,0-.49-.06-.6-.19-.11-.13-.17-.36-.17-.7v-1.33h-.31Z"/>
        </g>
      </g>
      <g>
        <path class="cls-6" d="m39.85,40.68l-.55-1.57-.55,1.57h1.1Zm.08.23h-1.26l-.19.54h-.3l.9-2.56h.4l.93,2.56h-.29l-.19-.54Zm-2-2.02v2.56h-.28v-1.18h-1.45v1.18h-.28v-2.56h.28v1.13h1.45v-1.13h.28Zm-2.4.7h-.27c0-.09-.02-.17-.03-.23-.02-.06-.04-.11-.07-.14-.03-.03-.08-.05-.14-.07-.06-.02-.14-.02-.24-.02h-.13s-.04,0-.05,0c-.02,0-.04,0-.06,0h-.06s-.02,0-.03,0h-.03s-.05,0-.08,0c-.03,0-.05,0-.08.01-.02,0-.05.01-.07.02-.02,0-.04.02-.05.03-.02.01-.04.03-.05.05-.01.02-.03.04-.04.06,0,.01,0,.02-.01.03,0,.01,0,.02,0,.03,0,.01,0,.02,0,.03,0,.01,0,.02,0,.03,0,.01,0,.02,0,.03,0,.01,0,.02,0,.03v.06c0,.07,0,.13.01.19.01.05.03.1.05.13.02.04.06.06.11.08.05.02.12.03.2.04.01,0,.03,0,.04,0,.01,0,.03,0,.04,0,.01,0,.03,0,.04,0h.2c.12,0,.24.01.34.03.1.02.2.04.29.07.09.03.15.1.2.19.04.1.07.23.07.4,0,.1,0,.19-.02.27-.01.08-.04.16-.06.23-.03.07-.08.12-.15.16-.07.04-.16.06-.27.07h-.03s-.02,0-.03,0h-.06s-.04,0-.06,0c-.02,0-.04,0-.06,0h-.03s-.02,0-.03,0h-.18c-.13,0-.25,0-.35-.02-.11-.02-.2-.04-.29-.07-.08-.04-.15-.1-.19-.2-.04-.1-.06-.23-.06-.39v-.05s0-.01,0-.02v-.03h0s0-.01,0-.02h0v-.02h.27c0,.11,0,.21.02.29.02.08.04.13.07.17.03.04.09.06.16.08.07.02.17.03.28.03h.23s.02,0,.02,0h.03c.09,0,.17,0,.23-.02.06-.01.11-.03.15-.06.04-.03.07-.08.09-.14.02-.07.03-.15.03-.26,0-.08,0-.16-.02-.21-.01-.06-.03-.1-.06-.13-.02-.03-.06-.05-.12-.07-.05-.02-.12-.03-.2-.03h-.03s-.02,0-.03,0h-.08s-.02,0-.03,0h-.06c-.13,0-.25-.02-.37-.03-.11-.02-.22-.04-.31-.08-.1-.03-.17-.1-.22-.2-.05-.1-.07-.24-.07-.41,0-.15.02-.28.06-.38.04-.1.1-.16.17-.2.08-.04.17-.07.27-.09.1-.02.22-.03.35-.03h.07c.13,0,.25,0,.35.03.11.02.2.04.29.07.08.03.15.09.19.19.04.1.06.23.06.39v.03Zm-3.2,1.51v.38c0,.05,0,.1-.01.14,0,.04-.02.08-.04.11-.01.03-.04.05-.07.07-.03.02-.08.02-.13.02h-.04s0,0,0,0c0,0,0,0,0,0h-.03v-.14s.06,0,.08-.02c.02,0,.04-.02.05-.03.01-.01.02-.03.03-.05,0-.02,0-.05,0-.08h0v-.02h0s0-.02,0-.02h0s-.12,0-.12,0v-.35h.29Zm-1.34-1.94v2.28h-.29v-2.28h-.81v-.27h1.89v.27h-.8Zm-1.26.43h-.27c0-.09-.02-.17-.03-.23-.02-.06-.04-.11-.07-.14-.03-.03-.08-.05-.14-.07-.06-.02-.14-.02-.24-.02h-.13s-.04,0-.05,0c-.02,0-.04,0-.06,0h-.06s-.02,0-.03,0h-.03s-.05,0-.08,0c-.03,0-.05,0-.08.01-.02,0-.05.01-.07.02-.02,0-.04.02-.05.03-.02.01-.04.03-.05.05-.01.02-.03.04-.04.06,0,.01,0,.02-.01.03,0,.01,0,.02,0,.03,0,.01,0,.02,0,.03,0,.01,0,.02,0,.03,0,.01,0,.02,0,.03,0,.01,0,.02,0,.03v.06c0,.07,0,.13.01.19.01.05.03.1.05.13.02.04.06.06.11.08.05.02.12.03.2.04.01,0,.03,0,.04,0,.01,0,.03,0,.04,0,.01,0,.03,0,.04,0h.2c.12,0,.24.01.34.03.1.02.2.04.29.07.09.03.15.1.2.19.04.1.07.23.07.4,0,.1,0,.19-.02.27-.01.08-.04.16-.06.23-.03.07-.08.12-.15.16-.07.04-.16.06-.27.07h-.03s-.02,0-.03,0h-.06s-.04,0-.06,0c-.02,0-.04,0-.06,0h-.03s-.02,0-.03,0h-.18c-.13,0-.25,0-.35-.02-.11-.02-.2-.04-.29-.07-.08-.04-.15-.1-.19-.2-.04-.1-.06-.23-.06-.39v-.05s0-.01,0-.02v-.03h0s0-.01,0-.02h0v-.02h.27c0,.11,0,.21.02.29.02.08.04.13.07.17.03.04.09.06.16.08.07.02.17.03.28.03h.23s.02,0,.02,0h.03c.09,0,.17,0,.23-.02.06-.01.11-.03.15-.06.04-.03.07-.08.09-.14.02-.07.03-.15.03-.26,0-.08,0-.16-.02-.21-.01-.06-.03-.1-.06-.13-.02-.03-.06-.05-.12-.07-.05-.02-.12-.03-.2-.03h-.03s-.02,0-.03,0h-.08s-.02,0-.03,0h-.06c-.13,0-.25-.02-.37-.03-.11-.02-.22-.04-.31-.08-.1-.03-.17-.1-.22-.2-.05-.1-.07-.24-.07-.41,0-.15.02-.28.06-.38.04-.1.1-.16.17-.2.08-.04.17-.07.27-.09.1-.02.22-.03.35-.03h.07c.13,0,.25,0,.35.03.11.02.2.04.29.07.08.03.15.09.19.19.04.1.06.23.06.39v.03Zm-2.45-.7h.28v1.79c0,.14-.01.25-.04.35-.02.1-.06.18-.11.24-.05.06-.12.11-.21.14-.09.03-.21.05-.35.05h-.04s-.02,0-.03,0h-.1s-.02,0-.03,0h-.07c-.15,0-.29,0-.41-.03-.12-.02-.22-.04-.31-.08-.09-.04-.15-.11-.2-.22-.04-.11-.07-.26-.07-.45v-1.8h.28v1.79c0,.11,0,.21.03.28.02.07.05.13.08.16.04.03.09.06.16.07.07.02.16.02.26.02h.27c.11,0,.2,0,.28-.02.08-.02.14-.04.18-.07.04-.03.07-.08.1-.16.02-.07.03-.17.03-.29v-1.8Zm-3.74,1.29h.81s.01,0,.02,0h.02c.08,0,.16,0,.22-.02.06-.02.11-.04.15-.07.04-.03.07-.08.09-.14.02-.07.03-.15.03-.24,0-.09,0-.17-.02-.24-.01-.07-.03-.13-.05-.17-.02-.05-.06-.08-.13-.11-.06-.02-.14-.04-.25-.04h-.91s0,1.03,0,1.03Zm-.28,1.27v-2.56h1.18c.13,0,.24.02.33.05.09.03.17.07.23.12.06.06.1.13.13.23.03.1.04.21.04.35,0,.09,0,.17-.01.24,0,.07-.02.14-.04.2-.02.06-.06.11-.12.15-.06.04-.15.07-.26.09.07,0,.13.02.18.05.05.03.09.06.12.1.03.04.05.09.07.15.02.06.02.12.02.19v.64h-.29v-.59c0-.08-.01-.15-.03-.2-.02-.06-.05-.1-.09-.14-.04-.03-.09-.05-.15-.07-.06-.02-.13-.03-.21-.03h-.85s0,1.02,0,1.02h-.28Zm-1.05-2.28v2.28h-.29v-2.28h-.81v-.27h1.89v.27h-.8Zm-3.31,1.02h1.07s0,.05,0,.08c0,.02,0,.05,0,.07v.31c0,.1,0,.2-.02.29-.01.09-.03.17-.06.25-.03.08-.08.14-.15.19-.07.04-.17.07-.28.08-.04,0-.08,0-.13.01-.04,0-.08,0-.13,0h-.07s-.04,0-.06,0h-.13c-.2,0-.37-.01-.5-.04-.14-.03-.24-.07-.31-.13-.07-.06-.13-.16-.16-.29-.04-.13-.05-.29-.05-.49v-.26s0-.06,0-.09v-.35c0-.17.01-.31.04-.43.03-.12.08-.22.14-.29.06-.07.15-.13.26-.16.11-.04.25-.05.42-.05h.22s.02,0,.04,0h.11s.02,0,.04,0h.19c.11,0,.2.02.27.05.07.03.13.07.18.13.04.06.08.12.1.2.02.08.03.17.03.28v.09h-.28c0-.07,0-.14-.01-.2-.01-.06-.02-.11-.04-.16-.02-.04-.05-.08-.1-.1-.05-.02-.12-.04-.2-.04-.04,0-.09,0-.13,0-.04,0-.09,0-.13,0h-.07s-.04,0-.06,0h-.13c-.13,0-.24.01-.32.03-.08.02-.14.05-.18.1-.03.04-.06.11-.07.2-.02.1-.03.22-.03.37v.33s0,.36,0,.36c0,.08,0,.16.01.23,0,.07.02.14.04.21.01.06.05.12.1.16.05.04.13.07.22.08.01,0,.03,0,.05,0,.02,0,.03,0,.05,0,.02,0,.03,0,.05,0h.05s.03,0,.05,0h.3c.12,0,.22,0,.29-.02.08-.02.13-.04.17-.07.03-.03.06-.09.08-.16.02-.08.03-.18.03-.3v-.23h-.79v-.25Zm-1.37-1.29v2.56h-.45l-1.4-2.31v2.31h-.27v-2.56h.45l1.4,2.33v-2.33h.27Zm-2.6,0v2.56h-.28v-2.56h.28Zm-2.33,1.29h.81s.01,0,.02,0h.02c.08,0,.16,0,.22-.02.06-.02.11-.04.15-.07.04-.03.07-.08.09-.14.02-.07.03-.15.03-.24,0-.09,0-.17-.02-.24-.01-.07-.03-.13-.05-.17-.02-.05-.06-.08-.13-.11-.06-.02-.14-.04-.25-.04h-.9s0,1.03,0,1.03Zm-.28,1.27v-2.56h1.18c.13,0,.24.02.33.05.09.03.17.07.23.12.06.06.1.13.13.23.03.1.04.21.04.35,0,.09,0,.17-.01.24,0,.07-.02.14-.04.2-.02.06-.06.11-.12.15-.06.04-.15.07-.26.09.07,0,.13.02.18.05.05.03.09.06.12.1.03.04.05.09.07.15.02.06.02.12.02.19v.64h-.29v-.59c0-.08,0-.15-.03-.2-.02-.06-.05-.1-.09-.14-.04-.03-.09-.05-.15-.07-.06-.02-.13-.03-.21-.03h-.85s0,1.02,0,1.02h-.28Zm-.75-2.56h.28v1.79c0,.14-.01.25-.04.35-.02.1-.06.18-.11.24-.05.06-.12.11-.21.14-.09.03-.21.05-.35.05h-.04s-.02,0-.03,0h-.1s-.02,0-.03,0h-.07c-.15,0-.29,0-.41-.03-.12-.02-.22-.04-.31-.08-.09-.04-.15-.11-.2-.22-.04-.11-.07-.26-.07-.45v-1.8h.28v1.79c0,.11,0,.21.03.28.02.07.05.13.08.16.04.03.09.06.16.07.07.02.16.02.26.02h.27c.11,0,.2,0,.28-.02.08-.02.14-.04.18-.07.04-.03.07-.08.1-.16.02-.07.03-.17.03-.29v-1.8Zm-2.74.27v2.28h-.29v-2.28h-.81v-.27h1.89v.27h-.8Zm-2.92,1.02h.81s.01,0,.02,0h.02c.08,0,.16,0,.22-.02.06-.02.11-.04.15-.07.04-.03.07-.08.1-.14.02-.07.03-.15.03-.24,0-.09,0-.17-.02-.24-.01-.07-.03-.13-.05-.17-.02-.05-.06-.08-.13-.11-.06-.02-.14-.04-.25-.04h-.91s0,1.03,0,1.03Zm-.28,1.27v-2.56h1.18c.13,0,.24.02.33.05.09.03.17.07.23.12.06.06.1.13.13.23.03.1.04.21.04.35,0,.09,0,.17-.01.24,0,.07-.02.14-.04.2-.02.06-.06.11-.12.15-.06.04-.15.07-.26.09.07,0,.13.02.18.05.05.03.09.06.12.1.03.04.05.09.07.15.02.06.02.12.02.19v.64h-.29v-.59c0-.08,0-.15-.03-.2-.02-.06-.05-.1-.09-.14-.04-.03-.09-.05-.15-.07-.06-.02-.13-.03-.21-.03h-.85s0,1.02,0,1.02h-.28Zm-.75-2.56h.28v1.79c0,.14-.01.25-.04.35-.02.1-.06.18-.11.24-.05.06-.12.11-.21.14-.09.03-.21.05-.35.05h-.04s-.02,0-.03,0h-.1s-.02,0-.03,0h-.07c-.15,0-.29,0-.41-.03-.12-.02-.22-.04-.31-.08-.09-.04-.15-.11-.2-.22-.04-.11-.07-.26-.07-.45v-1.8h.28v1.79c0,.11,0,.21.03.28.02.07.05.13.08.16.04.03.09.06.16.07.07.02.16.02.26.02h.27c.11,0,.2,0,.28-.02.08-.02.14-.04.18-.07.04-.03.07-.08.1-.16.02-.07.03-.17.03-.29v-1.8Zm-2.16,0v2.56h-.45l-1.4-2.31v2.31h-.27v-2.56h.45l1.4,2.33v-2.33h.27Z"/>
        <path class="cls-6" d="m63.32,39.6h-.27c0-.09-.02-.17-.03-.23-.02-.06-.04-.11-.07-.14-.03-.03-.08-.05-.14-.07-.06-.02-.14-.02-.24-.02h-.13s-.04,0-.05,0c-.02,0-.04,0-.06,0h-.06s-.02,0-.03,0h-.03s-.05,0-.08,0c-.03,0-.05,0-.08.01-.02,0-.05.01-.07.02-.02,0-.04.02-.05.03-.02.01-.04.03-.05.05-.02.02-.03.04-.04.06,0,.01,0,.02-.01.03,0,.01,0,.02,0,.03,0,.01,0,.02,0,.03,0,.01,0,.02,0,.03,0,.01,0,.02,0,.03,0,.01,0,.02,0,.03v.06c0,.07,0,.13.01.19,0,.05.03.1.05.13.02.04.06.06.11.08.05.02.12.03.2.04.01,0,.03,0,.04,0,.01,0,.03,0,.04,0,.01,0,.03,0,.04,0h.2c.12,0,.24.01.34.03.1.02.2.04.29.07.09.03.15.1.2.19.04.1.07.23.07.4,0,.1,0,.19-.02.27-.01.08-.04.16-.06.23-.03.07-.08.12-.15.16-.07.04-.16.06-.27.07h-.03s-.02,0-.03,0h-.06s-.04,0-.06,0c-.02,0-.04,0-.06,0h-.03s-.02,0-.03,0h-.18c-.13,0-.25,0-.35-.02-.11-.02-.2-.04-.29-.07-.08-.04-.15-.1-.19-.2-.04-.1-.06-.23-.06-.39v-.05s0-.01,0-.02v-.03h0s0-.01,0-.02h0v-.02h.27c0,.11,0,.21.02.29.01.08.04.13.07.17.03.04.09.06.16.08.07.02.17.03.28.03h.23s.01,0,.02,0h.03c.09,0,.17,0,.23-.02.06-.01.11-.03.15-.06.04-.03.07-.08.09-.14.02-.07.03-.15.03-.26,0-.08,0-.16-.02-.21-.01-.06-.03-.1-.06-.13-.02-.03-.06-.05-.12-.07-.05-.02-.12-.03-.2-.03h-.03s-.02,0-.03,0h-.08s-.02,0-.03,0h-.06c-.13,0-.25-.02-.37-.03-.11-.02-.22-.04-.31-.08-.1-.03-.17-.1-.22-.2-.05-.1-.07-.24-.07-.41,0-.15.02-.28.06-.38.04-.1.1-.16.17-.2.08-.04.17-.07.27-.09.1-.02.22-.03.35-.03h.07c.13,0,.25,0,.35.03.11.02.2.04.29.07.08.03.15.09.19.19.04.1.06.23.06.39v.03Zm-2.17-.7v2.56h-.28v-2.35l-.94,2.35h-.28l-.95-2.33v2.33h-.27v-2.56h.48l.88,2.19.88-2.19h.49Zm-3.55,1.78l-.55-1.57-.55,1.57h1.1Zm.08.23h-1.26l-.19.54h-.3l.91-2.56h.4l.93,2.56h-.29l-.19-.54Zm-3.21-1.76v.87h1.27v.24h-1.27v.95h1.32v.25h-1.59v-2.56h1.59v.26h-1.32Zm-2.22,1.03h.81s.01,0,.02,0h.02c.08,0,.16,0,.22-.02.06-.02.11-.04.15-.07.04-.03.07-.08.09-.14.02-.07.03-.15.03-.24,0-.09,0-.17-.02-.24-.01-.07-.03-.13-.05-.17-.02-.05-.06-.08-.13-.11-.06-.02-.14-.04-.25-.04h-.91s0,1.03,0,1.03Zm-.28,1.27v-2.56h1.18c.13,0,.24.02.33.05.09.03.17.07.23.12.06.06.1.13.13.23.03.1.04.21.04.35,0,.09,0,.17-.01.24,0,.07-.02.14-.04.2-.02.06-.06.11-.12.15-.06.04-.15.07-.26.09.07,0,.13.02.18.05.05.03.09.06.12.1.03.04.05.09.07.15.02.06.02.12.02.19v.64h-.29v-.59c0-.08-.01-.15-.03-.2-.02-.06-.05-.1-.09-.14-.04-.03-.09-.05-.15-.07-.06-.02-.13-.03-.21-.03h-.85s0,1.02,0,1.02h-.28Zm-2.15-.25h.81s.03,0,.04,0h.05s.03,0,.05,0c.02,0,.03,0,.05,0,.03,0,.07,0,.1-.01.03,0,.06-.01.09-.03.03-.01.06-.03.09-.05.03-.02.05-.04.07-.07.02-.03.04-.06.06-.1.02-.04.03-.07.04-.12,0-.04.02-.08.02-.12,0-.04.01-.09.01-.13v-.03s0-.02,0-.03v-.09s0-.02,0-.03v-.34s0-.05,0-.07v-.07s0-.05,0-.08c0-.03,0-.05,0-.08,0-.02,0-.05,0-.07,0-.03,0-.05,0-.08-.01-.1-.04-.18-.07-.24-.03-.06-.08-.11-.13-.13-.05-.03-.12-.05-.18-.06-.07-.01-.14-.02-.22-.02h-.87s0,2.04,0,2.04Zm-.28.25v-2.56h1.15c.19,0,.34.03.46.08.12.05.21.12.27.21.06.09.1.21.13.34.03.14.04.29.04.47v.24c0,.16-.01.32-.03.46-.02.14-.05.27-.1.4-.04.12-.12.21-.24.27-.12.06-.28.09-.47.09h-1.22Zm-2.44-1.27h1.07s0,.05,0,.08c0,.02,0,.05,0,.07v.31c0,.1,0,.2-.02.29-.01.09-.03.17-.06.25-.03.08-.08.14-.15.19-.07.04-.17.07-.28.08-.04,0-.08,0-.13.01-.04,0-.08,0-.13,0h-.07s-.04,0-.06,0h-.13c-.2,0-.37-.01-.5-.04-.14-.03-.24-.07-.31-.13-.07-.06-.13-.16-.16-.29-.04-.13-.05-.29-.05-.49v-.26s0-.06,0-.09v-.35c0-.17.01-.31.04-.43.03-.12.08-.22.14-.29.06-.07.15-.13.26-.16.11-.04.25-.05.42-.05h.22s.02,0,.04,0h.11s.02,0,.04,0h.19c.11,0,.2.02.27.05.07.03.13.07.18.13.04.06.08.12.1.2.02.08.03.17.03.28v.09h-.28c0-.07,0-.14-.01-.2,0-.06-.02-.11-.04-.16-.02-.04-.05-.08-.1-.1-.05-.02-.12-.04-.21-.04-.04,0-.09,0-.13,0-.04,0-.09,0-.13,0h-.07s-.04,0-.06,0h-.13c-.13,0-.24.01-.32.03-.08.02-.14.05-.17.1-.03.04-.06.11-.07.2-.02.1-.03.22-.03.37v.33s0,.36,0,.36c0,.08,0,.16.01.23,0,.07.02.14.04.21.01.06.05.12.1.16.05.04.13.07.22.08.01,0,.03,0,.05,0,.02,0,.03,0,.05,0,.02,0,.03,0,.05,0h.05s.03,0,.05,0h.3c.12,0,.22,0,.29-.02.08-.02.13-.04.17-.07.03-.03.06-.09.08-.16.02-.08.03-.18.03-.3v-.23h-.79v-.25Zm-1.37-1.29v2.56h-.45l-1.4-2.31v2.31h-.27v-2.56h.45l1.4,2.33v-2.33h.27Zm-2.6,0v2.56h-.28v-2.56h.28Zm-2.2,1.31h.66c.11,0,.2,0,.28-.01.08-.01.15-.03.2-.06.05-.03.09-.07.11-.15.02-.07.04-.17.04-.29,0-.09,0-.17-.02-.24-.01-.07-.03-.12-.05-.17-.02-.04-.06-.08-.12-.1-.06-.02-.13-.03-.23-.03h-.06s-.01,0-.02,0h-.8s0,1.05,0,1.05Zm-.27,1.25v-2.56h1.16s.02,0,.04,0h.07s.01,0,.02,0h.02s.06,0,.09.01c.03,0,.06.01.09.02.03,0,.06.02.08.03.03.02.05.03.08.05.03.03.06.07.09.11.02.04.04.08.06.12.01.05.02.09.03.14,0,.05.02.09.02.14v.1s0,.01,0,.02v.08s0,.02,0,.03v.07s0,.02,0,.03v.02s0,.07-.01.11c0,.03-.02.07-.03.11-.01.03-.02.06-.04.09-.02.03-.04.06-.07.08-.04.04-.08.07-.13.1-.05.03-.09.04-.14.05-.05,0-.1.01-.15.02-.05,0-.1,0-.15,0h-.04s-.01,0-.01,0h-.79s0,.99,0,.99h-.27Z"/>
      </g>
      <g>
        <g>
          <path class="cls-5" d="m59.36,45.4h.12v.96c0,.07,0,.14-.02.2s-.04.12-.08.17c-.04.05-.09.09-.15.12-.06.03-.15.04-.25.04-.08,0-.14,0-.2-.03s-.1-.04-.14-.07c-.04-.03-.06-.06-.08-.1-.02-.04-.03-.07-.03-.1h.13s.02.07.05.1.04.05.07.06c.03.01.06.02.09.03.03,0,.07,0,.11,0,.08,0,.15-.01.2-.04.05-.03.09-.07.11-.11.03-.05.04-.1.05-.16,0-.06.01-.12,0-.18-.04.07-.09.12-.16.15-.07.03-.14.05-.22.05-.08,0-.15-.02-.21-.05-.06-.03-.11-.07-.15-.12-.04-.05-.07-.11-.09-.18-.02-.07-.03-.14-.03-.21,0-.08,0-.15.03-.22.02-.07.05-.13.08-.18.04-.05.09-.09.15-.12.06-.03.13-.04.22-.04.03,0,.07,0,.1.01s.07.02.1.04c.03.02.06.04.09.07.03.03.05.06.07.09h0v-.19Zm0,.53c0-.06,0-.12-.02-.18-.02-.06-.04-.1-.07-.14-.03-.04-.07-.07-.11-.1s-.1-.03-.15-.03c-.05,0-.1,0-.14.03-.04.02-.08.05-.11.08s-.06.08-.08.13c-.02.05-.03.11-.03.18,0,.07,0,.13.02.19.01.06.04.11.07.15s.07.08.11.1.1.04.17.04c.06,0,.11-.01.15-.04.04-.02.08-.06.11-.1.03-.04.05-.09.07-.14.02-.05.02-.11.02-.17Z"/>
          <path class="cls-5" d="m59.83,46.46h-.12v-1.06h.12v.2h0c.03-.08.08-.14.13-.18s.13-.05.21-.05v.13c-.07,0-.13,0-.17.03s-.08.05-.11.09c-.03.04-.05.09-.06.14-.01.05-.02.11-.02.17v.52Z"/>
          <path class="cls-5" d="m60.71,46.49c-.07,0-.13-.01-.19-.04-.06-.02-.11-.06-.16-.1s-.08-.1-.11-.17c-.03-.07-.04-.15-.04-.24,0-.08.01-.15.03-.22.02-.07.05-.13.09-.18.04-.05.09-.09.15-.12.06-.03.13-.04.22-.04s.16.01.22.04c.06.03.11.07.15.12.04.05.07.11.09.18s.03.14.03.22c0,.08-.01.16-.03.23s-.06.13-.1.18c-.04.05-.09.09-.16.11-.06.03-.13.04-.2.04Zm.36-.56c0-.06,0-.12-.02-.18s-.03-.1-.06-.14c-.03-.04-.07-.07-.11-.1s-.1-.03-.17-.03-.12.01-.16.04-.08.06-.11.1c-.03.04-.05.09-.06.14-.01.05-.02.11-.02.17,0,.07,0,.13.02.18.02.06.04.1.07.14.03.04.07.07.11.09s.1.03.16.03c.06,0,.12-.01.16-.04s.08-.06.11-.1c.03-.04.05-.09.06-.14.01-.05.02-.11.02-.17Z"/>
          <path class="cls-5" d="m62.06,45.4h.12v1.06h-.12v-.15s-.03.04-.06.06c-.02.02-.04.04-.07.06-.03.02-.06.03-.09.04s-.08.02-.12.02c-.07,0-.13,0-.18-.03s-.09-.05-.12-.08c-.03-.04-.05-.08-.06-.12-.01-.05-.02-.1-.02-.15v-.7h.12v.7c0,.09.02.16.06.21s.11.07.21.07c.05,0,.1,0,.14-.03.04-.02.07-.05.1-.08.03-.04.05-.08.06-.13.01-.05.02-.1.02-.16v-.58Z"/>
          <path class="cls-5" d="m62.52,46.88h-.12v-1.48h.12v.19h0s.04-.06.07-.09c.03-.03.06-.05.09-.07.03-.02.07-.03.1-.04.04,0,.07-.01.1-.01.09,0,.16.01.22.04.06.03.11.07.15.12.04.05.07.11.09.18.02.07.03.14.03.22,0,.07,0,.14-.03.21-.02.07-.05.13-.09.18-.04.05-.09.09-.15.12-.06.03-.13.05-.21.05-.08,0-.15-.02-.22-.05s-.12-.08-.16-.15v.59Zm0-.94c0,.06,0,.12.02.17.02.05.04.1.07.14.03.04.07.07.11.1.04.02.09.04.15.04.06,0,.12-.01.16-.04s.09-.06.12-.1c.03-.04.05-.09.07-.15.01-.06.02-.12.02-.19,0-.07,0-.13-.03-.18-.02-.05-.04-.09-.08-.13-.03-.04-.07-.06-.11-.08-.04-.02-.09-.03-.14-.03-.06,0-.11.01-.15.03s-.08.05-.11.1c-.03.04-.05.09-.07.14-.02.06-.02.12-.02.18Z"/>
        </g>
        <g>
          <g>
            <path class="cls-3" d="m44.57,45.63c.02.17.08.28.19.35.11.07.24.1.4.1.05,0,.11,0,.18-.01.07,0,.13-.02.19-.05.06-.02.11-.06.15-.1.04-.05.06-.1.05-.18,0-.07-.03-.13-.08-.18-.05-.05-.11-.08-.19-.11-.08-.03-.17-.05-.27-.07-.1-.02-.2-.04-.31-.07-.11-.02-.21-.05-.31-.09-.1-.03-.19-.08-.27-.14-.08-.06-.14-.13-.19-.22-.05-.09-.07-.2-.07-.33,0-.14.03-.26.1-.35.07-.1.16-.17.26-.23.11-.06.22-.1.35-.12.13-.02.25-.04.37-.04.13,0,.26.01.38.04.12.03.23.07.33.14.1.06.18.15.25.25.07.1.11.22.12.37h-.6c-.03-.14-.09-.23-.19-.28-.1-.05-.21-.07-.34-.07-.04,0-.09,0-.14,0-.06,0-.11.02-.16.04-.05.02-.09.05-.12.08-.03.04-.05.08-.05.14,0,.07.02.13.07.17.05.04.11.08.19.11.08.03.17.05.27.07.1.02.2.04.31.07.1.02.21.05.31.09.1.03.19.08.27.14.08.06.14.13.19.22.05.09.07.19.07.32,0,.15-.04.28-.11.39-.07.11-.16.19-.27.26-.11.07-.24.12-.37.15-.14.03-.27.05-.41.05-.16,0-.32-.02-.45-.06-.14-.04-.26-.09-.36-.17-.1-.08-.18-.17-.24-.28-.06-.11-.09-.24-.09-.4h.57Z"/>
            <path class="cls-3" d="m46.6,44.64c.06-.09.14-.16.23-.22.09-.06.2-.09.32-.12.12-.02.23-.04.35-.04.11,0,.22,0,.33.02.11.02.21.04.3.09.09.04.17.11.22.18.06.08.09.18.09.31v1.11c0,.1,0,.19.02.28.01.09.03.15.06.2h-.59s-.02-.07-.03-.1c0-.03-.01-.07-.01-.11-.09.1-.2.16-.33.2-.13.04-.26.06-.39.06-.1,0-.2-.01-.28-.04-.09-.02-.17-.06-.23-.12-.07-.05-.12-.12-.15-.2-.04-.08-.06-.17-.06-.28,0-.12.02-.22.06-.3.04-.08.1-.14.17-.19.07-.05.14-.08.23-.11.09-.02.17-.04.26-.06.09-.01.17-.02.26-.03.09,0,.16-.02.23-.04.07-.02.12-.04.16-.07.04-.03.06-.08.05-.14,0-.06-.01-.11-.03-.15-.02-.04-.05-.07-.08-.09-.03-.02-.07-.03-.12-.04-.05,0-.09-.01-.15-.01-.12,0-.21.02-.27.07-.07.05-.1.13-.12.25h-.59c0-.14.04-.25.1-.34Zm1.16.83s-.08.02-.12.03c-.04,0-.09.02-.13.02-.05,0-.09.01-.14.02-.04,0-.09.02-.13.03-.04.01-.08.03-.11.06-.03.02-.06.05-.08.09-.02.04-.03.08-.03.14s0,.1.03.13c.02.04.05.06.08.08.03.02.07.04.12.04.04,0,.09.01.14.01.12,0,.21-.02.27-.06.06-.04.11-.08.14-.14.03-.05.05-.11.06-.16,0-.06.01-.1.01-.13v-.22s-.06.04-.09.05Z"/>
            <path class="cls-3" d="m49.23,44.33v.3h.01c.07-.12.17-.21.29-.27.12-.06.24-.08.36-.08.16,0,.29.02.39.06.1.04.18.1.24.18.06.08.1.17.12.28.02.11.04.23.04.36v1.31h-.59v-1.21c0-.18-.03-.31-.08-.39-.06-.09-.15-.13-.29-.13-.16,0-.28.05-.35.14-.07.09-.11.25-.11.47v1.12h-.59v-2.14h.56Z"/>
            <path class="cls-3" d="m51.48,43.51v2.95h-.59v-2.95h.59Z"/>
            <path class="cls-3" d="m51.82,44.64c.06-.09.14-.16.23-.22.09-.06.2-.09.32-.12.12-.02.23-.04.35-.04.11,0,.22,0,.33.02.11.02.21.04.3.09.09.04.17.11.22.18.06.08.09.18.09.31v1.11c0,.1,0,.19.02.28.01.09.03.15.06.2h-.59s-.02-.07-.03-.1c0-.03-.01-.07-.01-.11-.09.1-.2.16-.33.2-.13.04-.26.06-.39.06-.1,0-.2-.01-.28-.04-.09-.02-.17-.06-.23-.12-.07-.05-.12-.12-.15-.2-.04-.08-.06-.17-.06-.28,0-.12.02-.22.06-.3.04-.08.1-.14.17-.19.07-.05.14-.08.23-.11.09-.02.17-.04.26-.06.09-.01.17-.02.26-.03.09,0,.16-.02.23-.04.07-.02.12-.04.16-.07.04-.03.06-.08.05-.14,0-.06-.01-.11-.03-.15-.02-.04-.05-.07-.08-.09-.03-.02-.07-.03-.12-.04-.05,0-.09-.01-.15-.01-.12,0-.21.02-.27.07-.07.05-.1.13-.12.25h-.59c0-.14.04-.25.1-.34Zm1.16.83s-.08.02-.12.03c-.04,0-.09.02-.13.02-.05,0-.09.01-.14.02-.04,0-.09.02-.13.03-.04.01-.08.03-.11.06-.03.02-.06.05-.08.09-.02.04-.03.08-.03.14s0,.1.03.13c.02.04.05.06.08.08.03.02.07.04.12.04.04,0,.09.01.14.01.12,0,.21-.02.27-.06.06-.04.11-.08.14-.14.03-.05.05-.11.06-.16,0-.06.01-.1.01-.13v-.22s-.06.04-.09.05Z"/>
            <path class="cls-3" d="m54.44,44.33v.29h0c.08-.11.17-.2.28-.26.11-.06.23-.09.37-.09s.26.03.37.08c.11.05.2.14.25.28.06-.09.15-.18.26-.25.11-.07.24-.11.39-.11.11,0,.22.01.31.04.1.03.18.07.25.13.07.06.12.14.16.24.04.1.06.22.06.35v1.43h-.59v-1.21c0-.07,0-.14,0-.2,0-.06-.02-.12-.05-.17-.02-.05-.06-.08-.11-.11-.05-.03-.11-.04-.2-.04s-.15.02-.2.05c-.05.03-.09.07-.12.12-.03.05-.05.11-.06.17,0,.06-.01.13-.01.2v1.19h-.59v-1.2c0-.06,0-.13,0-.19,0-.06-.01-.12-.04-.17-.02-.05-.06-.09-.1-.13-.05-.03-.12-.05-.21-.05-.03,0-.06,0-.11.02-.05.01-.09.04-.13.07-.04.03-.08.08-.11.15-.03.06-.05.15-.05.25v1.24h-.59v-2.14h.55Z"/>
          </g>
          <g>
            <path class="cls-3" d="m41.93,44.76c0-.34-.28-.62-.62-.62s-.62.28-.62.62.28.62.62.62.62-.28.62-.62Z"/>
            <path class="cls-3" d="m41.08,45.61c-.15-.14-.29-.23-.4-.4-.09-.12-.15-.29-.15-.45s.05-.28.12-.39c.1-.16.21-.32.29-.46h0c.04-.07.08-.14.13-.22.09-.17.23-.37.06-.6,0,0-.05.08-1.35,1.82,0,0,0,0,0,0-.02.03-.03.06-.03.1h0c0,.05.01.09.04.13h0s.49.79.49.79c.05.09.06.24.06.37,0,.06,0,.19,0,.27h0c0,.14.12.22.27.22h.6v-.68s0-.27-.01-.32c-.02-.08-.05-.13-.11-.19Z"/>
            <path class="cls-3" d="m41.53,45.61c.15-.14.29-.23.4-.4.09-.12.15-.29.15-.45s-.05-.28-.12-.39c-.1-.16-.21-.32-.29-.46h0c-.04-.07-.08-.14-.13-.22-.09-.17-.23-.37-.06-.6,0,0,.05.08,1.35,1.82,0,0,0,0,0,0,.02.03.03.06.03.1h0c0,.05-.01.09-.04.13h0s-.49.79-.49.79c-.05.09-.06.24-.06.37,0,.06,0,.19,0,.27h0c0,.14-.12.22-.27.22h-.6v-.68s0-.27.01-.32c.02-.08.05-.13.11-.19Z"/>
          </g>
        </g>
        <g>
          <path class="cls-5" d="m26.35,45.85s.05,0,.08-.01c.03,0,.06-.01.08-.02s.03-.03.04-.05,0-.04,0-.06c0-.06-.02-.11-.06-.15-.04-.04-.11-.06-.2-.06-.04,0-.08,0-.12.01-.04,0-.07.02-.09.04-.03.02-.05.04-.07.07s-.03.07-.03.12h-.12c0-.06.02-.12.04-.16.02-.04.06-.08.1-.11s.08-.05.14-.06c.05-.01.11-.02.16-.02.05,0,.1,0,.15.02.05.01.09.03.12.06.03.03.06.06.08.1.02.04.03.09.03.16v.58s0,.08.03.09c.02.01.05,0,.1,0v.1s-.02,0-.04.01c-.02,0-.04,0-.05,0-.02,0-.04,0-.06,0-.02,0-.04,0-.05-.02s-.02-.02-.03-.04-.01-.03-.02-.05c0-.02,0-.04,0-.05-.05.06-.11.1-.18.13-.07.03-.14.05-.22.05-.05,0-.09,0-.13-.02s-.08-.03-.11-.06c-.03-.03-.06-.06-.08-.1s-.03-.08-.03-.13c0-.18.12-.29.37-.32l.17-.02Zm.21.06c-.05.02-.1.04-.16.04-.05,0-.11.01-.16.02-.09,0-.17.03-.22.06-.05.04-.08.09-.08.16,0,.03,0,.06.02.08s.03.04.05.06c.02.02.05.03.07.03.03,0,.06.01.08.01.05,0,.1,0,.14-.02.05-.01.09-.03.12-.06.04-.03.07-.06.09-.1.02-.04.03-.08.03-.14v-.17Z"/>
          <path class="cls-5" d="m26.98,46.14c.02.09.05.16.1.19.05.04.12.06.21.06.05,0,.08,0,.12-.02.03-.01.06-.03.08-.04.02-.02.04-.04.05-.06.01-.02.02-.05.02-.07,0-.05-.02-.09-.05-.12-.03-.03-.08-.05-.13-.06-.05-.01-.11-.03-.16-.04s-.11-.03-.16-.05-.09-.05-.13-.09c-.03-.04-.05-.09-.05-.16,0-.09.03-.16.1-.22.06-.06.16-.08.28-.08s.21.03.28.08c.07.05.11.14.13.26h-.12c-.01-.08-.04-.14-.09-.17s-.12-.05-.19-.05-.14.02-.18.05c-.04.03-.06.08-.06.13,0,.05.02.08.05.11.03.03.08.05.13.06.05.02.1.03.16.04.06.01.11.03.16.05.05.02.09.05.13.09.03.04.05.09.05.16,0,.05-.01.1-.03.13-.02.04-.05.07-.09.1-.04.03-.08.05-.14.06-.05.01-.11.02-.17.02s-.12,0-.17-.03-.09-.04-.12-.08-.06-.07-.08-.11-.03-.09-.03-.14h.12Z"/>
          <path class="cls-5" d="m27.91,46.14c.02.09.05.16.1.19.05.04.12.06.21.06.05,0,.08,0,.12-.02.03-.01.06-.03.08-.04.02-.02.04-.04.05-.06.01-.02.02-.05.02-.07,0-.05-.02-.09-.05-.12-.03-.03-.08-.05-.13-.06-.05-.01-.11-.03-.16-.04s-.11-.03-.16-.05-.09-.05-.13-.09c-.03-.04-.05-.09-.05-.16,0-.09.03-.16.1-.22.06-.06.16-.08.28-.08s.21.03.28.08c.07.05.11.14.13.26h-.12c-.01-.08-.04-.14-.09-.17s-.12-.05-.19-.05-.14.02-.18.05c-.04.03-.06.08-.06.13,0,.05.02.08.05.11.03.03.08.05.13.06.05.02.1.03.16.04.06.01.11.03.16.05.05.02.09.05.13.09.03.04.05.09.05.16,0,.05-.01.1-.03.13-.02.04-.05.07-.09.1-.04.03-.08.05-.14.06-.05.01-.11.02-.17.02s-.12,0-.17-.03-.09-.04-.12-.08-.06-.07-.08-.11-.03-.09-.03-.14h.12Z"/>
          <path class="cls-5" d="m29.2,46.5c-.07,0-.13-.01-.19-.04-.06-.02-.11-.06-.16-.1s-.08-.1-.11-.17c-.03-.07-.04-.15-.04-.24,0-.08.01-.15.03-.22.02-.07.05-.13.09-.18.04-.05.09-.09.15-.12.06-.03.13-.04.21-.04s.16.01.22.04c.06.03.11.07.15.12.04.05.07.11.09.18s.03.14.03.22c0,.08-.01.16-.03.23s-.06.13-.1.18c-.04.05-.09.09-.16.11-.06.03-.13.04-.2.04Zm.36-.56c0-.06,0-.12-.02-.18-.01-.05-.03-.1-.06-.14-.03-.04-.07-.07-.11-.1s-.1-.03-.17-.03-.12.01-.16.04-.08.06-.11.1-.05.09-.06.14c-.01.05-.02.11-.02.17,0,.07,0,.13.02.18.02.06.04.1.07.14.03.04.07.07.11.09s.1.03.16.03c.06,0,.12-.01.16-.04s.08-.06.11-.1.05-.09.06-.14c.01-.05.02-.11.02-.17Z"/>
          <path class="cls-5" d="m30.57,45.74c-.02-.08-.06-.14-.11-.19-.05-.04-.12-.07-.2-.07-.06,0-.12.01-.16.04s-.08.06-.11.1c-.03.04-.05.09-.06.15-.01.05-.02.11-.02.16s0,.11.02.16c.01.05.03.1.06.14s.07.08.11.1.1.04.16.04c.09,0,.16-.03.22-.08.06-.05.09-.12.11-.21h.13c-.01.06-.03.11-.05.16-.02.05-.05.09-.09.12-.04.03-.08.06-.13.08s-.11.03-.18.03c-.08,0-.16-.01-.22-.04-.06-.03-.11-.07-.15-.12s-.07-.11-.09-.18c-.02-.07-.03-.14-.03-.22,0-.07.01-.14.03-.21s.05-.13.09-.18c.04-.05.09-.09.15-.12s.13-.05.21-.05c.12,0,.22.03.3.09.08.06.12.15.14.27h-.12Z"/>
          <path class="cls-5" d="m31.71,45.85s.05,0,.08-.01c.03,0,.06-.01.08-.02s.03-.03.04-.05,0-.04,0-.06c0-.06-.02-.11-.06-.15-.04-.04-.11-.06-.2-.06-.04,0-.08,0-.12.01-.04,0-.07.02-.09.04-.03.02-.05.04-.07.07s-.03.07-.03.12h-.12c0-.06.02-.12.04-.16.02-.04.06-.08.1-.11s.08-.05.14-.06c.05-.01.11-.02.16-.02.05,0,.1,0,.15.02.05.01.09.03.12.06.03.03.06.06.08.1.02.04.03.09.03.16v.58s0,.08.03.09c.02.01.05,0,.1,0v.1s-.02,0-.04.01c-.02,0-.04,0-.05,0-.02,0-.04,0-.06,0-.02,0-.04,0-.05-.02s-.02-.02-.03-.04-.01-.03-.02-.05c0-.02,0-.04,0-.05-.05.06-.11.1-.18.13-.07.03-.14.05-.22.05-.05,0-.09,0-.13-.02s-.08-.03-.11-.06c-.03-.03-.06-.06-.08-.1s-.03-.08-.03-.13c0-.18.12-.29.37-.32l.17-.02Zm.21.06c-.05.02-.1.04-.16.04-.05,0-.11.01-.16.02-.09,0-.17.03-.22.06-.05.04-.08.09-.08.16,0,.03,0,.06.02.08s.03.04.05.06c.02.02.05.03.07.03.03,0,.06.01.08.01.05,0,.1,0,.14-.02.05-.01.09-.03.12-.06.04-.03.07-.06.09-.1.02-.04.03-.08.03-.14v-.17Z"/>
          <path class="cls-5" d="m32.64,46.47s-.03,0-.06.01c-.02,0-.05.01-.08.01-.06,0-.11-.02-.14-.05-.03-.03-.05-.09-.05-.16v-.8h-.15v-.1h.15v-.35h.12v.35h.2v.1h-.2v.75s0,.05,0,.07c0,.02,0,.03.01.05,0,.01.02.02.03.03.01,0,.03,0,.06,0,.02,0,.03,0,.05,0s.03,0,.05-.01v.1Z"/>
          <path class="cls-5" d="m37.55,46.47s-.03,0-.06.01c-.02,0-.05.01-.08.01-.06,0-.11-.02-.14-.05-.03-.03-.05-.09-.05-.16v-.8h-.15v-.1h.15v-.35h.12v.35h.2v.1h-.2v.75s0,.05,0,.07c0,.02,0,.03.01.05,0,.01.02.02.03.03.01,0,.03,0,.06,0,.02,0,.03,0,.05,0s.03,0,.05-.01v.1Z"/>
          <path class="cls-5" d="m32.82,45.97c0,.06,0,.11.02.16.01.05.04.1.07.13.03.04.07.07.11.09.05.02.1.03.16.03.08,0,.15-.02.21-.06s.1-.1.11-.18h.14c-.02.05-.03.1-.06.14-.02.04-.06.08-.09.11-.04.03-.08.06-.13.07s-.11.03-.18.03c-.08,0-.16-.01-.22-.04-.06-.03-.11-.07-.15-.12-.04-.05-.07-.11-.09-.18-.02-.07-.03-.14-.03-.22s.01-.15.03-.22c.02-.07.05-.13.1-.18.04-.05.09-.09.15-.12.06-.03.13-.04.2-.04.15,0,.26.05.34.15s.12.25.12.44h-.82Zm.69-.1c0-.05,0-.1-.02-.15-.01-.05-.04-.09-.06-.12-.03-.03-.06-.06-.11-.08-.04-.02-.09-.03-.15-.03s-.1.01-.14.03c-.04.02-.08.05-.11.08s-.05.07-.07.12-.03.09-.03.14h.69Z"/>
          <path class="cls-5" d="m34.61,45.03h.12v1.44h-.12v-.19h0s-.04.07-.07.09c-.03.03-.06.05-.09.07-.03.02-.07.03-.1.04-.04,0-.07.01-.1.01-.09,0-.16-.01-.22-.04-.06-.03-.11-.07-.15-.12s-.07-.11-.08-.18c-.02-.07-.03-.14-.03-.22,0-.07,0-.14.03-.21s.05-.13.09-.18.09-.09.15-.12c.06-.03.13-.05.21-.05.08,0,.15.02.22.05.07.03.12.08.16.15v-.55Zm0,.91c0-.06,0-.12-.02-.17s-.04-.1-.07-.14c-.03-.04-.07-.07-.11-.1s-.09-.04-.15-.04c-.06,0-.12.01-.17.04s-.08.06-.11.1c-.03.04-.05.09-.07.15-.01.06-.02.12-.02.19,0,.07,0,.13.03.18.02.05.04.09.08.13.03.04.07.06.11.08.04.02.09.03.14.03.06,0,.11-.01.15-.03.05-.02.08-.05.11-.1s.05-.09.07-.14.02-.11.02-.18Z"/>
          <path class="cls-5" d="m36.32,46.31l.28-.93h.12l-.34,1.09h-.13l-.23-.89h0l-.24.89h-.15l-.32-1.09h.12l.27.94.25-.94h.14l.23.93Z"/>
          <path class="cls-5" d="m37.65,46.47v-1.44h.12v.53c.05-.05.1-.09.15-.13.05-.03.12-.05.19-.05.07,0,.13.01.18.03s.1.06.14.12c.03.04.04.08.05.12,0,.04,0,.08,0,.13v.69h-.12v-.69c0-.1-.02-.17-.06-.21-.04-.05-.11-.07-.21-.07-.04,0-.07,0-.1.02-.03.01-.06.03-.08.05-.03.02-.05.04-.06.07-.02.02-.03.05-.04.08-.01.03-.02.07-.02.1,0,.03,0,.07,0,.1v.57h-.12Z"/>
          <g>
            <rect class="cls-5" x="30.88" y="45.38" width=".12" height="1.09"/>
            <circle class="cls-5" cx="30.94" cy="45.13" r=".1"/>
          </g>
          <g>
            <rect class="cls-5" x="36.83" y="45.38" width=".12" height="1.09"/>
            <circle class="cls-5" cx="36.89" cy="45.13" r=".1"/>
          </g>
        </g>
      </g>
    </g>
    <rect class="cls-4" width="64" height="64"/>
  </g>
</svg>