<?xml version="1.0" encoding="UTF-8"?>
<svg id="Layer_1" data-name="Layer 1" xmlns="http://www.w3.org/2000/svg" viewBox="0 0 64 64">
  <defs>
    <style>
      .cls-1 {
        fill: #00529b;
      }

      .cls-2 {
        fill: #231f20;
      }
    </style>
  </defs>
  <path class="cls-1" d="M31.78,18.7c1.94,0,3.47-1.57,3.47-3.44s-1.53-3.53-3.47-3.53-3.54,1.58-3.54,3.53,1.59,3.44,3.54,3.44"/>
  <path class="cls-1" d="M35.83,19.11h-14.05c-3.29,0-5.95,2.65-5.95,5.93s2.67,5.91,5.95,5.91h7.18c.33,0,.6.26.6.59s-.27.59-.6.59h-13.1v5.33h13.96c3.28,0,5.95-2.63,5.95-5.9s-2.67-5.92-5.95-5.92h-6.88c-.33,0-.59-.27-.59-.6s.27-.59.59-.59h12.9v13.04h5.68v-13.04h6.65v-5.32h-6.65v-.97c0-.37.3-.66.67-.66h5.97v-5.76h-5.95c-3.52,0-6.37,2.83-6.37,6.33v1.06Z"/>
  <path class="cls-2" d="M1.67,42.38c-.2,0-.35.06-.48.17-.12.11-.18.25-.18.4s.05.28.14.38c.1.1.21.19.36.27.14.08.3.16.46.23.17.07.32.16.46.27.14.11.26.24.36.39.1.15.14.35.14.59,0,.21-.04.4-.12.58-.08.18-.19.32-.34.45-.15.12-.32.22-.53.28-.21.07-.44.1-.69.1-.23,0-.43-.02-.61-.07s-.32-.11-.41-.18c.04-.15.08-.28.11-.4s.05-.26.08-.4h.12c.02.09.05.18.1.26.05.08.11.15.18.22.07.06.16.11.26.15.1.04.22.05.34.05.25,0,.44-.06.56-.19.12-.13.18-.28.18-.46,0-.16-.05-.29-.14-.39-.09-.1-.21-.19-.35-.27-.14-.08-.29-.15-.46-.23-.17-.07-.32-.16-.46-.27-.14-.11-.26-.24-.35-.39-.09-.15-.14-.35-.14-.59,0-.22.04-.41.12-.58.08-.17.18-.31.31-.42s.28-.2.45-.26c.17-.06.35-.09.54-.09.23,0,.43.03.6.08.17.05.32.13.44.23-.04.1-.07.19-.1.28-.03.09-.06.21-.1.34h-.1c-.14-.36-.39-.54-.77-.54"/>
  <path class="cls-2" d="M5.47,46.5c-.27,0-.52-.03-.76-.09-.24-.06-.44-.15-.61-.28-.17-.13-.31-.3-.41-.51-.1-.21-.15-.46-.15-.76,0-.17,0-.32,0-.45,0-.13,0-.26,0-.37s0-.22,0-.33c0-.11,0-.22,0-.33,0-.34,0-.62,0-.83,0-.21-.01-.37-.02-.47.08,0,.17.02.26.02.09,0,.18,0,.26,0s.17,0,.26,0c.09,0,.18-.01.26-.02-.04.41-.07.79-.08,1.14,0,.35-.01.71-.01,1.07,0,.38.03.69.08.93.06.24.14.42.24.55.11.13.24.21.4.26.16.04.34.06.55.06.25,0,.45-.06.6-.19.14-.13.25-.3.33-.51.07-.21.12-.45.14-.72.02-.27.03-.56.03-.85s0-.58-.01-.87c0-.29-.02-.58-.04-.87.06,0,.12.02.17.02.05,0,.11,0,.15,0,.05,0,.11,0,.16,0,.05,0,.1-.01.16-.02,0,.09-.02.22-.03.37,0,.16-.02.34-.03.54,0,.2-.02.43-.02.68,0,.25,0,.51,0,.78,0,.73-.16,1.26-.48,1.58-.32.32-.78.48-1.4.48"/>
  <path class="cls-2" d="M8.19,43.33c0-.29,0-.54-.01-.73,0-.2-.02-.37-.02-.52.12.02.21.03.29.03s.17-.01.29-.03c.46.51.92,1.01,1.37,1.51.45.49.91,1,1.39,1.51v-1.16c0-.21,0-.41,0-.61,0-.2,0-.39,0-.55,0-.17,0-.31-.01-.44,0-.12-.01-.2-.02-.25.12.02.21.03.29.03s.17-.01.29-.03c-.02.38-.04.73-.05,1.04-.01.31-.02.6-.03.88,0,.27-.01.55-.02.81,0,.27,0,.55,0,.86v.76c-.08,0-.17-.01-.26-.01-.09,0-.18,0-.25.01-.87-1.01-1.8-2.03-2.78-3.06,0,.12,0,.24,0,.37,0,.12,0,.25,0,.37v.73c0,.25,0,.47,0,.65,0,.18,0,.33,0,.45,0,.12,0,.22.01.3,0,.08,0,.14.01.19-.05,0-.1-.01-.15-.01h-.15c-.1,0-.19,0-.29.01,0-.03.02-.15.03-.36.01-.21.03-.46.04-.76.01-.3.03-.62.04-.97.01-.35.02-.68.02-1"/>
  <path class="cls-2" d="M12.96,43.82c0-.35,0-.66-.01-.93,0-.27-.02-.55-.04-.82.07,0,.15.02.24.02.08,0,.18,0,.29,0,.14,0,.3,0,.47-.02.17-.01.4-.02.68-.02.36,0,.7.03.99.1.3.07.56.18.77.33.22.16.38.37.5.63.12.26.18.6.18,1,0,.35-.06.67-.17.95-.12.28-.28.52-.48.72-.2.2-.43.35-.7.46s-.55.16-.85.16c-.32,0-.59,0-.81,0s-.42,0-.58,0h-.29c-.08,0-.16,0-.24.01.02-.26.03-.53.04-.8,0-.27.01-.58.01-.93v-.86ZM13.9,45.14v.38c0,.12,0,.23,0,.34,0,.1,0,.17,0,.2.06,0,.14,0,.23.01.09,0,.2,0,.33,0,.48,0,.86-.16,1.14-.49.28-.32.42-.82.42-1.47,0-.26-.03-.5-.1-.7-.07-.21-.17-.38-.3-.53-.13-.15-.28-.26-.46-.34-.18-.08-.38-.12-.6-.12-.15,0-.28,0-.37,0-.1,0-.19.01-.29.02,0,.03,0,.1,0,.2,0,.1,0,.22,0,.34v2.14Z"/>
  <path class="cls-2" d="M21.15,46.41c-.1,0-.2-.01-.29-.01h-.54c-.09,0-.18,0-.27.01-.07-.21-.14-.42-.21-.63-.07-.22-.15-.43-.23-.65-.14,0-.27,0-.41,0-.14,0-.27,0-.41,0-.11,0-.22,0-.33,0-.11,0-.22,0-.33,0-.08.22-.16.43-.23.65s-.14.43-.2.63c-.05,0-.1-.01-.15-.01h-.3c-.05,0-.11,0-.17.01.05-.11.12-.26.2-.46.08-.19.18-.41.28-.66.1-.24.21-.51.33-.79.12-.28.23-.56.35-.85.12-.29.23-.57.34-.85.11-.28.21-.54.31-.78.04,0,.08.02.12.02.04,0,.08,0,.12,0s.08,0,.12,0c.04,0,.08-.01.12-.02.14.36.28.74.44,1.15.15.41.31.81.47,1.21.16.39.31.77.46,1.12.15.35.28.65.41.9M18.9,43.26c-.11.25-.21.5-.31.75-.1.25-.19.5-.29.76h1.16c-.09-.26-.19-.51-.28-.76-.09-.25-.19-.5-.29-.75"/>
  <path class="cls-2" d="M22.83,44.42v.26c0,.35,0,.66.01.93,0,.27.02.54.04.8-.07,0-.15-.01-.24-.01h-.57c-.08,0-.16,0-.24.01.02-.26.03-.53.04-.8,0-.27.01-.58.01-.93v-.86c0-.35,0-.66-.01-.93,0-.27-.02-.54-.04-.82.07,0,.15.02.24.02.08,0,.18,0,.29,0,.11,0,.24,0,.39-.02.15-.01.33-.02.54-.02.16,0,.3,0,.41.01.11,0,.21.02.3.04.08.02.15.04.22.07.06.03.12.06.17.1.13.09.23.21.3.34s.11.3.11.49c0,.31-.08.56-.25.75-.17.19-.41.33-.73.41.2.36.42.72.65,1.07.23.36.47.71.7,1.06-.1,0-.19-.01-.29-.01h-.58c-.1,0-.19,0-.29.01l-1.14-1.99h-.06ZM23.83,43.26c0-.19-.02-.33-.06-.44-.04-.11-.1-.19-.17-.25-.08-.06-.18-.09-.3-.11-.13-.02-.27-.03-.45-.03-.01.57-.02,1.15-.02,1.72.03,0,.05,0,.07,0,.02,0,.05,0,.07,0,.28,0,.49-.07.64-.22.15-.15.22-.38.22-.68"/>
  <path class="cls-2" d="M29.67,46.41c-.1,0-.2-.01-.29-.01h-.54c-.09,0-.18,0-.27.01-.07-.21-.14-.42-.21-.63-.07-.22-.15-.43-.23-.65-.14,0-.27,0-.41,0-.14,0-.27,0-.41,0-.11,0-.22,0-.33,0-.11,0-.22,0-.33,0-.08.22-.16.43-.23.65-.07.22-.14.43-.2.63-.05,0-.1-.01-.15-.01h-.3c-.05,0-.11,0-.17.01.05-.11.12-.26.2-.46.08-.19.18-.41.28-.66.1-.24.21-.51.33-.79.12-.28.23-.56.35-.85.12-.29.23-.57.34-.85.11-.28.21-.54.31-.78.04,0,.08.02.12.02.04,0,.08,0,.12,0s.08,0,.12,0c.04,0,.08-.01.12-.02.14.36.28.74.44,1.15.15.41.31.81.47,1.21.16.39.31.77.46,1.12.15.35.28.65.41.9M27.42,43.26c-.11.25-.21.5-.31.75-.1.25-.19.5-.29.76h1.16c-.09-.26-.19-.51-.28-.76-.09-.25-.19-.5-.29-.75"/>
  <path class="cls-2" d="M30.85,45c-.03.47-.07.94-.1,1.42-.05,0-.1-.01-.15-.01h-.3s-.1,0-.15.01c.14-.73.26-1.45.36-2.16.11-.72.2-1.44.29-2.18.05,0,.09.02.13.02.04,0,.08,0,.13,0,.04,0,.08,0,.12,0,.04,0,.09-.01.13-.02.11.25.23.51.36.77.12.26.25.52.38.78.12.26.25.51.37.76.13.25.24.48.36.71.25-.47.51-.97.76-1.48.25-.52.49-1.03.72-1.54.11.02.2.03.27.03.07,0,.16-.01.27-.03.04.36.09.75.14,1.17.05.42.1.83.14,1.22.05.4.09.77.14,1.12.05.35.09.62.13.84-.08,0-.17-.01-.26-.01h-.52c-.09,0-.18,0-.27.01-.02-.43-.06-.9-.1-1.41-.05-.51-.1-1.01-.15-1.51h-.01c-.24.5-.48.99-.71,1.47-.23.48-.46.96-.69,1.45-.02,0-.04,0-.06,0-.02,0-.04,0-.06,0s-.04,0-.06,0c-.02,0-.04,0-.06,0-.23-.47-.46-.94-.68-1.42-.23-.47-.46-.95-.7-1.44h-.01c-.07.49-.12.96-.15,1.44"/>
  <path class="cls-2" d="M38.41,45c-.03.47-.07.95-.1,1.42-.05,0-.1-.01-.15-.01h-.3s-.1,0-.15.01c.14-.73.26-1.45.36-2.16.11-.72.2-1.44.29-2.18.05,0,.09.02.13.02.04,0,.08,0,.13,0,.04,0,.08,0,.12,0,.04,0,.09-.01.13-.02.11.25.23.51.36.77.12.26.25.52.38.78.12.26.25.51.37.76.13.25.24.48.36.71.25-.47.51-.97.76-1.48.25-.52.49-1.03.72-1.54.11.02.2.03.27.03.07,0,.16-.01.27-.03.04.36.09.75.14,1.17.05.42.1.83.14,1.22.05.4.09.77.14,1.12.05.35.09.62.13.84-.08,0-.17-.01-.26-.01h-.52c-.09,0-.18,0-.27.01-.02-.43-.06-.9-.1-1.41-.05-.51-.1-1.01-.15-1.51h-.01c-.24.5-.48.99-.71,1.47-.23.48-.46.96-.69,1.45-.02,0-.04,0-.06,0-.02,0-.04,0-.06,0s-.04,0-.06,0c-.02,0-.04,0-.06,0-.23-.47-.46-.94-.68-1.42-.23-.47-.46-.95-.7-1.44h-.01c-.07.49-.12.96-.15,1.44"/>
  <path class="cls-2" d="M45.64,46.5c-.27,0-.52-.03-.76-.09-.24-.06-.44-.15-.61-.28-.17-.13-.31-.3-.41-.51-.1-.21-.15-.46-.15-.76,0-.17,0-.32,0-.45,0-.13,0-.26,0-.37s0-.22,0-.33c0-.11,0-.22,0-.33,0-.34,0-.62,0-.83,0-.21-.01-.37-.02-.47.08,0,.17.02.26.02.09,0,.18,0,.26,0s.17,0,.26,0c.09,0,.18-.01.26-.02-.04.41-.07.79-.08,1.14,0,.35-.01.71-.01,1.07,0,.38.03.69.08.93.06.24.14.42.24.55.11.13.24.21.4.26.16.04.34.06.55.06.25,0,.45-.06.6-.19.14-.13.25-.3.33-.51.07-.21.12-.45.14-.72.02-.27.03-.56.03-.85s0-.58-.01-.87c0-.29-.02-.58-.04-.87.06,0,.12.02.17.02.05,0,.11,0,.15,0,.06,0,.11,0,.16,0,.05,0,.1-.01.16-.02,0,.09-.02.22-.03.37,0,.16-.02.34-.03.54,0,.2-.02.43-.02.68,0,.25,0,.51,0,.78,0,.73-.16,1.26-.48,1.58-.32.32-.78.48-1.4.48"/>
  <path class="cls-2" d="M49.39,42.76c0-.1,0-.18-.02-.22-.06,0-.14,0-.23,0-.09,0-.19,0-.3.02-.11,0-.21.02-.32.03-.11.01-.21.02-.3.03,0-.05.02-.09.02-.14,0-.05,0-.09,0-.14s0-.09,0-.14c0-.05-.01-.09-.02-.14.14,0,.27,0,.39.01.12,0,.24,0,.36,0,.12,0,.25,0,.39,0,.14,0,.31,0,.51,0s.37,0,.51,0c.14,0,.27,0,.39,0,.12,0,.23,0,.35,0,.11,0,.23,0,.37-.01,0,.05-.02.09-.02.14,0,.05,0,.09,0,.14s0,.09,0,.14c0,.05.01.09.02.14-.08-.01-.18-.02-.29-.03-.11-.01-.21-.02-.31-.03-.1,0-.2-.01-.3-.02-.09,0-.17,0-.24,0,0,.02,0,.05,0,.09,0,.04,0,.08,0,.13v1.92c0,.35,0,.66.01.93,0,.27.02.54.04.8-.07,0-.15-.01-.24-.01h-.57c-.08,0-.16,0-.24.01.02-.26.03-.53.04-.8,0-.27.01-.58.01-.93v-1.58c0-.12,0-.23,0-.34"/>
  <path class="cls-2" d="M54.12,46.5c-.27,0-.52-.03-.76-.09-.24-.06-.44-.15-.61-.28-.17-.13-.31-.3-.41-.51-.1-.21-.15-.46-.15-.76,0-.17,0-.32,0-.45,0-.13,0-.26,0-.37s0-.22,0-.33c0-.11,0-.22,0-.33,0-.34,0-.62,0-.83,0-.21-.01-.37-.02-.47.08,0,.17.02.26.02.09,0,.18,0,.26,0s.17,0,.26,0c.09,0,.18-.01.26-.02-.04.41-.07.79-.08,1.14,0,.35-.01.71-.01,1.07,0,.38.03.69.08.93.06.24.14.42.24.55.11.13.24.21.4.26.16.04.34.06.55.06.25,0,.45-.06.6-.19.14-.13.25-.3.33-.51.07-.21.12-.45.14-.72.02-.27.03-.56.03-.85s0-.58-.01-.87c0-.29-.02-.58-.04-.87.06,0,.12.02.17.02.05,0,.11,0,.15,0,.06,0,.11,0,.16,0,.05,0,.1-.01.16-.02,0,.09-.02.22-.03.37,0,.16-.02.34-.03.54,0,.2-.02.43-.02.68,0,.25,0,.51,0,.78,0,.73-.16,1.26-.48,1.58-.32.32-.78.48-1.4.48"/>
  <path class="cls-2" d="M60.7,46.41c-.1,0-.2-.01-.29-.01h-.54c-.09,0-.18,0-.27.01-.07-.21-.14-.42-.21-.63-.07-.22-.15-.43-.23-.65-.14,0-.27,0-.41,0-.14,0-.27,0-.41,0-.11,0-.22,0-.33,0-.11,0-.22,0-.33,0-.08.22-.16.43-.23.65-.07.22-.14.43-.2.63-.05,0-.1-.01-.15-.01h-.3c-.05,0-.11,0-.17.01.05-.11.12-.26.2-.46.08-.19.18-.41.28-.66.1-.24.21-.51.33-.79.12-.28.23-.56.35-.85.12-.29.23-.57.34-.85.11-.28.21-.54.31-.78.04,0,.08.02.12.02.04,0,.08,0,.12,0s.08,0,.12,0c.04,0,.08-.01.12-.02.14.36.28.74.44,1.15.15.41.31.81.47,1.21.16.39.31.77.46,1.12.15.35.28.65.41.9M58.46,43.26c-.11.25-.21.5-.31.75-.1.25-.19.5-.29.76h1.16c-.09-.26-.19-.51-.28-.76-.09-.25-.19-.5-.29-.75"/>
  <path class="cls-2" d="M61.35,42.89c0-.27-.02-.55-.04-.82.07,0,.15.02.23.02.08,0,.18,0,.29,0s.2,0,.29,0c.08,0,.16-.01.24-.02-.02.27-.03.55-.04.82,0,.27-.01.58-.01.93v.86c0,.24,0,.47,0,.7,0,.22,0,.42,0,.58.24,0,.48,0,.72-.02s.48-.03.73-.06c0,.05-.02.09-.02.13,0,.04,0,.09,0,.16s0,.12,0,.16c0,.04.01.07.02.09-.11,0-.26,0-.42,0-.17,0-.4,0-.69,0h-1.01c-.1,0-.17,0-.22,0-.05,0-.09,0-.12,0,.02-.26.03-.53.04-.8,0-.27.01-.58.01-.93v-.86c0-.35,0-.66-.01-.93"/>
  <path class="cls-2" d="M9.87,50.83c.04.05.08.1.14.14.05.04.12.07.19.1.07.03.15.04.24.04s.17-.02.25-.05c.07-.03.13-.07.19-.13.05-.05.09-.12.12-.19.03-.07.04-.15.04-.23,0-.13-.03-.23-.1-.3-.06-.07-.14-.14-.24-.18-.1-.05-.2-.09-.31-.14-.11-.04-.21-.09-.31-.15s-.18-.14-.24-.24c-.06-.1-.1-.22-.1-.39,0-.11.02-.22.06-.31.04-.09.1-.18.18-.24.08-.07.17-.12.28-.16.11-.04.23-.06.37-.06s.25.02.34.05c.1.03.19.08.27.15-.02.05-.05.1-.06.15-.02.05-.03.12-.05.2h-.05s-.03-.08-.06-.13c-.02-.05-.05-.09-.09-.13s-.09-.07-.14-.1c-.05-.03-.12-.04-.2-.04s-.15.01-.21.04c-.06.02-.12.06-.17.1-.05.05-.09.1-.11.16-.03.06-.04.13-.04.21,0,.13.03.23.1.3.06.07.14.14.24.19.1.05.2.1.31.14.11.04.21.09.31.15.1.06.18.13.24.22s.1.21.1.36c0,.13-.02.24-.07.36-.05.11-.11.21-.2.29-.09.08-.19.15-.32.19-.13.05-.27.07-.43.07-.17,0-.31-.02-.41-.07-.11-.05-.19-.1-.27-.15.02-.06.04-.12.05-.17s.02-.12.03-.19h.05s.05.1.09.15"/>
  <path class="cls-2" d="M11.84,50.59c0-.14,0-.27,0-.37,0-.1,0-.2,0-.31,0-.1,0-.2,0-.31,0-.11,0-.23,0-.34.07.01.13.02.17.02.04,0,.1,0,.17-.02-.01.16-.02.34-.03.54,0,.2-.01.4-.01.6,0,.14.01.25.04.33.02.08.05.13.09.17.04.04.09.08.15.11s.13.04.21.04c.12,0,.21-.03.29-.08.08-.05.13-.11.17-.19.02-.05.03-.09.05-.12s.02-.08.03-.13c0-.05.01-.13.01-.22,0-.09,0-.22,0-.38v-.34c0-.06,0-.12,0-.17,0-.05,0-.11,0-.16.03,0,.06.01.09.01.03,0,.06,0,.09,0s.06,0,.09,0c.03,0,.05,0,.08-.01-.01.21-.02.42-.02.62,0,.2,0,.41,0,.63,0,.12,0,.24,0,.36,0,.12,0,.23.01.34-.05,0-.11,0-.16,0s-.11,0-.16,0c0-.02,0-.05,0-.08,0-.03,0-.06,0-.09v-.18h0c-.07.13-.16.23-.28.29s-.23.09-.37.09c-.21,0-.38-.06-.5-.17s-.18-.28-.18-.49"/>
  <path class="cls-2" d="M15.35,49.59c-.08-.11-.19-.16-.33-.16-.19,0-.33.06-.42.18-.09.12-.13.28-.13.5v.35c0,.12,0,.25,0,.39,0,.14.01.26.03.37-.06,0-.13,0-.19,0s-.12,0-.19,0c.01-.11.02-.23.03-.37s0-.26,0-.39v-.43c0-.12,0-.25,0-.39,0-.14-.01-.26-.03-.38.08.01.14.02.19.02.02,0,.05,0,.07,0s.06,0,.09-.01c0,.11-.01.22-.01.33h0c.08-.12.17-.21.28-.27.11-.06.23-.1.38-.1.08,0,.15.01.23.03.08.02.15.06.21.11.06.05.11.13.15.22.04.09.06.21.06.35,0,.12,0,.24,0,.36,0,.12,0,.26,0,.4v.27s0,.09,0,.13,0,.08,0,.12c-.05,0-.11,0-.17,0s-.11,0-.17,0c0-.14.01-.29.02-.44s.01-.31.01-.46v-.25c0-.21-.04-.36-.12-.47"/>
  <path class="cls-2" d="M17.81,50.82s-.05.09-.09.14c-.04.05-.08.1-.14.14s-.12.08-.2.11c-.08.03-.17.04-.27.04s-.21-.02-.31-.05c-.1-.04-.19-.09-.27-.17s-.14-.18-.19-.31c-.05-.13-.07-.28-.07-.46s.03-.33.08-.46c.05-.13.12-.24.2-.32.08-.09.18-.15.28-.19s.21-.06.32-.06c.3,0,.52.14.63.41h0v-.4c0-.1,0-.21,0-.31,0-.11,0-.21,0-.3s0-.19,0-.27,0-.16,0-.23c.03,0,.06.01.09.01s.06,0,.09,0,.06,0,.09,0,.06,0,.1-.01c0,.09-.02.21-.02.38,0,.17-.01.35-.01.55,0,.2,0,.4-.01.62s0,.4,0,.58c0,.19,0,.36,0,.51s0,.31,0,.46c-.05,0-.11,0-.16,0-.05,0-.1,0-.16,0v-.39s0,0,0,0ZM16.64,50.28c0,.16.02.3.05.41s.08.19.13.26c.05.06.11.11.18.13s.14.04.2.04c.11,0,.2-.03.28-.08s.14-.12.19-.21.09-.18.11-.29c.02-.11.04-.22.04-.33,0-.26-.05-.46-.15-.6-.1-.14-.25-.21-.45-.21-.1,0-.18.02-.26.07-.07.05-.13.11-.18.19s-.08.18-.11.28c-.02.11-.04.22-.04.35"/>
  <path class="cls-2" d="M18.75,49.46c.12-.09.24-.16.34-.19s.21-.05.32-.05c.1,0,.19.01.27.04s.15.07.21.12c.06.05.1.12.14.19.03.08.05.16.05.25,0,.16,0,.31,0,.47,0,.15,0,.32,0,.49,0,.03,0,.07,0,.1s0,.07.02.1c.01.03.03.05.05.07s.05.03.09.03c.01,0,.03,0,.04,0,.02,0,.03,0,.04-.01v.09s-.07.02-.11.03c-.05,0-.1.01-.15.01-.09,0-.16-.02-.2-.07-.05-.05-.07-.1-.08-.17-.1.1-.2.17-.29.22-.1.05-.21.07-.35.07-.07,0-.14,0-.2-.03s-.12-.05-.18-.09c-.05-.04-.09-.1-.12-.16-.03-.06-.05-.13-.05-.21,0-.16.05-.29.15-.38s.25-.15.43-.18c.15-.02.26-.05.35-.06s.15-.04.19-.06c.04-.02.06-.04.07-.07,0-.03.01-.06.01-.1,0-.07,0-.13-.02-.2-.02-.06-.04-.12-.08-.16-.04-.05-.08-.08-.14-.11s-.13-.04-.21-.04c-.11,0-.21.02-.31.07-.09.05-.17.12-.21.21h-.05v-.21ZM19.77,50.19s-.1.03-.16.04c-.06.01-.12.02-.19.03-.06.01-.13.03-.19.05-.06.02-.12.05-.16.08s-.09.07-.12.12c-.03.05-.04.11-.04.19,0,.13.04.23.11.29s.16.1.25.1c.1,0,.2-.03.29-.09.09-.06.15-.12.2-.2l.02-.62Z"/>
  <path class="cls-2" d="M21.64,49.55s-.08-.02-.12-.02c-.07,0-.13.02-.18.05-.05.03-.1.07-.13.12-.04.05-.06.11-.08.18s-.03.14-.03.22v.45c0,.18,0,.32,0,.42,0,.1,0,.18.01.24-.05,0-.11,0-.16,0-.06,0-.12,0-.17,0,0-.09.01-.22.01-.38,0-.16,0-.36,0-.59v-.13c0-.11,0-.23,0-.37,0-.14,0-.3-.01-.48.03,0,.06.01.09.01.03,0,.06,0,.09,0,.02,0,.05,0,.08,0,.03,0,.06,0,.09-.01-.01.1-.02.18-.02.23s0,.11,0,.16h0c.16-.29.34-.44.54-.44.02,0,.05,0,.06,0,.02,0,.04,0,.07.02-.01.03-.02.08-.02.15s0,.13,0,.18l-.03.02s-.04-.03-.08-.05"/>
  <path class="cls-2" d="M22.14,49.46c.12-.09.24-.16.34-.19.1-.03.21-.05.32-.05.1,0,.19.01.27.04.08.03.15.07.21.12.06.05.1.12.14.19.03.08.05.16.05.25,0,.16,0,.31,0,.47,0,.15,0,.32,0,.49,0,.03,0,.07,0,.1s0,.07.02.1c.01.03.03.05.05.07s.05.03.09.03c.01,0,.03,0,.04,0,.02,0,.03,0,.04-.01v.09s-.07.02-.11.03c-.05,0-.1.01-.15.01-.09,0-.16-.02-.2-.07-.05-.05-.07-.1-.08-.17-.1.1-.2.17-.29.22-.1.05-.21.07-.35.07-.07,0-.14,0-.2-.03-.07-.02-.12-.05-.18-.09-.05-.04-.09-.1-.12-.16-.03-.06-.05-.13-.05-.21,0-.16.05-.29.15-.38.1-.09.25-.15.43-.18.15-.02.26-.05.35-.06.08-.02.15-.04.19-.06.04-.02.06-.04.07-.07,0-.03.01-.06.01-.1,0-.07,0-.13-.02-.2-.02-.06-.04-.12-.08-.16s-.08-.08-.14-.11-.13-.04-.21-.04c-.11,0-.21.02-.31.07-.09.05-.17.12-.21.21h-.05v-.21ZM23.16,50.19s-.1.03-.16.04c-.06.01-.12.02-.19.03-.06.01-.13.03-.19.05-.06.02-.12.05-.17.08-.05.03-.09.07-.12.12-.03.05-.04.11-.04.19,0,.13.04.23.11.29.07.07.16.1.25.1.1,0,.2-.03.29-.09.09-.06.15-.12.2-.2l.02-.62Z"/>
  <path class="cls-2" d="M24.16,49.64c0-.14-.01-.26-.03-.38.08.01.14.02.19.02.02,0,.05,0,.07,0,.03,0,.06,0,.09-.01,0,.11-.01.22-.01.33h0c.15-.25.35-.37.61-.37.07,0,.14.01.2.03.07.02.13.05.18.08.05.04.1.08.14.13.04.05.06.1.08.16h0c.07-.13.16-.23.27-.3s.24-.1.39-.1c.09,0,.17.01.25.04s.14.06.2.11c.06.05.1.12.13.2.03.08.05.18.05.3,0,.05,0,.1,0,.15,0,.05,0,.12,0,.19,0,.07,0,.15,0,.25,0,.09,0,.2,0,.32,0,.07,0,.14,0,.21,0,.07,0,.14,0,.22-.03,0-.06,0-.09,0h-.18s-.06,0-.09,0c0-.07.02-.21.03-.41,0-.21.01-.5.01-.87,0-.07,0-.13-.02-.19-.02-.06-.04-.11-.07-.16-.03-.04-.08-.08-.13-.1-.05-.03-.12-.04-.21-.04-.1,0-.18.02-.25.06-.07.04-.12.08-.16.14-.02.03-.04.06-.05.09-.01.03-.02.08-.03.14,0,.06-.01.15-.01.26,0,.11,0,.26,0,.46,0,.12,0,.23,0,.32,0,.1,0,.2.01.32-.06,0-.12,0-.18,0s-.12,0-.18,0c.01-.15.02-.3.03-.46,0-.16,0-.31,0-.46,0-.13,0-.23,0-.3,0-.07,0-.13-.01-.17,0-.04-.01-.08-.02-.1,0-.03-.02-.06-.04-.09-.03-.05-.08-.1-.14-.13-.06-.04-.13-.06-.2-.06-.18,0-.31.06-.4.18s-.13.28-.13.5v.35c0,.12,0,.25,0,.39,0,.14.01.26.03.37-.06,0-.13,0-.19,0s-.12,0-.19,0c.01-.11.02-.23.03-.37,0-.14,0-.26,0-.39v-.43c0-.12,0-.25,0-.39"/>
  <path class="cls-2" d="M28.47,48.92c0-.17-.01-.35-.02-.53.12,0,.25.01.37.01.12,0,.25,0,.37,0s.25,0,.38,0c.13,0,.26,0,.41-.01,0,.04-.01.08-.01.12s0,.08.01.12c-.07,0-.16-.02-.27-.02-.1,0-.21-.01-.32-.02-.11,0-.21,0-.31-.01-.1,0-.18,0-.25,0,0,.1,0,.19,0,.27,0,.09,0,.18,0,.26,0,.1,0,.18,0,.26s0,.16,0,.25c.18,0,.36,0,.54,0,.18,0,.35-.02.53-.03-.01.04-.02.08-.02.12s0,.08.02.12c-.07,0-.15-.01-.23-.02-.09,0-.18,0-.27-.01-.09,0-.19,0-.28,0h-.28v.35c0,.18,0,.36.01.53,0,.18.01.35.02.52-.06,0-.13,0-.2,0s-.14,0-.2,0c0-.17.02-.34.02-.52,0-.18,0-.35,0-.53v-.71c0-.18,0-.36,0-.53"/>
  <path class="cls-2" d="M30.43,48.55c0-.06.02-.11.06-.15.04-.04.09-.06.15-.06s.11.02.15.06c.04.04.06.09.06.15s-.02.11-.06.15c-.04.04-.09.06-.15.06s-.11-.02-.15-.06c-.04-.04-.06-.09-.06-.15M30.49,50.03c0-.12,0-.25,0-.39,0-.14-.01-.26-.03-.38.08.01.14.02.19.02s.11,0,.19-.02c-.01.12-.02.24-.03.38,0,.14,0,.26,0,.39v.43c0,.12,0,.25,0,.39,0,.14.01.26.03.37-.06,0-.12,0-.19,0s-.12,0-.19,0c.01-.11.02-.23.03-.37,0-.14,0-.26,0-.39v-.43Z"/>
  <path class="cls-2" d="M32.75,49.59c-.08-.11-.19-.16-.33-.16-.19,0-.33.06-.42.18-.09.12-.13.28-.13.5v.35c0,.12,0,.25,0,.39s.01.26.03.37c-.06,0-.13,0-.19,0s-.12,0-.19,0c.01-.11.02-.23.03-.37,0-.14,0-.26,0-.39v-.43c0-.12,0-.25,0-.39,0-.14-.01-.26-.03-.38.08.01.14.02.19.02.02,0,.05,0,.07,0,.03,0,.06,0,.09-.01,0,.11-.01.22-.01.33h0c.08-.12.17-.21.28-.27.11-.06.24-.1.38-.1.08,0,.15.01.23.03.08.02.15.06.21.11.06.05.11.13.15.22.04.09.06.21.06.35,0,.12,0,.24,0,.36s0,.26,0,.4v.27s0,.09,0,.13,0,.08,0,.12c-.05,0-.11,0-.17,0s-.11,0-.17,0c0-.14.01-.29.02-.44,0-.15.01-.31.01-.46v-.25c0-.21-.04-.36-.12-.47"/>
  <path class="cls-2" d="M33.86,49.46c.12-.09.24-.16.34-.19.1-.03.21-.05.32-.05.1,0,.19.01.27.04.08.03.15.07.21.12.06.05.1.12.14.19.03.08.05.16.05.25,0,.16,0,.31,0,.47,0,.15,0,.32,0,.49,0,.03,0,.07,0,.1s0,.07.02.1c.01.03.03.05.05.07s.05.03.09.03c.01,0,.03,0,.04,0,.02,0,.03,0,.04-.01v.09s-.07.02-.11.03c-.05,0-.1.01-.15.01-.09,0-.16-.02-.2-.07-.05-.05-.07-.1-.08-.17-.1.1-.2.17-.29.22-.1.05-.21.07-.35.07-.07,0-.14,0-.2-.03-.07-.02-.12-.05-.18-.09-.05-.04-.09-.1-.12-.16-.03-.06-.05-.13-.05-.21,0-.16.05-.29.15-.38.1-.09.25-.15.43-.18.15-.02.26-.05.35-.06.08-.02.15-.04.19-.06.04-.02.06-.04.07-.07,0-.03.01-.06.01-.1,0-.07,0-.13-.02-.2-.02-.06-.04-.12-.08-.16s-.08-.08-.14-.11-.13-.04-.21-.04c-.11,0-.21.02-.31.07-.09.05-.17.12-.21.21h-.05v-.21ZM34.88,50.19s-.1.03-.16.04c-.06.01-.12.02-.19.03-.06.01-.13.03-.19.05-.06.02-.12.05-.17.08-.05.03-.09.07-.12.12-.03.05-.04.11-.04.19,0,.13.04.23.11.29.07.07.16.1.25.1.1,0,.2-.03.29-.09.09-.06.15-.12.2-.2l.02-.62Z"/>
  <path class="cls-2" d="M37.1,49.59c-.08-.11-.19-.16-.33-.16-.19,0-.33.06-.42.18-.09.12-.13.28-.13.5v.35c0,.12,0,.25,0,.39,0,.14.01.26.03.37-.06,0-.13,0-.19,0s-.12,0-.19,0c.01-.11.02-.23.03-.37,0-.14,0-.26,0-.39v-.43c0-.12,0-.25,0-.39,0-.14-.01-.26-.03-.38.08.01.14.02.19.02.02,0,.05,0,.07,0,.03,0,.06,0,.09-.01,0,.11-.01.22-.01.33h0c.08-.12.17-.21.28-.27.11-.06.23-.1.38-.1.08,0,.15.01.23.03.08.02.15.06.21.11.06.05.11.13.15.22.04.09.06.21.06.35,0,.12,0,.24,0,.36,0,.12,0,.26,0,.4v.27s0,.09,0,.13c0,.04,0,.08,0,.12-.05,0-.11,0-.17,0s-.11,0-.17,0c0-.14.01-.29.02-.44,0-.15.01-.31.01-.46v-.25c0-.21-.04-.36-.12-.47"/>
  <path class="cls-2" d="M38.03,50.24c0-.18.03-.33.09-.46.06-.13.14-.23.24-.32.1-.08.21-.14.34-.18.13-.04.26-.06.39-.06.15,0,.29.02.41.06.12.04.21.08.26.13-.02.04-.04.08-.05.13-.02.05-.03.09-.04.14h-.03s-.05-.07-.08-.11c-.03-.04-.07-.07-.12-.1-.04-.03-.1-.06-.15-.08-.05-.02-.12-.03-.18-.03-.12,0-.23.02-.32.07-.09.05-.16.11-.22.19-.06.08-.1.17-.12.28s-.04.23-.04.35c0,.28.06.49.18.64.12.14.3.22.53.22.05,0,.11,0,.17-.02.06-.02.11-.04.17-.06.05-.03.11-.06.15-.09.05-.04.09-.07.13-.11h.02c-.01.08-.02.14-.02.21-.08.07-.18.12-.31.17-.12.05-.25.07-.38.07-.12,0-.24-.02-.36-.05-.12-.03-.23-.09-.32-.17-.1-.08-.17-.19-.23-.31-.06-.13-.09-.29-.09-.47"/>
  <path class="cls-2" d="M40.06,50.3c0-.34.08-.6.24-.79.16-.19.39-.29.7-.29.15,0,.27.02.38.07.11.05.19.11.27.18s.12.16.16.26c.03.1.05.21.05.32,0,.03,0,.05,0,.08,0,.03,0,.05,0,.08-.15,0-.3,0-.44,0-.15,0-.29,0-.44,0-.09,0-.18,0-.27,0-.09,0-.18,0-.27,0,0,.01,0,.03,0,.06v.05c0,.11.02.21.05.3.03.09.08.17.14.24.06.07.13.12.22.16.09.04.19.06.3.06.06,0,.11,0,.17-.02s.11-.04.17-.06c.05-.03.11-.06.15-.09.05-.04.09-.07.13-.11h.02s-.03.21-.03.21c-.08.07-.18.12-.31.17-.12.05-.25.07-.38.07-.15,0-.28-.02-.41-.07-.12-.05-.23-.11-.32-.2-.09-.09-.16-.19-.21-.31-.05-.12-.07-.24-.07-.38M41.01,49.35c-.1,0-.19.02-.26.07-.07.05-.13.1-.17.17-.05.07-.08.15-.1.23-.02.08-.04.16-.04.24.08,0,.17,0,.27,0,.09,0,.18,0,.27,0s.18,0,.28,0c.09,0,.18,0,.27,0,0-.07,0-.15-.02-.23-.01-.08-.04-.16-.07-.23-.04-.07-.09-.13-.15-.18-.07-.05-.15-.07-.26-.07"/>
  <path class="cls-2" d="M45.68,48.75c-.06-.05-.13-.09-.21-.13-.08-.04-.16-.07-.25-.09-.09-.02-.19-.03-.29-.03-.17,0-.33.03-.48.08-.15.05-.28.13-.38.24-.11.11-.19.24-.26.41-.06.17-.09.36-.09.59,0,.2.03.38.08.54.05.16.14.3.24.41.11.11.24.2.39.26.15.06.33.09.52.09.06,0,.12,0,.18,0,.06,0,.12-.01.18-.02.06-.01.11-.02.16-.04.05-.02.09-.04.13-.06,0-.08,0-.16,0-.25s0-.17,0-.25c0-.1,0-.19,0-.29,0-.1,0-.19-.01-.27.07.01.13.02.2.02.03,0,.06,0,.09,0,.03,0,.06,0,.09-.02,0,.06,0,.16-.01.3,0,.14,0,.31,0,.54,0,.05,0,.11,0,.17s0,.11,0,.17c-.06.02-.13.04-.22.07-.09.02-.18.04-.28.06-.1.02-.19.03-.29.04-.1.01-.19.02-.27.02-.24,0-.46-.03-.66-.09-.2-.06-.36-.15-.5-.27-.14-.12-.24-.28-.32-.46-.07-.18-.11-.4-.11-.64s.04-.44.12-.62c.08-.18.19-.34.33-.46.14-.13.31-.22.51-.29.2-.07.42-.1.66-.1.14,0,.26,0,.37.02.11.02.2.03.29.06.08.02.16.05.22.08.06.03.12.05.17.08-.02.04-.04.09-.06.15-.02.06-.03.12-.03.17h-.05s-.09-.1-.15-.15"/>
  <path class="cls-2" d="M47.45,49.55s-.08-.02-.12-.02c-.07,0-.13.02-.18.05-.05.03-.1.07-.13.12-.04.05-.06.11-.08.18-.02.07-.03.14-.03.22v.45c0,.18,0,.32,0,.42,0,.1,0,.18.01.24-.05,0-.11,0-.17,0-.06,0-.12,0-.17,0,0-.09.01-.22.01-.38,0-.16,0-.36,0-.59v-.13c0-.11,0-.23,0-.37,0-.14,0-.3-.01-.48.03,0,.06.01.09.01.03,0,.06,0,.09,0,.03,0,.05,0,.08,0,.03,0,.06,0,.09-.01-.01.1-.02.18-.02.23s0,.11,0,.16h0c.16-.29.34-.44.54-.44.02,0,.05,0,.06,0,.02,0,.04,0,.07.02-.01.03-.02.08-.02.15s0,.13,0,.18l-.03.02s-.04-.03-.08-.05"/>
  <path class="cls-2" d="M47.79,50.24c0-.19.03-.34.09-.47.06-.13.14-.24.23-.32.1-.08.2-.14.32-.18.12-.04.24-.06.36-.06s.24.02.36.06c.12.04.23.1.32.18.1.08.17.19.23.32.06.13.09.29.09.47s-.03.34-.09.47c-.06.13-.14.24-.23.32-.1.08-.2.14-.32.17-.12.03-.24.05-.36.05s-.24-.02-.36-.05c-.12-.03-.23-.09-.32-.17-.1-.08-.17-.19-.23-.32-.06-.13-.09-.29-.09-.47M48.16,50.24c0,.11.01.23.03.33.02.11.06.2.1.29.05.08.12.15.2.2.08.05.18.07.3.07s.22-.02.3-.07c.08-.05.15-.12.2-.2.05-.08.08-.18.11-.29.02-.11.03-.22.03-.33s-.01-.23-.03-.33c-.02-.11-.06-.2-.11-.29-.05-.08-.12-.15-.2-.2-.08-.05-.18-.07-.3-.07s-.22.02-.3.07c-.08.05-.15.12-.2.2-.05.08-.08.18-.1.29-.02.11-.03.22-.03.33"/>
  <path class="cls-2" d="M50.25,50.59c0-.14,0-.27,0-.37,0-.1,0-.2,0-.31,0-.1,0-.2,0-.31,0-.11,0-.23,0-.34.07.01.13.02.17.02.04,0,.1,0,.17-.02-.01.16-.02.34-.03.54,0,.2-.01.4-.01.6,0,.14.01.25.04.33.02.08.05.13.09.17.04.04.09.08.15.11.06.03.13.04.21.04.12,0,.21-.03.29-.08.08-.05.13-.11.17-.19.02-.05.03-.09.05-.12.01-.03.02-.08.03-.13,0-.05.01-.13.01-.22,0-.09,0-.22,0-.38v-.34c0-.06,0-.12,0-.17,0-.05,0-.11,0-.16.03,0,.06.01.09.01.03,0,.06,0,.09,0s.06,0,.09,0c.03,0,.06,0,.08-.01-.01.21-.02.42-.02.62,0,.2,0,.41,0,.63,0,.12,0,.24,0,.36,0,.12,0,.23.01.34-.06,0-.11,0-.16,0s-.11,0-.16,0c0-.02,0-.05,0-.08,0-.03,0-.06,0-.09v-.18h0c-.07.13-.16.23-.28.29-.11.06-.23.09-.37.09-.21,0-.38-.06-.5-.17-.12-.11-.18-.28-.18-.49"/>
  <path class="cls-2" d="M52.5,50.46c0-.09,0-.19,0-.3,0-.11,0-.22,0-.33,0-.11,0-.21-.01-.31,0-.1,0-.18-.01-.25.08.01.14.02.19.02s.11,0,.19-.02c-.01.07-.02.14-.02.21,0,.07,0,.13,0,.2h0s.05-.09.08-.14c.04-.05.08-.1.14-.14.06-.05.12-.08.2-.11.08-.03.17-.05.27-.05s.21.02.31.06c.1.04.19.1.27.18.08.08.14.19.19.31.05.13.07.28.07.45s-.03.33-.08.46c-.05.13-.12.24-.2.32-.08.08-.18.15-.29.19-.11.04-.21.06-.32.06-.3,0-.52-.13-.65-.39h0v.26c0,.09,0,.19,0,.29,0,.11,0,.22,0,.32,0,.11,0,.21,0,.31,0,.1,0,.18.01.25-.08-.01-.14-.02-.19-.02s-.11,0-.19.02c0-.07.01-.15.01-.25,0-.1,0-.2.01-.31,0-.11,0-.21,0-.32,0-.11,0-.21,0-.29v-.66ZM53.99,50.23c0-.16-.02-.3-.05-.41-.03-.11-.08-.19-.13-.26-.05-.06-.11-.11-.18-.13-.07-.02-.14-.04-.2-.04-.11,0-.2.02-.28.07-.08.05-.14.11-.19.19-.05.08-.09.17-.11.27-.02.11-.03.22-.03.33,0,.57.2.85.6.85.1,0,.18-.02.26-.07.07-.05.13-.11.18-.19.05-.08.08-.18.11-.28.02-.11.04-.22.04-.35"/>
  <rect class="cls-2" x="55.81" y="50.04" width="7.96" height=".34"/>
  <rect class="cls-2" x=".23" y="50.04" width="7.96" height=".34"/>
</svg>