<?xml version="1.0" encoding="UTF-8"?>
<!DOCTYPE svg PUBLIC "-//W3C//DTD SVG 1.1//EN" "http://www.w3.org/Graphics/SVG/1.1/DTD/svg11.dtd">
<!-- Creator: CorelDRAW 2019 (64-Bit) -->
<svg xmlns="http://www.w3.org/2000/svg" xml:space="preserve" width="64mm" height="64.0004mm" version="1.1" style="shape-rendering:geometricPrecision; text-rendering:geometricPrecision; image-rendering:optimizeQuality; fill-rule:evenodd; clip-rule:evenodd"
viewBox="0 0 6387.62 6387.66"
 xmlns:xlink="http://www.w3.org/1999/xlink">
 <defs>
  <style type="text/css">
   <![CDATA[
    .fil0 {fill:#FEFEFE}
    .fil2 {fill:#6FB049;fill-rule:nonzero}
    .fil3 {fill:#65AE4A;fill-rule:nonzero}
    .fil11 {fill:#49AD3C;fill-rule:nonzero}
    .fil5 {fill:#4CA64F;fill-rule:nonzero}
    .fil12 {fill:#3FAB3C;fill-rule:nonzero}
    .fil14 {fill:#2BA845;fill-rule:nonzero}
    .fil4 {fill:#33A24E;fill-rule:nonzero}
    .fil13 {fill:#1EA454;fill-rule:nonzero}
    .fil6 {fill:#2D9B4E;fill-rule:nonzero}
    .fil15 {fill:#199B64;fill-rule:nonzero}
    .fil16 {fill:#1C9575;fill-rule:nonzero}
    .fil7 {fill:#16994F;fill-rule:nonzero}
    .fil8 {fill:#158C87;fill-rule:nonzero}
    .fil9 {fill:#1B8297;fill-rule:nonzero}
    .fil10 {fill:#2477A4;fill-rule:nonzero}
    .fil1 {fill:#286AAD;fill-rule:nonzero}
   ]]>
  </style>
 </defs>
 <g id="Layer_x0020_1">
  <metadata id="CorelCorpID_0Corel-Layer"/>
  <rect class="fil0" x="0" y="0" width="6387.62" height="6387.66"/>
  <g id="_2025050136224">
   <g>
    <polygon class="fil1" points="449.13,2467.95 1000.09,2467.95 1000.09,2635.26 842.97,2635.26 842.97,3037.28 612.38,3037.28 614.42,2635.28 449.13,2635.28 "/>
    <polygon class="fil1" points="944.41,3037.28 1162.94,2467.95 1398.55,2467.95 1622.2,3037.28 1401.96,3037.28 1283.3,2698.82 1168.06,3037.28 "/>
    <polygon class="fil1" points="1570.77,2467.95 2121.73,2467.95 2121.73,2635.26 1964.6,2635.26 1964.6,3037.28 1734.02,3037.28 1736.06,2635.28 1570.77,2635.28 "/>
    <polygon class="fil1" points="2066.05,3037.28 2284.57,2467.95 2520.18,2467.95 2743.83,3037.28 2523.6,3037.28 2404.94,2698.82 2289.7,3037.28 "/>
    <g>
     <path class="fil2" d="M1247.1 3891.65c2.87,-1.84 5.7,-3.77 8.47,-5.83l7.42 -5.11 -25.21 -72.68 -10.91 6.56 0 0c-12.16,6.55 -24.95,11.06 -39.18,10.64 -10.35,-0.31 -16.27,-4.68 -19.46,-14.5 -3.48,-10.7 -2.87,-21.76 -2.42,-32.78 2.58,-62.45 5.25,-124.9 7.67,-187.35 1.16,-29.69 -0.7,-59.13 -9.72,-87.73 -7.3,-23.12 -18.65,-43.77 -36.7,-60.34 -23.97,-22.03 -53.18,-31.34 -84.84,-34.23 -19.48,-1.77 -38.89,-0.98 -58.17,2.88 -27.27,5.46 -50.84,17.66 -70.4,37.45 -22.57,22.84 -36.43,50.81 -46.91,80.63 -3.94,11.23 -6.95,22.77 -10.58,34.09 -0.37,1.17 -4.19,16.47 -5.3,17.39 -0.81,-1.19 -0.12,-16.91 -0.25,-18.16 -0.44,-4.5 -0.43,-9.04 -0.62,-13.57 -1.01,-24.68 -4.24,-48.95 -13.08,-72.22 -14.48,-38.14 -42.42,-59.92 -82.16,-66.68 -22.94,-3.9 -45.97,-3.73 -68.9,1.12 -23.2,4.9 -43.93,14.75 -62.13,29.88 -25.1,20.88 -42.11,47.6 -54,77.54 -5.3,13.34 -9.25,27.22 -13.55,40.96l0 0.01 -9.94 31.85 2.38 -47.29c0.55,-12.48 1.09,-24.97 1.65,-37.47 1.25,-28.45 2.51,-56.9 3.75,-85.35 0.07,-1.75 0.01,-3.5 0.01,-5.62 -1.83,0 -3.01,-0.05 -4.19,0 -31.68,1.49 -63.37,3.07 -95.06,4.36 -0.71,0.02 -1.32,0.09 -1.87,0.19l-3.77 0.17 0 5.65c0,0.05 0,0.09 0,0.14 0.11,158.85 0.09,317.68 0.09,476.52 0,1.64 0,3.25 0,5.45 2.45,0 4.37,0 6.3,0 33.09,0 66.17,0.01 99.26,0 6.7,0 6.7,0 6.8,-6.49 1,-63.3 4.81,-126.37 14.05,-189.05 5.53,-37.51 13.01,-74.56 25.48,-110.45 8.44,-24.3 18.83,-47.72 35.59,-67.67 14.5,-17.31 32.04,-29 55.53,-30.06 29.44,-1.33 49.55,12.03 59.17,39.73 5.76,16.61 7.83,33.83 7.76,51.22 -0.13,29.43 -0.87,58.86 -1.65,88.29 -1.44,54.54 -2.94,109.09 -4.52,163.63l-1.87 61.03 14.27 -0.13c23.67,-0.08 47.35,-0.08 71.02,-0.06l0 0 25.06 0.19 0.1 -3.01c0.14,-0.97 0.17,-2.29 0.21,-4.04 0.04,-2.15 0.09,-4.29 0.14,-6.45l1.47 -44.49c2.47,-56.61 7.39,-113 17.25,-168.96 5.24,-29.74 12.08,-59.08 22.43,-87.48 7.93,-21.77 17.64,-42.67 32.78,-60.53 14.32,-16.9 31.71,-27.97 54.66,-28.95 31.9,-1.37 52.45,13 61.11,43.71 5.53,19.53 6.17,39.6 5.4,59.71 -1.27,33.34 -2.82,66.66 -4.27,100 -1.32,30.01 -2.57,60.02 -4.04,90.04 -0.97,19.51 -0.87,38.88 4.07,57.99 8.64,33.47 32.86,55.36 66.92,60.27 22.34,3.22 44.56,2.27 66.73,-1.66 21.87,-3.86 42.24,-11.11 60.67,-22.87l0 -0.01z"/>
     <path class="fil3" d="M1842.47 3884.79l2.9 -2.22 -11.04 -31.17c-2.36,-6.84 -4.7,-13.68 -7.07,-20.51 -2.26,-6.51 -4.61,-12.97 -7.16,-20.12 -2.23,1.28 -3.64,2.1 -5.06,2.88 -13.31,7.42 -27.05,13.54 -42.76,12.91 -9.68,-0.4 -15.97,-4.68 -18.06,-14.11 -1.94,-8.74 -2.93,-17.89 -2.94,-26.85 -0.19,-120.04 -0.13,-240.06 -0.13,-360.1 0,-0.73 -0.02,-1.46 -0.04,-2.19l0 -1.26c0.01,-0.36 0.03,-0.72 0.06,-1.09 0.08,-0.75 0.05,-1.36 -0.06,-1.88l0 -2.54 -113.23 4.87 0 38.69c-0.19,5.93 -0.41,11.86 -0.64,17.78 -1.81,46.33 -5.61,92.47 -12.4,138.37 -5.57,37.66 -12.99,74.85 -25.41,110.91 -8.43,24.49 -18.85,48.04 -35.64,68.16 -17.47,20.93 -38.99,32.14 -67.13,28.58 -21.06,-2.66 -35.96,-13.04 -44.1,-32.68 -7.24,-17.43 -9.64,-35.9 -9.36,-54.5 0.83,-55.39 2.15,-110.8 3.51,-166.19 1.11,-45.03 2.47,-90.08 3.8,-135.11l0 0 0.56 -18.87 -21.83 1.22c-15.5,0.71 -31,1.39 -46.49,2.04l-47.91 1.77 -0.94 40.04 0 0c-0.09,3 -0.18,6.02 -0.25,9.03 -1.33,51.77 -2.72,103.53 -3.93,155.3 -1.02,43.78 -2.19,87.55 -2.55,131.33 -0.24,27.63 4.2,54.69 14.47,80.55 16.95,42.66 47.7,69.22 92.91,78.13 30.85,6.08 61.64,4.65 91.96,-3.52 25.27,-6.82 47.19,-19.62 65.66,-38.3 19.44,-19.63 33.43,-42.85 43.11,-68.4 7.34,-19.39 12.73,-39.53 18.82,-59.38 0.78,-2.53 4.18,-12.92 4.99,-11.75 0.64,0.9 1.01,11.3 1.02,12.89 0.1,26.88 0.03,53.75 0.09,80.62 0.04,15.97 2.41,31.58 8.18,46.52 9.25,23.9 26.54,38.23 51.8,42.86 15.47,2.85 30.93,2.2 46.43,0.19 25.72,-3.3 48.67,-12.86 69.3,-27.89l0 0.01 0.05 -0.04c2.05,-1.5 4.08,-3.04 6.09,-4.65 0.14,-0.11 0.28,-0.22 0.4,-0.34z"/>
     <path class="fil4" d="M2809.11 3884.79l2.9 -2.22 -11.05 -31.17c-2.35,-6.84 -4.69,-13.68 -7.07,-20.51 -2.26,-6.51 -4.61,-12.97 -7.15,-20.12 -2.24,1.28 -3.64,2.1 -5.07,2.88 -13.31,7.42 -27.04,13.54 -42.75,12.91 -9.69,-0.4 -15.98,-4.68 -18.06,-14.11 -1.94,-8.74 -2.94,-17.89 -2.95,-26.85 -0.19,-120.04 -0.12,-240.06 -0.12,-360.1 0,-0.73 -0.03,-1.46 -0.04,-2.19l0 -1.26c0,-0.36 0.02,-0.72 0.06,-1.09 0.07,-0.75 0.05,-1.36 -0.06,-1.88l0 -2.54 -113.24 4.87 0 38.69c-0.2,5.93 -0.4,11.86 -0.63,17.78 -1.82,46.33 -5.63,92.47 -12.41,138.37 -5.56,37.66 -12.99,74.85 -25.41,110.91 -8.43,24.49 -18.84,48.04 -35.64,68.16 -17.46,20.93 -38.99,32.14 -67.12,28.58 -21.07,-2.66 -35.97,-13.04 -44.11,-32.68 -7.24,-17.43 -9.63,-35.9 -9.36,-54.5 0.83,-55.39 2.15,-110.8 3.51,-166.19 1.11,-45.03 2.48,-90.08 3.8,-135.11l0 0 0.57 -18.87 -21.84 1.22c-15.5,0.71 -31,1.39 -46.49,2.04l-47.91 1.77 -0.94 40.04 0 0c-0.09,3 -0.17,6.02 -0.25,9.03 -1.33,51.77 -2.72,103.53 -3.93,155.3 -1.02,43.78 -2.19,87.55 -2.56,131.33 -0.22,27.63 4.21,54.69 14.49,80.55 16.95,42.66 47.7,69.22 92.91,78.13 30.84,6.08 61.63,4.65 91.96,-3.52 25.26,-6.82 47.18,-19.62 65.66,-38.3 19.43,-19.63 33.42,-42.85 43.1,-68.4 7.35,-19.39 12.74,-39.53 18.83,-59.38 0.78,-2.53 4.16,-12.92 4.99,-11.75 0.63,0.9 1.01,11.3 1.02,12.89 0.09,26.88 0.02,53.75 0.08,80.62 0.04,15.97 2.41,31.58 8.18,46.52 9.26,23.9 26.55,38.23 51.8,42.86 15.47,2.85 30.93,2.2 46.44,0.19 25.71,-3.3 48.66,-12.86 69.29,-27.89l0 0.01 0.05 -0.04c2.06,-1.5 4.08,-3.04 6.09,-4.65 0.15,-0.11 0.28,-0.22 0.41,-0.34z"/>
     <path class="fil5" d="M2219.1 3883.57c0.9,-0.59 1.8,-1.19 2.69,-1.8l11.34 -7.55 -1.09 -3.05c-0.06,-0.25 -0.15,-0.51 -0.24,-0.79 -0.38,-1.02 -0.75,-2.06 -1.12,-3.08l-2.65 -7.51c-2.13,-6.13 -4.19,-12.27 -6.32,-18.39 -4.84,-13.9 -9.69,-27.81 -14.79,-42.47 -3.47,1.74 -6.27,3.12 -9.04,4.55 -28.51,14.67 -58.36,23.37 -90.85,20.82 -22.1,-1.75 -36.24,-12.22 -43.25,-33.08 -5.31,-15.79 -5.82,-32.24 -5.83,-48.7 -0.03,-65.48 -0.02,-130.99 -0.02,-196.48l-0.12 -36.99 30.87 0.16c36.59,-0.01 73.16,-0.02 109.75,0.09 0.62,0 1.18,-0.02 1.7,-0.08l3.87 0 0.13 -3.69c0.08,-0.51 0.13,-1.08 0.14,-1.72 0.52,-21.56 1.22,-43.12 1.92,-64.66l0 0 0.01 -0.5c0.13,-4.05 0.26,-8.1 0.39,-12.16 0.04,-1.14 0.07,-2.09 0.07,-2.89l0.12 -4.05 -2.81 0c-0.97,-0.11 -2.26,-0.11 -3.99,-0.11 -43.48,-0.01 -86.94,0 -130.41,0l0.03 0.05 -11.65 0 0 -2.4c-0.11,-0.96 -0.03,-2.3 0,-4.18l0 -11.84 0.01 0.01c-0.03,-27.44 -0.02,-54.88 -0.02,-82.33l0.13 -10.28 -18.22 1.13c-13.13,0.66 -26.28,1.22 -39.42,1.88 -9.71,0.5 -19.41,1.09 -29.11,1.59l-10.53 0.47 -0.55 11.33c-0.4,4.47 -0.94,8.94 -1.37,13.41 -0.86,8.96 -1.74,17.91 -2.6,26.86l-4.89 54.53 -36.69 -0.24c-3.44,0 -6.89,0 -10.33,0l-1.24 0c-8.23,0 -16.47,-0.01 -24.7,-0.06 -0.55,-0.01 -1.04,0.02 -1.49,0.06l-3.81 0 -2.78 63.54c-0.37,7.3 -0.74,14.59 -1.14,21.89 -0.04,0.77 -0.04,1.29 -0.07,1.95l-0.18 2.51 50.36 -0.1c6.01,0.01 12.01,0.01 18,0.01 1.06,0 1.93,0.01 2.63,0.04l3.17 0 0.07 3.99c0,0.17 0,0.35 0.01,0.54l0 0.02c0,0.45 0,0.94 0,1.48 0.02,20.97 -0.02,41.92 0.02,62.88 0.1,62.73 0,125.45 0.47,188.18 0.21,26.16 3.66,51.97 12.68,76.77 7.85,21.63 20.16,39.91 39.47,53.09 20.99,14.31 44.68,20.14 69.5,21.58 31.26,1.82 62.36,0.27 92.94,-7.57 21.84,-5.59 42.07,-14.39 60.72,-26.57l-0.01 0 0.14 -0.08z"/>
     <path class="fil6" d="M3186.23 3520.52c-2.01,29.41 -3.09,58.92 -6.13,88.22 -2.52,24.32 -6.4,48.61 -11.28,72.57 -7.23,35.49 -18.11,69.83 -38.74,100.24 -11.98,17.66 -26.69,32.6 -47.43,39.3 -27.23,8.8 -53.57,7.19 -76.63,-11.78 -11.74,-9.65 -17.93,-23.13 -22.34,-37.41 -7.13,-23.13 -8.28,-46.99 -8.53,-63.72 -0.08,-41.91 4.34,-75.91 16.26,-108.66 8.7,-23.93 20.94,-45.82 38.69,-64.45 26.71,-28.04 59.32,-39.81 97.7,-36.58 11.33,0.95 22.32,2.94 32.85,6.41l-0.01 0 0.06 0.02c5.55,1.83 10.98,4.07 16.28,6.79l0.07 0.03 0.09 0.05c1.97,1.03 3.93,2.11 5.86,3.26 0.15,0.09 0.3,0.18 0.44,0.27l2.82 1.76 -0.09 2.02c0.09,0.5 0.11,1.05 0.07,1.66zm191.94 364.79l4.56 -3.48 -0.87 -2.58c-0.08,-0.41 -0.21,-0.85 -0.38,-1.32 -4.6,-13.02 -8.92,-26.14 -13.4,-39.21 -3,-8.77 -6.11,-17.51 -9.36,-26.84 -3.65,1.78 -6.44,3.22 -9.29,4.5 -11.05,4.92 -22.27,9.19 -34.7,8.21 -10.23,-0.82 -16.5,-6.19 -17.94,-16.38 -1.09,-7.71 -1.63,-15.55 -1.64,-23.33 -0.1,-108.35 -0.09,-216.69 0.01,-325.05 0.01,-0.97 -0.06,-1.84 -0.21,-2.64l-0.01 -3.38 -4.61 -2.45c-4.3,-2.35 -8.62,-4.6 -12.97,-6.77l-0.24 -0.14 -0.21 -0.09c-5.64,-2.8 -11.32,-5.46 -17.06,-7.94l-0.11 -0.05 -0.09 -0.05c-4.44,-1.92 -8.9,-3.74 -13.39,-5.48l-0.2 -0.09 0 0.01c-27.59,-10.64 -56.3,-17.68 -86.32,-20.66 -37.3,-3.7 -74.18,-2.15 -110.46,8.09 -48.13,13.59 -88.32,39.55 -120.47,77.79 -38.6,45.95 -58.87,99.78 -66.42,158.67 -5.31,41.32 -4.01,82.57 4.4,123.46 5.79,28.09 15.7,54.45 32.42,78.06 18.3,25.86 42.61,43.5 72.73,52.75 36.54,11.23 73.51,11.16 110.44,1.84 44.15,-11.13 76.34,-37.91 99.13,-76.74 8.66,-14.78 15.26,-30.43 20.66,-46.58l2.77 -8.69c0.37,-1.21 0.74,-2.42 1.1,-3.62 0.29,-0.98 0.55,-2.07 1,-2.89l5.53 -17.3 -0.21 29.53 0 0c0.11,15.57 0.15,31.13 -0.01,46.7 -0.14,13.33 1.22,26.42 4.98,39.22 6.43,21.83 19.45,37.34 42.05,43.58 18.26,5.05 36.77,4.01 55.04,0.82 17.95,-3.14 34.44,-9.64 49.5,-19.19l-0.01 0.01 0.11 -0.07c2.39,-1.52 4.73,-3.1 7.05,-4.77l0.03 -0.02 0.04 -0.03c2.38,-1.72 4.71,-3.5 7.01,-5.38l0.03 -0.01z"/>
     <path class="fil7" d="M3669.96 3879.5l-4.58 -12.56c-3.03,-8.51 -5.99,-17.07 -9,-25.59 -3.74,-10.59 -7.52,-21.16 -11.47,-32.29 -5.96,3.07 -11.45,6.05 -17.07,8.78 -12.13,5.87 -24.74,9.33 -38.38,7.12 -7.8,-1.27 -13.81,-5.42 -15.42,-13.23 -1.75,-8.47 -2.86,-17.23 -2.89,-25.86 -0.23,-64.26 -0.12,-128.51 -0.12,-192.78 0,-132.63 0,-265.26 0,-397.89l0 -0.01c0,-0.99 0,-2 0,-2.99 0,-1.42 0,-2.52 -0.09,-3.35l-0.04 -2.95 -13.06 0.8 0 0c-30.42,1.55 -60.83,3.17 -91.25,4.66l-9.29 0.45 0 5.13c0,0.11 -0.01,0.23 -0.01,0.34 0.1,202.71 0.07,405.4 0.12,608.11 0,18.86 1.68,37.55 7.66,55.6 8.11,24.49 23.69,41.73 48.5,50.15 16.54,5.62 33.58,6.3 50.79,5.97 34.74,-0.67 66.75,-9.25 94.86,-29.37l0 0.01 0.26 -0.2c2.37,-1.7 4.7,-3.46 7.01,-5.33l3.49 -2.71z"/>
     <polygon class="fil8" points="3950.06,3406.13 3950.06,3406.13 "/>
     <path class="fil8" d="M4224.36 3200.25l-8.55 -3.76 -0.01 0c-3.29,-1.49 -6.63,-2.85 -9.98,-4.11l-0.19 -0.08 -0.14 -0.04c-4.89,-1.84 -9.85,-3.43 -14.88,-4.82l-0.13 -0.05 0.01 0.01c-6.33,-1.74 -12.77,-3.14 -19.27,-4.22 -35.12,-5.81 -69.98,-5.04 -104.17,5.95 -33.39,10.74 -60.34,30.36 -80.25,59.29 -22.22,32.28 -32.28,68.75 -35.29,107.25 -1.32,16.76 -1.31,33.63 -1.44,50.47l0.09 12.63 -4.13 0c-0.44,0.04 -0.93,0.06 -1.47,0.05 -17.87,-0.16 -35.74,-0.1 -53.61,-0.07l-10.82 0 -0.18 3.62c-0.07,0.85 -0.11,1.89 -0.17,3.18 -0.2,4.69 -0.42,9.37 -0.63,14.07l-3.7 68.75 27.47 -0.03 0 0c14.2,0.01 28.4,0.01 42.61,-0.07 0.5,-0.01 0.97,0.01 1.38,0.06l3.39 0 -0.41 16.02c0,125.27 0,250.53 0.01,375.8 0,7.24 -0.92,6.69 6.89,6.7 33.63,0.01 67.27,0.01 100.9,0 7.93,0 7.06,0.54 7.06,-7.04 0.01,-123.08 0.01,-246.15 0.01,-369.24l-0.03 0.03 0 -22.36 24.8 0.09c31.64,-0.02 63.27,-0.05 94.91,0.11 0.5,0 0.95,-0.02 1.38,-0.05l4.53 0 0.21 -5.04c0.01,-0.2 0.03,-0.39 0.03,-0.6 0.1,-2.32 0.19,-4.64 0.28,-6.96l0.31 -7.51c0.89,-20.93 1.92,-41.85 2.88,-62.78 0.07,-1.49 0.12,-2.64 0.09,-3.55l0.14 -3.21 -22.87 0c-28.64,-0.02 -57.29,-0.04 -85.93,0.05l-20.65 0.49 0 -3.71c-0.15,-0.73 -0.2,-1.61 -0.17,-2.65 0.33,-13.25 0,-26.54 0.36,-39.79 0.53,-19.53 3.27,-38.73 10.89,-56.91 11.39,-27.22 31.72,-41.93 61.39,-43.62 15.71,-0.89 30.93,1.65 45.9,6.09 6.57,1.94 13.08,4.09 19.8,6.2 0.41,-1.27 0.67,-1.95 0.85,-2.65 6.2,-25.06 12.21,-50.17 18.73,-75.15l1.78 -6.82z"/>
     <path class="fil9" d="M4764.12 3860.24c-3.68,-10.62 -7.32,-21.25 -11,-31.87 -2.26,-6.48 -4.6,-12.93 -7.1,-19.95 -4.3,2.37 -7.67,4.33 -11.14,6.09 -11.55,5.84 -23.5,10.25 -36.73,9.59 -9.43,-0.46 -15.65,-4.69 -17.74,-13.87 -1.92,-8.42 -2.96,-17.24 -2.98,-25.88 -0.21,-88.2 -0.13,-176.4 -0.13,-264.59 0,-33.02 -0.03,-66.03 0.06,-99.05 0,-0.22 -0.01,-0.43 -0.01,-0.64l-0.02 -4.37 -4.44 0.3c-31.67,1.52 -63.35,2.85 -95.03,4.29l0 0 -1.56 0.07c-1.4,0.07 -2.79,0.12 -4.19,0.19 -0.67,0.03 -1.27,0.06 -1.8,0.09l-4.96 0.24 0 6.98 -0.2 10.07c-1.27,59.36 -5.12,118.53 -13.8,177.35 -5.52,37.45 -12.96,74.46 -25.37,110.29 -8.34,24.13 -18.71,47.32 -35.19,67.25 -18.38,22.23 -41.31,33.14 -70.54,28.2 -10.14,-1.72 -19.43,-5.4 -27.1,-12.5 -11.76,-10.9 -16.51,-25.27 -19.48,-40.37 -3.36,-17.09 -3.86,-34.43 -3.41,-51.78 1.95,-75.04 3.99,-150.09 6.01,-225.13 0.62,-23.36 1.18,-46.73 1.92,-70.08 0.03,-0.9 0.02,-1.67 -0.08,-2.32l0.04 -2.84 -2.8 0.09c-0.57,-0.08 -1.23,-0.11 -2.03,-0.07 -32.94,1.56 -65.88,2.89 -98.84,4.33l0.01 -0.02 -4.7 0.22c-0.29,0.01 -0.59,0.02 -0.88,0.04 -0.4,0.01 -0.78,0.03 -1.14,0.05l-5.08 0.23 -0.07 3.57c-0.06,0.77 -0.09,1.69 -0.12,2.8 -2.58,102.79 -5.2,205.56 -7.73,308.34 -0.72,29.04 1.15,57.81 9.66,85.84 6.96,22.84 17.71,43.48 35,60.23 23.08,22.35 51.62,32.03 82.95,34.44 19.13,1.48 38.26,0.57 57.18,-3.1 24.96,-4.84 47.7,-14.56 67.51,-30.72 26.95,-21.99 44.27,-50.71 56.32,-82.65 2.84,-7.57 5.33,-15.27 7.69,-23.03l6.15 -20.88 0.04 -0.12c1.17,-3.98 2.36,-7.95 3.59,-11.92l5.78 -18.67 0.03 19.95c0.01,0.33 0.01,0.65 0.01,0.98 0.01,2.04 0.01,4.08 0.01,6.13l0 1.73c0.01,24.06 -0.02,48.13 0.03,72.19 0.03,15.8 2.41,31.22 8.12,46 9.3,24.06 26.72,38.34 52.16,42.84 15.3,2.72 30.58,2.08 45.91,0.08 23.18,-3.01 44.09,-11.12 63.07,-23.74l0 0 0.06 -0.04c3.06,-2.05 6.07,-4.2 9.03,-6.48l0.08 -0.05 0.4 -0.32c0.27,-0.21 0.55,-0.42 0.82,-0.63l5.1 -3.96 -7.36 -19.43z"/>
     <path class="fil10" d="M5367.79 3878.65l-2.85 -7.64 0 0.01c-6.87,-20.1 -13.88,-40.14 -20.8,-60.21 -0.07,-0.22 -0.15,-0.42 -0.23,-0.6l-1.14 -3.25 -5.41 3.53c-0.01,0.01 -0.01,0.01 -0.01,0.02l-7.81 4.33 0 0c-11.38,5.84 -23.26,9.89 -36.31,9.25 -9.71,-0.47 -16.86,-4.95 -19.39,-14.64 -1.56,-5.92 -2.66,-12.13 -2.68,-18.2 -0.05,-13.26 0.72,-26.52 1.18,-39.77 1.77,-51.22 3.32,-102.46 5.41,-153.66 1.07,-26.31 0.55,-52.41 -5.18,-78.23 -4.12,-18.52 -10.7,-36.08 -21.08,-52.01 -20.09,-30.88 -49.08,-48.56 -84.77,-55.77 -25.69,-5.21 -51.45,-5.44 -77.22,-0.17 -24.24,4.95 -45.89,15.23 -64.9,31.04 -24.06,20.02 -40.97,45.34 -52.78,73.93 -5.92,14.32 -10.31,29.28 -15.16,44.04l0 0 -8.98 30.24 0.9 -22.63c-0.07,-0.49 -0.12,-0.96 -0.1,-1.37 0.6,-17.63 1.4,-35.25 2.17,-52.87 0.42,-9.39 0.83,-18.79 1.24,-28.19l0.03 -0.53 0 0.02c0.73,-16.58 1.47,-33.18 2.23,-49.74l1.02 -19.82 -29.41 1.5c-20.33,0.98 -40.66,1.92 -61,2.88l0 0 -1.59 0.08c-2.17,0.11 -4.33,0.21 -6.49,0.31 -0.84,0.04 -1.56,0.08 -2.19,0.13l-4.12 0.21 0 29.01c0,71.28 0,142.56 0,213.86 0,79.3 0.03,158.59 -0.09,237.89 -0.01,4.14 1.09,5.33 5.26,5.31 33.63,-0.17 67.27,-0.18 100.9,0.01 4.49,0.02 5.9,-1.09 5.95,-5.73 0.54,-50.37 3.45,-100.61 9.19,-150.67 5.27,-46 12.89,-91.54 26.86,-135.8 8.14,-25.79 18.27,-50.74 34.41,-72.74 18.06,-24.64 40.73,-40.32 73.14,-37.08 22.5,2.24 38.29,13.15 46.75,34.28 6.84,17.08 8.98,35.1 8.8,53.19 -0.32,31.65 -1.68,63.29 -2.78,94.92 -1.22,34.79 -2.57,69.6 -4.02,104.39 -0.88,20.97 -1.34,41.89 4.03,62.44 4.45,17.01 12.23,32.03 26.12,43.32 15.75,12.82 34.34,17.7 54.13,18.8 21.31,1.19 42.5,-0.04 63.38,-4.83 19.55,-4.48 37.54,-12.2 53.69,-23.61l0 0.01 0.05 -0.04c3.18,-2.26 6.31,-4.66 9.35,-7.21l2.34 -1.95z"/>
     <path class="fil1" d="M5740.54 3528.05c-2.27,31.56 -3.81,63.2 -7.18,94.65 -4.34,40.49 -12.44,80.33 -27.66,118.38 -8.74,21.82 -19.92,42.13 -36.71,59.04 -25.84,26.03 -62.19,31.39 -93.44,18.1 -15.36,-6.53 -25.19,-18.69 -32.03,-33.51 -7.36,-15.94 -10.48,-32.97 -12.14,-50.25 -1.13,-11.85 -1.42,-23.76 -2.09,-35.65 0.64,-33.39 4.78,-66.18 15.97,-97.74 11.48,-32.37 28.57,-61.06 56.63,-82.05 24.3,-18.17 51.84,-23.76 81.61,-21.06 12.6,1.15 24.7,3.71 36.3,8.05l-0.02 -0.02 0.13 0.06c4.76,1.78 9.44,3.87 14.01,6.28l0.07 0.03 7.68 3.96 -1.15 11.73zm197.96 353.02l0 -0.67 -5.06 -14.08c-5.82,-16.76 -11.56,-33.55 -17.36,-50.31 -0.05,-0.16 -0.12,-0.33 -0.18,-0.49l0 0 -0.01 -0.03c-0.01,-0.02 -0.01,-0.03 -0.02,-0.05l-1.6 -4.01 -1.93 1.1c-0.45,0.24 -0.85,0.44 -1.23,0.65 -11.92,6.53 -24.45,11.05 -38.23,10.98 -12.29,-0.07 -19.28,-6.07 -20.78,-18.13 -0.92,-7.3 -1.42,-14.7 -1.42,-22.06 -0.07,-196.89 -0.06,-393.79 -0.06,-590.67 0,-1.66 0,-3.31 0,-5.17l0.02 -2.45 -8.11 0.38 -0.08 0c-0.53,0.01 -1.06,0.03 -1.58,0.05 -6.91,0.37 -13.81,0.75 -20.71,1.12l-4.58 0.23 0.08 0c-22.62,1.22 -45.23,2.44 -67.85,3.68 -0.11,0.01 -0.21,0.01 -0.32,0.01l-0.01 0c-1.07,0.07 -1.96,0.12 -2.69,0.2l-3.64 0.26 0 5.6c0,0.3 0,0.6 0,0.93 0,1.82 0,3.63 0,5.45l0 0.69c0,65.33 0,130.67 0,196l0.22 13.14 -8.44 -1.23c-0.58,-0.08 -1.2,-0.17 -1.86,-0.27l-0.5 -0.06c-1.03,-0.16 -2.05,-0.3 -3.07,-0.44l-9.94 -1.27c-25.13,-2.85 -50.31,-3.16 -75.59,-0.12 -31.14,3.75 -60.66,12.65 -88.23,27.63 -51.8,28.14 -87.8,70.6 -111.5,123.98 -15.37,34.59 -23.93,70.94 -26.77,108.64 -3.27,43.45 -0.9,86.42 11.34,128.5 6.5,22.32 16.19,43.12 30.43,61.56 27.59,35.72 65.13,52.36 109.21,55.72 18.83,1.43 37.63,0.62 56.32,-2.77 22.08,-4 42.71,-11.6 61.4,-23.96 25.64,-16.96 44.04,-39.63 57.54,-66.03l14.07 -34.06c0,-0.01 0.01,-0.02 0.01,-0.02l11.48 -34.96 0 43.5 -0.45 0.45c-0.09,12.86 -0.15,25.71 0.28,38.56 0.37,10.76 1.51,21.73 4.2,32.12 6.55,25.32 22.86,41.05 48.99,45.95 14.7,2.75 29.37,2.08 44.09,0.11 18.2,-2.45 34.89,-8.2 50.24,-17.01l0 0 0.04 -0.03c3.77,-2.17 7.46,-4.51 11.06,-7.05l0.05 -0.02 0.06 -0.04c2.65,-1.87 5.26,-3.82 7.83,-5.88l0.04 -0.04 4.79 -3.79z"/>
     <path class="fil11" d="M1247.1 3891.65c2.87,-1.84 5.7,-3.77 8.47,-5.83l7.42 -5.11 -25.21 -72.68 -10.91 6.56 0 0c-12.16,6.55 -24.95,11.06 -39.18,10.64 -10.35,-0.31 -16.27,-4.68 -19.46,-14.5 -3.48,-10.7 -2.87,-21.76 -2.42,-32.78 2.58,-62.45 5.25,-124.9 7.67,-187.35 1.16,-29.69 -0.7,-59.13 -9.72,-87.73 -7.3,-23.12 -18.65,-43.77 -36.7,-60.34 -23.97,-22.03 -53.18,-31.34 -84.84,-34.23 -19.48,-1.77 -38.89,-0.98 -58.17,2.88 -27.27,5.46 -50.84,17.66 -70.4,37.45 -22.57,22.84 -36.43,50.81 -46.91,80.63 -3.94,11.23 -6.95,22.77 -10.58,34.09 -0.37,1.17 -4.19,16.47 -5.3,17.39 -0.81,-1.19 -0.12,-16.91 -0.25,-18.16 -0.44,-4.5 -0.43,-9.04 -0.62,-13.57 -1.01,-24.68 -4.24,-48.95 -13.08,-72.22 -14.48,-38.14 -42.42,-59.92 -82.16,-66.68 -22.94,-3.9 -45.97,-3.73 -68.9,1.12 -23.2,4.9 -43.93,14.75 -62.13,29.88 -25.1,20.88 -42.11,47.6 -54,77.54 -5.3,13.34 -9.25,27.22 -13.55,40.96l0 0.01 -9.94 31.85 2.38 -47.29c0.55,-12.48 1.09,-24.97 1.65,-37.47 1.25,-28.45 2.51,-56.9 3.75,-85.35 0.07,-1.75 0.01,-3.5 0.01,-5.62 -1.83,0 -3.01,-0.05 -4.19,0 -31.68,1.49 -63.37,3.07 -95.06,4.36 -0.71,0.02 -1.32,0.09 -1.87,0.19l-3.77 0.17 0 5.65c0,0.05 0,0.09 0,0.14 0.11,158.85 0.09,317.68 0.09,476.52 0,1.64 0,3.25 0,5.45 2.45,0 4.37,0 6.3,0 33.09,0 66.17,0.01 99.26,0 6.7,0 6.7,0 6.8,-6.49 1,-63.3 4.81,-126.37 14.05,-189.05 5.53,-37.51 13.01,-74.56 25.48,-110.45 8.44,-24.3 18.83,-47.72 35.59,-67.67 14.5,-17.31 32.04,-29 55.53,-30.06 29.44,-1.33 49.55,12.03 59.17,39.73 5.76,16.61 7.83,33.83 7.76,51.22 -0.13,29.43 -0.87,58.86 -1.65,88.29 -1.44,54.54 -2.94,109.09 -4.52,163.63l-1.87 61.03 14.27 -0.13c23.67,-0.08 47.35,-0.08 71.02,-0.06l0 0 25.06 0.19 0.1 -3.01c0.14,-0.97 0.17,-2.29 0.21,-4.04 0.04,-2.15 0.09,-4.29 0.14,-6.45l1.47 -44.49c2.47,-56.61 7.39,-113 17.25,-168.96 5.24,-29.74 12.08,-59.08 22.43,-87.48 7.93,-21.77 17.64,-42.67 32.78,-60.53 14.32,-16.9 31.71,-27.97 54.66,-28.95 31.9,-1.37 52.45,13 61.11,43.71 5.53,19.53 6.17,39.6 5.4,59.71 -1.27,33.34 -2.82,66.66 -4.27,100 -1.32,30.01 -2.57,60.02 -4.04,90.04 -0.97,19.51 -0.87,38.88 4.07,57.99 8.64,33.47 32.86,55.36 66.92,60.27 22.34,3.22 44.56,2.27 66.73,-1.66 21.87,-3.86 42.24,-11.11 60.67,-22.87l0 -0.01z"/>
     <path class="fil12" d="M1842.47 3884.79l2.9 -2.22 -11.04 -31.17c-2.36,-6.84 -4.7,-13.68 -7.07,-20.51 -2.26,-6.51 -4.61,-12.97 -7.16,-20.12 -2.23,1.28 -3.64,2.1 -5.06,2.88 -13.31,7.42 -27.05,13.54 -42.76,12.91 -9.68,-0.4 -15.97,-4.68 -18.06,-14.11 -1.94,-8.74 -2.93,-17.89 -2.94,-26.85 -0.19,-120.04 -0.13,-240.06 -0.13,-360.1 0,-0.73 -0.02,-1.46 -0.04,-2.19l0 -1.26c0.01,-0.36 0.03,-0.72 0.06,-1.09 0.08,-0.75 0.05,-1.36 -0.06,-1.88l0 -2.54 -113.23 4.87 0 38.69c-0.19,5.93 -0.41,11.86 -0.64,17.78 -1.81,46.33 -5.61,92.47 -12.4,138.37 -5.57,37.66 -12.99,74.85 -25.41,110.91 -8.43,24.49 -18.85,48.04 -35.64,68.16 -17.47,20.93 -38.99,32.14 -67.13,28.58 -21.06,-2.66 -35.96,-13.04 -44.1,-32.68 -7.24,-17.43 -9.64,-35.9 -9.36,-54.5 0.83,-55.39 2.15,-110.8 3.51,-166.19 1.11,-45.03 2.47,-90.08 3.8,-135.11l0 0 0.56 -18.87 -21.83 1.22c-15.5,0.71 -31,1.39 -46.49,2.04l-47.91 1.77 -0.94 40.04 0 0c-0.09,3 -0.18,6.02 -0.25,9.03 -1.33,51.77 -2.72,103.53 -3.93,155.3 -1.02,43.78 -2.19,87.55 -2.55,131.33 -0.24,27.63 4.2,54.69 14.47,80.55 16.95,42.66 47.7,69.22 92.91,78.13 30.85,6.08 61.64,4.65 91.96,-3.52 25.27,-6.82 47.19,-19.62 65.66,-38.3 19.44,-19.63 33.43,-42.85 43.11,-68.4 7.34,-19.39 12.73,-39.53 18.82,-59.38 0.78,-2.53 4.18,-12.92 4.99,-11.75 0.64,0.9 1.01,11.3 1.02,12.89 0.1,26.88 0.03,53.75 0.09,80.62 0.04,15.97 2.41,31.58 8.18,46.52 9.25,23.9 26.54,38.23 51.8,42.86 15.47,2.85 30.93,2.2 46.43,0.19 25.72,-3.3 48.67,-12.86 69.3,-27.89l0 0.01 0.05 -0.04c2.05,-1.5 4.08,-3.04 6.09,-4.65 0.14,-0.11 0.28,-0.22 0.4,-0.34z"/>
     <path class="fil13" d="M2809.11 3884.79l2.9 -2.22 -11.05 -31.17c-2.35,-6.84 -4.69,-13.68 -7.07,-20.51 -2.26,-6.51 -4.61,-12.97 -7.15,-20.12 -2.24,1.28 -3.64,2.1 -5.07,2.88 -13.31,7.42 -27.04,13.54 -42.75,12.91 -9.69,-0.4 -15.98,-4.68 -18.06,-14.11 -1.94,-8.74 -2.94,-17.89 -2.95,-26.85 -0.19,-120.04 -0.12,-240.06 -0.12,-360.1 0,-0.73 -0.03,-1.46 -0.04,-2.19l0 -1.26c0,-0.36 0.02,-0.72 0.06,-1.09 0.07,-0.75 0.05,-1.36 -0.06,-1.88l0 -2.54 -113.24 4.87 0 38.69c-0.2,5.93 -0.4,11.86 -0.63,17.78 -1.82,46.33 -5.63,92.47 -12.41,138.37 -5.56,37.66 -12.99,74.85 -25.41,110.91 -8.43,24.49 -18.84,48.04 -35.64,68.16 -17.46,20.93 -38.99,32.14 -67.12,28.58 -21.07,-2.66 -35.97,-13.04 -44.11,-32.68 -7.24,-17.43 -9.63,-35.9 -9.36,-54.5 0.83,-55.39 2.15,-110.8 3.51,-166.19 1.11,-45.03 2.48,-90.08 3.8,-135.11l0 0 0.57 -18.87 -21.84 1.22c-15.5,0.71 -31,1.39 -46.49,2.04l-47.91 1.77 -0.94 40.04 0 0c-0.09,3 -0.17,6.02 -0.25,9.03 -1.33,51.77 -2.72,103.53 -3.93,155.3 -1.02,43.78 -2.19,87.55 -2.56,131.33 -0.22,27.63 4.21,54.69 14.49,80.55 16.95,42.66 47.7,69.22 92.91,78.13 30.84,6.08 61.63,4.65 91.96,-3.52 25.26,-6.82 47.18,-19.62 65.66,-38.3 19.43,-19.63 33.42,-42.85 43.1,-68.4 7.35,-19.39 12.74,-39.53 18.83,-59.38 0.78,-2.53 4.16,-12.92 4.99,-11.75 0.63,0.9 1.01,11.3 1.02,12.89 0.09,26.88 0.02,53.75 0.08,80.62 0.04,15.97 2.41,31.58 8.18,46.52 9.26,23.9 26.55,38.23 51.8,42.86 15.47,2.85 30.93,2.2 46.44,0.19 25.71,-3.3 48.66,-12.86 69.29,-27.89l0 0.01 0.05 -0.04c2.06,-1.5 4.08,-3.04 6.09,-4.65 0.15,-0.11 0.28,-0.22 0.41,-0.34z"/>
     <path class="fil14" d="M2219.1 3883.57c0.9,-0.59 1.8,-1.19 2.69,-1.8l11.34 -7.55 -1.09 -3.05c-0.06,-0.25 -0.15,-0.51 -0.24,-0.79 -0.38,-1.02 -0.75,-2.06 -1.12,-3.08l-2.65 -7.51c-2.13,-6.13 -4.19,-12.27 -6.32,-18.39 -4.84,-13.9 -9.69,-27.81 -14.79,-42.47 -3.47,1.74 -6.27,3.12 -9.04,4.55 -28.51,14.67 -58.36,23.37 -90.85,20.82 -22.1,-1.75 -36.24,-12.22 -43.25,-33.08 -5.31,-15.79 -5.82,-32.24 -5.83,-48.7 -0.03,-65.48 -0.02,-130.99 -0.02,-196.48l-0.12 -36.99 30.87 0.16c36.59,-0.01 73.16,-0.02 109.75,0.09 0.62,0 1.18,-0.02 1.7,-0.08l3.87 0 0.13 -3.69c0.08,-0.51 0.13,-1.08 0.14,-1.72 0.52,-21.56 1.22,-43.12 1.92,-64.66l0 0 0.01 -0.5c0.13,-4.05 0.26,-8.1 0.39,-12.16 0.04,-1.14 0.07,-2.09 0.07,-2.89l0.12 -4.05 -2.81 0c-0.97,-0.11 -2.26,-0.11 -3.99,-0.11 -43.48,-0.01 -86.94,0 -130.41,0l0.03 0.05 -11.65 0 0 -2.4c-0.11,-0.96 -0.03,-2.3 0,-4.18l0 -11.84 0.01 0.01c-0.03,-27.44 -0.02,-54.88 -0.02,-82.33l0.13 -10.28 -18.22 1.13c-13.13,0.66 -26.28,1.22 -39.42,1.88 -9.71,0.5 -19.41,1.09 -29.11,1.59l-10.53 0.47 -0.55 11.33c-0.4,4.47 -0.94,8.94 -1.37,13.41 -0.86,8.96 -1.74,17.91 -2.6,26.86l-4.89 54.53 -36.69 -0.24c-3.44,0 -6.89,0 -10.33,0l-1.24 0c-8.23,0 -16.47,-0.01 -24.7,-0.06 -0.55,-0.01 -1.04,0.02 -1.49,0.06l-3.81 0 -2.78 63.54c-0.37,7.3 -0.74,14.59 -1.14,21.89 -0.04,0.77 -0.04,1.29 -0.07,1.95l-0.18 2.51 50.36 -0.1c6.01,0.01 12.01,0.01 18,0.01 1.06,0 1.93,0.01 2.63,0.04l3.17 0 0.07 3.99c0,0.17 0,0.35 0.01,0.54l0 0.02c0,0.45 0,0.94 0,1.48 0.02,20.97 -0.02,41.92 0.02,62.88 0.1,62.73 0,125.45 0.47,188.18 0.21,26.16 3.66,51.97 12.68,76.77 7.85,21.63 20.16,39.91 39.47,53.09 20.99,14.31 44.68,20.14 69.5,21.58 31.26,1.82 62.36,0.27 92.94,-7.57 21.84,-5.59 42.07,-14.39 60.72,-26.57l-0.01 0 0.14 -0.08z"/>
     <path class="fil15" d="M3186.23 3520.52c-2.01,29.41 -3.09,58.92 -6.13,88.22 -2.52,24.32 -6.4,48.61 -11.28,72.57 -7.23,35.49 -18.11,69.83 -38.74,100.24 -11.98,17.66 -26.69,32.6 -47.43,39.3 -27.23,8.8 -53.57,7.19 -76.63,-11.78 -11.74,-9.65 -17.93,-23.13 -22.34,-37.41 -7.13,-23.13 -8.28,-46.99 -8.53,-63.72 -0.08,-41.91 4.34,-75.91 16.26,-108.66 8.7,-23.93 20.94,-45.82 38.69,-64.45 26.71,-28.04 59.32,-39.81 97.7,-36.58 11.33,0.95 22.32,2.94 32.85,6.41l-0.01 0 0.06 0.02c5.55,1.83 10.98,4.07 16.28,6.79l0.07 0.03 0.09 0.05c1.97,1.03 3.93,2.11 5.86,3.26 0.15,0.09 0.3,0.18 0.44,0.27l2.82 1.76 -0.09 2.02c0.09,0.5 0.11,1.05 0.07,1.66zm191.94 364.79l4.56 -3.48 -0.87 -2.58c-0.08,-0.41 -0.21,-0.85 -0.38,-1.32 -4.6,-13.02 -8.92,-26.14 -13.4,-39.21 -3,-8.77 -6.11,-17.51 -9.36,-26.84 -3.65,1.78 -6.44,3.22 -9.29,4.5 -11.05,4.92 -22.27,9.19 -34.7,8.21 -10.23,-0.82 -16.5,-6.19 -17.94,-16.38 -1.09,-7.71 -1.63,-15.55 -1.64,-23.33 -0.1,-108.35 -0.09,-216.69 0.01,-325.05 0.01,-0.97 -0.06,-1.84 -0.21,-2.64l-0.01 -3.38 -4.61 -2.45c-4.3,-2.35 -8.62,-4.6 -12.97,-6.77l-0.24 -0.14 -0.21 -0.09c-5.64,-2.8 -11.32,-5.46 -17.06,-7.94l-0.11 -0.05 -0.09 -0.05c-4.44,-1.92 -8.9,-3.74 -13.39,-5.48l-0.2 -0.09 0 0.01c-27.59,-10.64 -56.3,-17.68 -86.32,-20.66 -37.3,-3.7 -74.18,-2.15 -110.46,8.09 -48.13,13.59 -88.32,39.55 -120.47,77.79 -38.6,45.95 -58.87,99.78 -66.42,158.67 -5.31,41.32 -4.01,82.57 4.4,123.46 5.79,28.09 15.7,54.45 32.42,78.06 18.3,25.86 42.61,43.5 72.73,52.75 36.54,11.23 73.51,11.16 110.44,1.84 44.15,-11.13 76.34,-37.91 99.13,-76.74 8.66,-14.78 15.26,-30.43 20.66,-46.58l2.77 -8.69c0.37,-1.21 0.74,-2.42 1.1,-3.62 0.29,-0.98 0.55,-2.07 1,-2.89l5.53 -17.3 -0.21 29.53 0 0c0.11,15.57 0.15,31.13 -0.01,46.7 -0.14,13.33 1.22,26.42 4.98,39.22 6.43,21.83 19.45,37.34 42.05,43.58 18.26,5.05 36.77,4.01 55.04,0.82 17.95,-3.14 34.44,-9.64 49.5,-19.19l-0.01 0.01 0.11 -0.07c2.39,-1.52 4.73,-3.1 7.05,-4.77l0.03 -0.02 0.04 -0.03c2.38,-1.72 4.71,-3.5 7.01,-5.38l0.03 -0.01z"/>
     <path class="fil16" d="M3669.96 3879.5l-4.58 -12.56c-3.03,-8.51 -5.99,-17.07 -9,-25.59 -3.74,-10.59 -7.52,-21.16 -11.47,-32.29 -5.96,3.07 -11.45,6.05 -17.07,8.78 -12.13,5.87 -24.74,9.33 -38.38,7.12 -7.8,-1.27 -13.81,-5.42 -15.42,-13.23 -1.75,-8.47 -2.86,-17.23 -2.89,-25.86 -0.23,-64.26 -0.12,-128.51 -0.12,-192.78 0,-132.63 0,-265.26 0,-397.89l0 -0.01c0,-0.99 0,-2 0,-2.99 0,-1.42 0,-2.52 -0.09,-3.35l-0.04 -2.95 -13.06 0.8 0 0c-30.42,1.55 -60.83,3.17 -91.25,4.66l-9.29 0.45 0 5.13c0,0.11 -0.01,0.23 -0.01,0.34 0.1,202.71 0.07,405.4 0.12,608.11 0,18.86 1.68,37.55 7.66,55.6 8.11,24.49 23.69,41.73 48.5,50.15 16.54,5.62 33.58,6.3 50.79,5.97 34.74,-0.67 66.75,-9.25 94.86,-29.37l0 0.01 0.26 -0.2c2.37,-1.7 4.7,-3.46 7.01,-5.33l3.49 -2.71z"/>
     <polygon class="fil8" points="3950.06,3406.13 3950.06,3406.13 "/>
     <path class="fil8" d="M4224.36 3200.25l-8.55 -3.76 -0.01 0c-3.29,-1.49 -6.63,-2.85 -9.98,-4.11l-0.19 -0.08 -0.14 -0.04c-4.89,-1.84 -9.85,-3.43 -14.88,-4.82l-0.13 -0.05 0.01 0.01c-6.33,-1.74 -12.77,-3.14 -19.27,-4.22 -35.12,-5.81 -69.98,-5.04 -104.17,5.95 -33.39,10.74 -60.34,30.36 -80.25,59.29 -22.22,32.28 -32.28,68.75 -35.29,107.25 -1.32,16.76 -1.31,33.63 -1.44,50.47l0.09 12.63 -4.13 0c-0.44,0.04 -0.93,0.06 -1.47,0.05 -17.87,-0.16 -35.74,-0.1 -53.61,-0.07l-10.82 0 -0.18 3.62c-0.07,0.85 -0.11,1.89 -0.17,3.18 -0.2,4.69 -0.42,9.37 -0.63,14.07l-3.7 68.75 27.47 -0.03 0 0c14.2,0.01 28.4,0.01 42.61,-0.07 0.5,-0.01 0.97,0.01 1.38,0.06l3.39 0 -0.41 16.02c0,125.27 0,250.53 0.01,375.8 0,7.24 -0.92,6.69 6.89,6.7 33.63,0.01 67.27,0.01 100.9,0 7.93,0 7.06,0.54 7.06,-7.04 0.01,-123.08 0.01,-246.15 0.01,-369.24l-0.03 0.03 0 -22.36 24.8 0.09c31.64,-0.02 63.27,-0.05 94.91,0.11 0.5,0 0.95,-0.02 1.38,-0.05l4.53 0 0.21 -5.04c0.01,-0.2 0.03,-0.39 0.03,-0.6 0.1,-2.32 0.19,-4.64 0.28,-6.96l0.31 -7.51c0.89,-20.93 1.92,-41.85 2.88,-62.78 0.07,-1.49 0.12,-2.64 0.09,-3.55l0.14 -3.21 -22.87 0c-28.64,-0.02 -57.29,-0.04 -85.93,0.05l-20.65 0.49 0 -3.71c-0.15,-0.73 -0.2,-1.61 -0.17,-2.65 0.33,-13.25 0,-26.54 0.36,-39.79 0.53,-19.53 3.27,-38.73 10.89,-56.91 11.39,-27.22 31.72,-41.93 61.39,-43.62 15.71,-0.89 30.93,1.65 45.9,6.09 6.57,1.94 13.08,4.09 19.8,6.2 0.41,-1.27 0.67,-1.95 0.85,-2.65 6.2,-25.06 12.21,-50.17 18.73,-75.15l1.78 -6.82z"/>
     <path class="fil9" d="M4764.12 3860.24c-3.68,-10.62 -7.32,-21.25 -11,-31.87 -2.26,-6.48 -4.6,-12.93 -7.1,-19.95 -4.3,2.37 -7.67,4.33 -11.14,6.09 -11.55,5.84 -23.5,10.25 -36.73,9.59 -9.43,-0.46 -15.65,-4.69 -17.74,-13.87 -1.92,-8.42 -2.96,-17.24 -2.98,-25.88 -0.21,-88.2 -0.13,-176.4 -0.13,-264.59 0,-33.02 -0.03,-66.03 0.06,-99.05 0,-0.22 -0.01,-0.43 -0.01,-0.64l-0.02 -4.37 -4.44 0.3c-31.67,1.52 -63.35,2.85 -95.03,4.29l0 0 -1.56 0.07c-1.4,0.07 -2.79,0.12 -4.19,0.19 -0.67,0.03 -1.27,0.06 -1.8,0.09l-4.96 0.24 0 6.98 -0.2 10.07c-1.27,59.36 -5.12,118.53 -13.8,177.35 -5.52,37.45 -12.96,74.46 -25.37,110.29 -8.34,24.13 -18.71,47.32 -35.19,67.25 -18.38,22.23 -41.31,33.14 -70.54,28.2 -10.14,-1.72 -19.43,-5.4 -27.1,-12.5 -11.76,-10.9 -16.51,-25.27 -19.48,-40.37 -3.36,-17.09 -3.86,-34.43 -3.41,-51.78 1.95,-75.04 3.99,-150.09 6.01,-225.13 0.62,-23.36 1.18,-46.73 1.92,-70.08 0.03,-0.9 0.02,-1.67 -0.08,-2.32l0.04 -2.84 -2.8 0.09c-0.57,-0.08 -1.23,-0.11 -2.03,-0.07 -32.94,1.56 -65.88,2.89 -98.84,4.33l0.01 -0.02 -4.7 0.22c-0.29,0.01 -0.59,0.02 -0.88,0.04 -0.4,0.01 -0.78,0.03 -1.14,0.05l-5.08 0.23 -0.07 3.57c-0.06,0.77 -0.09,1.69 -0.12,2.8 -2.58,102.79 -5.2,205.56 -7.73,308.34 -0.72,29.04 1.15,57.81 9.66,85.84 6.96,22.84 17.71,43.48 35,60.23 23.08,22.35 51.62,32.03 82.95,34.44 19.13,1.48 38.26,0.57 57.18,-3.1 24.96,-4.84 47.7,-14.56 67.51,-30.72 26.95,-21.99 44.27,-50.71 56.32,-82.65 2.84,-7.57 5.33,-15.27 7.69,-23.03l6.15 -20.88 0.04 -0.12c1.17,-3.98 2.36,-7.95 3.59,-11.92l5.78 -18.67 0.03 19.95c0.01,0.33 0.01,0.65 0.01,0.98 0.01,2.04 0.01,4.08 0.01,6.13l0 1.73c0.01,24.06 -0.02,48.13 0.03,72.19 0.03,15.8 2.41,31.22 8.12,46 9.3,24.06 26.72,38.34 52.16,42.84 15.3,2.72 30.58,2.08 45.91,0.08 23.18,-3.01 44.09,-11.12 63.07,-23.74l0 0 0.06 -0.04c3.06,-2.05 6.07,-4.2 9.03,-6.48l0.08 -0.05 0.4 -0.32c0.27,-0.21 0.55,-0.42 0.82,-0.63l5.1 -3.96 -7.36 -19.43z"/>
     <path class="fil10" d="M5367.79 3878.65l-2.85 -7.64 0 0.01c-6.87,-20.1 -13.88,-40.14 -20.8,-60.21 -0.07,-0.22 -0.15,-0.42 -0.23,-0.6l-1.14 -3.25 -5.41 3.53c-0.01,0.01 -0.01,0.01 -0.01,0.02l-7.81 4.33 0 0c-11.38,5.84 -23.26,9.89 -36.31,9.25 -9.71,-0.47 -16.86,-4.95 -19.39,-14.64 -1.56,-5.92 -2.66,-12.13 -2.68,-18.2 -0.05,-13.26 0.72,-26.52 1.18,-39.77 1.77,-51.22 3.32,-102.46 5.41,-153.66 1.07,-26.31 0.55,-52.41 -5.18,-78.23 -4.12,-18.52 -10.7,-36.08 -21.08,-52.01 -20.09,-30.88 -49.08,-48.56 -84.77,-55.77 -25.69,-5.21 -51.45,-5.44 -77.22,-0.17 -24.24,4.95 -45.89,15.23 -64.9,31.04 -24.06,20.02 -40.97,45.34 -52.78,73.93 -5.92,14.32 -10.31,29.28 -15.16,44.04l0 0 -8.98 30.24 0.9 -22.63c-0.07,-0.49 -0.12,-0.96 -0.1,-1.37 0.6,-17.63 1.4,-35.25 2.17,-52.87 0.42,-9.39 0.83,-18.79 1.24,-28.19l0.03 -0.53 0 0.02c0.73,-16.58 1.47,-33.18 2.23,-49.74l1.02 -19.82 -29.41 1.5c-20.33,0.98 -40.66,1.92 -61,2.88l0 0 -1.59 0.08c-2.17,0.11 -4.33,0.21 -6.49,0.31 -0.84,0.04 -1.56,0.08 -2.19,0.13l-4.12 0.21 0 29.01c0,71.28 0,142.56 0,213.86 0,79.3 0.03,158.59 -0.09,237.89 -0.01,4.14 1.09,5.33 5.26,5.31 33.63,-0.17 67.27,-0.18 100.9,0.01 4.49,0.02 5.9,-1.09 5.95,-5.73 0.54,-50.37 3.45,-100.61 9.19,-150.67 5.27,-46 12.89,-91.54 26.86,-135.8 8.14,-25.79 18.27,-50.74 34.41,-72.74 18.06,-24.64 40.73,-40.32 73.14,-37.08 22.5,2.24 38.29,13.15 46.75,34.28 6.84,17.08 8.98,35.1 8.8,53.19 -0.32,31.65 -1.68,63.29 -2.78,94.92 -1.22,34.79 -2.57,69.6 -4.02,104.39 -0.88,20.97 -1.34,41.89 4.03,62.44 4.45,17.01 12.23,32.03 26.12,43.32 15.75,12.82 34.34,17.7 54.13,18.8 21.31,1.19 42.5,-0.04 63.38,-4.83 19.55,-4.48 37.54,-12.2 53.69,-23.61l0 0.01 0.05 -0.04c3.18,-2.26 6.31,-4.66 9.35,-7.21l2.34 -1.95z"/>
     <path class="fil1" d="M5740.54 3528.05c-2.27,31.56 -3.81,63.2 -7.18,94.65 -4.34,40.49 -12.44,80.33 -27.66,118.38 -8.74,21.82 -19.92,42.13 -36.71,59.04 -25.84,26.03 -62.19,31.39 -93.44,18.1 -15.36,-6.53 -25.19,-18.69 -32.03,-33.51 -7.36,-15.94 -10.48,-32.97 -12.14,-50.25 -1.13,-11.85 -1.42,-23.76 -2.09,-35.65 0.64,-33.39 4.78,-66.18 15.97,-97.74 11.48,-32.37 28.57,-61.06 56.63,-82.05 24.3,-18.17 51.84,-23.76 81.61,-21.06 12.6,1.15 24.7,3.71 36.3,8.05l-0.02 -0.02 0.13 0.06c4.76,1.78 9.44,3.87 14.01,6.28l0.07 0.03 7.68 3.96 -1.15 11.73zm197.96 353.02l0 -0.67 -5.06 -14.08c-5.82,-16.76 -11.56,-33.55 -17.36,-50.31 -0.05,-0.16 -0.12,-0.33 -0.18,-0.49l0 0 -0.01 -0.03c-0.01,-0.02 -0.01,-0.03 -0.02,-0.05l-1.6 -4.01 -1.93 1.1c-0.45,0.24 -0.85,0.44 -1.23,0.65 -11.92,6.53 -24.45,11.05 -38.23,10.98 -12.29,-0.07 -19.28,-6.07 -20.78,-18.13 -0.92,-7.3 -1.42,-14.7 -1.42,-22.06 -0.07,-196.89 -0.06,-393.79 -0.06,-590.67 0,-1.66 0,-3.31 0,-5.17l0.02 -2.45 -8.11 0.38 -0.08 0c-0.53,0.01 -1.06,0.03 -1.58,0.05 -6.91,0.37 -13.81,0.75 -20.71,1.12l-4.58 0.23 0.08 0c-22.62,1.22 -45.23,2.44 -67.85,3.68 -0.11,0.01 -0.21,0.01 -0.32,0.01l-0.01 0c-1.07,0.07 -1.96,0.12 -2.69,0.2l-3.64 0.26 0 5.6c0,0.3 0,0.6 0,0.93 0,1.82 0,3.63 0,5.45l0 0.69c0,65.33 0,130.67 0,196l0.22 13.14 -8.44 -1.23c-0.58,-0.08 -1.2,-0.17 -1.86,-0.27l-0.5 -0.06c-1.03,-0.16 -2.05,-0.3 -3.07,-0.44l-9.94 -1.27c-25.13,-2.85 -50.31,-3.16 -75.59,-0.12 -31.14,3.75 -60.66,12.65 -88.23,27.63 -51.8,28.14 -87.8,70.6 -111.5,123.98 -15.37,34.59 -23.93,70.94 -26.77,108.64 -3.27,43.45 -0.9,86.42 11.34,128.5 6.5,22.32 16.19,43.12 30.43,61.56 27.59,35.72 65.13,52.36 109.21,55.72 18.83,1.43 37.63,0.62 56.32,-2.77 22.08,-4 42.71,-11.6 61.4,-23.96 25.64,-16.96 44.04,-39.63 57.54,-66.03l14.07 -34.06c0,-0.01 0.01,-0.02 0.01,-0.02l11.48 -34.96 0 43.5 -0.45 0.45c-0.09,12.86 -0.15,25.71 0.28,38.56 0.37,10.76 1.51,21.73 4.2,32.12 6.55,25.32 22.86,41.05 48.99,45.95 14.7,2.75 29.37,2.08 44.09,0.11 18.2,-2.45 34.89,-8.2 50.24,-17.01l0 0 0.04 -0.03c3.77,-2.17 7.46,-4.51 11.06,-7.05l0.05 -0.02 0.06 -0.04c2.65,-1.87 5.26,-3.82 7.83,-5.88l0.04 -0.04 4.79 -3.79z"/>
    </g>
   </g>
  </g>
 </g>
</svg>
