<?xml version="1.0" encoding="UTF-8"?>
<!DOCTYPE svg PUBLIC "-//W3C//DTD SVG 1.1//EN" "http://www.w3.org/Graphics/SVG/1.1/DTD/svg11.dtd">
<!-- Creator: CorelDRAW 2018 (64-Bit) -->
<svg xmlns="http://www.w3.org/2000/svg" xml:space="preserve" width="64px" height="64px" version="1.1" style="shape-rendering:geometricPrecision; text-rendering:geometricPrecision; image-rendering:optimizeQuality; fill-rule:evenodd; clip-rule:evenodd"
viewBox="0 0 64 64"
 xmlns:xlink="http://www.w3.org/1999/xlink">
 <defs>
  <style type="text/css">
   <![CDATA[
    .str0 {stroke:#692C2C;stroke-width:0.4;stroke-miterlimit:2.61313}
    .fil0 {fill:none}
    .fil1 {fill:#692C2C}
    .fil2 {fill:#692C2C;fill-rule:nonzero}
   ]]>
  </style>
 </defs>
 <g id="Layer_x0020_1">
  <metadata id="CorelCorpID_0Corel-Layer"/>
  <rect class="fil0" width="64" height="64"/>
  <g id="_1724627214288">
   <g>
    <path class="fil1" d="M19.87 14.81c5.01,3.75 14.38,3.75 19.35,0.02 -6.47,2.57 -12.89,2.78 -19.35,-0.02zm9.68 7.44c1.12,0 2.03,-0.91 2.03,-2.04 0,-1.12 -0.91,-2.03 -2.03,-2.03 -1.13,0 -2.04,0.91 -2.04,2.03 0,1.13 0.91,2.04 2.04,2.04z"/>
    <path class="fil1" d="M19.87 25.62c5.01,-3.75 14.38,-3.75 19.35,-0.02 -6.47,-2.57 -12.89,-2.78 -19.35,0.02z"/>
    <path class="fil2" d="M39.87 27.48c0,2.33 0,4.65 0,6.98 0,1.52 0.39,2.66 1.2,3.41 0.8,0.75 2,1.12 3.62,1.12 1.64,0 2.86,-0.37 3.66,-1.12 0.8,-0.75 1.2,-1.89 1.2,-3.41 0,-2.33 0,-4.65 0,-6.98 -1.87,1.32 -2.38,3.03 -2.38,6.6 0,0.93 -0.2,1.62 -0.61,2.09 -0.41,0.47 -1.02,0.7 -1.83,0.7 -0.82,0 -1.44,-0.24 -1.86,-0.7 -0.41,-0.47 -0.62,-1.17 -0.62,-2.09 0,-2.2 0,-4.4 0,-6.6 -0.8,0 -1.59,0 -2.38,0zm-0.7 11.21c-3.97,0 -3.8,-1.83 -5.72,-5.23 0,1.74 0,3.49 0,5.23 -0.79,0 -1.59,0 -2.39,0 0,-3.73 0,-7.47 0,-11.21 1.14,0 2.29,0 3.43,0 1.36,0 2.38,0.27 3.06,0.8 0.68,0.52 1.02,1.32 1.02,2.38 0,0.77 -0.23,1.43 -0.7,1.98 -0.46,0.54 -1.06,0.86 -1.8,0.95 1.03,1.7 2.06,3.4 3.1,5.1zm-5.72 -6.43c0.12,0 0.24,0 0.36,0 0.97,0 1.61,-0.11 1.93,-0.32 0.31,-0.21 0.46,-0.58 0.46,-1.1 0,-0.55 -0.16,-0.95 -0.5,-1.18 -0.33,-0.23 -0.96,-0.35 -1.89,-0.35 -0.12,0 -0.24,0 -0.36,0 0,0.99 0,1.97 0,2.95zm-26.32 -2.74c0,3.06 0,6.12 0,9.17 -0.81,0 -1.61,0 -2.41,0 0,-3.05 0,-6.11 0,-9.17 -0.91,0 -1.83,0 -2.74,0 0,-0.68 0,-1.36 0,-2.04 2.63,0 5.26,0 7.89,0 -0.21,0.6 -1.41,1.92 -2.74,2.04zm1.27 9.17c1.42,-3.73 2.85,-7.47 4.27,-11.21 0.91,0 1.83,0 2.74,0 1.44,3.74 2.88,7.48 4.32,11.21 -0.9,0 -1.81,0 -2.72,0 -0.31,-0.79 -0.61,-1.58 -0.91,-2.38 -1.45,0 -2.9,0 -4.34,0 -0.25,1.41 -2.26,2.42 -3.36,2.38zm7.14 -4.26c-0.42,-1.21 -0.84,-2.42 -1.26,-3.62 -0.03,-0.11 -0.08,-0.29 -0.14,-0.55 -0.05,-0.26 -0.11,-0.58 -0.17,-0.96 -0.07,0.36 -0.13,0.69 -0.19,0.98 -0.06,0.28 -0.11,0.48 -0.14,0.57 -0.4,1.19 -0.81,2.39 -1.21,3.58 1.04,0 2.07,0 3.11,0zm14.01 -6.95c0,2.33 0,4.65 0,6.98 0,1.52 -0.4,2.66 -1.21,3.41 -0.8,0.75 -2,1.12 -3.62,1.12 -1.64,0 -2.85,-0.37 -3.66,-1.12 -0.8,-0.75 -1.2,-1.89 -1.2,-3.41 0,-2.33 0,-4.65 0,-6.98 1.87,1.32 2.38,3.03 2.38,6.6 0,0.93 0.21,1.62 0.61,2.09 0.41,0.47 1.02,0.7 1.84,0.7 0.81,0 1.43,-0.24 1.85,-0.7 0.42,-0.47 0.63,-1.17 0.63,-2.09 0,-2.2 0,-4.4 0,-6.6 0.79,0 1.58,0 2.38,0zm21.03 9.79c0.44,-0.51 0.89,-1.01 1.33,-1.51 0.17,0.41 0.44,0.74 0.82,0.98 1.02,0.65 3.07,0.44 3.07,-1.12 0,-1.02 -1.68,-1.59 -2.46,-2 -1.51,-0.78 -2.41,-1.5 -2.61,-3.23 -0.52,-4.69 7.36,-4.43 6.06,-0.35 -0.68,-1.33 -3.72,-1.36 -3.72,0.31 0,0.59 0.58,1.13 1.73,1.62 0.23,0.1 0.41,0.17 0.53,0.23 0.95,0.43 1.65,0.92 2.11,1.47 0.45,0.55 0.68,1.17 0.68,1.87 0,1.05 -0.36,1.89 -1.07,2.51 -0.72,0.63 -1.69,0.94 -2.89,0.94 -0.86,0 -1.53,-0.15 -2.14,-0.44 -0.62,-0.3 -1.14,-0.73 -1.44,-1.28zm-47.45 11.57l1.18 0 0.81 -4.57 2.18 4.92 2.23 -4.91 0.72 4.56 1.17 0 -1.43 -8.12 -2.68 5.86 -2.59 -5.86 -1.59 8.12zm10.74 -4.77l-1.1 0 0 2.76c0,0.75 0.14,1.16 0.5,1.55 0.38,0.4 0.9,0.6 1.53,0.6 0.63,0 1.15,-0.2 1.54,-0.6 0.36,-0.39 0.49,-0.8 0.49,-1.55l0 -2.76 -1.09 0 0 2.74c0,0.81 -0.3,1.19 -0.93,1.19 -0.65,0 -0.94,-0.38 -0.94,-1.19l0 -2.74zm5.46 1.03l0.86 0 0 -1.03 -0.86 0 0 -1.74 -1.1 0 0 1.74 -0.46 0 0 1.03 0.46 0 0 3.73 1.1 0 0 -3.73zm2.68 -1.03l-1.1 0 0 2.76c0,0.75 0.14,1.16 0.5,1.55 0.38,0.4 0.9,0.6 1.53,0.6 0.63,0 1.15,-0.2 1.54,-0.6 0.36,-0.39 0.49,-0.8 0.49,-1.55l0 -2.76 -1.09 0 0 2.74c0,0.81 -0.3,1.19 -0.93,1.19 -0.65,0 -0.94,-0.38 -0.94,-1.19l0 -2.74zm7.84 0l0 0.55c-0.48,-0.49 -0.89,-0.68 -1.5,-0.68 -1.28,0 -2.24,1.07 -2.24,2.51 0,1.46 0.96,2.53 2.28,2.53 0.57,0 0.95,-0.17 1.46,-0.64l0 0.49 1.1 0 0 -4.76 -1.1 0zm-1.29 0.86c0.8,0 1.36,0.63 1.36,1.54 0,0.9 -0.56,1.53 -1.37,1.53 -0.77,0 -1.32,-0.65 -1.32,-1.55 0,-0.88 0.57,-1.52 1.33,-1.52zm4.96 -4.35l-1.1 0 0 8.25 1.1 0 0 -8.25zm8.12 1.78l0 -1.08 -3.77 0 0 7.55 1.15 0 0 -3.58 2.53 0 0 -1.08 -2.53 0 0 -1.81 2.62 0zm2.08 1.71l-1.1 0 0 2.76c0,0.75 0.14,1.16 0.5,1.55 0.39,0.4 0.91,0.6 1.53,0.6 0.63,0 1.15,-0.2 1.54,-0.6 0.36,-0.39 0.5,-0.8 0.5,-1.55l0 -2.76 -1.1 0 0 2.74c0,0.81 -0.3,1.19 -0.93,1.19 -0.65,0 -0.94,-0.38 -0.94,-1.19l0 -2.74zm4.33 0l0 4.76 1.1 0 0 -2.29c0,-1.18 0.27,-1.61 1.01,-1.61 0.34,0 0.61,0.12 0.74,0.34 0.12,0.18 0.15,0.41 0.15,0.9l0 2.66 1.1 0 0 -2.92c0,-0.63 -0.08,-1 -0.3,-1.32 -0.27,-0.4 -0.8,-0.65 -1.4,-0.65 -0.54,0 -0.86,0.14 -1.3,0.57l0 -0.44 -1.1 0zm8.97 -3.49l0 4.04c-0.46,-0.48 -0.89,-0.68 -1.49,-0.68 -1.28,0 -2.24,1.08 -2.24,2.51 0,1.46 0.96,2.53 2.26,2.53 0.58,0 1.01,-0.19 1.47,-0.64l0 0.49 1.1 0 0 -8.25 -1.1 0zm-1.29 4.35c0.81,0 1.36,0.63 1.36,1.54 0,0.9 -0.55,1.53 -1.37,1.53 -0.77,0 -1.31,-0.65 -1.31,-1.57 0,-0.86 0.56,-1.5 1.32,-1.5z"/>
   </g>
   <path class="fil0 str0" d="M59.22 22.78c1.55,0 2.8,1.25 2.8,2.8 0,1.55 -1.25,2.8 -2.8,2.8 -1.55,0 -2.8,-1.25 -2.8,-2.8 0,-1.55 1.25,-2.8 2.8,-2.8z"/>
   <path class="fil2" d="M57.52 26.67l0 -1.67 -0.49 0 0 -0.51 1.58 0 0 0.51 -0.49 0 0 1.67 -0.6 0zm3.89 0l-0.56 0 -0.13 -0.94c-0.01,-0.07 -0.02,-0.14 -0.02,-0.22 -0.01,-0.09 -0.02,-0.18 -0.02,-0.27 -0.02,0.09 -0.05,0.21 -0.09,0.34 0,0.03 -0.01,0.05 -0.02,0.07l-0.29 1.02 -0.4 0 -0.3 -1.02c0,-0.02 -0.01,-0.04 -0.01,-0.07 -0.05,-0.13 -0.07,-0.25 -0.09,-0.34 0,0.08 -0.01,0.16 -0.02,0.24 0,0.09 -0.01,0.17 -0.03,0.25l-0.12 0.94 -0.56 0 0.34 -2.18 0.59 0 0.33 1.12c0,0.01 0,0.02 0.01,0.04 0.03,0.1 0.05,0.19 0.06,0.26 0,-0.04 0.01,-0.08 0.02,-0.13 0.01,-0.05 0.03,-0.1 0.05,-0.17l0.33 -1.12 0.59 0 0.34 2.18z"/>
  </g>
 </g>
</svg>
