<?xml version="1.0" encoding="UTF-8"?>
<svg id="Layer_1" data-name="Layer 1" xmlns="http://www.w3.org/2000/svg" viewBox="0 0 64 64">
  <defs>
    <style>
      .cls-1 {
        stroke-width: .14px;
      }

      .cls-1, .cls-2 {
        stroke: #231f20;
      }

      .cls-1, .cls-2, .cls-3 {
        stroke-miterlimit: 10;
      }

      .cls-1, .cls-4 {
        fill: #231f20;
      }

      .cls-5, .cls-3 {
        fill: #fff;
      }

      .cls-2 {
        fill: none;
        stroke-width: .18px;
      }

      .cls-6 {
        fill: #a8802d;
      }

      .cls-3 {
        stroke: #a8802d;
        stroke-width: .03px;
      }

      .cls-7 {
        fill: #b68b2d;
      }
    </style>
  </defs>
  <rect class="cls-5" width="64" height="64"/>
  <g>
    <path class="cls-3" d="m6.28,31.17c0,.3.03.6.07.9.15,1.08.51,2.1,1,3.07,1.22,2.41,2.91,4.44,4.99,6.16.37.31.8.56,1.21.81.29.18.61.2.91.05.39-.2.79-.39,1.15-.64,1.1-.77,2.05-1.71,2.92-2.72,1.05-1.22,1.94-2.55,2.59-4.03.52-1.17.85-2.39.85-3.68v-9.48H6.29v9.57Z"/>
    <path class="cls-6" d="m23.24,20.15s0-.02,0-.03H5.02s0,.03,0,.04c0,.04,0,.08,0,.12v1.93c0,2.92,0,5.93,0,8.65,0,.33.03.67.08,1.04.17,1.19.55,2.36,1.16,3.57,1.36,2.7,3.32,5.11,5.81,7.16.37.31.8.57,1.21.82.07.04.13.08.2.12.33.21.7.22,1.03.05l.08-.04c.42-.21.86-.43,1.25-.71,1.15-.8,2.23-1.81,3.39-3.17,1.33-1.55,2.31-3.08,3.02-4.68.67-1.51.99-2.91.99-4.28,0-2.54,0-5.35,0-8.08v-2.42s0-.08,0-.12Zm-2.11,14.46c-.65,1.48-1.55,2.8-2.59,4.03-.87,1.02-1.82,1.96-2.92,2.72-.36.25-.76.45-1.15.64-.3.15-.62.13-.91-.05-.41-.26-.84-.51-1.21-.81-2.08-1.71-3.77-3.74-4.99-6.16-.49-.97-.85-1.99-1-3.07-.04-.3-.07-.6-.07-.9v-9.57h15.69v9.48c0,1.29-.33,2.51-.85,3.68Z"/>
    <path class="cls-6" d="m14.06,41.6c-.17,0-.35-.05-.51-.15-.05-.03-.11-.07-.16-.1-.33-.21-.68-.42-.99-.68-2.03-1.69-3.61-3.67-4.72-5.88-.5-1-.81-1.97-.95-2.95-.04-.31-.07-.6-.07-.87h0s0-9.18,0-9.18h14.93v9.1c0,1.13-.26,2.29-.8,3.54-.57,1.32-1.38,2.58-2.46,3.85-.95,1.12-1.83,1.95-2.76,2.61-.32.23-.68.41-1.02.58l-.07.03c-.14.07-.28.1-.42.1Zm-7.25-10.64c0,.26.02.54.06.85.14.97.44,1.92.94,2.9,1.1,2.2,2.68,4.16,4.69,5.84.3.25.64.46.97.67.05.03.11.07.16.1.25.16.53.17.78.04l.07-.03c.34-.17.69-.35,1.01-.57.93-.65,1.8-1.47,2.74-2.58,1.07-1.26,1.87-2.51,2.43-3.81.54-1.23.8-2.37.8-3.48v-8.95H6.81v9.03s0,0,0,0Z"/>
    <g>
      <polygon class="cls-7" points="15.81 28.27 12.44 28.27 11.95 37.02 12.07 37.02 12.59 28.27 15.66 28.27 16.19 37.02 16.31 37.02 15.81 28.27"/>
      <g>
        <path class="cls-7" d="m17.09,25.46c-.2-.21-.48-.34-.76-.37-.05,0-.09,0-.09,0l.44-.2v-.43h-2.54s0,0,0,0h-2.54v.43l.44.2s-.04,0-.09,0c-.29.03-.56.16-.76.37-.49.51-.43,1.4.15,1.82.17.13.38.21.59.23.1,0,.21,0,.31-.01v.07h1.91s0,0,0,0h1.91v-.07c.1.02.21.02.31.01.21-.02.42-.1.59-.23.58-.41.63-1.31.15-1.82Zm-5.4-.91h4.87v.25h-4.87v-.25Zm2.44,2.88h-1.67c.07-.03.13-.06.19-.1,0,0,.02-.01.03-.02h2.91s.02.01.03.02c.06.04.12.07.19.1h-1.67Zm-.41-1.5s.13-.04.09-.15c0,0,.15.04.15.19,0,.08-.06.2-.2.2-.41,0-.73-.65-1.22-.65,0,0,.07-.03.17-.03.44,0,.75.45,1,.45Zm-.32-.34c0-.06.05-.12.12-.12.19,0,.29.15.28.3-.08-.06-.13-.07-.19-.07-.05,0-.05,0-.09,0-.06,0-.12-.05-.12-.12Zm.16.62c.15,0,.15.2,0,.2-.13,0-.25-.07-.36-.18-.13-.14-.26-.36-.3-.45,0,0,.41.43.67.43Zm-.63.84c.03-.05.06-.11.09-.16.03.11.09.21.17.25.06-.03.11-.09.14-.17h0c.03-.07.04-.14.04-.22h0s.13,0,.13,0h0c0,.08-.01.16-.03.22h0c-.02.06-.04.11-.07.16,0,0,0,.01-.01.02-.04.06-.11.13-.2.16-.09-.03-.16-.1-.2-.16,0,0,0-.01-.01-.02-.01-.02-.03-.05-.04-.07Zm.75-.08h0c.03.08.08.13.14.17h0c.11-.06.18-.21.18-.39h0s.13,0,.13,0h0c0,.08-.01.16-.03.22h0c-.02.06-.04.11-.07.16,0,0,0,.01-.01.02-.04.06-.11.13-.2.16-.09-.03-.16-.1-.2-.16,0,0,0-.01-.01-.02-.03-.05-.05-.1-.07-.16-.02-.07-.03-.14-.03-.22h0s.13,0,.13,0h0c0,.08.02.16.04.22Zm.76.17h0c.06-.03.11-.09.14-.17h0c.03-.07.04-.14.04-.22h0s.13,0,.13,0h0c0,.08-.01.16-.03.22-.02.06-.04.11-.07.16,0,0,0,.01-.01.02-.04.06-.11.13-.2.16-.09-.03-.16-.1-.2-.16,0,0,0-.01-.01-.02-.03-.05-.05-.1-.07-.16h0c-.02-.07-.03-.14-.03-.22h0s.13,0,.13,0h0c0,.18.08.33.18.39Zm-.31-.39s0,.02,0,.04c0-.02,0-.04,0-.04h0s0,0,0,0h0s0,0,0,0h0Zm.8.22h0c.03.08.08.13.14.17.08-.04.14-.14.17-.25.02.06.05.11.09.16-.01.03-.03.05-.04.07,0,0,0,.01-.01.02-.04.06-.11.13-.2.16-.09-.03-.16-.1-.2-.16,0,0,0-.01-.01-.02-.03-.05-.05-.1-.07-.16h0c-.02-.07-.03-.14-.03-.22h0s.13,0,.13,0h0c0,.08.02.16.04.22Zm-.4-1.03c.25,0,.56-.45,1-.45.11,0,.17.03.17.03-.49,0-.8.65-1.22.65-.13,0-.2-.12-.2-.2,0-.15.15-.19.15-.19-.04.11.05.15.09.15Zm-.08-.16c0-.15.09-.29.28-.3.06,0,.12.06.12.12,0,.07-.06.12-.12.12-.04,0-.04,0-.09,0-.07,0-.11.01-.19.07Zm.24.44c.26,0,.67-.43.67-.43-.05.1-.17.31-.3.45-.1.11-.23.18-.36.18-.16,0-.16-.2,0-.2Zm1.1,1.05c-.31-.15-.49-.47-.49-.81,0-.49.3-.85.79-.89.61-.06,1.03.55.77,1.11-.11.23-.35.39-.61.39-.39.01-.72-.28-.68-.68.02-.34.33-.61.68-.54.35.07.53.46.33.76-.08.12-.23.19-.37.18-.14,0-.28-.08-.33-.22-.06-.16.02-.37.19-.42.09-.03.2,0,.26.09.04.05.04.12.02.18-.02.05-.06.09-.12.1-.04,0-.08,0-.1-.04-.01-.02-.02-.06,0-.09.01-.02.03-.03.05-.03-.01,0-.03-.01-.04,0-.05,0-.07.07-.07.12,0,.1.11.14.2.13.12-.02.2-.16.19-.28,0-.1-.06-.19-.15-.24-.18-.1-.39-.04-.49.13-.06.1-.08.22-.06.33.02.14.12.25.25.31.1.04.22.05.33.03.18-.03.32-.16.39-.33.18-.46-.24-.9-.71-.81-.31.06-.54.33-.56.64-.05.53.42.9.93.81.56-.09.84-.7.63-1.21-.14-.36-.52-.59-.9-.57-.01,0-.02,0-.03,0-.16,0-.28,0-.28,0h-1.34c-.03.26-.35.25-.35.57,0,.2.13.23.19.32.02.04.05.11.03.2h.81s0,.08.01.12h-2.07s0-.08.01-.12h.81c-.03-.09,0-.16.03-.2.06-.09.19-.11.19-.32,0-.32-.32-.31-.35-.57h-1.34s-.12,0-.28,0c0,0-.02,0-.03,0-.38-.02-.76.21-.9.57-.21.51.07,1.12.63,1.21.51.09.99-.28.93-.81-.03-.31-.25-.58-.56-.64-.47-.09-.88.35-.71.81.06.16.21.3.39.33.11.02.22.01.33-.03.13-.05.23-.17.25-.31.02-.11,0-.23-.06-.33-.11-.17-.31-.23-.49-.13-.08.05-.14.14-.15.24-.01.12.07.25.19.28.09.02.19-.03.2-.13,0-.05-.02-.11-.07-.12-.01,0-.03,0-.04,0,.02,0,.04,0,.05.03.02.03.01.07,0,.09-.02.03-.06.04-.1.04-.05,0-.1-.05-.12-.1-.02-.06-.02-.13.02-.18.05-.08.17-.11.26-.09.17.05.24.26.19.42-.04.14-.19.21-.33.22-.14.01-.29-.06-.37-.18-.2-.3-.02-.69.33-.76.35-.07.66.2.68.54.04.4-.29.69-.68.68-.26,0-.5-.16-.61-.39-.26-.55.16-1.16.77-1.11.49.04.8.4.79.89,0,.34-.18.66-.49.81-.65.32-1.43-.13-1.46-.86-.03-.46.22-.9.65-1.07.14-.05.28-.08.43-.08h0s2.05,0,2.05,0h0s0,0,0,0h2.05c.15,0,.29.03.43.08.44.17.69.6.65,1.07-.04.73-.81,1.17-1.46.86Z"/>
        <path class="cls-7" d="m16.04,27.56s.06.06.06.11c0,.07-.06.13-.13.13h-1.84s0,0,0,0h-1.84c-.07,0-.13-.06-.13-.13,0-.05.03-.09.06-.11-.1,0-.18.09-.18.2,0,.11.09.2.2.2h.11c-.1,0-.14.12-.06.18l.16.13h1.69s0,0,0,0h1.69l.16-.13c.08-.06.03-.18-.06-.18h.11c.11,0,.2-.09.2-.2s-.08-.19-.18-.2Z"/>
      </g>
      <path class="cls-7" d="m16.57,37.13v.44h-4.88v-.44h4.88m.1-.1h-5.09v.65h5.09v-.65h0Z"/>
      <g>
        <path class="cls-7" d="m12.8,35.25l.22-6.39c0-.11.08-.21.19-.21.05,0,.1.02.13.06-.03-.1-.11-.18-.22-.18-.12,0-.23.11-.23.25l-.29,7.91h.13l.07-1.44Z"/>
        <path class="cls-7" d="m13.7,35.25l.04-6.39c0-.11.08-.21.19-.21.05,0,.1.02.13.06-.03-.11-.11-.18-.22-.18-.12,0-.23.11-.23.25l-.07,7.91h.14v-1.44Z"/>
        <path class="cls-7" d="m14.61,35.25l-.14-6.39c0-.11.08-.21.19-.21.05,0,.1.02.13.06-.03-.1-.11-.18-.22-.18-.12,0-.23.11-.23.25l.15,7.91h.13l-.02-1.44Z"/>
        <path class="cls-7" d="m15.59,36.69l-.08-1.44-.31-6.39c0-.11.08-.21.19-.21.05,0,.1.03.14.07-.03-.11-.11-.19-.22-.19-.12,0-.23.11-.23.25l.37,7.91h.14Z"/>
      </g>
    </g>
    <g>
      <path class="cls-4" d="m30.36,20.2l.06,1.21h-.14c-.03-.21-.07-.36-.11-.46-.08-.15-.18-.26-.31-.33-.13-.07-.3-.1-.51-.1h-.73v3.94c0,.32.03.51.1.59.1.11.24.16.44.16h.18v.14h-2.19v-.14h.18c.22,0,.37-.07.46-.2.06-.08.08-.27.08-.56v-3.94h-.62c-.24,0-.41.02-.51.05-.13.05-.24.14-.34.28-.09.14-.15.32-.17.56h-.14l.06-1.21h4.21Z"/>
      <path class="cls-4" d="m35.87,25.35h-1.38l-1.75-2.41c-.13,0-.23,0-.32,0-.03,0-.07,0-.11,0-.04,0-.08,0-.12,0v1.5c0,.32.04.53.11.6.1.11.24.17.43.17h.2v.14h-2.21v-.14h.19c.22,0,.37-.07.47-.21.05-.08.08-.26.08-.56v-3.33c0-.32-.04-.53-.11-.6-.1-.11-.25-.17-.44-.17h-.19v-.14h1.88c.55,0,.95.04,1.21.12.26.08.48.23.66.44.18.21.27.47.27.77,0,.32-.1.59-.31.82-.21.23-.53.4-.96.49l1.06,1.48c.24.34.45.57.63.68.17.11.4.18.68.21v.14Zm-3.66-2.65s.09,0,.13,0c.04,0,.06,0,.09,0,.49,0,.86-.11,1.11-.32.25-.21.37-.48.37-.81s-.1-.58-.3-.79c-.2-.2-.47-.3-.8-.3-.15,0-.35.02-.6.07v2.14Z"/>
      <path class="cls-4" d="m39.51,20.34v-.14h1.82v.14h-.19c-.2,0-.36.08-.47.25-.05.08-.08.26-.08.55v2.09c0,.52-.05.92-.15,1.2-.1.29-.3.53-.6.73-.3.2-.71.31-1.23.31-.56,0-.99-.1-1.28-.29-.29-.2-.5-.46-.62-.79-.08-.23-.12-.65-.12-1.27v-2.01c0-.32-.04-.52-.13-.62-.09-.1-.23-.15-.42-.15h-.19v-.14h2.23v.14h-.2c-.21,0-.36.07-.46.2-.06.09-.09.28-.09.57v2.25c0,.2.02.43.05.69.04.26.1.46.2.6.1.14.24.26.42.36.18.09.4.14.67.14.34,0,.64-.07.9-.22.27-.15.45-.34.55-.56.1-.23.15-.62.15-1.17v-2.09c0-.32-.04-.52-.11-.6-.1-.11-.25-.17-.44-.17h-.19Z"/>
      <path class="cls-4" d="m44.99,20.08v1.78h-.14c-.05-.34-.13-.61-.25-.82-.12-.2-.29-.36-.5-.48-.22-.12-.44-.18-.68-.18-.26,0-.48.08-.65.24-.17.16-.26.34-.26.55,0,.16.05.3.16.43.16.19.53.44,1.12.76.48.26.81.46.99.59.18.14.31.3.41.49.1.19.14.38.14.59,0,.39-.15.73-.45,1.01-.3.28-.69.42-1.17.42-.15,0-.29-.01-.42-.03-.08-.01-.24-.06-.49-.14-.25-.08-.4-.12-.47-.12s-.11.02-.15.06c-.04.04-.06.12-.08.24h-.14v-1.77h.14c.07.37.15.65.27.83.11.18.28.34.51.46.23.12.48.18.75.18.32,0,.57-.08.75-.25.18-.17.28-.36.28-.59,0-.13-.03-.25-.1-.38-.07-.13-.18-.25-.32-.36-.1-.08-.37-.24-.81-.48-.44-.25-.75-.44-.94-.59-.19-.15-.33-.31-.42-.49-.1-.18-.14-.37-.14-.59,0-.37.14-.69.43-.96.28-.27.64-.4,1.08-.4.27,0,.56.07.87.2.14.06.24.09.3.09.07,0,.12-.02.16-.06.04-.04.08-.12.1-.24h.14Z"/>
      <path class="cls-4" d="m50.26,20.2l.06,1.21h-.14c-.03-.21-.07-.36-.11-.46-.08-.15-.18-.26-.31-.33-.13-.07-.3-.1-.51-.1h-.73v3.94c0,.32.03.51.1.59.1.11.24.16.44.16h.18v.14h-2.19v-.14h.18c.22,0,.37-.07.46-.2.06-.08.08-.27.08-.56v-3.94h-.62c-.24,0-.41.02-.51.05-.13.05-.24.14-.34.28-.09.14-.15.32-.17.56h-.14l.06-1.21h4.21Z"/>
      <path class="cls-4" d="m29.04,32.21l-1.99-4.34v3.44c0,.32.03.51.1.59.09.11.24.16.44.16h.18v.14h-1.79v-.14h.18c.22,0,.37-.07.46-.2.06-.08.08-.27.08-.55v-3.37c0-.23-.03-.39-.08-.49-.04-.07-.1-.13-.2-.18-.1-.05-.25-.07-.46-.07v-.14h1.46l1.87,4.03,1.84-4.03h1.46v.14h-.18c-.22,0-.38.07-.47.2-.06.08-.08.27-.08.55v3.37c0,.32.04.51.11.59.09.11.24.16.44.16h.18v.14h-2.19v-.14h.18c.22,0,.38-.07.46-.2.06-.08.08-.27.08-.55v-3.44l-1.99,4.34h-.13Z"/>
      <path class="cls-4" d="m36.49,27.19v-.14h1.82v.14h-.19c-.2,0-.36.08-.47.25-.05.08-.08.26-.08.55v2.09c0,.52-.05.92-.15,1.2-.1.29-.3.53-.6.73-.3.2-.71.31-1.23.31-.56,0-.99-.1-1.28-.29-.29-.2-.5-.46-.62-.79-.08-.23-.12-.65-.12-1.27v-2.01c0-.32-.04-.52-.13-.62-.09-.1-.23-.15-.42-.15h-.19v-.14h2.23v.14h-.2c-.21,0-.36.07-.46.2-.06.09-.09.28-.09.57v2.25c0,.2.02.43.05.69.04.26.1.46.2.6.1.14.24.26.42.36.18.09.4.14.67.14.34,0,.64-.07.9-.22.27-.15.45-.34.55-.56.1-.23.15-.62.15-1.17v-2.09c0-.32-.04-.52-.11-.6-.1-.11-.25-.17-.44-.17h-.19Z"/>
      <path class="cls-4" d="m42.9,27.05l.06,1.21h-.14c-.03-.21-.07-.36-.11-.46-.08-.15-.18-.26-.31-.33-.13-.07-.3-.1-.51-.1h-.73v3.94c0,.32.03.51.1.59.1.11.24.16.44.16h.18v.14h-2.19v-.14h.18c.22,0,.37-.07.46-.2.06-.08.08-.27.08-.55v-3.94h-.62c-.24,0-.41.02-.51.05-.13.05-.24.14-.34.28-.09.14-.15.32-.17.55h-.14l.06-1.21h4.21Z"/>
      <path class="cls-4" d="m46.87,27.19v-.14h1.82v.14h-.19c-.2,0-.36.08-.47.25-.05.08-.08.26-.08.55v2.09c0,.52-.05.92-.15,1.2-.1.29-.3.53-.6.73-.3.2-.71.31-1.23.31-.56,0-.99-.1-1.28-.29-.29-.2-.5-.46-.62-.79-.08-.23-.12-.65-.12-1.27v-2.01c0-.32-.04-.52-.13-.62-.09-.1-.23-.15-.42-.15h-.19v-.14h2.23v.14h-.2c-.21,0-.36.07-.46.2-.06.09-.09.28-.09.57v2.25c0,.2.02.43.05.69.04.26.1.46.2.6.1.14.24.26.42.36.18.09.4.14.67.14.34,0,.64-.07.9-.22.27-.15.45-.34.55-.56.1-.23.15-.62.15-1.17v-2.09c0-.32-.04-.52-.11-.6-.1-.11-.25-.17-.44-.17h-.19Z"/>
      <path class="cls-4" d="m52.34,30.48h-2l-.35.81c-.09.2-.13.35-.13.45,0,.08.04.15.11.21.07.06.24.1.48.12v.14h-1.62v-.14c.22-.04.35-.09.42-.15.13-.12.27-.37.43-.74l1.81-4.24h.13l1.79,4.29c.14.34.28.57.39.67.12.1.28.16.49.17v.14h-2.03v-.14c.21-.01.34-.04.42-.1.07-.06.11-.13.11-.21,0-.11-.05-.29-.15-.53l-.31-.74Zm-.11-.28l-.87-2.08-.9,2.08h1.77Z"/>
      <path class="cls-4" d="m58.86,30.78l.13.03-.44,1.4h-3.99v-.14h.19c.22,0,.37-.07.47-.21.05-.08.08-.27.08-.56v-3.33c0-.32-.04-.52-.11-.6-.1-.11-.25-.17-.44-.17h-.19v-.14h2.33v.14c-.27,0-.47.02-.58.08-.11.05-.19.12-.23.2-.04.08-.06.27-.06.58v3.24c0,.21.02.35.06.43.03.05.08.09.14.12.06.03.26.04.59.04h.38c.4,0,.67-.03.83-.09.16-.06.31-.16.44-.31.13-.15.26-.38.4-.7Z"/>
      <path class="cls-4" d="m27.44,34.19v2.03h.94c.22,0,.37-.05.47-.14.1-.1.17-.28.2-.56h.14v1.74h-.14c0-.2-.03-.35-.08-.44-.05-.09-.12-.16-.21-.21-.09-.05-.22-.07-.39-.07h-.94v1.62c0,.26.02.43.05.52.03.06.08.12.16.16.11.06.23.09.35.09h.19v.14h-2.21v-.14h.18c.21,0,.37-.06.46-.19.06-.08.09-.28.09-.59v-3.33c0-.26-.02-.43-.05-.52-.03-.06-.08-.12-.16-.16-.11-.06-.23-.09-.35-.09h-.18v-.14h3.84l.05,1.13h-.13c-.07-.24-.14-.42-.23-.53-.09-.11-.2-.19-.32-.25-.13-.05-.33-.08-.59-.08h-1.14Z"/>
      <path class="cls-4" d="m33.9,34.04v-.14h1.82v.14h-.19c-.2,0-.36.08-.47.25-.05.08-.08.26-.08.55v2.09c0,.52-.05.92-.15,1.2-.1.29-.3.53-.6.73-.3.2-.71.31-1.23.31-.56,0-.99-.1-1.28-.29-.29-.2-.5-.46-.62-.79-.08-.23-.12-.65-.12-1.27v-2.01c0-.32-.04-.52-.13-.62-.09-.1-.23-.15-.42-.15h-.19v-.14h2.23v.14h-.2c-.21,0-.36.07-.46.2-.06.09-.09.28-.09.57v2.25c0,.2.02.43.05.69.04.26.1.46.2.6.1.14.24.26.42.36.18.09.4.14.67.14.34,0,.64-.07.9-.22.27-.15.45-.34.55-.56.1-.23.15-.62.15-1.17v-2.09c0-.32-.04-.52-.11-.6-.1-.11-.25-.17-.44-.17h-.19Z"/>
      <path class="cls-4" d="m35.7,33.9h1.4l3.15,3.87v-2.97c0-.32-.04-.51-.11-.59-.09-.11-.24-.16-.44-.16h-.18v-.14h1.79v.14h-.18c-.22,0-.37.07-.46.2-.06.08-.08.27-.08.55v4.35h-.14l-3.4-4.15v3.17c0,.32.03.51.1.59.1.11.24.16.44.16h.18v.14h-1.79v-.14h.18c.22,0,.38-.07.47-.2.06-.08.08-.27.08-.55v-3.58c-.15-.17-.26-.29-.34-.35-.08-.06-.19-.11-.34-.16-.07-.02-.18-.03-.33-.03v-.14Z"/>
      <path class="cls-4" d="m41.56,39.06v-.14h.19c.22,0,.37-.07.46-.21.06-.08.08-.27.08-.56v-3.33c0-.32-.04-.52-.11-.6-.1-.11-.25-.17-.44-.17h-.19v-.14h2.1c.77,0,1.36.09,1.76.26.4.17.72.47.97.87.24.41.37.88.37,1.41,0,.72-.22,1.32-.65,1.8-.49.54-1.23.81-2.24.81h-2.3Zm1.47-.37c.32.07.59.11.81.11.59,0,1.08-.21,1.46-.62.39-.41.58-.97.58-1.68s-.19-1.27-.58-1.68c-.39-.41-.89-.62-1.49-.62-.23,0-.49.04-.78.11v4.38Z"/>
    </g>
    <line class="cls-2" x1="26.28" y1="41.24" x2="57.93" y2="41.24"/>
    <g>
      <polygon class="cls-1" points="33.42 42.88 33.55 43.15 33.85 43.19 33.63 43.4 33.68 43.7 33.42 43.56 33.15 43.7 33.2 43.4 32.98 43.19 33.28 43.15 33.42 42.88"/>
      <polygon class="cls-1" points="44.94 42.88 45.07 43.15 45.37 43.19 45.15 43.4 45.2 43.7 44.94 43.56 44.67 43.7 44.72 43.4 44.5 43.19 44.8 43.15 44.94 42.88"/>
      <g>
        <path class="cls-1" d="m27.28,43.62s0-.01.01-.02c0,0,.01,0,.02-.01,0,0,.01,0,.01,0,0,0,0,0,0,0,0,0,.01.01.01.04,0,0,0,0,0,0,0,0,0,0,0,0-.01.09-.03.15-.06.2,0,0-.04.02-.09.04-.08.02-.19.04-.32.04-.17,0-.31-.06-.43-.19-.12-.13-.18-.27-.18-.45s.07-.33.2-.45c.14-.12.3-.18.48-.18.09,0,.15,0,.2.02.04.01.09.03.14.03.01,0,.02.02.02.06,0,.07.01.14.01.2,0,.01,0,.02,0,.03,0,0,0,.01-.02.01-.03,0-.04-.03-.05-.07,0-.06-.03-.1-.07-.14-.06-.06-.16-.1-.28-.1-.13,0-.24.05-.33.16-.09.11-.13.23-.13.37,0,.1.02.2.06.3.04.09.09.17.17.23.07.06.16.09.25.09.16,0,.27-.08.35-.23Z"/>
        <path class="cls-1" d="m27.85,42.82v.88s0,.07.03.09c.02.02.06.03.12.03h.27s.02,0,.05-.02c.02,0,.04-.02.06-.03.04-.03.07-.08.1-.13.01-.04.03-.06.04-.06.01,0,.02.01.02.03,0,0,0,0,0,0h0c-.03.11-.05.19-.05.24,0,.02-.01.03-.03.03-.09,0-.2,0-.35,0-.14,0-.24,0-.3,0h-.25s-.05,0-.05-.01c0-.01.01-.02.04-.03.05,0,.09-.02.11-.05.02-.02.04-.05.04-.09v-.87s0-.07-.02-.08c-.01-.01-.05-.02-.09-.03-.04,0-.06-.02-.06-.04,0-.01.02-.02.05-.02s.07,0,.11,0c.04,0,.07,0,.1,0,.03,0,.07,0,.11,0,.05,0,.09,0,.12,0s.05,0,.05.02c0,.02-.02.03-.06.04-.03,0-.05,0-.07.01-.01,0-.03,0-.05.02-.02,0-.03.02-.04.03,0,.01-.01.03-.01.04Z"/>
        <path class="cls-1" d="m29.03,43.69s0,.08.03.1c.02.02.05.03.09.03h.2c.07,0,.11-.01.14-.03.02-.02.05-.06.08-.12,0-.01.02-.02.03-.02.02,0,.02,0,.02.02,0,.05-.01.11-.03.19,0,.02-.01.03-.03.03-.09,0-.19,0-.33,0-.13,0-.23,0-.29,0-.03,0-.06,0-.1,0-.04,0-.08,0-.11,0s-.05,0-.05-.02c0-.01.02-.03.06-.03.05,0,.08-.02.11-.04.02-.02.03-.05.03-.1v-.84s0-.08-.03-.09c-.02-.02-.05-.03-.1-.04-.04,0-.06-.02-.06-.04,0-.01.02-.02.05-.02.05,0,.1,0,.17,0,.07,0,.12,0,.16,0,.05,0,.11,0,.17,0,.07,0,.12,0,.17,0,.05,0,.07,0,.07,0,.02,0,.03,0,.03.02.02.1.03.17.03.19,0,.02,0,.03-.03.03-.01,0-.02,0-.02-.02-.02-.06-.03-.09-.04-.1-.03-.03-.07-.05-.13-.05h-.25s-.03,0-.04.02c-.02.01-.02.03-.02.04v.4s0,.02.01.03c0,0,.01.01.02.01h.18c.05,0,.09-.02.11-.07,0,0,0-.01.02-.02,0,0,.01-.01.02-.01,0,0,.01,0,.02,0,0,0,0,.01,0,.02,0,0,0,.02,0,.05,0,.03,0,.05,0,.06,0,.01,0,.04,0,.07,0,.03,0,.05,0,.06,0,.02,0,.03-.02.03-.02,0-.03-.01-.04-.04-.02-.06-.05-.08-.09-.08h-.17s-.04,0-.05,0c0,0-.01.02-.01.04v.36Z"/>
        <path class="cls-1" d="m30.96,43.89s-.05,0-.12,0c-.06,0-.11,0-.14,0-.03,0-.06,0-.11,0-.05,0-.08,0-.09,0-.04,0-.05,0-.05-.02,0-.02.02-.03.06-.04.08-.01.11-.04.11-.08,0-.04-.02-.14-.07-.29,0-.01-.02-.02-.05-.02h-.36s-.02.01-.03.03c-.05.15-.08.23-.08.26,0,.03.01.05.03.07.02.02.05.03.08.04.04.01.06.02.06.04s-.02.02-.05.02c0,0-.03,0-.07,0-.04,0-.07,0-.1,0-.03,0-.07,0-.12,0-.05,0-.09,0-.1,0-.04,0-.05,0-.05-.02,0-.02.02-.03.06-.04.08-.02.13-.07.16-.14.12-.28.24-.57.35-.88,0-.02.01-.04.02-.06,0-.02,0-.03,0-.04s0-.01,0-.01c.03-.01.06-.02.07-.03,0,0,.01-.01.02-.02,0-.01,0-.02.01-.03,0,0,0-.01,0-.01,0,0,0,.01.02.05.09.29.2.63.33,1,.02.07.05.12.08.14.03.02.07.04.11.05.04,0,.06.02.06.04,0,.01-.02.02-.05.02Zm-.63-1.03l-.17.45s0,.01,0,.01c0,0,.01.01.04.01h.29s.03,0,.03,0c0,0,0,0,0-.02l-.15-.45s-.01-.03-.02-.03c0,0,0,.01-.01.03Z"/>
        <path class="cls-1" d="m31.81,43.27s0,.01,0,.02c.06.08.1.14.12.18.02.03.06.08.11.14.05.06.1.11.16.16.03.03.06.04.09.05.03,0,.07.01.12.01.02,0,.03,0,.03.02,0,.02-.02.04-.05.05-.03.01-.07.01-.1.01-.12,0-.2-.03-.26-.1,0,0-.02-.03-.05-.06-.03-.03-.05-.06-.06-.07,0-.01-.02-.03-.05-.06-.02-.03-.04-.06-.06-.09-.02-.03-.04-.07-.07-.11-.02-.03-.05-.06-.08-.07-.04-.02-.09-.04-.15-.04,0,0-.02,0-.02,0,0,0,0,.02,0,.03v.32c0,.09.04.15.13.16.04,0,.06.02.06.03,0,.01-.02.02-.05.02s-.07,0-.1,0c-.03,0-.06,0-.08,0-.03,0-.07,0-.12,0-.05,0-.09,0-.12,0-.04,0-.05,0-.05-.02,0-.01.02-.03.06-.03.05,0,.08-.02.11-.04.02-.02.03-.05.03-.1v-.79c0-.06,0-.1-.02-.13-.02-.03-.05-.05-.09-.05-.04,0-.06-.02-.06-.04,0-.01.02-.02.05-.02s.07,0,.1,0c.03,0,.06,0,.08,0,.02,0,.05,0,.09,0,.04,0,.08,0,.12,0,.28,0,.42.1.42.31,0,.14-.07.24-.22.32Zm.05-.29c0-.09-.02-.16-.05-.21-.04-.05-.1-.08-.2-.08-.05,0-.08,0-.09.03-.02.02-.02.04-.03.08,0,.12,0,.25,0,.39,0,.03,0,.05.02.05.01,0,.04.01.08.01.08,0,.15-.03.2-.08.05-.06.08-.12.08-.2Z"/>
        <path class="cls-1" d="m35.62,43.62s0-.01.01-.02c0,0,.01,0,.02-.01,0,0,.01,0,.01,0,0,0,0,0,0,0,0,0,.01.01.01.04,0,0,0,0,0,0,0,0,0,0,0,0-.01.09-.03.15-.06.2,0,0-.04.02-.09.04-.08.02-.19.04-.32.04-.17,0-.31-.06-.43-.19-.12-.13-.18-.27-.18-.45s.07-.33.2-.45c.14-.12.3-.18.48-.18.09,0,.15,0,.2.02.04.01.09.03.14.03.01,0,.02.02.02.06,0,.07.01.14.01.2,0,.01,0,.02,0,.03,0,0,0,.01-.02.01-.03,0-.04-.03-.05-.07,0-.06-.03-.1-.07-.14-.06-.06-.16-.1-.28-.1-.13,0-.24.05-.33.16-.09.11-.13.23-.13.37,0,.1.02.2.06.3.04.09.09.17.17.23.07.06.16.09.25.09.15,0,.27-.08.35-.23Z"/>
        <path class="cls-1" d="m36.52,43.27s0,.01,0,.02c.06.08.1.14.12.18.02.03.06.08.11.14.05.06.1.11.16.16.03.03.06.04.09.05.03,0,.07.01.12.01.02,0,.03,0,.03.02,0,.02-.02.04-.05.05-.03.01-.07.01-.1.01-.12,0-.2-.03-.26-.1,0,0-.02-.03-.05-.06-.03-.03-.05-.06-.06-.07s-.02-.03-.05-.06c-.02-.03-.04-.06-.06-.09-.02-.03-.04-.07-.07-.11-.02-.03-.05-.06-.08-.07-.04-.02-.09-.04-.15-.04,0,0-.02,0-.02,0,0,0,0,.02,0,.03v.32c0,.09.04.15.13.16.04,0,.06.02.06.03,0,.01-.02.02-.05.02s-.07,0-.1,0c-.03,0-.06,0-.08,0-.03,0-.07,0-.12,0-.05,0-.09,0-.12,0-.04,0-.05,0-.05-.02,0-.01.02-.03.06-.03.05,0,.08-.02.11-.04.02-.02.03-.05.03-.1v-.79c0-.06,0-.1-.02-.13-.02-.03-.05-.05-.09-.05-.04,0-.06-.02-.06-.04,0-.01.02-.02.05-.02s.07,0,.1,0c.03,0,.06,0,.08,0,.02,0,.05,0,.09,0,.04,0,.08,0,.12,0,.28,0,.42.1.42.31,0,.14-.07.24-.22.32Zm.05-.29c0-.09-.02-.16-.05-.21-.04-.05-.1-.08-.2-.08-.05,0-.08,0-.09.03-.02.02-.02.04-.03.08,0,.12,0,.25,0,.39,0,.03,0,.05.02.05.01,0,.04.01.08.01.08,0,.15-.03.2-.08.05-.06.08-.12.08-.2Z"/>
        <path class="cls-1" d="m37.61,43.69s0,.08.03.1c.02.02.05.03.09.03h.2c.07,0,.11-.01.14-.03.02-.02.05-.06.08-.12,0-.01.02-.02.03-.02.02,0,.02,0,.02.02,0,.05-.01.11-.03.19,0,.02-.01.03-.03.03-.09,0-.19,0-.33,0-.13,0-.23,0-.29,0-.03,0-.06,0-.1,0-.04,0-.08,0-.11,0s-.05,0-.05-.02c0-.01.02-.03.06-.03.05,0,.08-.02.11-.04.02-.02.03-.05.03-.1v-.84s0-.08-.03-.09c-.02-.02-.05-.03-.1-.04-.04,0-.06-.02-.06-.04,0-.01.02-.02.05-.02.05,0,.1,0,.17,0,.07,0,.12,0,.16,0,.05,0,.11,0,.17,0,.07,0,.12,0,.17,0,.05,0,.07,0,.07,0,.02,0,.03,0,.03.02.02.1.03.17.03.19,0,.02,0,.03-.03.03-.01,0-.02,0-.02-.02-.02-.06-.03-.09-.04-.1-.03-.03-.07-.05-.13-.05h-.25s-.03,0-.04.02c-.02.01-.02.03-.02.04v.4s0,.02.01.03c0,0,.01.01.02.01h.18c.05,0,.09-.02.11-.07,0,0,0-.01.02-.02,0,0,.01-.01.02-.01,0,0,.01,0,.02,0,0,0,0,.01,0,.02,0,0,0,.02,0,.05,0,.03,0,.05,0,.06,0,.01,0,.04,0,.07,0,.03,0,.05,0,.06,0,.02,0,.03-.02.03-.02,0-.03-.01-.04-.04-.02-.06-.05-.08-.09-.08h-.17s-.04,0-.05,0c0,0-.01.02-.01.04v.36Z"/>
        <path class="cls-1" d="m38.99,43.89s-.05,0-.15,0c-.1,0-.18,0-.24,0-.02,0-.05,0-.09,0s-.07,0-.11,0-.05,0-.05-.02c0-.01.02-.03.06-.03.05,0,.08-.02.1-.04.02-.02.03-.05.03-.1v-.84s0-.08-.03-.09c-.02-.02-.05-.03-.1-.04-.04,0-.06-.02-.06-.04,0-.01.02-.02.05-.02s.07,0,.11,0c.03,0,.06,0,.09,0h.01s.09,0,.17,0c.08,0,.14,0,.15,0,.24,0,.42.06.54.17.12.11.17.25.17.43s-.06.33-.19.46c-.13.13-.28.19-.46.19Zm-.3-.24s0,.07.02.09c.02.02.04.04.07.05.03.01.06.02.09.02.03,0,.06,0,.1,0,.15,0,.27-.05.36-.16.09-.1.14-.24.14-.4s-.05-.31-.16-.41c-.11-.1-.23-.16-.36-.16-.04,0-.07,0-.09,0-.02,0-.04,0-.07,0-.03,0-.04,0-.06.02-.01,0-.02.02-.03.03,0,.01-.01.03-.01.06v.84Z"/>
        <path class="cls-1" d="m40.02,42.85s0-.08-.03-.09c-.02-.02-.05-.03-.1-.04-.04,0-.06-.02-.06-.04,0-.01.02-.02.05-.02s.07,0,.12,0c.04,0,.08,0,.1,0,.02,0,.06,0,.09,0,.04,0,.07,0,.11,0s.05,0,.05.02c0,.02-.02.03-.06.04-.05,0-.08.02-.1.04-.02.02-.03.05-.03.09v.85s.01.07.04.09c.02.02.06.04.11.04.04,0,.06.02.06.03,0,.01-.02.02-.05.02s-.07,0-.12,0c-.04,0-.08,0-.1,0-.03,0-.07,0-.12,0-.05,0-.09,0-.12,0s-.05,0-.05-.02c0-.01.02-.03.06-.03.05,0,.09-.02.11-.04.02-.02.04-.05.04-.09v-.85Z"/>
        <path class="cls-1" d="m40.83,43.88s-.07,0-.12,0-.09,0-.13,0-.05,0-.05-.02c0-.01.02-.03.06-.03.05,0,.09-.02.11-.05.02-.02.04-.05.04-.1v-.84s0-.08-.03-.1c-.02-.02-.05-.03-.1-.04-.04,0-.06-.02-.06-.04,0-.01.02-.02.05-.02s.07,0,.11,0c.04,0,.06,0,.09,0,.02,0,.05,0,.09,0,.04,0,.08,0,.12,0,.14,0,.25.02.31.06.07.04.1.11.1.21,0,.08-.02.14-.06.18-.04.03-.08.06-.13.08,0,0,0,0,0,0s0,0,0,0c.04.01.07.02.09.03.02.01.05.03.08.05.03.02.05.05.07.09.02.04.02.08.02.13s0,.09-.02.13c-.01.04-.03.07-.05.09-.02.02-.04.04-.06.05-.02.01-.04.02-.07.04-.08.04-.18.06-.3.06,0,0-.03,0-.07,0-.04,0-.08,0-.11,0Zm.14-.7c.08,0,.15-.02.21-.05.02-.01.04-.03.06-.06.02-.03.03-.07.03-.12,0-.07-.02-.13-.06-.17-.04-.05-.1-.07-.2-.07-.05,0-.08,0-.1.02-.02.01-.03.03-.03.06v.33s.03.07.09.07Zm.06.63c.08,0,.14-.03.2-.08.06-.06.09-.12.09-.2,0-.11-.05-.19-.14-.24-.06-.03-.12-.05-.19-.05-.04,0-.06,0-.08.02-.02.01-.03.03-.03.05v.37c0,.05.01.08.04.1.02.02.06.03.11.03Z"/>
        <path class="cls-1" d="m42.05,42.82v.88s0,.07.03.09c.02.02.06.03.12.03h.27s.02,0,.05-.02c.02,0,.04-.02.06-.03.04-.03.07-.08.1-.13.01-.04.03-.06.04-.06.01,0,.02.01.02.03,0,0,0,0,0,0h0c-.03.11-.05.19-.05.24,0,.02-.01.03-.03.03-.09,0-.2,0-.35,0-.14,0-.24,0-.3,0h-.25s-.05,0-.05-.01c0-.01.01-.02.04-.03.05,0,.09-.02.11-.05.02-.02.04-.05.04-.09v-.87s0-.07-.02-.08c-.01-.01-.05-.02-.09-.03-.04,0-.06-.02-.06-.04,0-.01.02-.02.05-.02s.07,0,.11,0c.04,0,.07,0,.1,0,.03,0,.07,0,.11,0,.05,0,.09,0,.12,0s.05,0,.05.02c0,.02-.02.03-.06.04-.03,0-.05,0-.07.01-.01,0-.03,0-.05.02-.02,0-.03.02-.04.03,0,.01-.01.03-.01.04Z"/>
        <path class="cls-1" d="m43.22,43.69s0,.08.03.1c.02.02.05.03.09.03h.2c.07,0,.11-.01.14-.03.02-.02.05-.06.08-.12,0-.01.02-.02.03-.02.02,0,.02,0,.02.02,0,.05-.01.11-.03.19,0,.02-.01.03-.03.03-.09,0-.19,0-.33,0-.13,0-.23,0-.29,0-.03,0-.06,0-.1,0-.04,0-.08,0-.11,0s-.05,0-.05-.02c0-.01.02-.03.06-.03.05,0,.08-.02.11-.04.02-.02.03-.05.03-.1v-.84s0-.08-.03-.09c-.02-.02-.05-.03-.1-.04-.04,0-.06-.02-.06-.04,0-.01.02-.02.05-.02.05,0,.1,0,.17,0,.07,0,.12,0,.16,0,.05,0,.11,0,.17,0,.07,0,.12,0,.17,0,.05,0,.07,0,.07,0,.02,0,.03,0,.03.02.02.1.03.17.03.19,0,.02,0,.03-.03.03-.01,0-.02,0-.02-.02-.02-.06-.03-.09-.04-.1-.03-.03-.07-.05-.13-.05h-.25s-.03,0-.04.02c-.02.01-.02.03-.02.04v.4s0,.02.01.03c0,0,.01.01.02.01h.18c.05,0,.09-.02.11-.07,0,0,0-.01.02-.02,0,0,.01-.01.02-.01,0,0,.01,0,.02,0,0,0,0,.01,0,.02,0,0,0,.02,0,.05,0,.03,0,.05,0,.06,0,.01,0,.04,0,.07,0,.03,0,.05,0,.06,0,.02,0,.03-.02.03-.02,0-.03-.01-.04-.04-.02-.06-.05-.08-.09-.08h-.17s-.04,0-.05,0c0,0-.01.02-.01.04v.36Z"/>
        <path class="cls-1" d="m46.99,43.62s0-.01.01-.02c0,0,.01,0,.02-.01,0,0,.01,0,.01,0,0,0,0,0,0,0,0,0,.01.01.01.04,0,0,0,0,0,0,0,0,0,0,0,0-.01.09-.03.15-.06.2,0,0-.04.02-.09.04-.08.02-.19.04-.32.04-.17,0-.31-.06-.43-.19-.12-.13-.18-.27-.18-.45s.07-.33.2-.45c.14-.12.3-.18.48-.18.09,0,.15,0,.2.02.04.01.09.03.14.03.01,0,.02.02.02.06,0,.07.01.14.01.2,0,.01,0,.02,0,.03,0,0,0,.01-.02.01-.03,0-.04-.03-.05-.07,0-.06-.03-.1-.07-.14-.06-.06-.16-.1-.28-.1-.13,0-.24.05-.33.16-.09.11-.13.23-.13.37,0,.1.02.2.06.3.04.09.09.17.17.23.07.06.16.09.25.09.15,0,.27-.08.35-.23Z"/>
        <path class="cls-1" d="m47.25,43.28c0-.12.02-.22.07-.32.05-.1.12-.17.22-.24.1-.06.22-.09.35-.09.17,0,.31.06.43.17.12.12.18.26.18.44,0,.08-.01.17-.04.24-.03.08-.07.15-.12.21-.05.06-.12.11-.2.15-.08.04-.17.05-.27.05-.17,0-.32-.06-.44-.18-.13-.12-.19-.27-.19-.44Zm.62-.57c-.13,0-.24.05-.32.15-.08.1-.12.22-.12.36,0,.17.05.31.14.43.09.12.2.18.34.18s.24-.05.32-.14c.07-.09.11-.22.11-.39,0-.18-.04-.33-.12-.44-.08-.11-.19-.16-.34-.16Z"/>
        <path class="cls-1" d="m49.83,42.66s.06,0,.1,0c.04,0,.08,0,.12,0,.04,0,.05,0,.05.02,0,.02-.02.03-.06.04-.05,0-.08.02-.09.03-.02.01-.02.04-.03.07,0,.06,0,.41,0,1.05,0,.03-.01.05-.04.05-.01,0-.04-.01-.07-.03-.03-.02-.06-.05-.09-.09-.03-.05-.26-.32-.67-.82-.02-.02-.03-.03-.04-.03-.01,0-.02.01-.02.04,0,.31,0,.54,0,.7,0,.08.04.14.12.15.04,0,.06.02.06.03,0,.01-.02.02-.05.02s-.07,0-.1,0c-.03,0-.06,0-.08,0s-.04,0-.07,0c-.03,0-.06,0-.1,0s-.05,0-.05-.02c0-.01.02-.02.06-.04.06-.02.1-.07.11-.15.02-.21.03-.46.03-.75,0-.06-.02-.11-.05-.14-.03-.03-.08-.06-.14-.08-.04-.01-.06-.03-.06-.05s.01-.03.04-.03c.04,0,.08,0,.14,0,.05,0,.1,0,.15,0,.01,0,.03.01.04.03.02.02.13.17.35.45.22.27.34.43.36.46.02.02.04.04.05.04.01,0,.02-.01.02-.04,0-.08,0-.28,0-.6v-.16s-.01-.04-.04-.07c-.02-.02-.05-.03-.07-.04-.04,0-.06-.02-.06-.04,0-.01.02-.02.05-.02h.11Z"/>
        <path class="cls-1" d="m50.61,43.85c.07,0,.12-.02.16-.06.04-.04.06-.09.06-.16,0-.11-.1-.22-.29-.35-.08-.05-.14-.1-.18-.15-.04-.05-.06-.11-.06-.18,0-.08.04-.16.11-.22.07-.06.16-.09.27-.09.03,0,.07,0,.1,0,.03,0,.06.01.08.02.02,0,.03,0,.04,0,.01,0,.03.01.03.04,0,0,0,.01,0,.03,0,.02,0,.04,0,.06,0,.03,0,.05,0,.06,0,.03,0,.05-.01.05-.04,0-.06-.02-.07-.05,0-.05-.03-.1-.07-.13-.04-.03-.09-.05-.14-.05-.06,0-.11.02-.15.06-.04.04-.06.09-.06.15,0,.03,0,.06.02.08.01.03.04.05.07.08.03.03.06.05.07.06.02.01.04.03.08.06.19.12.29.26.29.4,0,.09-.03.16-.1.23-.07.07-.16.1-.29.1-.1,0-.19-.02-.25-.05-.02,0-.03-.02-.04-.03-.02-.05-.03-.12-.03-.22,0,0,0-.02.01-.03,0-.01.02-.02.03-.02.01,0,.03.04.06.12.02.05.05.09.09.12.04.03.1.04.15.04Z"/>
        <path class="cls-1" d="m51.39,42.85s0-.08-.03-.09c-.02-.02-.05-.03-.1-.04-.04,0-.06-.02-.06-.04,0-.01.02-.02.05-.02s.07,0,.12,0c.04,0,.08,0,.1,0,.02,0,.06,0,.09,0,.04,0,.07,0,.11,0s.05,0,.05.02c0,.02-.02.03-.06.04-.05,0-.08.02-.1.04-.02.02-.03.05-.03.09v.85s.01.07.04.09c.02.02.06.04.11.04.04,0,.06.02.06.03,0,.01-.02.02-.05.02s-.07,0-.12,0c-.04,0-.08,0-.1,0-.03,0-.07,0-.12,0-.05,0-.09,0-.12,0s-.05,0-.05-.02c0-.01.02-.03.06-.03.05,0,.09-.02.11-.04.02-.02.04-.05.04-.09v-.85Z"/>
        <path class="cls-1" d="m52.27,43.85c.07,0,.12-.02.16-.06.04-.04.06-.09.06-.16,0-.11-.1-.22-.29-.35-.08-.05-.14-.1-.18-.15-.04-.05-.06-.11-.06-.18,0-.08.04-.16.11-.22.07-.06.16-.09.27-.09.03,0,.07,0,.1,0,.03,0,.06.01.08.02.02,0,.03,0,.04,0,.01,0,.03.01.03.04,0,0,0,.01,0,.03,0,.02,0,.04,0,.06,0,.03,0,.05,0,.06,0,.03,0,.05-.01.05-.04,0-.06-.02-.07-.05,0-.05-.03-.1-.07-.13-.04-.03-.09-.05-.14-.05-.06,0-.11.02-.15.06-.04.04-.06.09-.06.15,0,.03,0,.06.02.08.01.03.04.05.07.08.03.03.06.05.07.06.02.01.04.03.08.06.19.12.29.26.29.4,0,.09-.03.16-.1.23-.07.07-.16.1-.29.1-.1,0-.19-.02-.25-.05-.02,0-.03-.02-.04-.03-.02-.05-.03-.12-.03-.22,0,0,0-.02.01-.03,0-.01.02-.02.03-.02.01,0,.03.04.06.12.02.05.05.09.09.12.04.03.1.04.15.04Z"/>
        <path class="cls-1" d="m53.51,43.69c0,.08.05.13.15.15.04,0,.06.02.06.03,0,.01-.02.02-.05.02s-.07,0-.12,0c-.04,0-.08,0-.1,0-.03,0-.07,0-.12,0-.05,0-.09,0-.12,0s-.05,0-.05-.02c0-.01.02-.03.06-.03.05,0,.09-.02.11-.05.02-.02.04-.06.04-.1v-.85c0-.05-.01-.08-.03-.08-.02,0-.07,0-.14,0h-.09s-.06,0-.09.02c-.03.01-.05.03-.06.05,0,.01-.02.03-.03.05-.02.02-.03.02-.04.02,0,0-.01,0-.01-.02,0-.01,0-.02,0-.04.03-.06.05-.13.06-.21,0-.03.01-.04.03-.04.01,0,.03.02.05.06.01.02.06.04.13.04h.72s.08,0,.11-.03c0,0,.02-.02.03-.03s.02-.02.03-.03c0,0,.02-.01.03-.01s.01.01.01.04c0,0,0,0,0,0,0,0,0,0,0,0-.02.08-.03.14-.03.19v.02s0,.03,0,.04c0,.01-.01.02-.02.02-.01,0-.03-.03-.04-.08-.01-.06-.07-.09-.17-.09h-.18s-.08,0-.09.01c-.01,0-.02.03-.02.07v.86Z"/>
        <path class="cls-1" d="m54.53,43.69s0,.08.03.1c.02.02.05.03.09.03h.2c.07,0,.11-.01.14-.03.02-.02.05-.06.08-.12,0-.01.02-.02.03-.02.02,0,.02,0,.02.02,0,.05-.01.11-.03.19,0,.02-.01.03-.03.03-.09,0-.19,0-.33,0-.13,0-.23,0-.29,0-.03,0-.06,0-.1,0-.04,0-.08,0-.11,0s-.05,0-.05-.02c0-.01.02-.03.06-.03.05,0,.08-.02.11-.04.02-.02.03-.05.03-.1v-.84s0-.08-.03-.09c-.02-.02-.05-.03-.1-.04-.04,0-.06-.02-.06-.04,0-.01.02-.02.05-.02.05,0,.1,0,.17,0,.07,0,.12,0,.16,0,.05,0,.11,0,.17,0,.07,0,.12,0,.17,0,.05,0,.07,0,.07,0,.02,0,.03,0,.03.02.02.1.03.17.03.19,0,.02,0,.03-.03.03-.01,0-.02,0-.02-.02-.02-.06-.03-.09-.04-.1-.03-.03-.07-.05-.13-.05h-.25s-.03,0-.04.02c-.02.01-.02.03-.02.04v.4s0,.02.01.03c0,0,.01.01.02.01h.18c.05,0,.09-.02.11-.07,0,0,0-.01.02-.02,0,0,.01-.01.02-.01,0,0,.01,0,.02,0,0,0,0,.01,0,.02,0,0,0,.02,0,.05,0,.03,0,.05,0,.06,0,.01,0,.04,0,.07,0,.03,0,.05,0,.06,0,.02,0,.03-.02.03-.02,0-.03-.01-.04-.04-.02-.06-.05-.08-.09-.08h-.17s-.04,0-.05,0c0,0-.01.02-.01.04v.36Z"/>
        <path class="cls-1" d="m56.37,42.66s.06,0,.1,0c.04,0,.08,0,.12,0,.04,0,.05,0,.05.02,0,.02-.02.03-.06.04-.05,0-.08.02-.09.03-.02.01-.02.04-.03.07,0,.06,0,.41,0,1.05,0,.03-.01.05-.04.05-.01,0-.04-.01-.07-.03-.03-.02-.06-.05-.09-.09-.03-.05-.26-.32-.67-.82-.02-.02-.03-.03-.04-.03-.01,0-.02.01-.02.04,0,.31,0,.54,0,.7,0,.08.04.14.12.15.04,0,.06.02.06.03,0,.01-.02.02-.05.02s-.07,0-.1,0c-.03,0-.06,0-.08,0s-.04,0-.07,0c-.03,0-.06,0-.1,0s-.05,0-.05-.02c0-.01.02-.02.06-.04.06-.02.1-.07.11-.15.02-.21.03-.46.03-.75,0-.06-.02-.11-.05-.14-.03-.03-.08-.06-.14-.08-.04-.01-.06-.03-.06-.05s.01-.03.04-.03c.04,0,.08,0,.14,0,.05,0,.1,0,.15,0,.01,0,.03.01.04.03.02.02.13.17.35.45.22.27.34.43.36.46.02.02.04.04.05.04.01,0,.02-.01.02-.04,0-.08,0-.28,0-.6v-.16s-.01-.04-.04-.07c-.02-.02-.05-.03-.07-.04-.04,0-.06-.02-.06-.04,0-.01.02-.02.05-.02h.11Z"/>
        <path class="cls-1" d="m57.44,43.69c0,.08.05.13.15.15.04,0,.06.02.06.03,0,.01-.02.02-.05.02s-.07,0-.12,0c-.04,0-.08,0-.1,0-.03,0-.07,0-.12,0-.05,0-.09,0-.12,0s-.05,0-.05-.02c0-.01.02-.03.06-.03.05,0,.09-.02.11-.05.02-.02.04-.06.04-.1v-.85c0-.05-.01-.08-.03-.08-.02,0-.07,0-.14,0h-.09s-.06,0-.09.02c-.03.01-.05.03-.06.05,0,.01-.02.03-.03.05-.02.02-.03.02-.04.02,0,0-.01,0-.01-.02,0-.01,0-.02,0-.04.03-.06.05-.13.06-.21,0-.03.01-.04.03-.04.01,0,.03.02.05.06.01.02.06.04.13.04h.72s.08,0,.11-.03c0,0,.02-.02.03-.03s.02-.02.03-.03c0,0,.02-.01.03-.01s.01.01.01.04c0,0,0,0,0,0,0,0,0,0,0,0-.02.08-.03.14-.03.19v.02s0,.03,0,.04c0,.01-.01.02-.02.02-.01,0-.03-.03-.04-.08,0-.06-.07-.09-.17-.09h-.18s-.08,0-.09.01c-.01,0-.02.03-.02.07v.86Z"/>
      </g>
    </g>
  </g>
</svg>