<svg width="64" height="64" viewBox="0 0 64 64" fill="none" xmlns="http://www.w3.org/2000/svg">
<g clip-path="url(#clip0_757_506)">
<path d="M14.0295 38.3833C14.022 38.3567 14.0096 38.2863 13.9947 38.1699C13.9799 38.0728 13.9675 37.9903 13.9575 37.9273C13.9402 38.0049 13.9179 38.0801 13.8881 38.1577C13.8584 38.2354 13.8212 38.313 13.7765 38.3906L12.7498 40.1761L11.7232 38.3542C11.681 38.279 11.6438 38.2087 11.6116 38.1383C11.5818 38.068 11.552 37.9976 11.5297 37.9297C11.5272 38 11.5198 38.0728 11.5099 38.1505C11.4975 38.2281 11.4801 38.3081 11.4578 38.3906L11.0362 40.0403H10.4485L11.376 36.5493L12.5341 38.6623C12.5514 38.6939 12.5787 38.7521 12.6159 38.8297C12.6531 38.9074 12.6953 39.0044 12.7474 39.1184C12.7846 39.0214 12.8441 38.9001 12.9234 38.7521C12.9457 38.7109 12.9606 38.6817 12.9705 38.6599L14.1014 36.5493L15.0512 40.0403H14.4585L14.0245 38.3858L14.0295 38.3833Z" fill="#6D6E70"/>
<path d="M16.8367 36.6855H17.469V38.7209C17.469 39.0218 17.5509 39.2498 17.7146 39.4026C17.8782 39.5555 18.1213 39.6307 18.4486 39.6307C18.776 39.6307 19.0165 39.5555 19.1777 39.4026C19.3414 39.2498 19.4232 39.0242 19.4232 38.7209V36.6855H20.0605V38.7695C20.0605 39.2231 19.9266 39.5627 19.6588 39.7884C19.391 40.014 18.9867 40.1256 18.4461 40.1256C17.9055 40.1256 17.5038 40.0115 17.2384 39.7884C16.9731 39.5627 16.8391 39.2231 16.8391 38.7695V36.6855H16.8367Z" fill="#6D6E70"/>
<path d="M23.52 37.1513V40.0382H22.8827V37.1513H21.8386V36.688H24.5566V37.1513H23.52Z" fill="#6D6E70"/>
<path d="M26.3347 36.6855H26.9671V38.7209C26.9671 39.0218 27.0489 39.2498 27.2126 39.4026C27.3763 39.5555 27.6193 39.6307 27.9467 39.6307C28.274 39.6307 28.5121 39.5555 28.6757 39.4026C28.8394 39.2498 28.9213 39.0242 28.9213 38.7209V36.6855H29.5586V38.7695C29.5586 39.2231 29.4247 39.5627 29.1568 39.7884C28.889 40.014 28.4848 40.1256 27.9442 40.1256C27.4036 40.1256 27.0018 40.0115 26.7365 39.7884C26.4711 39.5627 26.3372 39.2231 26.3372 38.7695V36.6855H26.3347Z" fill="#6D6E70"/>
<path d="M34.4638 40.0359L34.0199 39.1723H32.465L32.0087 40.0359H31.3391L33.2387 36.5547L35.1383 40.0359H34.4638ZM32.7006 38.7211H33.7942L33.3925 37.9569C33.3701 37.9084 33.3454 37.8526 33.3206 37.7895C33.2958 37.7264 33.2685 37.6561 33.2462 37.5784C33.2238 37.6512 33.204 37.7192 33.1767 37.7822C33.1519 37.8453 33.1271 37.9035 33.1023 37.9569L32.7006 38.7211Z" fill="#6D6E70"/>
<path d="M36.9164 40.0358V36.6855H37.5537V39.5482H38.9821V40.0358H36.9189H36.9164Z" fill="#6D6E70"/>
<path d="M44.1825 40.0358V36.6855H46.3722V37.1489H44.8198V37.9834H46.3722V38.4614H44.8198V40.0358H44.1825Z" fill="#6D6E70"/>
<path d="M48.5596 36.6855H49.1919V38.7209C49.1919 39.0218 49.2738 39.2498 49.4375 39.4026C49.6011 39.5555 49.8442 39.6307 50.1715 39.6307C50.4989 39.6307 50.7394 39.5555 50.9006 39.4026C51.0643 39.2498 51.1461 39.0242 51.1461 38.7209V36.6855H51.7834V38.7695C51.7834 39.2231 51.6495 39.5627 51.3817 39.7884C51.1139 40.014 50.7096 40.1256 50.169 40.1256C49.6284 40.1256 49.2267 40.0115 48.9613 39.7884C48.696 39.5627 48.562 39.2231 48.562 38.7695V36.6855H48.5596Z" fill="#6D6E70"/>
<path d="M53.9707 40.0359V36.5547L56.4655 38.6022C56.5324 38.6604 56.6019 38.7211 56.6713 38.7866C56.7408 38.8521 56.8127 38.9273 56.8895 39.0073V36.6833H57.4773V40.1645L54.9354 38.0806C54.8684 38.0248 54.8015 37.9642 54.7395 37.9011C54.675 37.838 54.6155 37.7725 54.5584 37.7046V40.0335H53.9707V40.0359Z" fill="#6D6E70"/>
<path d="M59.667 40.0358V36.6855H60.525C61.0855 36.6855 61.4798 36.7098 61.7055 36.7559C61.9336 36.8044 62.1345 36.8845 62.3056 36.9961C62.5313 37.1441 62.7049 37.3357 62.8214 37.5662C62.938 37.7991 62.9975 38.0635 62.9975 38.3619C62.9975 38.6603 62.938 38.9223 62.8214 39.1528C62.7049 39.3832 62.5338 39.5724 62.3056 39.7229C62.1345 39.8369 61.9386 39.9169 61.7203 39.963C61.5021 40.0115 61.1599 40.0334 60.6986 40.0334H59.667V40.0358ZM60.3043 39.5458H60.8425C61.1376 39.5458 61.3583 39.5288 61.5071 39.4948C61.6534 39.4609 61.7823 39.4051 61.8915 39.325C62.0403 39.2158 62.1519 39.0824 62.2238 38.9199C62.2982 38.7597 62.3354 38.5705 62.3354 38.357C62.3354 38.1436 62.2982 37.9568 62.2238 37.7942C62.1494 37.6317 62.0378 37.4982 61.8915 37.3891C61.7799 37.309 61.6484 37.2532 61.4947 37.2193C61.3409 37.1853 61.0979 37.1683 60.7681 37.1683H60.3068V39.5385L60.3043 39.5458Z" fill="#6D6E70"/>
<path fill-rule="evenodd" clip-rule="evenodd" d="M62.9975 24H59.4215V34.7373H59.4289L62.9975 34.7398V24Z" fill="#050505"/>
<path fill-rule="evenodd" clip-rule="evenodd" d="M45.6382 24.0024V34.7398H49.2142V31.0741H54.37L56.2423 27.9543H49.2142V27.1222H57.2987V24.0024H45.6357H45.6382Z" fill="#050505"/>
<path fill-rule="evenodd" clip-rule="evenodd" d="M43.5153 24H39.9393V34.7373H39.9468L43.5153 34.7398V24Z" fill="#050505"/>
<path fill-rule="evenodd" clip-rule="evenodd" d="M23.0711 24.0024H19.4951V30.5453C19.4951 31.3192 18.8999 31.6175 17.9402 31.6175H15.5843C14.6246 31.6175 14.0294 31.3167 14.0294 30.5453V24.0024H10.4534V30.5453C10.4534 33.6384 12.3158 34.7398 15.5868 34.7398H17.9427C21.2137 34.7398 23.0761 33.6384 23.0761 30.5453V24.0024H23.0711Z" fill="#050505"/>
<path fill-rule="evenodd" clip-rule="evenodd" d="M37.8166 34.7398H34.2406V28.1969C34.2406 27.4231 33.6454 27.1247 32.6857 27.1247H30.3298C29.3701 27.1247 28.7749 27.4255 28.7749 28.1969V34.7398H25.1989V28.1969C25.1939 25.1038 27.0538 24.0024 30.3273 24.0024H32.6832C35.9542 24.0024 37.8166 25.1038 37.8166 28.1969V34.7398Z" fill="#050505"/>
<path d="M8.01118 31.397H1.13489V40.082H8.01118V31.397Z" fill="#EE4536"/>
<path d="M8.01118 28.9448H1.13489V30.8381H8.01118V28.9448Z" fill="#EE4536"/>
<path d="M8.01118 27.2129H1.13489V28.4078H8.01118V27.2129Z" fill="#EE4536"/>
<path d="M8.01118 25.8125H1.13489V26.6525H8.01118V25.8125Z" fill="#EE4536"/>
<path d="M8.01118 24.7686H1.13489V25.2713H8.01118V24.7686Z" fill="#EE4536"/>
<path d="M8.01118 23.9106H1.13489V24.2329H8.01118V23.9106Z" fill="#EE4536"/>
</g>
<defs>
<clipPath id="clip0_757_506">
<rect width="62" height="16.1739" fill="white" transform="translate(1 24)"/>
</clipPath>
</defs>
</svg>
