<?xml version="1.0" encoding="UTF-8"?>
<svg id="Layer_1" xmlns="http://www.w3.org/2000/svg" xmlns:xlink="http://www.w3.org/1999/xlink" viewBox="0 0 230 60">
  <defs>
    <style>
      .cls-1 {
        fill: #1c778f;
      }

      .cls-1, .cls-2 {
        fill-rule: evenodd;
      }

      .cls-2 {
        fill: #f79822;
      }

      .cls-3 {
        fill: none;
      }

      .cls-4 {
        fill: #042538;
      }

      .cls-5 {
        clip-path: url(#clippath);
      }
    </style>
    <clipPath id="clippath">
      <rect class="cls-3" width="230" height="60"/>
    </clipPath>
  </defs>
  <g class="cls-5">
    <g>
      <g>
        <g>
          <path class="cls-1" d="M44.19,9.4c5.51,0,5.48,0,4.38,3.69-1.54,5.13-3.07,10.26-4.51,15.41-.86,3.09-.16,4.46,2.29,5.12,3.82,1.03,8.75-.01,10.64-2.25,1.24-1.47,1.62-3.13,2.11-4.75,1.63-5.3,3.27-10.61,4.79-15.93.28-1.01.82-1.34,2.26-1.3,2.59.06,5.19.04,7.78,0,1.08-.01,1.39.21,1.14.98-2.13,6.55-3.76,13.18-6.18,19.69-3.79,10.2-20.79,11.89-29.61,9.16-5.57-1.72-7.73-5.19-6.29-10.31,1.7-6.05,3.59-12.08,5.32-18.13.32-1.14,1.04-1.4,2.67-1.4,1.11,0,2.14.02,3.21.02Z"/>
          <path class="cls-2" d="M57,8.93L73.73,0l3.74,11.57s-4.92-2.08-5.38-2.15c-.14-.02-.21-.01-.29.08-.65.69-1.3,1.39-1.97,2.07-.61.61-1.27,1.2-1.92,1.79-1.21,1.09-2.52,2.11-3.87,3.11-1.25.93-2.57,1.81-3.94,2.65-1.77,1.1-3.62,2.13-5.56,3.08-1.42.7-2.87,1.36-4.36,1.97-1.27.52-2.55,1.02-3.87,1.47-2.32.8-4.68,1.51-7.12,2.12-2.04.51-4.1.96-6.19,1.34-1.38.25-2.78.47-4.18.65-.11.01-.22.07-.37.04.74-.23,1.47-.45,2.19-.67,1.39-.43,2.77-.88,4.13-1.36,1.36-.48,2.72-.96,4.05-1.49,1.81-.72,3.61-1.46,5.36-2.26,2.58-1.17,5.06-2.43,7.42-3.8,1.09-.63,2.14-1.3,3.17-1.98,1.25-.83,2.45-1.7,3.58-2.62,1.31-1.06,2.53-2.16,3.64-3.33,1.13-1.18,2.11-2.43,2.99-3.71.11-.15-7.97.36-7.97.36Z"/>
        </g>
        <path class="cls-1" d="M151.85,16.92c-14.26-1.73-25.74,5.04-25.81,15.21-.03,4.9,3.68,7.92,10.58,8.65,14.77,1.55,25.43-5.65,25.31-16.02-.04-4.23-4.01-7.11-10.08-7.85ZM147.6,33.32c-1.91,1.74-5.07,2.48-7.59,1.72-2.7-.81-2.89-2.51-2.77-4.23.18-2.44.99-4.76,3.36-6.68,1.87-1.51,4.86-2.18,7.22-1.52,2.7.76,2.99,2.43,2.97,4.49-.18,2.07-1.08,4.3-3.19,6.23Z"/>
        <g>
          <path class="cls-1" d="M112.64,40.29c-5.34,0-5.37,0-4.29-3.68,1.77-5.98,3.62-11.94,5.35-17.92.29-.99.84-1.34,2.28-1.3,2.32.07,4.66.09,6.97,0,1.65-.08,1.76.44,1.49,1.31-2.1,6.81-4.21,13.61-6.23,20.44-.28.94-.79,1.17-2.09,1.17-1.15,0-2.27-.01-3.48-.01Z"/>
          <path class="cls-1" d="M120.03,15.32c-5.21,0-5.04.02-4.24-3.58.43-1.97,1.37-2.5,4.41-2.41.09,0,.17,0,.27,0,7.06,0,7.01-.01,5.32,4.77-.35.98-.87,1.34-2.29,1.25-1.15-.08-2.32-.02-3.48-.02Z"/>
        </g>
        <path class="cls-1" d="M99.75,16.98c-4.65-.23-8.52.83-11.98,3.21.15-.48.29-.96.44-1.44.27-.87.17-1.39-1.49-1.31h0c-.3-.02-5.15.05-7.21,0-1.27-.03-1.85.19-2.13,1.16-2,6.83-4.11,13.65-6.23,20.46-.29.95-.07,1.36,1.49,1.31,2.32-.07,4.65-.06,6.97,0,1.4.03,1.99-.24,2.27-1.28.94-3.51,2.07-7.01,3.16-10.5.5-1.63.98-3.29,2.62-4.6,1.69-1.34,3.93-1.75,6.32-1.22,2.44.55,1.91,2.12,1.68,3.34-.08.42-.15.86-.28,1.28-.99,3.39-1.97,6.77-2.98,10.15q-.82,2.81,3.18,2.81c6.58,0,6.69.02,7.96-4.39,1.27-4.42,3.15-8.76,3.63-13.27.4-3.71-2.11-5.45-7.45-5.71Z"/>
        <path class="cls-1" d="M191.96,16.98c-4.65-.23-8.52.83-11.98,3.21.15-.48.29-.96.44-1.44.27-.87.17-1.39-1.49-1.31h0c-.3-.02-5.15.05-7.21,0-1.27-.03-1.85.19-2.13,1.16-2,6.83-4.11,13.65-6.23,20.46-.29.95-.07,1.36,1.49,1.31,2.32-.07,4.65-.06,6.97,0,1.4.03,1.99-.24,2.27-1.28.94-3.51,2.06-7.01,3.16-10.5.5-1.63.98-3.29,2.62-4.6,1.69-1.34,3.93-1.75,6.32-1.22,2.44.55,1.91,2.12,1.68,3.34-.08.42-.15.86-.28,1.28-.99,3.39-1.97,6.77-2.97,10.15q-.82,2.81,3.18,2.81c6.58,0,6.69.02,7.96-4.39,1.27-4.42,3.15-8.76,3.63-13.27.4-3.71-2.11-5.45-7.45-5.71Z"/>
      </g>
      <g>
        <path class="cls-4" d="M11.83,43.38h3.27l3.73,12.41h-4.46l-.68-2.63h-6.97l-2.36,2.63H0l11.83-12.41ZM12.16,46.99l-3.45,3.86h4.38l-.93-3.86Z"/>
        <path class="cls-4" d="M29.27,49.38c-.42-.51-1.13-.77-2.12-.77-.34,0-.69.06-1.05.17-.36.11-.58.31-.67.58-.08.22.03.39.34.5.31.11.71.2,1.18.28.48.08.99.17,1.55.26.56.09,1.06.24,1.5.44.44.2.77.47.99.81.22.34.24.8.06,1.37-.18.59-.52,1.07-1.02,1.45-.5.38-1.07.69-1.72.92-.65.23-1.35.39-2.1.49-.75.09-1.48.14-2.18.14-.92,0-1.82-.09-2.7-.27-.88-.18-1.57-.5-2.07-.96l3.08-1.89c.28.32.63.57,1.03.74.4.17.91.25,1.52.25.47,0,.91-.05,1.32-.14.41-.09.66-.26.74-.51.08-.24-.02-.41-.32-.53-.3-.12-.69-.22-1.18-.3-.49-.08-1.01-.17-1.56-.26-.56-.09-1.06-.23-1.51-.42-.45-.19-.79-.45-1.02-.79-.23-.34-.24-.8-.04-1.37.18-.54.49-1,.93-1.38.45-.39.97-.7,1.57-.95.6-.25,1.25-.43,1.95-.55.7-.12,1.39-.18,2.08-.18.87,0,1.71.09,2.54.26.83.17,1.47.49,1.94.94l-3.03,1.7Z"/>
        <path class="cls-4" d="M41.25,49.38c-.42-.51-1.13-.77-2.12-.77-.34,0-.69.06-1.05.17-.36.11-.58.31-.67.58-.08.22.03.39.34.5.31.11.71.2,1.18.28.48.08.99.17,1.55.26.56.09,1.06.24,1.5.44.44.2.77.47.99.81.22.34.24.8.06,1.37-.18.59-.52,1.07-1.02,1.45-.5.38-1.07.69-1.72.92-.65.23-1.35.39-2.1.49-.75.09-1.48.14-2.18.14-.92,0-1.82-.09-2.7-.27-.88-.18-1.57-.5-2.07-.96l3.08-1.89c.28.32.63.57,1.03.74.4.17.91.25,1.52.25.47,0,.91-.05,1.32-.14.41-.09.66-.26.74-.51.08-.24-.02-.41-.32-.53-.3-.12-.69-.22-1.18-.3-.49-.08-1.01-.17-1.56-.26-.56-.09-1.06-.23-1.51-.42-.45-.19-.79-.45-1.02-.79-.23-.34-.24-.8-.04-1.37.18-.54.49-1,.93-1.38.45-.39.97-.7,1.57-.95.6-.25,1.25-.43,1.95-.55.7-.12,1.39-.18,2.08-.18.87,0,1.71.09,2.54.26.83.17,1.47.49,1.94.94l-3.03,1.7Z"/>
        <path class="cls-4" d="M56.62,54.22c-.83.57-1.79,1.02-2.88,1.33-1.09.31-2.17.47-3.24.47s-1.92-.11-2.74-.34c-.82-.22-1.49-.55-2-.96-.52-.42-.87-.92-1.05-1.51-.19-.59-.16-1.24.07-1.96.23-.72.64-1.38,1.21-1.96.57-.59,1.25-1.09,2.04-1.51s1.67-.74,2.64-.96c.97-.22,1.95-.34,2.96-.34.94,0,1.75.11,2.44.34.69.22,1.24.55,1.64.96.4.42.65.92.74,1.51.1.59.03,1.24-.21,1.96l-.3.88h-9.41c-.01.54.2.96.64,1.28.44.32,1.05.48,1.85.48.67,0,1.26-.1,1.78-.31.52-.21,1.01-.47,1.47-.79l2.36,1.44ZM54.5,50.22c.17-.47.07-.88-.28-1.22-.35-.34-.9-.5-1.64-.5-.45,0-.86.05-1.24.15-.37.1-.7.23-.99.38-.29.16-.54.34-.74.54-.21.21-.36.42-.46.65h5.35Z"/>
        <path class="cls-4" d="M69.86,48.95h-3.57l-1,3.03c-.09.25-.14.48-.17.68-.03.21,0,.38.08.53.08.15.24.26.47.35.23.08.57.12,1,.12.22,0,.5-.02.86-.05.36-.03.64-.1.85-.22l-.76,2.34c-.48.11-.97.19-1.47.22-.5.04-.99.06-1.45.06-.69,0-1.3-.05-1.85-.15-.55-.1-1-.26-1.36-.48-.36-.22-.6-.5-.73-.85-.13-.35-.11-.77.04-1.27l1.44-4.32h-2.6l.74-2.24h2.6l.88-2.69h4.06l-.88,2.69h3.57l-.74,2.24Z"/>
        <path class="cls-4" d="M80.59,43.38h5.98l1.46,8.1h.05l6.83-8.1h5.96l-4.08,12.41h-3.95l3.13-9.52h-.05l-7.84,9.52h-3.02l-1.41-9.52h-.05l-3.13,9.52h-3.95l4.08-12.41Z"/>
        <path class="cls-4" d="M107.52,54.72h-.05c-.56.46-1.23.78-2,.98-.77.2-1.54.3-2.32.3-.57,0-1.11-.06-1.6-.17s-.91-.28-1.24-.5c-.34-.22-.57-.5-.69-.82-.13-.33-.12-.71.02-1.14.24-.74.72-1.31,1.42-1.71.7-.4,1.51-.7,2.42-.89.91-.19,1.85-.31,2.83-.34.98-.03,1.86-.05,2.65-.05.14-.47.02-.84-.37-1.11-.39-.27-.91-.41-1.57-.41s-1.22.09-1.8.27c-.57.18-1.11.43-1.63.75l-1.54-1.44c.85-.46,1.79-.8,2.8-1.03,1.02-.23,2.03-.34,3.05-.34,1.12,0,2,.1,2.66.29.66.19,1.14.48,1.45.85.31.37.46.83.45,1.38,0,.54-.14,1.17-.38,1.88l-1.41,4.33h-3.5l.34-1.07ZM107.45,52.06c-.29,0-.65,0-1.08.03-.43.02-.86.07-1.29.15-.42.08-.8.2-1.14.37-.33.16-.54.39-.63.68-.05.16-.05.3.02.41.07.11.18.21.32.29.14.08.32.14.52.18.21.04.41.05.61.05.37,0,.74-.04,1.12-.11.37-.07.71-.17,1.03-.3.31-.13.58-.29.81-.49.23-.2.38-.43.47-.7l.17-.56h-.94Z"/>
        <path class="cls-4" d="M115.35,47.27h3.65l-.37,1.16h.05c.17-.16.4-.33.67-.49.27-.16.58-.31.92-.44.34-.13.71-.23,1.13-.32.42-.08.85-.12,1.31-.12.96,0,1.71.1,2.24.31.53.2.9.49,1.11.85.21.36.29.79.24,1.28-.05.49-.16,1.02-.35,1.6l-1.53,4.7h-3.8l1.36-4.17c.08-.25.16-.5.22-.76.07-.26.07-.51.02-.73-.06-.22-.19-.4-.41-.54-.22-.14-.57-.21-1.06-.21s-.91.06-1.25.18c-.34.12-.63.29-.86.49s-.41.44-.54.69c-.13.26-.24.53-.33.81l-1.4,4.24h-3.8l2.8-8.52Z"/>
        <path class="cls-4" d="M134.66,54.72h-.05c-.56.46-1.23.78-2,.98s-1.54.3-2.32.3c-.57,0-1.11-.06-1.6-.17s-.91-.28-1.24-.5c-.34-.22-.57-.5-.69-.82-.13-.33-.12-.71.02-1.14.24-.74.72-1.31,1.42-1.71.7-.4,1.51-.7,2.42-.89.91-.19,1.85-.31,2.83-.34.98-.03,1.86-.05,2.65-.05.14-.47.02-.84-.37-1.11-.39-.27-.91-.41-1.57-.41s-1.22.09-1.8.27c-.57.18-1.11.43-1.63.75l-1.54-1.44c.85-.46,1.79-.8,2.8-1.03,1.02-.23,2.03-.34,3.05-.34,1.12,0,2,.1,2.66.29.66.19,1.14.48,1.45.85s.46.83.45,1.38c0,.54-.14,1.17-.38,1.88l-1.41,4.33h-3.5l.34-1.07ZM134.59,52.06c-.29,0-.65,0-1.08.03s-.86.07-1.29.15c-.42.08-.8.2-1.14.37-.33.16-.54.39-.63.68-.06.16-.05.3.02.41.07.11.18.21.32.29.14.08.32.14.52.18.21.04.41.05.61.05.37,0,.74-.04,1.12-.11.37-.07.71-.17,1.03-.3.31-.13.58-.29.81-.49.23-.2.38-.43.47-.7l.17-.56h-.94Z"/>
        <path class="cls-4" d="M152.83,55.07c-.52,1.61-1.51,2.84-2.96,3.67-1.45.84-3.37,1.25-5.77,1.25-1.1,0-2.15-.08-3.16-.25-1.01-.17-1.88-.5-2.61-.99l2.81-2.17c.48.34,1.01.61,1.6.81.58.2,1.26.3,2.04.3,1.17,0,2.09-.2,2.76-.59.67-.39,1.12-.89,1.33-1.5l.28-.82h-.05c-.58.41-1.22.7-1.92.87-.71.17-1.35.25-1.92.25-.91,0-1.71-.11-2.38-.32-.67-.22-1.21-.52-1.62-.91-.41-.39-.66-.86-.77-1.39-.11-.54-.06-1.13.16-1.77.19-.56.5-1.11.93-1.65.43-.54.96-1.01,1.57-1.42.62-.41,1.31-.74,2.09-.99.77-.25,1.6-.38,2.48-.38.54,0,1.03.04,1.45.12.43.08.8.19,1.11.32.31.13.57.27.77.43.2.16.35.31.45.46h.05l.37-1.12h3.5l-2.58,7.8ZM144.44,51.48c-.09.28-.09.55-.02.8.07.25.21.47.41.67.2.19.47.35.8.46.33.12.72.18,1.16.18s.84-.06,1.25-.18c.41-.12.79-.27,1.12-.46.34-.19.63-.41.87-.67.24-.25.41-.52.49-.8s.09-.55.02-.8c-.07-.25-.21-.47-.41-.67-.2-.19-.48-.35-.82-.46-.34-.12-.72-.18-1.14-.18s-.86.06-1.26.18c-.4.12-.77.27-1.11.46-.34.19-.63.41-.87.67-.24.25-.41.52-.49.8Z"/>
        <path class="cls-4" d="M167.27,54.32c-.78.54-1.68.95-2.7,1.24-1.03.29-2.04.44-3.03.44s-1.8-.11-2.57-.32c-.77-.21-1.39-.51-1.87-.9-.48-.39-.81-.86-.99-1.41-.18-.55-.15-1.16.07-1.84.22-.68.6-1.29,1.13-1.84.53-.55,1.17-1.02,1.91-1.41.74-.39,1.57-.69,2.47-.9.91-.21,1.83-.32,2.78-.32.88,0,1.64.11,2.29.32.65.21,1.16.51,1.53.9.37.39.6.86.7,1.41.09.55.03,1.16-.19,1.84l-.28.82h-8.82c-.01.5.19.9.6,1.2.41.3.99.45,1.73.45.63,0,1.18-.1,1.67-.29.49-.19.95-.44,1.37-.75l2.21,1.35ZM165.29,50.57c.16-.44.07-.82-.26-1.14-.33-.32-.84-.47-1.54-.47-.42,0-.81.05-1.16.14-.35.09-.66.21-.93.36-.27.15-.5.32-.7.51-.19.19-.34.39-.43.61h5.02Z"/>
        <path class="cls-4" d="M171.99,47.27h3.65l-.37,1.16h.05c.17-.16.4-.33.67-.49.27-.16.58-.31.92-.44.34-.13.71-.23,1.13-.32.42-.08.85-.12,1.31-.12.86,0,1.59.12,2.18.37.59.25.97.63,1.12,1.16.63-.55,1.29-.94,1.99-1.17.7-.23,1.5-.35,2.41-.35.83,0,1.49.1,1.99.29.5.19.86.46,1.09.79.23.33.34.72.33,1.17,0,.45-.09.93-.26,1.45l-1.65,5.03h-3.8l1.61-4.96c.13-.4.13-.74-.02-1.03-.15-.29-.54-.43-1.16-.43-.44,0-.82.05-1.15.15-.33.1-.61.24-.85.41-.24.18-.44.38-.58.61-.15.23-.26.48-.35.74l-1.48,4.51h-3.8l1.48-4.51c.05-.15.11-.34.16-.56s.06-.43.03-.63c-.03-.2-.14-.37-.33-.51s-.5-.21-.94-.21c-.49,0-.91.06-1.25.18-.34.12-.63.29-.86.49s-.41.44-.54.69c-.13.26-.24.53-.33.81l-1.4,4.24h-3.8l2.8-8.52Z"/>
        <path class="cls-4" d="M202.86,54.32c-.78.54-1.68.95-2.7,1.24-1.03.29-2.04.44-3.03.44s-1.8-.11-2.57-.32c-.77-.21-1.39-.51-1.88-.9-.48-.39-.81-.86-.99-1.41-.18-.55-.15-1.16.07-1.84.22-.68.6-1.29,1.13-1.84.53-.55,1.17-1.02,1.91-1.41.74-.39,1.57-.69,2.47-.9.9-.21,1.83-.32,2.78-.32.88,0,1.64.11,2.29.32.65.21,1.16.51,1.53.9.37.39.6.86.7,1.41.09.55.03,1.16-.19,1.84l-.28.82h-8.82c-.01.5.19.9.6,1.2.41.3.99.45,1.73.45.63,0,1.18-.1,1.67-.29.49-.19.95-.44,1.37-.75l2.21,1.35ZM200.87,50.57c.16-.44.07-.82-.26-1.14-.33-.32-.84-.47-1.54-.47-.42,0-.81.05-1.16.14-.35.09-.66.21-.93.36-.27.15-.5.32-.7.51-.19.19-.34.39-.43.61h5.02Z"/>
        <path class="cls-4" d="M207.57,47.27h3.65l-.37,1.16h.05c.17-.16.4-.33.67-.49.27-.16.58-.31.92-.44.34-.13.71-.23,1.13-.32.42-.08.85-.12,1.31-.12.96,0,1.71.1,2.24.31.53.2.9.49,1.11.85.21.36.29.79.24,1.28-.05.49-.16,1.02-.35,1.6l-1.53,4.7h-3.8l1.36-4.17c.08-.25.16-.5.22-.76.07-.26.07-.51.02-.73-.06-.22-.19-.4-.41-.54-.22-.14-.57-.21-1.06-.21s-.91.06-1.25.18c-.34.12-.63.29-.86.49s-.41.44-.54.69c-.13.26-.24.53-.33.81l-1.4,4.24h-3.8l2.8-8.52Z"/>
        <path class="cls-4" d="M229.3,49.38h-3.35l-.94,2.84c-.08.23-.13.45-.16.64-.02.19,0,.36.08.5s.22.25.44.32c.22.08.53.11.94.11.2,0,.47-.01.8-.04.33-.03.6-.1.8-.2l-.71,2.19c-.45.11-.91.18-1.38.21-.47.04-.92.05-1.36.05-.64,0-1.22-.05-1.73-.14-.51-.09-.94-.24-1.27-.45-.34-.2-.57-.47-.68-.8-.12-.33-.11-.72.04-1.19l1.35-4.05h-2.43l.7-2.1h2.43l.83-2.52h3.8l-.83,2.52h3.35l-.7,2.1Z"/>
      </g>
    </g>
  </g>
</svg>