<?xml version="1.0" encoding="utf-8"?>
<!-- Generator: Adobe Illustrator 26.2.1, SVG Export Plug-In . SVG Version: 6.00 Build 0)  -->
<svg version="1.1" id="Layer_1" xmlns="http://www.w3.org/2000/svg" xmlns:xlink="http://www.w3.org/1999/xlink" x="0px" y="0px"
	 viewBox="0 0 64 64" style="enable-background:new 0 0 64 64;" xml:space="preserve">
<style type="text/css">
	.st0{fill-rule:evenodd;clip-rule:evenodd;fill:#034EA2;}
	.st1{fill-rule:evenodd;clip-rule:evenodd;fill:#F58220;}
	.st2{fill-rule:evenodd;clip-rule:evenodd;fill:#FFFFFF;}
	.st3{fill-rule:evenodd;clip-rule:evenodd;fill:none;stroke:#2E3192;stroke-width:2.494943e-02;stroke-miterlimit:2.6131;}
	.st4{fill:#2E3192;}
	.st5{fill:#034EA2;}
	.st6{font-family:'ErasITC-Bold';}
	.st7{font-size:2.8312px;}
	.st8{fill-rule:evenodd;clip-rule:evenodd;fill:none;stroke:#2E3192;stroke-width:4.740214e-02;stroke-miterlimit:2.6131;}
</style>
<g>
	<rect x="23.8" y="22" class="st0" width="30.9" height="16.7"/>
	<rect x="6.6" y="22" class="st1" width="17.3" height="16.7"/>
	<path class="st2" d="M46.8,26.6L47,24h4l-0.1,2.6H46.8L46.8,26.6z M50.9,27.4c-0.1,1.4-0.2,2.8-0.3,4.3c-0.1,1.5-0.1,3-0.1,4.7
		h-4.2c0.1-1.4,0.2-2.8,0.3-4.3c0.1-1.5,0.1-3,0.1-4.7H50.9L50.9,27.4z M38.4,30.4l0.2-3H40l0.1-1.7l3.8-0.8l-0.1,2.5h1.7l-0.2,3
		h-1.6l-0.1,1.7v0.2c0,0.3,0.1,0.6,0.2,0.7c0.1,0.1,0.3,0.2,0.5,0.2c0.1,0,0.3,0,0.5,0c0.2,0,0.4-0.1,0.6-0.1l-0.5,3.2
		c-0.4,0.1-0.7,0.2-1.1,0.3c-0.4,0.1-0.7,0.1-1.1,0.1c-1.1,0-1.9-0.2-2.5-0.7c-0.5-0.4-0.8-1.1-0.8-2v-0.2v-0.2l0.2-3.1H38.4
		L38.4,30.4z M37.5,27.4c-0.1,1.4-0.3,2.8-0.3,4.2c-0.1,1.5-0.1,3-0.1,4.7H33v-0.9c-0.4,0.4-0.9,0.7-1.3,0.9c-0.5,0.2-1,0.3-1.7,0.3
		c-1.1,0-1.9-0.2-2.3-0.7c-0.5-0.5-0.7-1.2-0.7-2.3c0-0.3,0-1.1,0.1-2.5c0.1-1.4,0.1-2.6,0.1-3.6h4.1c-0.1,1-0.1,1.8-0.2,2.5
		c0,0.7,0,1.3,0,1.9c0,0.5,0.1,0.8,0.2,1.1c0.1,0.2,0.3,0.3,0.6,0.3c0.5,0,0.8-0.3,1-1c0.2-0.6,0.3-2.2,0.3-4.7H37.5z"/>
	<path class="st0" d="M16,29.4c2.2-2.4-0.2-3.4-0.6-4.8c-0.3,1.3-2.8,2.3-0.6,4.8H16L16,29.4z M13.4,27.2c0,0.7,0.1,1.5,0.6,2.2
		h-0.4l-2.8-3.3C11.6,25.9,12.4,26.3,13.4,27.2L13.4,27.2z M17.4,27.2c0.9-0.9,1.8-1.2,2.6-1l-2.8,3.3h-0.4
		C17.2,28.7,17.4,27.9,17.4,27.2L17.4,27.2z M13,29.5c-1.1-0.4-2.2-0.8-3.3-1c0.5-0.4,1.1-0.6,2.1-0.5C12.1,28.5,12.5,29,13,29.5
		L13,29.5z M17.8,29.5c0.4-0.5,0.8-1,1.2-1.5c1-0.1,1.7,0.1,2.1,0.5C20,28.8,18.9,29.1,17.8,29.5L17.8,29.5z M12.3,29.7
		c-0.6-0.1-1.1-0.3-1.5-0.5c-0.6,0.3-1,0.8-1.3,1.4C10.5,30.3,11.4,29.9,12.3,29.7L12.3,29.7z M18.4,29.7c0.9,0.2,1.9,0.5,2.8,0.9
		c-0.3-0.6-0.7-1.1-1.3-1.4C19.5,29.5,19,29.6,18.4,29.7L18.4,29.7z M12.7,29.9H18l0.3,0.6h-6L12.7,29.9L12.7,29.9z M13.7,30.8H17
		v0.4l2.7,1.5h-8.7l2.8-1.4V30.8L13.7,30.8z M11.1,34.7h8.5L18.4,36c-0.3,0-0.6,0-0.8,0c-0.3-0.1-0.7-0.1-1,0
		c-0.2,0.1-0.5,0.1-0.7,0c-0.3-0.1-0.5-0.1-0.8,0c-0.2,0.1-0.5,0.1-0.7,0c-0.3-0.2-0.6-0.2-0.9,0h-1.2L11.1,34.7L11.1,34.7z
		 M12.8,36.4l0.5,0.6h4.1l0.6-0.6c-0.2,0-0.3,0-0.5,0c-0.3-0.2-0.6-0.2-0.8,0c-0.3,0.1-0.6,0.1-0.9,0c-0.3-0.1-0.7-0.1-1,0
		c-0.2,0.1-0.4,0.1-0.6,0c-0.2-0.1-0.5-0.2-0.8,0L12.8,36.4L12.8,36.4z M10.9,33.2h0.4l0.6,0.6l-0.5,0.5h-0.5L10.9,33.2L10.9,33.2z
		 M19.7,33.2h-0.4l-0.6,0.6l0.5,0.5h0.5L19.7,33.2L19.7,33.2z M11.5,33.1l0.5,0.5l0.4-0.5L11.5,33.1L11.5,33.1z M13.3,33.1l0.5,0.5
		l0.4-0.5L13.3,33.1L13.3,33.1z M14.8,33.1l0.5,0.5l0.4-0.5L14.8,33.1L14.8,33.1z M16.4,33.1l0.5,0.5l0.4-0.5L16.4,33.1L16.4,33.1z
		 M18.1,33.1l0.9,0l-0.4,0.5L18.1,33.1L18.1,33.1z M18.1,34.3l0.4-0.4l0.4,0.4L18.1,34.3L18.1,34.3z M16.5,34.3l0.4-0.4l0.4,0.4
		L16.5,34.3L16.5,34.3z M15,34.3l0.4-0.4l0.4,0.4L15,34.3L15,34.3z M13.4,34.3l0.4-0.4l0.4,0.4L13.4,34.3L13.4,34.3z M11.6,34.3
		l0.7,0L12,33.9L11.6,34.3L11.6,34.3z M12.2,33.8l0.5-0.6l0.2,0l0.6,0.6L13,34.3l-0.2,0L12.2,33.8L12.2,33.8z M13.9,33.8l0.5-0.6
		l0.2,0l0.6,0.6l-0.6,0.6l-0.2,0L13.9,33.8L13.9,33.8z M15.4,33.8l0.5-0.6l0.2,0l0.6,0.6l-0.6,0.6l-0.2,0L15.4,33.8L15.4,33.8z
		 M17.1,33.8l0.5-0.6l0.2,0l0.6,0.6l-0.6,0.6l-0.2,0L17.1,33.8z"/>
	<g>
		<path class="st3" d="M56.3,22c0.6,0,1.2,0.5,1.2,1.2c0,0.6-0.5,1.2-1.2,1.2c-0.6,0-1.2-0.5-1.2-1.2C55.1,22.5,55.6,22,56.3,22z"/>
		<path class="st4" d="M55.8,23.8v-1.4h0.6c0.1,0,0.2,0,0.3,0c0.1,0,0.1,0.1,0.2,0.1c0,0.1,0.1,0.1,0.1,0.2c0,0.1,0,0.2-0.1,0.3
			c-0.1,0.1-0.2,0.1-0.3,0.1c0,0,0.1,0,0.1,0.1c0.1,0,0.1,0.1,0.2,0.2l0.2,0.4h-0.2l-0.2-0.3c-0.1-0.1-0.1-0.1-0.1-0.2
			c0,0-0.1-0.1-0.1-0.1c0,0-0.1,0-0.1,0c0,0-0.1,0-0.1,0h-0.2v0.6H55.8L55.8,23.8z M55.9,23.1h0.4c0.1,0,0.2,0,0.2,0
			c0,0,0.1,0,0.1-0.1c0,0,0-0.1,0-0.1c0-0.1,0-0.1-0.1-0.2c0,0-0.1-0.1-0.2-0.1h-0.4V23.1z"/>
	</g>
	<text transform="matrix(1 0 0 1 6.668 41.2925)" class="st5 st6 st7">asset management company</text>
</g>
</svg>
